M48
; DRILL file {KiCad 7.0.1-3b83917a11~172~ubuntu22.04.1} date Fri Mar 17 22:06:33 2023
; FORMAT={-:-/ absolute / metric / decimal}
; #@! TF.CreationDate,2023-03-17T22:06:33-04:00
; #@! TF.GenerationSoftware,Kicad,Pcbnew,7.0.1-3b83917a11~172~ubuntu22.04.1
; #@! TF.FileFunction,MixedPlating,1,2
FMAT,2
METRIC
; #@! TA.AperFunction,Plated,PTH,ComponentDrill
T1C0.600
; #@! TA.AperFunction,Plated,PTH,ComponentDrill
T2C3.200
; #@! TA.AperFunction,NonPlated,NPTH,ComponentDrill
T3C2.500
; #@! TA.AperFunction,NonPlated,NPTH,ComponentDrill
T4C5.000
%
G90
G05
T1
X6.4Y50.0
X6.4Y25.0
X8.2Y54.3
X8.2Y45.7
X8.2Y29.3
X8.2Y20.7
X12.5Y56.1
X12.5Y43.9
X12.5Y31.1
X12.5Y18.9
X16.7Y45.6
X16.7Y20.6
X16.8Y54.3
X16.8Y29.3
X18.6Y50.0
X18.6Y25.0
X20.3Y160.0
X20.3Y115.0
X20.3Y80.0
X21.7Y163.3
X21.7Y156.7
X21.7Y118.3
X21.7Y111.7
X21.7Y83.3
X21.7Y76.7
X25.0Y164.7
X25.0Y155.3
X25.0Y119.7
X25.0Y110.3
X25.0Y84.7
X25.0Y75.3
X28.2Y156.6
X28.2Y111.6
X28.2Y76.6
X28.3Y163.3
X28.3Y118.3
X28.3Y83.3
X29.7Y160.0
X29.7Y115.0
X29.7Y80.0
X31.4Y50.0
X33.0Y25.0
X33.2Y54.3
X33.2Y45.7
X34.3Y28.2
X34.3Y21.8
X37.5Y56.1
X37.5Y43.9
X37.5Y29.5
X37.5Y20.5
X40.6Y21.7
X40.7Y28.2
X41.7Y45.6
X41.8Y54.3
X42.0Y25.0
X43.6Y50.0
X45.5Y80.0
X46.8Y83.2
X46.8Y76.8
X50.0Y84.5
X50.0Y75.5
X53.1Y76.7
X53.2Y83.2
X54.5Y80.0
X56.4Y50.0
X58.0Y25.0
X58.2Y54.3
X58.2Y45.7
X59.3Y28.2
X59.3Y21.8
X62.5Y56.1
X62.5Y43.9
X62.5Y29.5
X62.5Y20.5
X65.6Y21.7
X65.7Y28.2
X66.7Y45.6
X66.8Y54.3
X67.0Y25.0
X68.6Y50.0
X70.3Y160.0
X70.3Y115.0
X71.7Y163.3
X71.7Y156.7
X71.7Y118.3
X71.7Y111.7
X75.0Y164.7
X75.0Y155.3
X75.0Y119.7
X75.0Y110.3
X78.2Y156.6
X78.2Y111.6
X78.3Y163.3
X78.3Y118.3
X79.7Y160.0
X79.7Y115.0
X81.4Y50.0
X81.4Y25.0
X83.2Y54.3
X83.2Y45.7
X83.2Y29.3
X83.2Y20.7
X87.5Y56.1
X87.5Y43.9
X87.5Y31.1
X87.5Y18.9
X91.7Y45.6
X91.7Y20.6
X91.8Y54.3
X91.8Y29.3
X93.6Y50.0
X93.6Y25.0
T3
X90.0Y115.0
T4
X40.0Y130.0
T2
X3.0Y197.0G85X5.8Y197.0
G05
X3.0Y3.0G85X5.8Y3.0
G05
X97.0Y197.0G85X94.2Y197.0
G05
X97.0Y3.0G85X94.2Y3.0
G05
T0
M30
