G04 #@! TF.GenerationSoftware,KiCad,Pcbnew,7.0.2-6a45011f42~172~ubuntu22.04.1*
G04 #@! TF.CreationDate,2023-05-18T09:52:10-04:00*
G04 #@! TF.ProjectId,springReverbRev2_panel,73707269-6e67-4526-9576-657262526576,rev?*
G04 #@! TF.SameCoordinates,Original*
G04 #@! TF.FileFunction,Copper,L1,Top*
G04 #@! TF.FilePolarity,Positive*
%FSLAX46Y46*%
G04 Gerber Fmt 4.6, Leading zero omitted, Abs format (unit mm)*
G04 Created by KiCad (PCBNEW 7.0.2-6a45011f42~172~ubuntu22.04.1) date 2023-05-18 09:52:10*
%MOMM*%
%LPD*%
G01*
G04 APERTURE LIST*
G04 Aperture macros list*
%AMFreePoly0*
4,1,137,5.198598,5.455452,5.658736,5.376554,6.110525,5.258917,6.550711,5.103390,6.976121,4.911092,7.383690,4.683410,7.770482,4.421984,8.133711,4.128698,8.470759,3.805664,8.779197,3.455210,9.056803,3.079861,9.301578,2.682322,9.511757,2.265457,9.685826,1.832269,9.822531,1.385879,9.920888,0.929505,9.980186,0.466433,10.000000,0.000000,9.980186,-0.466433,9.920888,-0.929505,
9.822531,-1.385879,9.685826,-1.832269,9.511757,-2.265457,9.301578,-2.682322,9.056803,-3.079861,8.779197,-3.455210,8.470759,-3.805664,8.133711,-4.128698,7.770482,-4.421984,7.383690,-4.683410,6.976121,-4.911092,6.550711,-5.103390,6.110525,-5.258917,5.658736,-5.376554,5.198598,-5.455452,4.733427,-5.495044,4.266573,-5.495044,3.801402,-5.455452,3.341264,-5.376554,2.889475,-5.258917,
2.449289,-5.103390,2.023879,-4.911092,1.616310,-4.683410,1.229518,-4.421984,0.866289,-4.128698,0.529241,-3.805664,0.220803,-3.455210,-0.056803,-3.079861,-0.301578,-2.682322,-0.511757,-2.265457,-0.685826,-1.832269,-0.822531,-1.385879,-0.920888,-0.929505,-0.980186,-0.466433,-1.000000,0.000000,0.995197,0.000000,1.014397,-0.366352,1.071785,-0.728690,1.166734,-1.083044,1.298203,-1.425532,
1.464752,-1.752402,1.664555,-2.060072,1.895424,-2.345171,2.154829,-2.604576,2.439928,-2.835445,2.747598,-3.035248,3.074468,-3.201797,3.416956,-3.333266,3.771310,-3.428215,4.133648,-3.485603,4.500000,-3.504803,4.866352,-3.485603,5.228690,-3.428215,5.583044,-3.333266,5.925532,-3.201797,6.252402,-3.035248,6.560072,-2.835445,6.845171,-2.604576,7.104576,-2.345171,7.335445,-2.060072,
7.535248,-1.752402,7.701797,-1.425532,7.833266,-1.083044,7.928215,-0.728690,7.985603,-0.366352,8.004803,0.000000,7.985603,0.366352,7.928215,0.728690,7.833266,1.083044,7.701797,1.425532,7.535248,1.752401,7.335445,2.060072,7.104576,2.345171,6.845171,2.604576,6.560072,2.835445,6.252402,3.035248,5.925532,3.201797,5.583044,3.333266,5.228690,3.428215,4.866352,3.485603,
4.500000,3.504803,4.133648,3.485603,3.771310,3.428215,3.416956,3.333266,3.074468,3.201797,2.747599,3.035248,2.439928,2.835445,2.154829,2.604576,1.895424,2.345171,1.664555,2.060072,1.464752,1.752401,1.298203,1.425532,1.166734,1.083044,1.071785,0.728690,1.014397,0.366352,0.995197,0.000000,-1.000000,0.000000,-0.980186,0.466433,-0.920888,0.929505,-0.822531,1.385879,
-0.685826,1.832269,-0.511757,2.265457,-0.301578,2.682322,-0.056803,3.079861,0.220803,3.455210,0.529241,3.805664,0.866289,4.128698,1.229518,4.421984,1.616310,4.683410,2.023879,4.911092,2.449289,5.103390,2.889475,5.258917,3.341264,5.376554,3.801402,5.455452,4.266573,5.495044,4.733427,5.495044,5.198598,5.455452,5.198598,5.455452,$1*%
%AMFreePoly1*
4,1,139,5.398598,5.455452,5.858736,5.376554,6.310525,5.258917,6.750711,5.103390,7.176121,4.911092,7.583690,4.683410,7.970482,4.421984,8.333711,4.128698,8.670759,3.805664,8.979197,3.455210,9.256803,3.079861,9.501578,2.682322,9.711757,2.265457,9.885826,1.832269,10.022531,1.385879,10.120888,0.929505,10.180186,0.466433,10.200000,0.000000,10.180186,-0.466433,10.120888,-0.929505,
10.022531,-1.385879,9.885826,-1.832269,9.711757,-2.265457,9.501578,-2.682322,9.256803,-3.079861,8.979197,-3.455210,8.670759,-3.805664,8.333711,-4.128698,7.970482,-4.421984,7.583690,-4.683410,7.176121,-4.911092,6.750711,-5.103390,6.310525,-5.258917,5.858736,-5.376554,5.398598,-5.455452,4.933427,-5.495044,4.466573,-5.495044,4.001402,-5.455452,3.541264,-5.376554,3.089475,-5.258917,
2.649289,-5.103390,2.223879,-4.911092,1.816310,-4.683410,1.429518,-4.421984,1.066289,-4.128698,0.729241,-3.805664,0.420803,-3.455210,0.143197,-3.079861,-0.101578,-2.682322,-0.311757,-2.265457,-0.485826,-1.832269,-0.622531,-1.385879,-0.720888,-0.929505,-0.780186,-0.466433,-0.800000,0.000000,0.794988,0.000000,0.815023,-0.395064,0.874924,-0.786073,0.974075,-1.169017,1.111459,-1.539964,
1.285666,-1.895110,1.494909,-2.230809,1.737040,-2.543617,2.009576,-2.830325,2.309719,-3.087989,2.634389,-3.313966,2.980256,-3.505938,3.343769,-3.661933,3.721199,-3.780353,4.108673,-3.859981,4.502214,-3.900000,4.897786,-3.900000,5.291327,-3.859981,5.678801,-3.780353,6.056231,-3.661933,6.419744,-3.505938,6.765611,-3.313966,7.090281,-3.087989,7.390424,-2.830325,7.662960,-2.543617,
7.905091,-2.230809,8.114334,-1.895110,8.288541,-1.539964,8.425925,-1.169017,8.525076,-0.786073,8.584977,-0.395064,8.605012,0.000000,8.584977,0.395064,8.525076,0.786073,8.425925,1.169017,8.288541,1.539964,8.114334,1.895110,7.905091,2.230809,7.662960,2.543617,7.390424,2.830325,7.090281,3.087989,6.765611,3.313966,6.419744,3.505938,6.056231,3.661933,5.678801,3.780353,
5.291327,3.859981,4.897786,3.900000,4.502214,3.900000,4.108673,3.859981,3.721199,3.780353,3.343769,3.661933,2.980256,3.505938,2.634389,3.313966,2.309719,3.087989,2.009576,2.830325,1.737040,2.543617,1.494909,2.230809,1.285666,1.895110,1.111459,1.539964,0.974075,1.169017,0.874924,0.786073,0.815023,0.395064,0.794988,0.000000,-0.800000,0.000000,-0.780186,0.466433,
-0.720888,0.929505,-0.622531,1.385879,-0.485826,1.832269,-0.311757,2.265457,-0.101578,2.682322,0.143197,3.079861,0.420803,3.455210,0.729241,3.805664,1.066289,4.128698,1.429518,4.421984,1.816310,4.683410,2.223879,4.911092,2.649289,5.103390,3.089475,5.258917,3.541264,5.376554,4.001402,5.455452,4.466573,5.495044,4.933427,5.495044,5.398598,5.455452,5.398598,5.455452,
$1*%
%AMFreePoly2*
4,1,159,6.626847,7.030287,7.150748,6.971257,7.668773,6.873242,8.178024,6.736788,8.675654,6.562660,9.158880,6.351831,9.625000,6.105479,10.071406,5.824983,10.495603,5.511912,10.895218,5.168016,11.268016,4.795218,11.611912,4.395603,11.924983,3.971406,12.205479,3.525000,12.451831,3.058880,12.662660,2.575654,12.836788,2.078024,12.973242,1.568773,13.071257,1.050748,13.130287,0.526847,
13.150000,0.000000,13.130287,-0.526847,13.071257,-1.050748,12.973242,-1.568773,12.836788,-2.078024,12.662660,-2.575654,12.451831,-3.058880,12.205479,-3.525000,11.924983,-3.971406,11.611912,-4.395603,11.268016,-4.795218,10.895218,-5.168016,10.495603,-5.511912,10.071406,-5.824983,9.625000,-6.105479,9.158880,-6.351831,8.675654,-6.562660,8.178024,-6.736788,7.668773,-6.873242,7.150748,-6.971257,
6.626847,-7.030287,6.100000,-7.050000,5.573153,-7.030287,5.049252,-6.971257,4.531227,-6.873242,4.021976,-6.736788,3.524346,-6.562660,3.041120,-6.351831,2.575000,-6.105479,2.128594,-5.824983,1.704397,-5.511912,1.304782,-5.168016,0.931984,-4.795218,0.588088,-4.395603,0.275017,-3.971406,-0.005479,-3.525000,-0.251831,-3.058880,-0.462660,-2.575654,-0.636788,-2.078024,-0.773242,-1.568773,
-0.871257,-1.050748,-0.930287,-0.526847,-0.950000,0.000000,0.945094,0.000000,0.964710,-0.449280,1.023409,-0.895140,1.120743,-1.334188,1.255973,-1.763082,1.428069,-2.178557,1.635720,-2.577453,1.877348,-2.956733,2.151113,-3.313510,2.454931,-3.645069,2.786490,-3.948887,3.143267,-4.222652,3.522547,-4.464280,3.921443,-4.671931,4.336918,-4.844027,4.765812,-4.979257,5.204860,-5.076591,
5.650720,-5.135290,6.100000,-5.154906,6.549280,-5.135290,6.995140,-5.076591,7.434188,-4.979257,7.863082,-4.844027,8.278557,-4.671931,8.677453,-4.464280,9.056733,-4.222652,9.413510,-3.948887,9.745069,-3.645069,10.048887,-3.313510,10.322652,-2.956733,10.564280,-2.577453,10.771931,-2.178557,10.944027,-1.763082,11.079257,-1.334188,11.176591,-0.895140,11.235290,-0.449280,11.254906,0.000000,
11.235290,0.449280,11.176591,0.895140,11.079257,1.334188,10.944027,1.763082,10.771931,2.178557,10.564280,2.577453,10.322652,2.956733,10.048887,3.313510,9.745069,3.645069,9.413510,3.948887,9.056733,4.222652,8.677453,4.464280,8.278557,4.671931,7.863082,4.844027,7.434188,4.979257,6.995140,5.076591,6.549280,5.135290,6.100000,5.154906,5.650720,5.135290,5.204860,5.076591,
4.765812,4.979257,4.336918,4.844027,3.921443,4.671931,3.522547,4.464280,3.143267,4.222652,2.786490,3.948887,2.454931,3.645069,2.151113,3.313510,1.877348,2.956733,1.635720,2.577453,1.428069,2.178557,1.255973,1.763082,1.120743,1.334188,1.023409,0.895140,0.964710,0.449280,0.945094,0.000000,-0.950000,0.000000,-0.930287,0.526847,-0.871257,1.050748,-0.773242,1.568773,
-0.636788,2.078024,-0.462660,2.575654,-0.251831,3.058880,-0.005479,3.525000,0.275017,3.971406,0.588088,4.395603,0.931984,4.795218,1.304782,5.168016,1.704397,5.511912,2.128594,5.824983,2.575000,6.105479,3.041120,6.351831,3.524346,6.562660,4.021976,6.736788,4.531227,6.873242,5.049252,6.971257,5.573153,7.030287,6.100000,7.050000,6.626847,7.030287,6.626847,7.030287,
$1*%
G04 Aperture macros list end*
G04 #@! TA.AperFunction,ComponentPad*
%ADD10O,6.800000X4.000000*%
G04 #@! TD*
G04 #@! TA.AperFunction,SMDPad,CuDef*
%ADD11FreePoly0,0.000000*%
G04 #@! TD*
G04 #@! TA.AperFunction,ComponentPad*
%ADD12C,0.800000*%
G04 #@! TD*
G04 #@! TA.AperFunction,SMDPad,CuDef*
%ADD13FreePoly1,0.000000*%
G04 #@! TD*
G04 #@! TA.AperFunction,SMDPad,CuDef*
%ADD14FreePoly2,0.000000*%
G04 #@! TD*
G04 APERTURE END LIST*
D10*
G04 #@! TO.P,H14,1*
G04 #@! TO.N,GND*
X95600000Y3000000D03*
X95600000Y197000000D03*
G04 #@! TD*
D11*
G04 #@! TO.P,H9,1*
G04 #@! TO.N,GND*
X45500000Y80000000D03*
D12*
X45500000Y80000000D03*
X46800000Y83200000D03*
X46800000Y76800000D03*
X50000000Y84500000D03*
X50000000Y75500000D03*
X53100000Y76700000D03*
X53200000Y83200000D03*
X54500000Y80000000D03*
G04 #@! TD*
D13*
G04 #@! TO.P,H10,1*
G04 #@! TO.N,GND*
X70300000Y160000000D03*
D12*
X70300000Y160000000D03*
X71700000Y163300000D03*
X71700000Y156700000D03*
X75000000Y164700000D03*
X75000000Y155300000D03*
X78200000Y156600000D03*
X78300000Y163300000D03*
X79700000Y160000000D03*
G04 #@! TD*
D14*
G04 #@! TO.P,H1,1*
G04 #@! TO.N,GND*
X6400000Y50000000D03*
D12*
X6400000Y50000000D03*
X8200000Y54300000D03*
X8200000Y45700000D03*
X12500000Y56100000D03*
X12500000Y43900000D03*
X16700000Y45600000D03*
X16800000Y54300000D03*
X18600000Y50000000D03*
G04 #@! TD*
D10*
G04 #@! TO.P,H11,1*
G04 #@! TO.N,GND*
X4400000Y197000000D03*
X4400000Y3000000D03*
G04 #@! TD*
D14*
G04 #@! TO.P,H2,1*
G04 #@! TO.N,GND*
X6400000Y25000000D03*
D12*
X6400000Y25000000D03*
X8200000Y29300000D03*
X8200000Y20700000D03*
X12500000Y31100000D03*
X12500000Y18900000D03*
X16700000Y20600000D03*
X16800000Y29300000D03*
X18600000Y25000000D03*
G04 #@! TD*
D14*
G04 #@! TO.P,H3,1*
G04 #@! TO.N,GND*
X31400000Y50000000D03*
D12*
X31400000Y50000000D03*
X33200000Y54300000D03*
X33200000Y45700000D03*
X37500000Y56100000D03*
X37500000Y43900000D03*
X41700000Y45600000D03*
X41800000Y54300000D03*
X43600000Y50000000D03*
G04 #@! TD*
D14*
G04 #@! TO.P,H4,1*
G04 #@! TO.N,GND*
X81400000Y50000000D03*
D12*
X81400000Y50000000D03*
X83200000Y54300000D03*
X83200000Y45700000D03*
X87500000Y56100000D03*
X87500000Y43900000D03*
X91700000Y45600000D03*
X91800000Y54300000D03*
X93600000Y50000000D03*
G04 #@! TD*
D14*
G04 #@! TO.P,H5,1*
G04 #@! TO.N,GND*
X56400000Y50000000D03*
D12*
X56400000Y50000000D03*
X58200000Y54300000D03*
X58200000Y45700000D03*
X62500000Y56100000D03*
X62500000Y43900000D03*
X66700000Y45600000D03*
X66800000Y54300000D03*
X68600000Y50000000D03*
G04 #@! TD*
D14*
G04 #@! TO.P,H6,1*
G04 #@! TO.N,GND*
X81400000Y25000000D03*
D12*
X81400000Y25000000D03*
X83200000Y29300000D03*
X83200000Y20700000D03*
X87500000Y31100000D03*
X87500000Y18900000D03*
X91700000Y20600000D03*
X91800000Y29300000D03*
X93600000Y25000000D03*
G04 #@! TD*
D13*
G04 #@! TO.P,H15,1*
G04 #@! TO.N,GND*
X20300000Y115000000D03*
D12*
X20300000Y115000000D03*
X21700000Y118300000D03*
X21700000Y111700000D03*
X25000000Y119700000D03*
X25000000Y110300000D03*
X28200000Y111600000D03*
X28300000Y118300000D03*
X29700000Y115000000D03*
G04 #@! TD*
D11*
G04 #@! TO.P,H17,1*
G04 #@! TO.N,GND*
X58000000Y25000000D03*
D12*
X58000000Y25000000D03*
X59300000Y28200000D03*
X59300000Y21800000D03*
X62500000Y29500000D03*
X62500000Y20500000D03*
X65600000Y21700000D03*
X65700000Y28200000D03*
X67000000Y25000000D03*
G04 #@! TD*
D13*
G04 #@! TO.P,H8,1*
G04 #@! TO.N,GND*
X20300000Y80000000D03*
D12*
X20300000Y80000000D03*
X21700000Y83300000D03*
X21700000Y76700000D03*
X25000000Y84700000D03*
X25000000Y75300000D03*
X28200000Y76600000D03*
X28300000Y83300000D03*
X29700000Y80000000D03*
G04 #@! TD*
D13*
G04 #@! TO.P,H16,1*
G04 #@! TO.N,GND*
X70300000Y115000000D03*
D12*
X70300000Y115000000D03*
X71700000Y118300000D03*
X71700000Y111700000D03*
X75000000Y119700000D03*
X75000000Y110300000D03*
X78200000Y111600000D03*
X78300000Y118300000D03*
X79700000Y115000000D03*
G04 #@! TD*
D13*
G04 #@! TO.P,H7,1*
G04 #@! TO.N,GND*
X20300000Y160000000D03*
D12*
X20300000Y160000000D03*
X21700000Y163300000D03*
X21700000Y156700000D03*
X25000000Y164700000D03*
X25000000Y155300000D03*
X28200000Y156600000D03*
X28300000Y163300000D03*
X29700000Y160000000D03*
G04 #@! TD*
G04 #@! TA.AperFunction,Conductor*
G04 #@! TO.N,GND*
G36*
X99891621Y199929498D02*
G01*
X99938114Y199875842D01*
X99949500Y199823500D01*
X99949500Y176500D01*
X99929498Y108379D01*
X99875842Y61886D01*
X99823500Y50500D01*
X176500Y50500D01*
X108379Y70502D01*
X61886Y124158D01*
X50500Y176500D01*
X50500Y19701608D01*
X62060816Y19701608D01*
X62217867Y19631684D01*
X62404567Y19592000D01*
X62595434Y19592000D01*
X62782132Y19631684D01*
X62939183Y19701608D01*
X62500001Y20140790D01*
X62500000Y20140790D01*
X62060816Y19701608D01*
X50500Y19701608D01*
X50500Y25000000D01*
X7544510Y25000000D01*
X7545775Y24971840D01*
X7557290Y24715412D01*
X7564459Y24555793D01*
X7624147Y24115163D01*
X7723092Y23681657D01*
X7723958Y23678990D01*
X7723963Y23678974D01*
X7856814Y23270100D01*
X7860497Y23258766D01*
X7861606Y23256170D01*
X7861610Y23256161D01*
X8034140Y22852508D01*
X8035258Y22849893D01*
X8036599Y22847400D01*
X8036601Y22847397D01*
X8170595Y22598395D01*
X8245966Y22458333D01*
X8247519Y22455980D01*
X8247527Y22455967D01*
X8489362Y22089602D01*
X8490924Y22087236D01*
X8575413Y21981290D01*
X8766399Y21741801D01*
X8766405Y21741794D01*
X8768162Y21739591D01*
X8770116Y21737548D01*
X8770118Y21737545D01*
X8840471Y21663962D01*
X9075446Y21418197D01*
X9410303Y21125642D01*
X9412595Y21123977D01*
X9412596Y21123976D01*
X9760303Y20871352D01*
X9770036Y20864281D01*
X9772454Y20862837D01*
X9772456Y20862835D01*
X9945436Y20759484D01*
X10151749Y20636218D01*
X10552368Y20443289D01*
X10968669Y20287049D01*
X11397300Y20168754D01*
X11834808Y20089358D01*
X12277673Y20049500D01*
X12280495Y20049500D01*
X12719505Y20049500D01*
X12722327Y20049500D01*
X13165192Y20089358D01*
X13602700Y20168754D01*
X14031331Y20287049D01*
X14447632Y20443289D01*
X14565393Y20500000D01*
X61586998Y20500000D01*
X61606949Y20310175D01*
X61665930Y20128649D01*
X61703816Y20063029D01*
X61703818Y20063029D01*
X62140790Y20500000D01*
X62140790Y20500001D01*
X62112631Y20528160D01*
X62196105Y20528160D01*
X62206454Y20416479D01*
X62256448Y20316078D01*
X62339334Y20240516D01*
X62443920Y20200000D01*
X62527802Y20200000D01*
X62610250Y20215412D01*
X62705610Y20274457D01*
X62773201Y20363962D01*
X62803895Y20471840D01*
X62801286Y20499999D01*
X62859210Y20499999D01*
X63296181Y20063028D01*
X63296182Y20063029D01*
X63334068Y20128647D01*
X63393050Y20310174D01*
X63413001Y20500000D01*
X63393050Y20689826D01*
X63334069Y20871352D01*
X63316601Y20901608D01*
X65160816Y20901608D01*
X65317867Y20831684D01*
X65504567Y20792000D01*
X65695434Y20792000D01*
X65882132Y20831684D01*
X66039183Y20901608D01*
X65600001Y21340790D01*
X65600000Y21340790D01*
X65160816Y20901608D01*
X63316601Y20901608D01*
X63296182Y20936974D01*
X62859210Y20500001D01*
X62859210Y20499999D01*
X62801286Y20499999D01*
X62793546Y20583521D01*
X62743552Y20683922D01*
X62660666Y20759484D01*
X62556080Y20800000D01*
X62472198Y20800000D01*
X62389750Y20784588D01*
X62294390Y20725543D01*
X62226799Y20636038D01*
X62196105Y20528160D01*
X62112631Y20528160D01*
X61703817Y20936973D01*
X61665930Y20871350D01*
X61606949Y20689826D01*
X61586998Y20500000D01*
X14565393Y20500000D01*
X14848251Y20636218D01*
X15229964Y20864281D01*
X15418979Y21001608D01*
X58860816Y21001608D01*
X59017867Y20931684D01*
X59204567Y20892000D01*
X59395434Y20892000D01*
X59582132Y20931684D01*
X59739183Y21001608D01*
X59300001Y21440790D01*
X59300000Y21440790D01*
X58860816Y21001608D01*
X15418979Y21001608D01*
X15589697Y21125642D01*
X15924554Y21418197D01*
X16231838Y21739591D01*
X16509076Y22087236D01*
X16754034Y22458333D01*
X16964742Y22849893D01*
X17139503Y23258766D01*
X17276908Y23681657D01*
X17375853Y24115163D01*
X17435541Y24555793D01*
X17455490Y25000000D01*
X34144579Y25000000D01*
X34164249Y24637215D01*
X34164799Y24633861D01*
X34164800Y24633851D01*
X34222474Y24282053D01*
X34222476Y24282041D01*
X34223027Y24278684D01*
X34223935Y24275412D01*
X34223939Y24275396D01*
X34319312Y23931896D01*
X34320225Y23928609D01*
X34321483Y23925451D01*
X34321487Y23925440D01*
X34453440Y23594262D01*
X34454702Y23591095D01*
X34624883Y23270100D01*
X34626793Y23267283D01*
X34626796Y23267278D01*
X34826855Y22972214D01*
X34826860Y22972208D01*
X34828773Y22969386D01*
X34830981Y22966787D01*
X34830986Y22966780D01*
X35050795Y22708000D01*
X35063979Y22692479D01*
X35066448Y22690140D01*
X35066454Y22690134D01*
X35308533Y22460825D01*
X35327746Y22442625D01*
X35616981Y22222755D01*
X35928292Y22035445D01*
X35931382Y22034016D01*
X35931381Y22034016D01*
X36092479Y21959484D01*
X36258031Y21882892D01*
X36602330Y21766884D01*
X36957153Y21688782D01*
X37318341Y21649500D01*
X37321756Y21649500D01*
X37678244Y21649500D01*
X37681659Y21649500D01*
X38042847Y21688782D01*
X38397670Y21766884D01*
X38495955Y21800000D01*
X58386998Y21800000D01*
X58406949Y21610175D01*
X58465930Y21428649D01*
X58503816Y21363029D01*
X58503818Y21363029D01*
X58940789Y21799999D01*
X58940789Y21800001D01*
X58912630Y21828160D01*
X58996105Y21828160D01*
X59006454Y21716479D01*
X59056448Y21616078D01*
X59139334Y21540516D01*
X59243920Y21500000D01*
X59327802Y21500000D01*
X59410250Y21515412D01*
X59505610Y21574457D01*
X59573201Y21663962D01*
X59603895Y21771840D01*
X59601286Y21799999D01*
X59659210Y21799999D01*
X60096181Y21363028D01*
X60096182Y21363029D01*
X60134068Y21428647D01*
X60193050Y21610174D01*
X60213001Y21800000D01*
X60193050Y21989826D01*
X60134069Y22171352D01*
X60096182Y22236974D01*
X59659210Y21800001D01*
X59659210Y21799999D01*
X59601286Y21799999D01*
X59593546Y21883521D01*
X59543552Y21983922D01*
X59460666Y22059484D01*
X59356080Y22100000D01*
X59272198Y22100000D01*
X59189750Y22084588D01*
X59094390Y22025543D01*
X59026799Y21936038D01*
X58996105Y21828160D01*
X58912630Y21828160D01*
X58503817Y22236973D01*
X58465930Y22171350D01*
X58406949Y21989826D01*
X58386998Y21800000D01*
X38495955Y21800000D01*
X38741969Y21882892D01*
X39071708Y22035445D01*
X39383019Y22222755D01*
X39672254Y22442625D01*
X39836697Y22598394D01*
X58860815Y22598394D01*
X59299999Y22159210D01*
X59300000Y22159210D01*
X59739183Y22598394D01*
X59739182Y22598395D01*
X59582135Y22668316D01*
X59395433Y22708000D01*
X59204567Y22708000D01*
X59017864Y22668316D01*
X58860816Y22598395D01*
X58860815Y22598394D01*
X39836697Y22598394D01*
X39936021Y22692479D01*
X40171227Y22969386D01*
X40375117Y23270100D01*
X40545298Y23591095D01*
X40679775Y23928609D01*
X40755573Y24201608D01*
X57560816Y24201608D01*
X57717867Y24131684D01*
X57904567Y24092000D01*
X58095434Y24092000D01*
X58282132Y24131684D01*
X58439183Y24201608D01*
X58000001Y24640790D01*
X58000000Y24640790D01*
X57560816Y24201608D01*
X40755573Y24201608D01*
X40776973Y24278684D01*
X40835751Y24637215D01*
X40855421Y25000000D01*
X57086998Y25000000D01*
X57106949Y24810175D01*
X57165930Y24628649D01*
X57203817Y24563029D01*
X57640790Y25000001D01*
X57612631Y25028160D01*
X57696105Y25028160D01*
X57706454Y24916479D01*
X57756448Y24816078D01*
X57839334Y24740516D01*
X57943920Y24700000D01*
X58027802Y24700000D01*
X58110250Y24715412D01*
X58205610Y24774457D01*
X58273201Y24863962D01*
X58303895Y24971840D01*
X58301285Y25000001D01*
X58359209Y25000001D01*
X58796181Y24563029D01*
X58796182Y24563029D01*
X58834068Y24628647D01*
X58893050Y24810175D01*
X58900333Y24879469D01*
X58927346Y24945126D01*
X58985567Y24985756D01*
X59056513Y24988459D01*
X59117657Y24952377D01*
X59149587Y24888966D01*
X59151458Y24873121D01*
X59160844Y24700000D01*
X59164249Y24637215D01*
X59164799Y24633861D01*
X59164800Y24633851D01*
X59222474Y24282053D01*
X59222476Y24282041D01*
X59223027Y24278684D01*
X59223935Y24275412D01*
X59223939Y24275396D01*
X59319312Y23931896D01*
X59320225Y23928609D01*
X59321483Y23925451D01*
X59321487Y23925440D01*
X59453440Y23594262D01*
X59454702Y23591095D01*
X59624883Y23270100D01*
X59626793Y23267283D01*
X59626796Y23267278D01*
X59826855Y22972214D01*
X59826860Y22972208D01*
X59828773Y22969386D01*
X59830981Y22966787D01*
X59830986Y22966780D01*
X60050795Y22708000D01*
X60063979Y22692479D01*
X60066448Y22690140D01*
X60066454Y22690134D01*
X60308533Y22460825D01*
X60327746Y22442625D01*
X60616981Y22222755D01*
X60928292Y22035445D01*
X60931382Y22034016D01*
X60931381Y22034016D01*
X61092479Y21959484D01*
X61258031Y21882892D01*
X61602330Y21766884D01*
X61957153Y21688782D01*
X62318341Y21649500D01*
X62321756Y21649500D01*
X62341923Y21649500D01*
X62410044Y21629498D01*
X62456537Y21575842D01*
X62466641Y21505568D01*
X62437147Y21440988D01*
X62377421Y21402604D01*
X62368120Y21400253D01*
X62217864Y21368316D01*
X62060816Y21298395D01*
X62060815Y21298394D01*
X62499999Y20859210D01*
X62500000Y20859210D01*
X62939183Y21298394D01*
X62939182Y21298395D01*
X62782135Y21368316D01*
X62631880Y21400253D01*
X62569407Y21433981D01*
X62535085Y21496131D01*
X62539813Y21566970D01*
X62582088Y21624007D01*
X62648490Y21649135D01*
X62658077Y21649500D01*
X62678244Y21649500D01*
X62681659Y21649500D01*
X63042847Y21688782D01*
X63093811Y21700000D01*
X64686998Y21700000D01*
X64706949Y21510175D01*
X64765930Y21328649D01*
X64803816Y21263029D01*
X65240789Y21700001D01*
X65240789Y21700002D01*
X65212631Y21728160D01*
X65296105Y21728160D01*
X65306454Y21616479D01*
X65356448Y21516078D01*
X65439334Y21440516D01*
X65543920Y21400000D01*
X65627802Y21400000D01*
X65710250Y21415412D01*
X65805610Y21474457D01*
X65873201Y21563962D01*
X65903895Y21671840D01*
X65901286Y21699999D01*
X65959210Y21699999D01*
X66396181Y21263028D01*
X66396182Y21263029D01*
X66434068Y21328647D01*
X66493050Y21510174D01*
X66513001Y21700000D01*
X66493050Y21889826D01*
X66434069Y22071352D01*
X66396182Y22136974D01*
X65959210Y21700001D01*
X65959210Y21699999D01*
X65901286Y21699999D01*
X65893546Y21783521D01*
X65843552Y21883922D01*
X65760666Y21959484D01*
X65656080Y22000000D01*
X65572198Y22000000D01*
X65489750Y21984588D01*
X65394390Y21925543D01*
X65326799Y21836038D01*
X65296105Y21728160D01*
X65212631Y21728160D01*
X64803817Y22136974D01*
X64765930Y22071350D01*
X64706949Y21889826D01*
X64686998Y21700000D01*
X63093811Y21700000D01*
X63397670Y21766884D01*
X63741969Y21882892D01*
X64071708Y22035445D01*
X64383019Y22222755D01*
X64672254Y22442625D01*
X64731130Y22498395D01*
X65160816Y22498395D01*
X65600000Y22059211D01*
X65600001Y22059211D01*
X66039183Y22498394D01*
X66039182Y22498395D01*
X65882135Y22568316D01*
X65695433Y22608000D01*
X65504567Y22608000D01*
X65317864Y22568316D01*
X65160816Y22498395D01*
X64731130Y22498395D01*
X64936021Y22692479D01*
X65171227Y22969386D01*
X65375117Y23270100D01*
X65545298Y23591095D01*
X65679775Y23928609D01*
X65755573Y24201608D01*
X66560816Y24201608D01*
X66717867Y24131684D01*
X66904567Y24092000D01*
X67095434Y24092000D01*
X67282132Y24131684D01*
X67439183Y24201608D01*
X67000001Y24640790D01*
X67000000Y24640790D01*
X66560816Y24201608D01*
X65755573Y24201608D01*
X65776973Y24278684D01*
X65835751Y24637215D01*
X65848541Y24873123D01*
X65872201Y24940058D01*
X65928295Y24983578D01*
X65999013Y24989863D01*
X66061903Y24956917D01*
X66096997Y24895200D01*
X66099666Y24879471D01*
X66106949Y24810175D01*
X66165930Y24628649D01*
X66203816Y24563029D01*
X66203818Y24563029D01*
X66640789Y25000000D01*
X66640789Y25000001D01*
X66612630Y25028160D01*
X66696105Y25028160D01*
X66706454Y24916479D01*
X66756448Y24816078D01*
X66839334Y24740516D01*
X66943920Y24700000D01*
X67027802Y24700000D01*
X67110250Y24715412D01*
X67205610Y24774457D01*
X67273201Y24863962D01*
X67303895Y24971840D01*
X67301286Y25000000D01*
X67359210Y25000000D01*
X67796181Y24563028D01*
X67796182Y24563029D01*
X67834068Y24628647D01*
X67893050Y24810174D01*
X67913001Y25000000D01*
X82544510Y25000000D01*
X82545775Y24971840D01*
X82557290Y24715412D01*
X82564459Y24555793D01*
X82624147Y24115163D01*
X82723092Y23681657D01*
X82723958Y23678990D01*
X82723963Y23678974D01*
X82856814Y23270100D01*
X82860497Y23258766D01*
X82861606Y23256170D01*
X82861610Y23256161D01*
X83034140Y22852508D01*
X83035258Y22849893D01*
X83036599Y22847400D01*
X83036601Y22847397D01*
X83170595Y22598395D01*
X83245966Y22458333D01*
X83247519Y22455980D01*
X83247527Y22455967D01*
X83489362Y22089602D01*
X83490924Y22087236D01*
X83575413Y21981290D01*
X83766399Y21741801D01*
X83766405Y21741794D01*
X83768162Y21739591D01*
X83770116Y21737548D01*
X83770118Y21737545D01*
X83840471Y21663962D01*
X84075446Y21418197D01*
X84410303Y21125642D01*
X84412595Y21123977D01*
X84412596Y21123976D01*
X84760303Y20871352D01*
X84770036Y20864281D01*
X84772454Y20862837D01*
X84772456Y20862835D01*
X84945436Y20759484D01*
X85151749Y20636218D01*
X85552368Y20443289D01*
X85968669Y20287049D01*
X86397300Y20168754D01*
X86834808Y20089358D01*
X87277673Y20049500D01*
X87280495Y20049500D01*
X87719505Y20049500D01*
X87722327Y20049500D01*
X88165192Y20089358D01*
X88602700Y20168754D01*
X89031331Y20287049D01*
X89447632Y20443289D01*
X89848251Y20636218D01*
X90229964Y20864281D01*
X90589697Y21125642D01*
X90924554Y21418197D01*
X91231838Y21739591D01*
X91509076Y22087236D01*
X91754034Y22458333D01*
X91964742Y22849893D01*
X92139503Y23258766D01*
X92276908Y23681657D01*
X92375853Y24115163D01*
X92435541Y24555793D01*
X92455490Y25000000D01*
X92435541Y25444207D01*
X92375853Y25884837D01*
X92276908Y26318343D01*
X92261933Y26364430D01*
X92246504Y26411917D01*
X92139503Y26741234D01*
X91964742Y27150107D01*
X91754034Y27541667D01*
X91743665Y27557375D01*
X91550199Y27850465D01*
X91509076Y27912764D01*
X91287450Y28190674D01*
X91233600Y28258200D01*
X91233595Y28258205D01*
X91231838Y28260409D01*
X91183960Y28310485D01*
X91002766Y28500000D01*
X90924554Y28581803D01*
X90589697Y28874358D01*
X90418975Y28998395D01*
X90232248Y29134060D01*
X90232241Y29134065D01*
X90229964Y29135719D01*
X90227551Y29137161D01*
X90227543Y29137166D01*
X89850669Y29362338D01*
X89850657Y29362345D01*
X89848251Y29363782D01*
X89845716Y29365003D01*
X89845712Y29365005D01*
X89450172Y29555488D01*
X89450168Y29555490D01*
X89447632Y29556711D01*
X89444995Y29557701D01*
X89444992Y29557702D01*
X89033978Y29711958D01*
X89033969Y29711961D01*
X89031331Y29712951D01*
X88977118Y29727913D01*
X88605434Y29830492D01*
X88605422Y29830495D01*
X88602700Y29831246D01*
X88599924Y29831750D01*
X88599910Y29831753D01*
X88167972Y29910138D01*
X88167961Y29910140D01*
X88165192Y29910642D01*
X88162381Y29910895D01*
X87725135Y29950248D01*
X87725119Y29950249D01*
X87722327Y29950500D01*
X87277673Y29950500D01*
X87274881Y29950249D01*
X87274864Y29950248D01*
X86837618Y29910895D01*
X86837615Y29910895D01*
X86834808Y29910642D01*
X86832041Y29910140D01*
X86832027Y29910138D01*
X86400089Y29831753D01*
X86400070Y29831749D01*
X86397300Y29831246D01*
X86394582Y29830496D01*
X86394565Y29830492D01*
X85971400Y29713705D01*
X85971394Y29713704D01*
X85968669Y29712951D01*
X85966037Y29711964D01*
X85966021Y29711958D01*
X85555007Y29557702D01*
X85554996Y29557698D01*
X85552368Y29556711D01*
X85549839Y29555494D01*
X85549827Y29555488D01*
X85154287Y29365005D01*
X85154273Y29364998D01*
X85151749Y29363782D01*
X85149351Y29362350D01*
X85149330Y29362338D01*
X84772456Y29137166D01*
X84772438Y29137155D01*
X84770036Y29135719D01*
X84767768Y29134072D01*
X84767751Y29134060D01*
X84412596Y28876025D01*
X84412581Y28876014D01*
X84410303Y28874358D01*
X84408182Y28872506D01*
X84408167Y28872493D01*
X84077578Y28583666D01*
X84075446Y28581803D01*
X84073499Y28579767D01*
X84073490Y28579758D01*
X83770118Y28262456D01*
X83770105Y28262443D01*
X83768162Y28260409D01*
X83766414Y28258219D01*
X83766399Y28258200D01*
X83492687Y27914975D01*
X83490924Y27912764D01*
X83489371Y27910413D01*
X83489362Y27910399D01*
X83247527Y27544034D01*
X83247513Y27544012D01*
X83245966Y27541667D01*
X83244630Y27539185D01*
X83244625Y27539176D01*
X83036601Y27152604D01*
X83036595Y27152592D01*
X83035258Y27150107D01*
X83034146Y27147507D01*
X83034140Y27147493D01*
X82861610Y26743840D01*
X82861603Y26743824D01*
X82860497Y26741234D01*
X82859626Y26738556D01*
X82859622Y26738543D01*
X82723963Y26321027D01*
X82723956Y26321005D01*
X82723092Y26318343D01*
X82624147Y25884837D01*
X82623768Y25882045D01*
X82623767Y25882035D01*
X82612437Y25798394D01*
X82564459Y25444207D01*
X82564332Y25441397D01*
X82564332Y25441388D01*
X82548261Y25083521D01*
X82544510Y25000000D01*
X67913001Y25000000D01*
X67893050Y25189826D01*
X67834069Y25371352D01*
X67796182Y25436974D01*
X67359210Y25000001D01*
X67359210Y25000000D01*
X67301286Y25000000D01*
X67293546Y25083521D01*
X67243552Y25183922D01*
X67160666Y25259484D01*
X67056080Y25300000D01*
X66972198Y25300000D01*
X66889750Y25284588D01*
X66794390Y25225543D01*
X66726799Y25136038D01*
X66696105Y25028160D01*
X66612630Y25028160D01*
X66203817Y25436973D01*
X66165930Y25371350D01*
X66106949Y25189826D01*
X66099666Y25120530D01*
X66072652Y25054874D01*
X66014430Y25014245D01*
X65943485Y25011542D01*
X65882341Y25047625D01*
X65850411Y25111036D01*
X65848542Y25126872D01*
X65835751Y25362785D01*
X65776973Y25721316D01*
X65755572Y25798394D01*
X66560815Y25798394D01*
X66999999Y25359210D01*
X67000000Y25359210D01*
X67439183Y25798394D01*
X67439182Y25798395D01*
X67282135Y25868316D01*
X67095433Y25908000D01*
X66904567Y25908000D01*
X66717864Y25868316D01*
X66560816Y25798395D01*
X66560815Y25798394D01*
X65755572Y25798394D01*
X65679775Y26071391D01*
X65545298Y26408905D01*
X65375117Y26729900D01*
X65171227Y27030614D01*
X65071949Y27147493D01*
X64938226Y27304925D01*
X64936021Y27307521D01*
X64933550Y27309862D01*
X64933545Y27309867D01*
X64836695Y27401608D01*
X65260816Y27401608D01*
X65417867Y27331684D01*
X65604567Y27292000D01*
X65795434Y27292000D01*
X65982132Y27331684D01*
X66139183Y27401608D01*
X65700001Y27840790D01*
X65700000Y27840790D01*
X65260816Y27401608D01*
X64836695Y27401608D01*
X64674737Y27555023D01*
X64674736Y27555024D01*
X64672254Y27557375D01*
X64383019Y27777245D01*
X64380086Y27779010D01*
X64074627Y27962799D01*
X64074622Y27962802D01*
X64071708Y27964555D01*
X64068624Y27965982D01*
X64068618Y27965985D01*
X63745068Y28115675D01*
X63745056Y28115680D01*
X63741969Y28117108D01*
X63738730Y28118200D01*
X63738726Y28118201D01*
X63495956Y28200000D01*
X64786998Y28200000D01*
X64806949Y28010175D01*
X64865930Y27828649D01*
X64903816Y27763029D01*
X65340789Y28200001D01*
X65340789Y28200002D01*
X65312631Y28228160D01*
X65396105Y28228160D01*
X65406454Y28116479D01*
X65456448Y28016078D01*
X65539334Y27940516D01*
X65643920Y27900000D01*
X65727802Y27900000D01*
X65810250Y27915412D01*
X65905610Y27974457D01*
X65973201Y28063962D01*
X66003895Y28171840D01*
X66001286Y28199999D01*
X66059210Y28199999D01*
X66496181Y27763028D01*
X66496182Y27763029D01*
X66534068Y27828647D01*
X66593050Y28010174D01*
X66613001Y28200000D01*
X66593050Y28389826D01*
X66534069Y28571352D01*
X66496182Y28636974D01*
X66059210Y28200001D01*
X66059210Y28199999D01*
X66001286Y28199999D01*
X65993546Y28283521D01*
X65943552Y28383922D01*
X65860666Y28459484D01*
X65756080Y28500000D01*
X65672198Y28500000D01*
X65589750Y28484588D01*
X65494390Y28425543D01*
X65426799Y28336038D01*
X65396105Y28228160D01*
X65312631Y28228160D01*
X64903817Y28636974D01*
X64865930Y28571350D01*
X64806949Y28389826D01*
X64786998Y28200000D01*
X63495956Y28200000D01*
X63400906Y28232026D01*
X63400900Y28232028D01*
X63397670Y28233116D01*
X63394346Y28233848D01*
X63394334Y28233851D01*
X63046178Y28310485D01*
X63046174Y28310486D01*
X63042847Y28311218D01*
X63030130Y28312601D01*
X62685057Y28350131D01*
X62685046Y28350132D01*
X62681659Y28350500D01*
X62658077Y28350500D01*
X62589956Y28370502D01*
X62543463Y28424158D01*
X62533359Y28494432D01*
X62562853Y28559012D01*
X62622579Y28597396D01*
X62631881Y28599747D01*
X62782132Y28631684D01*
X62939183Y28701608D01*
X62642397Y28998394D01*
X65260815Y28998394D01*
X65699999Y28559210D01*
X65700000Y28559210D01*
X66139183Y28998394D01*
X66139182Y28998395D01*
X65982135Y29068316D01*
X65795433Y29108000D01*
X65604567Y29108000D01*
X65417864Y29068316D01*
X65260816Y28998395D01*
X65260815Y28998394D01*
X62642397Y28998394D01*
X62500001Y29140790D01*
X62500000Y29140790D01*
X62060816Y28701608D01*
X62217867Y28631684D01*
X62368120Y28599747D01*
X62430593Y28566019D01*
X62464915Y28503869D01*
X62460187Y28433030D01*
X62417912Y28375993D01*
X62351510Y28350865D01*
X62341923Y28350500D01*
X62318341Y28350500D01*
X62314954Y28350132D01*
X62314942Y28350131D01*
X61960545Y28311587D01*
X61960543Y28311587D01*
X61957153Y28311218D01*
X61953828Y28310487D01*
X61953821Y28310485D01*
X61605665Y28233851D01*
X61605649Y28233847D01*
X61602330Y28233116D01*
X61599104Y28232030D01*
X61599093Y28232026D01*
X61261273Y28118201D01*
X61261262Y28118197D01*
X61258031Y28117108D01*
X61254949Y28115683D01*
X61254931Y28115675D01*
X60931381Y27965985D01*
X60931367Y27965979D01*
X60928292Y27964555D01*
X60925384Y27962806D01*
X60925372Y27962799D01*
X60619913Y27779010D01*
X60619901Y27779003D01*
X60616981Y27777245D01*
X60614265Y27775181D01*
X60614257Y27775175D01*
X60330464Y27559442D01*
X60330454Y27559435D01*
X60327746Y27557375D01*
X60325271Y27555032D01*
X60325262Y27555023D01*
X60066454Y27309867D01*
X60066439Y27309852D01*
X60063979Y27307521D01*
X60061782Y27304935D01*
X60061773Y27304925D01*
X59830986Y27033221D01*
X59830974Y27033206D01*
X59828773Y27030614D01*
X59826866Y27027803D01*
X59826855Y27027787D01*
X59626796Y26732723D01*
X59626787Y26732710D01*
X59624883Y26729900D01*
X59623287Y26726890D01*
X59623283Y26726883D01*
X59456298Y26411917D01*
X59456292Y26411905D01*
X59454702Y26408905D01*
X59453444Y26405748D01*
X59453440Y26405739D01*
X59321487Y26074561D01*
X59321481Y26074545D01*
X59320225Y26071391D01*
X59319315Y26068116D01*
X59319312Y26068105D01*
X59223939Y25724605D01*
X59223934Y25724585D01*
X59223027Y25721316D01*
X59222477Y25717964D01*
X59222474Y25717948D01*
X59164800Y25366150D01*
X59164798Y25366139D01*
X59164249Y25362785D01*
X59164064Y25359390D01*
X59164064Y25359381D01*
X59151458Y25126880D01*
X59127797Y25059942D01*
X59071703Y25016423D01*
X59000985Y25010138D01*
X58938096Y25043085D01*
X58903002Y25104801D01*
X58900333Y25120532D01*
X58893050Y25189826D01*
X58834069Y25371352D01*
X58796182Y25436973D01*
X58359209Y25000001D01*
X58301285Y25000001D01*
X58293546Y25083521D01*
X58243552Y25183922D01*
X58160666Y25259484D01*
X58056080Y25300000D01*
X57972198Y25300000D01*
X57889750Y25284588D01*
X57794390Y25225543D01*
X57726799Y25136038D01*
X57696105Y25028160D01*
X57612631Y25028160D01*
X57203817Y25436974D01*
X57165930Y25371350D01*
X57106949Y25189826D01*
X57086998Y25000000D01*
X40855421Y25000000D01*
X40835751Y25362785D01*
X40776973Y25721316D01*
X40755572Y25798394D01*
X57560815Y25798394D01*
X57999999Y25359210D01*
X58000000Y25359210D01*
X58439183Y25798394D01*
X58439182Y25798395D01*
X58282135Y25868316D01*
X58095433Y25908000D01*
X57904567Y25908000D01*
X57717864Y25868316D01*
X57560816Y25798395D01*
X57560815Y25798394D01*
X40755572Y25798394D01*
X40679775Y26071391D01*
X40545298Y26408905D01*
X40375117Y26729900D01*
X40171227Y27030614D01*
X40071949Y27147493D01*
X39938226Y27304925D01*
X39936021Y27307521D01*
X39933550Y27309862D01*
X39933545Y27309867D01*
X39836695Y27401608D01*
X58860816Y27401608D01*
X59017867Y27331684D01*
X59204567Y27292000D01*
X59395434Y27292000D01*
X59582132Y27331684D01*
X59739183Y27401608D01*
X59300001Y27840790D01*
X59300000Y27840790D01*
X58860816Y27401608D01*
X39836695Y27401608D01*
X39674737Y27555023D01*
X39674736Y27555024D01*
X39672254Y27557375D01*
X39383019Y27777245D01*
X39380086Y27779010D01*
X39074627Y27962799D01*
X39074622Y27962802D01*
X39071708Y27964555D01*
X39068624Y27965982D01*
X39068618Y27965985D01*
X38745068Y28115675D01*
X38745056Y28115680D01*
X38741969Y28117108D01*
X38738730Y28118200D01*
X38738726Y28118201D01*
X38495956Y28200000D01*
X58386998Y28200000D01*
X58406949Y28010175D01*
X58465930Y27828649D01*
X58503816Y27763029D01*
X58503818Y27763029D01*
X58940790Y28200000D01*
X58940790Y28200001D01*
X58912631Y28228160D01*
X58996105Y28228160D01*
X59006454Y28116479D01*
X59056448Y28016078D01*
X59139334Y27940516D01*
X59243920Y27900000D01*
X59327802Y27900000D01*
X59410250Y27915412D01*
X59505610Y27974457D01*
X59573201Y28063962D01*
X59603895Y28171840D01*
X59601285Y28200001D01*
X59659210Y28200001D01*
X60096182Y27763029D01*
X60134068Y27828647D01*
X60193050Y28010174D01*
X60213001Y28200000D01*
X60193050Y28389826D01*
X60134069Y28571352D01*
X60096182Y28636973D01*
X59659210Y28200001D01*
X59601285Y28200001D01*
X59593546Y28283521D01*
X59543552Y28383922D01*
X59460666Y28459484D01*
X59356080Y28500000D01*
X59272198Y28500000D01*
X59189750Y28484588D01*
X59094390Y28425543D01*
X59026799Y28336038D01*
X58996105Y28228160D01*
X58912631Y28228160D01*
X58503817Y28636973D01*
X58465930Y28571350D01*
X58406949Y28389826D01*
X58386998Y28200000D01*
X38495956Y28200000D01*
X38400906Y28232026D01*
X38400900Y28232028D01*
X38397670Y28233116D01*
X38394346Y28233848D01*
X38394334Y28233851D01*
X38046178Y28310485D01*
X38046174Y28310486D01*
X38042847Y28311218D01*
X38030130Y28312601D01*
X37685057Y28350131D01*
X37685046Y28350132D01*
X37681659Y28350500D01*
X37318341Y28350500D01*
X37314954Y28350132D01*
X37314942Y28350131D01*
X36960545Y28311587D01*
X36960543Y28311587D01*
X36957153Y28311218D01*
X36953828Y28310487D01*
X36953821Y28310485D01*
X36605665Y28233851D01*
X36605649Y28233847D01*
X36602330Y28233116D01*
X36599104Y28232030D01*
X36599093Y28232026D01*
X36261273Y28118201D01*
X36261262Y28118197D01*
X36258031Y28117108D01*
X36254949Y28115683D01*
X36254931Y28115675D01*
X35931381Y27965985D01*
X35931367Y27965979D01*
X35928292Y27964555D01*
X35925384Y27962806D01*
X35925372Y27962799D01*
X35619913Y27779010D01*
X35619901Y27779003D01*
X35616981Y27777245D01*
X35614265Y27775181D01*
X35614257Y27775175D01*
X35330464Y27559442D01*
X35330454Y27559435D01*
X35327746Y27557375D01*
X35325271Y27555032D01*
X35325262Y27555023D01*
X35066454Y27309867D01*
X35066439Y27309852D01*
X35063979Y27307521D01*
X35061782Y27304935D01*
X35061773Y27304925D01*
X34830986Y27033221D01*
X34830974Y27033206D01*
X34828773Y27030614D01*
X34826866Y27027803D01*
X34826855Y27027787D01*
X34626796Y26732723D01*
X34626787Y26732710D01*
X34624883Y26729900D01*
X34623287Y26726890D01*
X34623283Y26726883D01*
X34456298Y26411917D01*
X34456292Y26411905D01*
X34454702Y26408905D01*
X34453444Y26405748D01*
X34453440Y26405739D01*
X34321487Y26074561D01*
X34321481Y26074545D01*
X34320225Y26071391D01*
X34319315Y26068116D01*
X34319312Y26068105D01*
X34223939Y25724605D01*
X34223934Y25724585D01*
X34223027Y25721316D01*
X34222477Y25717964D01*
X34222474Y25717948D01*
X34164800Y25366150D01*
X34164798Y25366139D01*
X34164249Y25362785D01*
X34164064Y25359390D01*
X34164064Y25359381D01*
X34160009Y25284588D01*
X34144579Y25000000D01*
X17455490Y25000000D01*
X17435541Y25444207D01*
X17375853Y25884837D01*
X17276908Y26318343D01*
X17261933Y26364430D01*
X17246504Y26411917D01*
X17139503Y26741234D01*
X16964742Y27150107D01*
X16754034Y27541667D01*
X16743665Y27557375D01*
X16550199Y27850465D01*
X16509076Y27912764D01*
X16287450Y28190674D01*
X16233600Y28258200D01*
X16233595Y28258205D01*
X16231838Y28260409D01*
X16183960Y28310485D01*
X16002766Y28500000D01*
X15924554Y28581803D01*
X15589697Y28874358D01*
X15418976Y28998394D01*
X58860815Y28998394D01*
X59299999Y28559210D01*
X59300000Y28559210D01*
X59739183Y28998394D01*
X59739182Y28998395D01*
X59582135Y29068316D01*
X59395433Y29108000D01*
X59204567Y29108000D01*
X59017864Y29068316D01*
X58860816Y28998395D01*
X58860815Y28998394D01*
X15418976Y28998394D01*
X15418975Y28998395D01*
X15232248Y29134060D01*
X15232241Y29134065D01*
X15229964Y29135719D01*
X15227551Y29137161D01*
X15227543Y29137166D01*
X14850669Y29362338D01*
X14850657Y29362345D01*
X14848251Y29363782D01*
X14845716Y29365003D01*
X14845712Y29365005D01*
X14565393Y29500000D01*
X61586998Y29500000D01*
X61606949Y29310175D01*
X61665930Y29128649D01*
X61703817Y29063029D01*
X62140790Y29500001D01*
X62140790Y29500002D01*
X62112632Y29528160D01*
X62196105Y29528160D01*
X62206454Y29416479D01*
X62256448Y29316078D01*
X62339334Y29240516D01*
X62443920Y29200000D01*
X62527802Y29200000D01*
X62610250Y29215412D01*
X62705610Y29274457D01*
X62773201Y29363962D01*
X62803895Y29471840D01*
X62801286Y29499999D01*
X62859210Y29499999D01*
X63296181Y29063028D01*
X63296182Y29063029D01*
X63334068Y29128647D01*
X63393050Y29310174D01*
X63413001Y29500000D01*
X63393050Y29689826D01*
X63334069Y29871352D01*
X63296182Y29936974D01*
X62859210Y29500001D01*
X62859210Y29499999D01*
X62801286Y29499999D01*
X62793546Y29583521D01*
X62743552Y29683922D01*
X62660666Y29759484D01*
X62556080Y29800000D01*
X62472198Y29800000D01*
X62389750Y29784588D01*
X62294390Y29725543D01*
X62226799Y29636038D01*
X62196105Y29528160D01*
X62112632Y29528160D01*
X61703817Y29936974D01*
X61665930Y29871350D01*
X61606949Y29689826D01*
X61586998Y29500000D01*
X14565393Y29500000D01*
X14450172Y29555488D01*
X14450168Y29555490D01*
X14447632Y29556711D01*
X14444995Y29557701D01*
X14444992Y29557702D01*
X14033978Y29711958D01*
X14033969Y29711961D01*
X14031331Y29712951D01*
X13977118Y29727913D01*
X13605434Y29830492D01*
X13605422Y29830495D01*
X13602700Y29831246D01*
X13599924Y29831750D01*
X13599910Y29831753D01*
X13167972Y29910138D01*
X13167961Y29910140D01*
X13165192Y29910642D01*
X13162381Y29910895D01*
X12725135Y29950248D01*
X12725119Y29950249D01*
X12722327Y29950500D01*
X12277673Y29950500D01*
X12274881Y29950249D01*
X12274864Y29950248D01*
X11837618Y29910895D01*
X11837615Y29910895D01*
X11834808Y29910642D01*
X11832041Y29910140D01*
X11832027Y29910138D01*
X11400089Y29831753D01*
X11400070Y29831749D01*
X11397300Y29831246D01*
X11394582Y29830496D01*
X11394565Y29830492D01*
X10971400Y29713705D01*
X10971394Y29713704D01*
X10968669Y29712951D01*
X10966037Y29711964D01*
X10966021Y29711958D01*
X10555007Y29557702D01*
X10554996Y29557698D01*
X10552368Y29556711D01*
X10549839Y29555494D01*
X10549827Y29555488D01*
X10154287Y29365005D01*
X10154273Y29364998D01*
X10151749Y29363782D01*
X10149351Y29362350D01*
X10149330Y29362338D01*
X9772456Y29137166D01*
X9772438Y29137155D01*
X9770036Y29135719D01*
X9767768Y29134072D01*
X9767751Y29134060D01*
X9412596Y28876025D01*
X9412581Y28876014D01*
X9410303Y28874358D01*
X9408182Y28872506D01*
X9408167Y28872493D01*
X9077578Y28583666D01*
X9075446Y28581803D01*
X9073499Y28579767D01*
X9073490Y28579758D01*
X8770118Y28262456D01*
X8770105Y28262443D01*
X8768162Y28260409D01*
X8766414Y28258219D01*
X8766399Y28258200D01*
X8492687Y27914975D01*
X8490924Y27912764D01*
X8489371Y27910413D01*
X8489362Y27910399D01*
X8247527Y27544034D01*
X8247513Y27544012D01*
X8245966Y27541667D01*
X8244630Y27539185D01*
X8244625Y27539176D01*
X8036601Y27152604D01*
X8036595Y27152592D01*
X8035258Y27150107D01*
X8034146Y27147507D01*
X8034140Y27147493D01*
X7861610Y26743840D01*
X7861603Y26743824D01*
X7860497Y26741234D01*
X7859626Y26738556D01*
X7859622Y26738543D01*
X7723963Y26321027D01*
X7723956Y26321005D01*
X7723092Y26318343D01*
X7624147Y25884837D01*
X7623768Y25882045D01*
X7623767Y25882035D01*
X7612437Y25798394D01*
X7564459Y25444207D01*
X7564332Y25441397D01*
X7564332Y25441388D01*
X7548261Y25083521D01*
X7544510Y25000000D01*
X50500Y25000000D01*
X50500Y30298394D01*
X62060815Y30298394D01*
X62499999Y29859210D01*
X62500000Y29859210D01*
X62939183Y30298394D01*
X62939182Y30298395D01*
X62782135Y30368316D01*
X62595433Y30408000D01*
X62404567Y30408000D01*
X62217864Y30368316D01*
X62060816Y30298395D01*
X62060815Y30298394D01*
X50500Y30298394D01*
X50500Y50000000D01*
X7544510Y50000000D01*
X7564459Y49555793D01*
X7624147Y49115163D01*
X7723092Y48681657D01*
X7723958Y48678990D01*
X7723963Y48678974D01*
X7848396Y48296008D01*
X7860497Y48258766D01*
X7861606Y48256170D01*
X7861610Y48256161D01*
X8034140Y47852508D01*
X8035258Y47849893D01*
X8245966Y47458333D01*
X8247519Y47455980D01*
X8247527Y47455967D01*
X8449801Y47149535D01*
X8490924Y47087236D01*
X8629543Y46913414D01*
X8766399Y46741801D01*
X8766405Y46741794D01*
X8768162Y46739591D01*
X9075446Y46418197D01*
X9410303Y46125642D01*
X9412595Y46123977D01*
X9412596Y46123976D01*
X9648286Y45952737D01*
X9770036Y45864281D01*
X10151749Y45636218D01*
X10552368Y45443289D01*
X10968669Y45287049D01*
X11397300Y45168754D01*
X11834808Y45089358D01*
X12277673Y45049500D01*
X12280495Y45049500D01*
X12719505Y45049500D01*
X12722327Y45049500D01*
X13165192Y45089358D01*
X13602700Y45168754D01*
X14031331Y45287049D01*
X14447632Y45443289D01*
X14848251Y45636218D01*
X15229964Y45864281D01*
X15589697Y46125642D01*
X15924554Y46418197D01*
X16231838Y46739591D01*
X16509076Y47087236D01*
X16754034Y47458333D01*
X16964742Y47849893D01*
X17139503Y48258766D01*
X17276908Y48681657D01*
X17375853Y49115163D01*
X17435541Y49555793D01*
X17455490Y50000000D01*
X32544510Y50000000D01*
X32544636Y49997195D01*
X32544636Y49997173D01*
X32564032Y49565294D01*
X32564459Y49555793D01*
X32624147Y49115163D01*
X32723092Y48681657D01*
X32723958Y48678990D01*
X32723963Y48678974D01*
X32848396Y48296008D01*
X32860497Y48258766D01*
X32861606Y48256170D01*
X32861610Y48256161D01*
X33034140Y47852508D01*
X33035258Y47849893D01*
X33245966Y47458333D01*
X33247519Y47455980D01*
X33247527Y47455967D01*
X33449801Y47149535D01*
X33490924Y47087236D01*
X33629543Y46913414D01*
X33766399Y46741801D01*
X33766405Y46741794D01*
X33768162Y46739591D01*
X34075446Y46418197D01*
X34410303Y46125642D01*
X34412595Y46123977D01*
X34412596Y46123976D01*
X34648286Y45952737D01*
X34770036Y45864281D01*
X35151749Y45636218D01*
X35552368Y45443289D01*
X35968669Y45287049D01*
X36397300Y45168754D01*
X36834808Y45089358D01*
X37277673Y45049500D01*
X37280495Y45049500D01*
X37719505Y45049500D01*
X37722327Y45049500D01*
X38165192Y45089358D01*
X38602700Y45168754D01*
X39031331Y45287049D01*
X39447632Y45443289D01*
X39848251Y45636218D01*
X40229964Y45864281D01*
X40589697Y46125642D01*
X40924554Y46418197D01*
X41231838Y46739591D01*
X41509076Y47087236D01*
X41754034Y47458333D01*
X41964742Y47849893D01*
X42139503Y48258766D01*
X42276908Y48681657D01*
X42375853Y49115163D01*
X42435541Y49555793D01*
X42455490Y50000000D01*
X57544510Y50000000D01*
X57544636Y49997195D01*
X57544636Y49997173D01*
X57564032Y49565294D01*
X57564459Y49555793D01*
X57624147Y49115163D01*
X57723092Y48681657D01*
X57723958Y48678990D01*
X57723963Y48678974D01*
X57848396Y48296008D01*
X57860497Y48258766D01*
X57861606Y48256170D01*
X57861610Y48256161D01*
X58034140Y47852508D01*
X58035258Y47849893D01*
X58245966Y47458333D01*
X58247519Y47455980D01*
X58247527Y47455967D01*
X58449801Y47149535D01*
X58490924Y47087236D01*
X58629543Y46913414D01*
X58766399Y46741801D01*
X58766405Y46741794D01*
X58768162Y46739591D01*
X59075446Y46418197D01*
X59410303Y46125642D01*
X59412595Y46123977D01*
X59412596Y46123976D01*
X59648286Y45952737D01*
X59770036Y45864281D01*
X60151749Y45636218D01*
X60552368Y45443289D01*
X60968669Y45287049D01*
X61397300Y45168754D01*
X61834808Y45089358D01*
X62277673Y45049500D01*
X62280495Y45049500D01*
X62719505Y45049500D01*
X62722327Y45049500D01*
X63165192Y45089358D01*
X63602700Y45168754D01*
X64031331Y45287049D01*
X64447632Y45443289D01*
X64848251Y45636218D01*
X65229964Y45864281D01*
X65589697Y46125642D01*
X65924554Y46418197D01*
X66231838Y46739591D01*
X66509076Y47087236D01*
X66754034Y47458333D01*
X66964742Y47849893D01*
X67139503Y48258766D01*
X67276908Y48681657D01*
X67375853Y49115163D01*
X67435541Y49555793D01*
X67455490Y50000000D01*
X82544510Y50000000D01*
X82564459Y49555793D01*
X82624147Y49115163D01*
X82723092Y48681657D01*
X82723958Y48678990D01*
X82723963Y48678974D01*
X82848396Y48296008D01*
X82860497Y48258766D01*
X82861606Y48256170D01*
X82861610Y48256161D01*
X83034140Y47852508D01*
X83035258Y47849893D01*
X83245966Y47458333D01*
X83247519Y47455980D01*
X83247527Y47455967D01*
X83449801Y47149535D01*
X83490924Y47087236D01*
X83629542Y46913414D01*
X83766399Y46741801D01*
X83766405Y46741794D01*
X83768162Y46739591D01*
X84075446Y46418197D01*
X84410303Y46125642D01*
X84412595Y46123977D01*
X84412596Y46123976D01*
X84648286Y45952737D01*
X84770036Y45864281D01*
X85151749Y45636218D01*
X85552368Y45443289D01*
X85968669Y45287049D01*
X86397300Y45168754D01*
X86834808Y45089358D01*
X87277673Y45049500D01*
X87280495Y45049500D01*
X87719505Y45049500D01*
X87722327Y45049500D01*
X88165192Y45089358D01*
X88602700Y45168754D01*
X89031331Y45287049D01*
X89447632Y45443289D01*
X89848251Y45636218D01*
X90229964Y45864281D01*
X90589697Y46125642D01*
X90924554Y46418197D01*
X91231838Y46739591D01*
X91509076Y47087236D01*
X91754034Y47458333D01*
X91964742Y47849893D01*
X92139503Y48258766D01*
X92276908Y48681657D01*
X92375853Y49115163D01*
X92435541Y49555793D01*
X92455490Y50000000D01*
X92435541Y50444207D01*
X92375853Y50884837D01*
X92276908Y51318343D01*
X92139503Y51741234D01*
X91964742Y52150107D01*
X91754034Y52541667D01*
X91509076Y52912764D01*
X91231838Y53260409D01*
X90924554Y53581803D01*
X90589697Y53874358D01*
X90587403Y53876025D01*
X90232248Y54134060D01*
X90232241Y54134065D01*
X90229964Y54135719D01*
X90227551Y54137161D01*
X90227543Y54137166D01*
X89850669Y54362338D01*
X89850657Y54362345D01*
X89848251Y54363782D01*
X89845716Y54365003D01*
X89845712Y54365005D01*
X89450172Y54555488D01*
X89450168Y54555490D01*
X89447632Y54556711D01*
X89444995Y54557701D01*
X89444992Y54557702D01*
X89033978Y54711958D01*
X89033969Y54711961D01*
X89031331Y54712951D01*
X88977118Y54727913D01*
X88605434Y54830492D01*
X88605422Y54830495D01*
X88602700Y54831246D01*
X88599924Y54831750D01*
X88599910Y54831753D01*
X88167972Y54910138D01*
X88167961Y54910140D01*
X88165192Y54910642D01*
X88162381Y54910895D01*
X87725135Y54950248D01*
X87725119Y54950249D01*
X87722327Y54950500D01*
X87277673Y54950500D01*
X87274881Y54950249D01*
X87274864Y54950248D01*
X86837618Y54910895D01*
X86837615Y54910895D01*
X86834808Y54910642D01*
X86832041Y54910140D01*
X86832027Y54910138D01*
X86400089Y54831753D01*
X86400070Y54831749D01*
X86397300Y54831246D01*
X86394582Y54830496D01*
X86394565Y54830492D01*
X85971400Y54713705D01*
X85971394Y54713704D01*
X85968669Y54712951D01*
X85966037Y54711964D01*
X85966021Y54711958D01*
X85555007Y54557702D01*
X85554996Y54557698D01*
X85552368Y54556711D01*
X85549839Y54555494D01*
X85549827Y54555488D01*
X85154287Y54365005D01*
X85154273Y54364998D01*
X85151749Y54363782D01*
X85149351Y54362350D01*
X85149330Y54362338D01*
X84772456Y54137166D01*
X84772438Y54137155D01*
X84770036Y54135719D01*
X84767768Y54134072D01*
X84767751Y54134060D01*
X84412596Y53876025D01*
X84412581Y53876014D01*
X84410303Y53874358D01*
X84408182Y53872506D01*
X84408167Y53872493D01*
X84077578Y53583666D01*
X84075446Y53581803D01*
X84073499Y53579767D01*
X84073490Y53579758D01*
X83770118Y53262456D01*
X83770105Y53262443D01*
X83768162Y53260409D01*
X83766414Y53258219D01*
X83766399Y53258200D01*
X83492687Y52914975D01*
X83490924Y52912764D01*
X83489371Y52910413D01*
X83489362Y52910399D01*
X83247527Y52544034D01*
X83247513Y52544012D01*
X83245966Y52541667D01*
X83244630Y52539185D01*
X83244625Y52539176D01*
X83036601Y52152604D01*
X83036595Y52152592D01*
X83035258Y52150107D01*
X83034146Y52147507D01*
X83034140Y52147493D01*
X82861610Y51743840D01*
X82861603Y51743824D01*
X82860497Y51741234D01*
X82859626Y51738556D01*
X82859622Y51738543D01*
X82723963Y51321027D01*
X82723956Y51321005D01*
X82723092Y51318343D01*
X82624147Y50884837D01*
X82564459Y50444207D01*
X82544510Y50000000D01*
X67455490Y50000000D01*
X67435541Y50444207D01*
X67375853Y50884837D01*
X67276908Y51318343D01*
X67139503Y51741234D01*
X66964742Y52150107D01*
X66754034Y52541667D01*
X66509076Y52912764D01*
X66231838Y53260409D01*
X65924554Y53581803D01*
X65589697Y53874358D01*
X65587403Y53876025D01*
X65232248Y54134060D01*
X65232241Y54134065D01*
X65229964Y54135719D01*
X65227551Y54137161D01*
X65227543Y54137166D01*
X64850669Y54362338D01*
X64850657Y54362345D01*
X64848251Y54363782D01*
X64845716Y54365003D01*
X64845712Y54365005D01*
X64450172Y54555488D01*
X64450168Y54555490D01*
X64447632Y54556711D01*
X64444995Y54557701D01*
X64444992Y54557702D01*
X64033978Y54711958D01*
X64033969Y54711961D01*
X64031331Y54712951D01*
X63977118Y54727913D01*
X63605434Y54830492D01*
X63605422Y54830495D01*
X63602700Y54831246D01*
X63599924Y54831750D01*
X63599910Y54831753D01*
X63167972Y54910138D01*
X63167961Y54910140D01*
X63165192Y54910642D01*
X63162381Y54910895D01*
X62725135Y54950248D01*
X62725119Y54950249D01*
X62722327Y54950500D01*
X62277673Y54950500D01*
X62274881Y54950249D01*
X62274864Y54950248D01*
X61837618Y54910895D01*
X61837615Y54910895D01*
X61834808Y54910642D01*
X61832041Y54910140D01*
X61832027Y54910138D01*
X61400089Y54831753D01*
X61400070Y54831749D01*
X61397300Y54831246D01*
X61394582Y54830496D01*
X61394565Y54830492D01*
X60971400Y54713705D01*
X60971394Y54713704D01*
X60968669Y54712951D01*
X60966037Y54711964D01*
X60966021Y54711958D01*
X60555007Y54557702D01*
X60554996Y54557698D01*
X60552368Y54556711D01*
X60549839Y54555494D01*
X60549827Y54555488D01*
X60154287Y54365005D01*
X60154273Y54364998D01*
X60151749Y54363782D01*
X60149351Y54362350D01*
X60149330Y54362338D01*
X59772456Y54137166D01*
X59772438Y54137155D01*
X59770036Y54135719D01*
X59767768Y54134072D01*
X59767751Y54134060D01*
X59412596Y53876025D01*
X59412581Y53876014D01*
X59410303Y53874358D01*
X59408182Y53872506D01*
X59408167Y53872493D01*
X59077578Y53583666D01*
X59075446Y53581803D01*
X59073499Y53579767D01*
X59073490Y53579758D01*
X58770118Y53262456D01*
X58770105Y53262443D01*
X58768162Y53260409D01*
X58766414Y53258219D01*
X58766399Y53258200D01*
X58492687Y52914975D01*
X58490924Y52912764D01*
X58489371Y52910413D01*
X58489362Y52910399D01*
X58247527Y52544034D01*
X58247513Y52544012D01*
X58245966Y52541667D01*
X58244630Y52539185D01*
X58244625Y52539176D01*
X58036601Y52152604D01*
X58036595Y52152592D01*
X58035258Y52150107D01*
X58034146Y52147507D01*
X58034140Y52147493D01*
X57861610Y51743840D01*
X57861603Y51743824D01*
X57860497Y51741234D01*
X57859626Y51738556D01*
X57859622Y51738543D01*
X57723963Y51321027D01*
X57723956Y51321005D01*
X57723092Y51318343D01*
X57624147Y50884837D01*
X57564459Y50444207D01*
X57564332Y50441397D01*
X57564332Y50441388D01*
X57544636Y50002828D01*
X57544636Y50002806D01*
X57544510Y50000000D01*
X42455490Y50000000D01*
X42435541Y50444207D01*
X42375853Y50884837D01*
X42276908Y51318343D01*
X42139503Y51741234D01*
X41964742Y52150107D01*
X41754034Y52541667D01*
X41509076Y52912764D01*
X41231838Y53260409D01*
X40924554Y53581803D01*
X40589697Y53874358D01*
X40587403Y53876025D01*
X40232248Y54134060D01*
X40232241Y54134065D01*
X40229964Y54135719D01*
X40227551Y54137161D01*
X40227543Y54137166D01*
X39850669Y54362338D01*
X39850657Y54362345D01*
X39848251Y54363782D01*
X39845716Y54365003D01*
X39845712Y54365005D01*
X39450172Y54555488D01*
X39450168Y54555490D01*
X39447632Y54556711D01*
X39444995Y54557701D01*
X39444992Y54557702D01*
X39033978Y54711958D01*
X39033969Y54711961D01*
X39031331Y54712951D01*
X38977118Y54727913D01*
X38605434Y54830492D01*
X38605422Y54830495D01*
X38602700Y54831246D01*
X38599924Y54831750D01*
X38599910Y54831753D01*
X38167972Y54910138D01*
X38167961Y54910140D01*
X38165192Y54910642D01*
X38162381Y54910895D01*
X37725135Y54950248D01*
X37725119Y54950249D01*
X37722327Y54950500D01*
X37277673Y54950500D01*
X37274881Y54950249D01*
X37274864Y54950248D01*
X36837618Y54910895D01*
X36837615Y54910895D01*
X36834808Y54910642D01*
X36832041Y54910140D01*
X36832027Y54910138D01*
X36400089Y54831753D01*
X36400070Y54831749D01*
X36397300Y54831246D01*
X36394582Y54830496D01*
X36394565Y54830492D01*
X35971400Y54713705D01*
X35971394Y54713704D01*
X35968669Y54712951D01*
X35966037Y54711964D01*
X35966021Y54711958D01*
X35555007Y54557702D01*
X35554996Y54557698D01*
X35552368Y54556711D01*
X35549839Y54555494D01*
X35549827Y54555488D01*
X35154287Y54365005D01*
X35154273Y54364998D01*
X35151749Y54363782D01*
X35149351Y54362350D01*
X35149330Y54362338D01*
X34772456Y54137166D01*
X34772438Y54137155D01*
X34770036Y54135719D01*
X34767768Y54134072D01*
X34767751Y54134060D01*
X34412596Y53876025D01*
X34412581Y53876014D01*
X34410303Y53874358D01*
X34408182Y53872506D01*
X34408167Y53872493D01*
X34077578Y53583666D01*
X34075446Y53581803D01*
X34073499Y53579767D01*
X34073490Y53579758D01*
X33770118Y53262456D01*
X33770105Y53262443D01*
X33768162Y53260409D01*
X33766414Y53258219D01*
X33766399Y53258200D01*
X33492687Y52914975D01*
X33490924Y52912764D01*
X33489371Y52910413D01*
X33489362Y52910399D01*
X33247527Y52544034D01*
X33247513Y52544012D01*
X33245966Y52541667D01*
X33244630Y52539185D01*
X33244625Y52539176D01*
X33036601Y52152604D01*
X33036595Y52152592D01*
X33035258Y52150107D01*
X33034146Y52147507D01*
X33034140Y52147493D01*
X32861610Y51743840D01*
X32861603Y51743824D01*
X32860497Y51741234D01*
X32859626Y51738556D01*
X32859622Y51738543D01*
X32723963Y51321027D01*
X32723956Y51321005D01*
X32723092Y51318343D01*
X32624147Y50884837D01*
X32564459Y50444207D01*
X32564332Y50441397D01*
X32564332Y50441388D01*
X32544636Y50002828D01*
X32544636Y50002806D01*
X32544510Y50000000D01*
X17455490Y50000000D01*
X17435541Y50444207D01*
X17375853Y50884837D01*
X17276908Y51318343D01*
X17139503Y51741234D01*
X16964742Y52150107D01*
X16754034Y52541667D01*
X16509076Y52912764D01*
X16231838Y53260409D01*
X15924554Y53581803D01*
X15589697Y53874358D01*
X15587403Y53876025D01*
X15232248Y54134060D01*
X15232241Y54134065D01*
X15229964Y54135719D01*
X15227551Y54137161D01*
X15227543Y54137166D01*
X14850669Y54362338D01*
X14850657Y54362345D01*
X14848251Y54363782D01*
X14845716Y54365003D01*
X14845712Y54365005D01*
X14450172Y54555488D01*
X14450168Y54555490D01*
X14447632Y54556711D01*
X14444995Y54557701D01*
X14444992Y54557702D01*
X14033978Y54711958D01*
X14033969Y54711961D01*
X14031331Y54712951D01*
X13977118Y54727913D01*
X13605434Y54830492D01*
X13605422Y54830495D01*
X13602700Y54831246D01*
X13599924Y54831750D01*
X13599910Y54831753D01*
X13167972Y54910138D01*
X13167961Y54910140D01*
X13165192Y54910642D01*
X13162381Y54910895D01*
X12725135Y54950248D01*
X12725119Y54950249D01*
X12722327Y54950500D01*
X12277673Y54950500D01*
X12274881Y54950249D01*
X12274864Y54950248D01*
X11837618Y54910895D01*
X11837615Y54910895D01*
X11834808Y54910642D01*
X11832041Y54910140D01*
X11832027Y54910138D01*
X11400089Y54831753D01*
X11400070Y54831749D01*
X11397300Y54831246D01*
X11394582Y54830496D01*
X11394565Y54830492D01*
X10971400Y54713705D01*
X10971394Y54713704D01*
X10968669Y54712951D01*
X10966037Y54711964D01*
X10966021Y54711958D01*
X10555007Y54557702D01*
X10554996Y54557698D01*
X10552368Y54556711D01*
X10549839Y54555494D01*
X10549827Y54555488D01*
X10154287Y54365005D01*
X10154273Y54364998D01*
X10151749Y54363782D01*
X10149351Y54362350D01*
X10149330Y54362338D01*
X9772456Y54137166D01*
X9772438Y54137155D01*
X9770036Y54135719D01*
X9767768Y54134072D01*
X9767751Y54134060D01*
X9412596Y53876025D01*
X9412581Y53876014D01*
X9410303Y53874358D01*
X9408182Y53872506D01*
X9408167Y53872493D01*
X9077578Y53583666D01*
X9075446Y53581803D01*
X9073499Y53579767D01*
X9073490Y53579758D01*
X8770118Y53262456D01*
X8770105Y53262443D01*
X8768162Y53260409D01*
X8766414Y53258219D01*
X8766399Y53258200D01*
X8492687Y52914975D01*
X8490924Y52912764D01*
X8489371Y52910413D01*
X8489362Y52910399D01*
X8247527Y52544034D01*
X8247513Y52544012D01*
X8245966Y52541667D01*
X8244630Y52539185D01*
X8244625Y52539176D01*
X8036601Y52152604D01*
X8036595Y52152592D01*
X8035258Y52150107D01*
X8034146Y52147507D01*
X8034140Y52147493D01*
X7861610Y51743840D01*
X7861603Y51743824D01*
X7860497Y51741234D01*
X7859626Y51738556D01*
X7859622Y51738543D01*
X7723963Y51321027D01*
X7723956Y51321005D01*
X7723092Y51318343D01*
X7624147Y50884837D01*
X7564459Y50444207D01*
X7544510Y50000000D01*
X50500Y50000000D01*
X50500Y74701608D01*
X49560816Y74701608D01*
X49717867Y74631684D01*
X49904567Y74592000D01*
X50095434Y74592000D01*
X50282132Y74631684D01*
X50439183Y74701608D01*
X50000001Y75140790D01*
X50000000Y75140790D01*
X49560816Y74701608D01*
X50500Y74701608D01*
X50500Y75500000D01*
X49086998Y75500000D01*
X49106949Y75310175D01*
X49165930Y75128649D01*
X49203816Y75063029D01*
X49203818Y75063029D01*
X49640789Y75500000D01*
X49640789Y75500001D01*
X49612630Y75528160D01*
X49696105Y75528160D01*
X49706454Y75416479D01*
X49756448Y75316078D01*
X49839334Y75240516D01*
X49943920Y75200000D01*
X50027802Y75200000D01*
X50110250Y75215412D01*
X50205610Y75274457D01*
X50273201Y75363962D01*
X50303895Y75471840D01*
X50301286Y75499999D01*
X50359209Y75499999D01*
X50796181Y75063028D01*
X50796182Y75063029D01*
X50834068Y75128647D01*
X50893050Y75310174D01*
X50913001Y75500000D01*
X50893050Y75689826D01*
X50834069Y75871352D01*
X50816601Y75901608D01*
X52660816Y75901608D01*
X52817867Y75831684D01*
X53004567Y75792000D01*
X53195434Y75792000D01*
X53382132Y75831684D01*
X53539183Y75901608D01*
X53100001Y76340790D01*
X53100000Y76340790D01*
X52660816Y75901608D01*
X50816601Y75901608D01*
X50796182Y75936974D01*
X50359209Y75500001D01*
X50359209Y75499999D01*
X50301286Y75499999D01*
X50293546Y75583521D01*
X50243552Y75683922D01*
X50160666Y75759484D01*
X50056080Y75800000D01*
X49972198Y75800000D01*
X49889750Y75784588D01*
X49794390Y75725543D01*
X49726799Y75636038D01*
X49696105Y75528160D01*
X49612630Y75528160D01*
X49203817Y75936973D01*
X49165930Y75871350D01*
X49106949Y75689826D01*
X49086998Y75500000D01*
X50500Y75500000D01*
X50500Y76001608D01*
X46360816Y76001608D01*
X46517867Y75931684D01*
X46704567Y75892000D01*
X46895434Y75892000D01*
X47082132Y75931684D01*
X47239183Y76001608D01*
X46800001Y76440790D01*
X46800000Y76440790D01*
X46360816Y76001608D01*
X50500Y76001608D01*
X50500Y80000000D01*
X21244680Y80000000D01*
X21244842Y79996806D01*
X21263784Y79623279D01*
X21263785Y79623263D01*
X21263947Y79620081D01*
X21264430Y79616925D01*
X21264431Y79616920D01*
X21316247Y79278684D01*
X21321552Y79244060D01*
X21322346Y79240993D01*
X21322349Y79240979D01*
X21404048Y78925440D01*
X21416902Y78875796D01*
X21418009Y78872807D01*
X21505871Y78635570D01*
X21549019Y78519068D01*
X21550426Y78516200D01*
X21550428Y78516195D01*
X21715137Y78180413D01*
X21715143Y78180402D01*
X21716549Y78177536D01*
X21917771Y77854705D01*
X22150620Y77553888D01*
X22331389Y77363719D01*
X22403467Y77287893D01*
X22412709Y77278171D01*
X22415124Y77276098D01*
X22415128Y77276094D01*
X22620253Y77100000D01*
X22701346Y77030384D01*
X23013571Y76813069D01*
X23016361Y76811520D01*
X23016365Y76811518D01*
X23308266Y76649500D01*
X23346179Y76628457D01*
X23349099Y76627204D01*
X23349103Y76627202D01*
X23472014Y76574457D01*
X23695758Y76478441D01*
X24058720Y76364561D01*
X24431340Y76287985D01*
X24809796Y76249500D01*
X24812996Y76249500D01*
X25187004Y76249500D01*
X25190204Y76249500D01*
X25568660Y76287985D01*
X25941280Y76364561D01*
X26304242Y76478441D01*
X26653821Y76628457D01*
X26962883Y76800000D01*
X45886998Y76800000D01*
X45906949Y76610175D01*
X45965930Y76428649D01*
X46003817Y76363029D01*
X46440790Y76800001D01*
X46412631Y76828160D01*
X46496105Y76828160D01*
X46506454Y76716479D01*
X46556448Y76616078D01*
X46639334Y76540516D01*
X46743920Y76500000D01*
X46827802Y76500000D01*
X46910250Y76515412D01*
X47005610Y76574457D01*
X47073201Y76663962D01*
X47103895Y76771840D01*
X47101286Y76799999D01*
X47159209Y76799999D01*
X47596181Y76363028D01*
X47596182Y76363029D01*
X47634068Y76428647D01*
X47693050Y76610174D01*
X47713001Y76800000D01*
X47693050Y76989826D01*
X47634069Y77171352D01*
X47596182Y77236974D01*
X47159209Y76800001D01*
X47159209Y76799999D01*
X47101286Y76799999D01*
X47093546Y76883521D01*
X47043552Y76983922D01*
X46960666Y77059484D01*
X46856080Y77100000D01*
X46772198Y77100000D01*
X46689750Y77084588D01*
X46594390Y77025543D01*
X46526799Y76936038D01*
X46496105Y76828160D01*
X46412631Y76828160D01*
X46003817Y77236974D01*
X45965930Y77171350D01*
X45906949Y76989826D01*
X45886998Y76800000D01*
X26962883Y76800000D01*
X26986429Y76813069D01*
X27298654Y77030384D01*
X27587291Y77278171D01*
X27849380Y77553888D01*
X27883830Y77598394D01*
X46360815Y77598394D01*
X46799999Y77159210D01*
X46800000Y77159210D01*
X47239183Y77598394D01*
X47239182Y77598395D01*
X47082135Y77668316D01*
X46895433Y77708000D01*
X46704567Y77708000D01*
X46517864Y77668316D01*
X46360816Y77598395D01*
X46360815Y77598394D01*
X27883830Y77598394D01*
X28082229Y77854705D01*
X28283451Y78177536D01*
X28450981Y78519068D01*
X28583098Y78875796D01*
X28667456Y79201608D01*
X45060816Y79201608D01*
X45217867Y79131684D01*
X45404567Y79092000D01*
X45595434Y79092000D01*
X45782132Y79131684D01*
X45939183Y79201608D01*
X45500001Y79640790D01*
X45500000Y79640790D01*
X45060816Y79201608D01*
X28667456Y79201608D01*
X28678448Y79244060D01*
X28736053Y79620081D01*
X28755320Y80000000D01*
X28755320Y80000001D01*
X44586998Y80000001D01*
X44606949Y79810175D01*
X44665930Y79628649D01*
X44703817Y79563029D01*
X45140790Y80000001D01*
X45112631Y80028160D01*
X45196105Y80028160D01*
X45206454Y79916479D01*
X45256448Y79816078D01*
X45339334Y79740516D01*
X45443920Y79700000D01*
X45527802Y79700000D01*
X45610250Y79715412D01*
X45705610Y79774457D01*
X45773201Y79863962D01*
X45803895Y79971840D01*
X45801286Y79999999D01*
X45859210Y79999999D01*
X46296181Y79563028D01*
X46296182Y79563029D01*
X46334068Y79628647D01*
X46393050Y79810175D01*
X46400333Y79879469D01*
X46427346Y79945126D01*
X46485567Y79985756D01*
X46556513Y79988459D01*
X46617657Y79952377D01*
X46649587Y79888966D01*
X46651458Y79873121D01*
X46660844Y79700000D01*
X46664249Y79637215D01*
X46664799Y79633861D01*
X46664800Y79633851D01*
X46722474Y79282053D01*
X46722476Y79282041D01*
X46723027Y79278684D01*
X46723935Y79275412D01*
X46723939Y79275396D01*
X46819312Y78931896D01*
X46820225Y78928609D01*
X46821483Y78925451D01*
X46821487Y78925440D01*
X46953440Y78594262D01*
X46954702Y78591095D01*
X46956295Y78588089D01*
X46956298Y78588084D01*
X46994719Y78515615D01*
X47124883Y78270100D01*
X47126793Y78267283D01*
X47126796Y78267278D01*
X47326855Y77972214D01*
X47326860Y77972208D01*
X47328773Y77969386D01*
X47330981Y77966787D01*
X47330986Y77966780D01*
X47550795Y77708000D01*
X47563979Y77692479D01*
X47566448Y77690140D01*
X47566454Y77690134D01*
X47814294Y77455367D01*
X47827746Y77442625D01*
X48116981Y77222755D01*
X48428292Y77035445D01*
X48449695Y77025543D01*
X48592479Y76959484D01*
X48758031Y76882892D01*
X49102330Y76766884D01*
X49457153Y76688782D01*
X49818341Y76649500D01*
X49821756Y76649500D01*
X49841923Y76649500D01*
X49910044Y76629498D01*
X49956537Y76575842D01*
X49966641Y76505568D01*
X49937147Y76440988D01*
X49877421Y76402604D01*
X49868120Y76400253D01*
X49717864Y76368316D01*
X49560816Y76298395D01*
X49560815Y76298394D01*
X49999999Y75859210D01*
X50000000Y75859210D01*
X50439183Y76298394D01*
X50439182Y76298395D01*
X50282135Y76368316D01*
X50131880Y76400253D01*
X50069407Y76433981D01*
X50035085Y76496131D01*
X50039813Y76566970D01*
X50082088Y76624007D01*
X50148490Y76649135D01*
X50158077Y76649500D01*
X50178244Y76649500D01*
X50181659Y76649500D01*
X50542847Y76688782D01*
X50593811Y76700000D01*
X52186998Y76700000D01*
X52206949Y76510175D01*
X52265930Y76328649D01*
X52303816Y76263029D01*
X52303818Y76263029D01*
X52740788Y76699999D01*
X52740788Y76700001D01*
X52712629Y76728160D01*
X52796105Y76728160D01*
X52806454Y76616479D01*
X52856448Y76516078D01*
X52939334Y76440516D01*
X53043920Y76400000D01*
X53127802Y76400000D01*
X53210250Y76415412D01*
X53305610Y76474457D01*
X53373201Y76563962D01*
X53403895Y76671840D01*
X53401286Y76699999D01*
X53459210Y76699999D01*
X53896181Y76263028D01*
X53896182Y76263029D01*
X53934068Y76328647D01*
X53993050Y76510174D01*
X54013001Y76700000D01*
X53993050Y76889826D01*
X53934069Y77071352D01*
X53896182Y77136974D01*
X53459210Y76700001D01*
X53459210Y76699999D01*
X53401286Y76699999D01*
X53393546Y76783521D01*
X53343552Y76883922D01*
X53260666Y76959484D01*
X53156080Y77000000D01*
X53072198Y77000000D01*
X52989750Y76984588D01*
X52894390Y76925543D01*
X52826799Y76836038D01*
X52796105Y76728160D01*
X52712629Y76728160D01*
X52303817Y77136973D01*
X52265930Y77071350D01*
X52206949Y76889826D01*
X52186998Y76700000D01*
X50593811Y76700000D01*
X50897670Y76766884D01*
X51241969Y76882892D01*
X51571708Y77035445D01*
X51883019Y77222755D01*
X52172254Y77442625D01*
X52231128Y77498394D01*
X52660815Y77498394D01*
X53099999Y77059210D01*
X53100000Y77059210D01*
X53539183Y77498394D01*
X53539182Y77498395D01*
X53382135Y77568316D01*
X53195433Y77608000D01*
X53004567Y77608000D01*
X52817864Y77568316D01*
X52660816Y77498395D01*
X52660815Y77498394D01*
X52231128Y77498394D01*
X52436021Y77692479D01*
X52671227Y77969386D01*
X52875117Y78270100D01*
X53045298Y78591095D01*
X53179775Y78928609D01*
X53255573Y79201608D01*
X54060816Y79201608D01*
X54217867Y79131684D01*
X54404567Y79092000D01*
X54595434Y79092000D01*
X54782132Y79131684D01*
X54939183Y79201608D01*
X54500001Y79640790D01*
X54500000Y79640790D01*
X54060816Y79201608D01*
X53255573Y79201608D01*
X53276973Y79278684D01*
X53335751Y79637215D01*
X53348541Y79873123D01*
X53372201Y79940058D01*
X53428295Y79983578D01*
X53499013Y79989863D01*
X53561903Y79956917D01*
X53596997Y79895200D01*
X53599666Y79879471D01*
X53606949Y79810175D01*
X53665930Y79628649D01*
X53703817Y79563029D01*
X54140790Y80000001D01*
X54112631Y80028160D01*
X54196105Y80028160D01*
X54206454Y79916479D01*
X54256448Y79816078D01*
X54339334Y79740516D01*
X54443920Y79700000D01*
X54527802Y79700000D01*
X54610250Y79715412D01*
X54705610Y79774457D01*
X54773201Y79863962D01*
X54803895Y79971840D01*
X54801286Y79999999D01*
X54859210Y79999999D01*
X55296181Y79563028D01*
X55296182Y79563029D01*
X55334068Y79628647D01*
X55393050Y79810174D01*
X55413001Y80000000D01*
X55393050Y80189826D01*
X55334069Y80371352D01*
X55296182Y80436974D01*
X54859210Y80000001D01*
X54859210Y79999999D01*
X54801286Y79999999D01*
X54793546Y80083521D01*
X54743552Y80183922D01*
X54660666Y80259484D01*
X54556080Y80300000D01*
X54472198Y80300000D01*
X54389750Y80284588D01*
X54294390Y80225543D01*
X54226799Y80136038D01*
X54196105Y80028160D01*
X54112631Y80028160D01*
X53703817Y80436974D01*
X53665930Y80371350D01*
X53606949Y80189826D01*
X53599666Y80120530D01*
X53572652Y80054874D01*
X53514430Y80014245D01*
X53443485Y80011542D01*
X53382341Y80047625D01*
X53350411Y80111036D01*
X53348542Y80126872D01*
X53335751Y80362785D01*
X53276973Y80721316D01*
X53255572Y80798394D01*
X54060815Y80798394D01*
X54499999Y80359210D01*
X54500000Y80359210D01*
X54939183Y80798394D01*
X54939182Y80798395D01*
X54782135Y80868316D01*
X54595433Y80908000D01*
X54404567Y80908000D01*
X54217864Y80868316D01*
X54060816Y80798395D01*
X54060815Y80798394D01*
X53255572Y80798394D01*
X53179775Y81071391D01*
X53045298Y81408905D01*
X52875117Y81729900D01*
X52671227Y82030614D01*
X52576124Y82142578D01*
X52438226Y82304925D01*
X52436021Y82307521D01*
X52433550Y82309862D01*
X52433545Y82309867D01*
X52336695Y82401608D01*
X52760816Y82401608D01*
X52917867Y82331684D01*
X53104567Y82292000D01*
X53295434Y82292000D01*
X53482132Y82331684D01*
X53639183Y82401608D01*
X53200001Y82840790D01*
X53200000Y82840790D01*
X52760816Y82401608D01*
X52336695Y82401608D01*
X52174737Y82555023D01*
X52174736Y82555024D01*
X52172254Y82557375D01*
X51883019Y82777245D01*
X51880086Y82779010D01*
X51574627Y82962799D01*
X51574622Y82962802D01*
X51571708Y82964555D01*
X51568624Y82965982D01*
X51568618Y82965985D01*
X51245068Y83115675D01*
X51245056Y83115680D01*
X51241969Y83117108D01*
X51238730Y83118200D01*
X51238726Y83118201D01*
X50995956Y83200000D01*
X52286998Y83200000D01*
X52306949Y83010175D01*
X52365930Y82828649D01*
X52403817Y82763029D01*
X52840790Y83200001D01*
X52812631Y83228160D01*
X52896105Y83228160D01*
X52906454Y83116479D01*
X52956448Y83016078D01*
X53039334Y82940516D01*
X53143920Y82900000D01*
X53227802Y82900000D01*
X53310250Y82915412D01*
X53405610Y82974457D01*
X53473201Y83063962D01*
X53503895Y83171840D01*
X53501285Y83200001D01*
X53559209Y83200001D01*
X53996181Y82763029D01*
X53996182Y82763029D01*
X54034068Y82828647D01*
X54093050Y83010174D01*
X54113001Y83200000D01*
X54093050Y83389826D01*
X54034069Y83571352D01*
X53996182Y83636973D01*
X53559209Y83200001D01*
X53501285Y83200001D01*
X53493546Y83283521D01*
X53443552Y83383922D01*
X53360666Y83459484D01*
X53256080Y83500000D01*
X53172198Y83500000D01*
X53089750Y83484588D01*
X52994390Y83425543D01*
X52926799Y83336038D01*
X52896105Y83228160D01*
X52812631Y83228160D01*
X52403817Y83636974D01*
X52365930Y83571350D01*
X52306949Y83389826D01*
X52286998Y83200000D01*
X50995956Y83200000D01*
X50900906Y83232026D01*
X50900900Y83232028D01*
X50897670Y83233116D01*
X50894346Y83233848D01*
X50894334Y83233851D01*
X50546178Y83310485D01*
X50546174Y83310486D01*
X50542847Y83311218D01*
X50530130Y83312601D01*
X50185057Y83350131D01*
X50185046Y83350132D01*
X50181659Y83350500D01*
X50158077Y83350500D01*
X50089956Y83370502D01*
X50043463Y83424158D01*
X50033359Y83494432D01*
X50062853Y83559012D01*
X50122579Y83597396D01*
X50131881Y83599747D01*
X50282132Y83631684D01*
X50439183Y83701608D01*
X50142397Y83998394D01*
X52760815Y83998394D01*
X53199999Y83559210D01*
X53200000Y83559210D01*
X53639183Y83998394D01*
X53639182Y83998395D01*
X53482135Y84068316D01*
X53295433Y84108000D01*
X53104567Y84108000D01*
X52917864Y84068316D01*
X52760816Y83998395D01*
X52760815Y83998394D01*
X50142397Y83998394D01*
X50000001Y84140790D01*
X50000000Y84140790D01*
X49560816Y83701608D01*
X49717867Y83631684D01*
X49868120Y83599747D01*
X49930593Y83566019D01*
X49964915Y83503869D01*
X49960187Y83433030D01*
X49917912Y83375993D01*
X49851510Y83350865D01*
X49841923Y83350500D01*
X49818341Y83350500D01*
X49814954Y83350132D01*
X49814942Y83350131D01*
X49460545Y83311587D01*
X49460543Y83311587D01*
X49457153Y83311218D01*
X49453828Y83310487D01*
X49453821Y83310485D01*
X49105665Y83233851D01*
X49105649Y83233847D01*
X49102330Y83233116D01*
X49099104Y83232030D01*
X49099093Y83232026D01*
X48761273Y83118201D01*
X48761262Y83118197D01*
X48758031Y83117108D01*
X48754949Y83115683D01*
X48754931Y83115675D01*
X48431381Y82965985D01*
X48431367Y82965979D01*
X48428292Y82964555D01*
X48425384Y82962806D01*
X48425372Y82962799D01*
X48119913Y82779010D01*
X48119901Y82779003D01*
X48116981Y82777245D01*
X48114265Y82775181D01*
X48114257Y82775175D01*
X47830464Y82559442D01*
X47830454Y82559435D01*
X47827746Y82557375D01*
X47825271Y82555032D01*
X47825262Y82555023D01*
X47566454Y82309867D01*
X47566439Y82309852D01*
X47563979Y82307521D01*
X47561782Y82304935D01*
X47561773Y82304925D01*
X47330986Y82033221D01*
X47330974Y82033206D01*
X47328773Y82030614D01*
X47326866Y82027803D01*
X47326855Y82027787D01*
X47126796Y81732723D01*
X47126787Y81732710D01*
X47124883Y81729900D01*
X47123287Y81726890D01*
X47123283Y81726883D01*
X46956298Y81411917D01*
X46956292Y81411905D01*
X46954702Y81408905D01*
X46953444Y81405748D01*
X46953440Y81405739D01*
X46821487Y81074561D01*
X46821481Y81074545D01*
X46820225Y81071391D01*
X46819315Y81068116D01*
X46819312Y81068105D01*
X46723939Y80724605D01*
X46723934Y80724585D01*
X46723027Y80721316D01*
X46722477Y80717964D01*
X46722474Y80717948D01*
X46664800Y80366150D01*
X46664798Y80366139D01*
X46664249Y80362785D01*
X46664064Y80359390D01*
X46664064Y80359381D01*
X46651458Y80126880D01*
X46627797Y80059942D01*
X46571703Y80016423D01*
X46500985Y80010138D01*
X46438096Y80043085D01*
X46403002Y80104801D01*
X46400333Y80120532D01*
X46393050Y80189826D01*
X46334069Y80371352D01*
X46296182Y80436974D01*
X45859210Y80000001D01*
X45859210Y79999999D01*
X45801286Y79999999D01*
X45793546Y80083521D01*
X45743552Y80183922D01*
X45660666Y80259484D01*
X45556080Y80300000D01*
X45472198Y80300000D01*
X45389750Y80284588D01*
X45294390Y80225543D01*
X45226799Y80136038D01*
X45196105Y80028160D01*
X45112631Y80028160D01*
X44703817Y80436974D01*
X44665930Y80371350D01*
X44606949Y80189826D01*
X44586998Y80000001D01*
X28755320Y80000001D01*
X28736053Y80379919D01*
X28678448Y80755940D01*
X28667456Y80798394D01*
X45060815Y80798394D01*
X45499999Y80359210D01*
X45500000Y80359210D01*
X45939183Y80798394D01*
X45939182Y80798395D01*
X45782135Y80868316D01*
X45595433Y80908000D01*
X45404567Y80908000D01*
X45217864Y80868316D01*
X45060816Y80798395D01*
X45060815Y80798394D01*
X28667456Y80798394D01*
X28583098Y81124204D01*
X28450981Y81480932D01*
X28283451Y81822464D01*
X28082229Y82145295D01*
X27883829Y82401608D01*
X46360816Y82401608D01*
X46517867Y82331684D01*
X46704567Y82292000D01*
X46895434Y82292000D01*
X47082132Y82331684D01*
X47239183Y82401608D01*
X46800001Y82840790D01*
X46800000Y82840790D01*
X46360816Y82401608D01*
X27883829Y82401608D01*
X27849380Y82446112D01*
X27587291Y82721829D01*
X27584876Y82723902D01*
X27584871Y82723907D01*
X27301084Y82967530D01*
X27301082Y82967531D01*
X27298654Y82969616D01*
X27296034Y82971440D01*
X27296027Y82971445D01*
X26989054Y83185104D01*
X26989053Y83185105D01*
X26986429Y83186931D01*
X26983643Y83188478D01*
X26983634Y83188483D01*
X26962884Y83200000D01*
X45886998Y83200000D01*
X45906949Y83010175D01*
X45965930Y82828649D01*
X46003817Y82763029D01*
X46440790Y83200001D01*
X46412631Y83228160D01*
X46496105Y83228160D01*
X46506454Y83116479D01*
X46556448Y83016078D01*
X46639334Y82940516D01*
X46743920Y82900000D01*
X46827802Y82900000D01*
X46910250Y82915412D01*
X47005610Y82974457D01*
X47073201Y83063962D01*
X47103895Y83171840D01*
X47101286Y83199999D01*
X47159209Y83199999D01*
X47596181Y82763028D01*
X47596182Y82763029D01*
X47634068Y82828647D01*
X47693050Y83010174D01*
X47713001Y83200000D01*
X47693050Y83389826D01*
X47634069Y83571352D01*
X47596182Y83636974D01*
X47159209Y83200001D01*
X47159209Y83199999D01*
X47101286Y83199999D01*
X47093546Y83283521D01*
X47043552Y83383922D01*
X46960666Y83459484D01*
X46856080Y83500000D01*
X46772198Y83500000D01*
X46689750Y83484588D01*
X46594390Y83425543D01*
X46526799Y83336038D01*
X46496105Y83228160D01*
X46412631Y83228160D01*
X46003817Y83636974D01*
X45965930Y83571350D01*
X45906949Y83389826D01*
X45886998Y83200000D01*
X26962884Y83200000D01*
X26656604Y83369999D01*
X26656593Y83370005D01*
X26653821Y83371543D01*
X26650908Y83372793D01*
X26650896Y83372799D01*
X26307165Y83520305D01*
X26307158Y83520308D01*
X26304242Y83521559D01*
X26055039Y83599747D01*
X25944312Y83634488D01*
X25944306Y83634490D01*
X25941280Y83635439D01*
X25938175Y83636077D01*
X25938164Y83636080D01*
X25571784Y83711373D01*
X25571783Y83711374D01*
X25568660Y83712015D01*
X25565496Y83712337D01*
X25565488Y83712338D01*
X25193383Y83750177D01*
X25193377Y83750178D01*
X25190204Y83750500D01*
X24809796Y83750500D01*
X24806623Y83750178D01*
X24806616Y83750177D01*
X24434511Y83712338D01*
X24434500Y83712337D01*
X24431340Y83712015D01*
X24428219Y83711374D01*
X24428215Y83711373D01*
X24061835Y83636080D01*
X24061819Y83636076D01*
X24058720Y83635439D01*
X24055698Y83634491D01*
X24055687Y83634488D01*
X23815760Y83559210D01*
X23695758Y83521559D01*
X23692847Y83520310D01*
X23692834Y83520305D01*
X23349103Y83372799D01*
X23349083Y83372790D01*
X23346179Y83371543D01*
X23343414Y83370009D01*
X23343395Y83369999D01*
X23016365Y83188483D01*
X23016347Y83188472D01*
X23013571Y83186931D01*
X23010955Y83185111D01*
X23010945Y83185104D01*
X22703972Y82971445D01*
X22703956Y82971433D01*
X22701346Y82969616D01*
X22698926Y82967539D01*
X22698915Y82967530D01*
X22415128Y82723907D01*
X22415113Y82723894D01*
X22412709Y82721829D01*
X22410525Y82719533D01*
X22410515Y82719522D01*
X22152816Y82448423D01*
X22152808Y82448415D01*
X22150620Y82446112D01*
X22148675Y82443600D01*
X22148667Y82443590D01*
X21919728Y82147824D01*
X21919722Y82147817D01*
X21917771Y82145295D01*
X21916081Y82142585D01*
X21916077Y82142578D01*
X21718245Y81825186D01*
X21718239Y81825177D01*
X21716549Y81822464D01*
X21715147Y81819608D01*
X21715137Y81819588D01*
X21550428Y81483806D01*
X21550422Y81483794D01*
X21549019Y81480932D01*
X21547912Y81477946D01*
X21547908Y81477934D01*
X21418218Y81127758D01*
X21416902Y81124204D01*
X21416105Y81121130D01*
X21416103Y81121120D01*
X21322349Y80759022D01*
X21322345Y80759004D01*
X21321552Y80755940D01*
X21321071Y80752803D01*
X21321069Y80752791D01*
X21264431Y80383081D01*
X21263947Y80379919D01*
X21263785Y80376740D01*
X21263784Y80376722D01*
X21247720Y80059942D01*
X21244680Y80000000D01*
X50500Y80000000D01*
X50500Y83998394D01*
X46360815Y83998394D01*
X46799999Y83559210D01*
X46800000Y83559210D01*
X47239183Y83998394D01*
X47239182Y83998395D01*
X47082135Y84068316D01*
X46895433Y84108000D01*
X46704567Y84108000D01*
X46517864Y84068316D01*
X46360816Y83998395D01*
X46360815Y83998394D01*
X50500Y83998394D01*
X50500Y84500000D01*
X49086998Y84500000D01*
X49106949Y84310175D01*
X49165930Y84128649D01*
X49203817Y84063029D01*
X49640790Y84500001D01*
X49612631Y84528160D01*
X49696105Y84528160D01*
X49706454Y84416479D01*
X49756448Y84316078D01*
X49839334Y84240516D01*
X49943920Y84200000D01*
X50027802Y84200000D01*
X50110250Y84215412D01*
X50205610Y84274457D01*
X50273201Y84363962D01*
X50303895Y84471840D01*
X50301285Y84500001D01*
X50359209Y84500001D01*
X50796181Y84063029D01*
X50796182Y84063029D01*
X50834068Y84128647D01*
X50893050Y84310174D01*
X50913001Y84500000D01*
X50893050Y84689826D01*
X50834069Y84871352D01*
X50796182Y84936973D01*
X50359209Y84500001D01*
X50301285Y84500001D01*
X50293546Y84583521D01*
X50243552Y84683922D01*
X50160666Y84759484D01*
X50056080Y84800000D01*
X49972198Y84800000D01*
X49889750Y84784588D01*
X49794390Y84725543D01*
X49726799Y84636038D01*
X49696105Y84528160D01*
X49612631Y84528160D01*
X49203817Y84936974D01*
X49165930Y84871350D01*
X49106949Y84689826D01*
X49086998Y84500000D01*
X50500Y84500000D01*
X50500Y85298394D01*
X49560815Y85298394D01*
X49999999Y84859210D01*
X50000000Y84859210D01*
X50439183Y85298394D01*
X50439182Y85298395D01*
X50282135Y85368316D01*
X50095433Y85408000D01*
X49904567Y85408000D01*
X49717864Y85368316D01*
X49560816Y85298395D01*
X49560815Y85298394D01*
X50500Y85298394D01*
X50500Y115000000D01*
X21244680Y115000000D01*
X21244842Y114996806D01*
X21263784Y114623279D01*
X21263785Y114623263D01*
X21263947Y114620081D01*
X21264430Y114616925D01*
X21264431Y114616920D01*
X21298398Y114395194D01*
X21321552Y114244060D01*
X21322346Y114240993D01*
X21322349Y114240979D01*
X21389855Y113980256D01*
X21416902Y113875796D01*
X21549019Y113519068D01*
X21550426Y113516200D01*
X21550428Y113516195D01*
X21715137Y113180413D01*
X21715143Y113180402D01*
X21716549Y113177536D01*
X21917771Y112854705D01*
X22150620Y112553888D01*
X22152816Y112551578D01*
X22403467Y112287893D01*
X22412709Y112278171D01*
X22701346Y112030384D01*
X23013571Y111813069D01*
X23346179Y111628457D01*
X23695758Y111478441D01*
X24058720Y111364561D01*
X24431340Y111287985D01*
X24809796Y111249500D01*
X24812996Y111249500D01*
X25187004Y111249500D01*
X25190204Y111249500D01*
X25568660Y111287985D01*
X25941280Y111364561D01*
X26304242Y111478441D01*
X26653821Y111628457D01*
X26986429Y111813069D01*
X27298654Y112030384D01*
X27587291Y112278171D01*
X27849380Y112553888D01*
X28082229Y112854705D01*
X28283451Y113177536D01*
X28450981Y113519068D01*
X28583098Y113875796D01*
X28678448Y114244060D01*
X28736053Y114620081D01*
X28755320Y115000000D01*
X71244680Y115000000D01*
X71244842Y114996806D01*
X71263784Y114623279D01*
X71263785Y114623263D01*
X71263947Y114620081D01*
X71264430Y114616925D01*
X71264431Y114616920D01*
X71298398Y114395194D01*
X71321552Y114244060D01*
X71322346Y114240993D01*
X71322349Y114240979D01*
X71389855Y113980256D01*
X71416902Y113875796D01*
X71549019Y113519068D01*
X71550426Y113516200D01*
X71550428Y113516195D01*
X71715137Y113180413D01*
X71715143Y113180402D01*
X71716549Y113177536D01*
X71917771Y112854705D01*
X72150620Y112553888D01*
X72152816Y112551578D01*
X72403467Y112287893D01*
X72412709Y112278171D01*
X72701346Y112030384D01*
X73013571Y111813069D01*
X73346179Y111628457D01*
X73695758Y111478441D01*
X74058720Y111364561D01*
X74431340Y111287985D01*
X74809796Y111249500D01*
X74812996Y111249500D01*
X75187004Y111249500D01*
X75190204Y111249500D01*
X75568660Y111287985D01*
X75941280Y111364561D01*
X76304242Y111478441D01*
X76653821Y111628457D01*
X76986429Y111813069D01*
X77298654Y112030384D01*
X77587291Y112278171D01*
X77849380Y112553888D01*
X78082229Y112854705D01*
X78283451Y113177536D01*
X78450981Y113519068D01*
X78583098Y113875796D01*
X78678448Y114244060D01*
X78736053Y114620081D01*
X78749015Y114875665D01*
X88499500Y114875665D01*
X88540429Y114630386D01*
X88540430Y114630384D01*
X88621170Y114395194D01*
X88621171Y114395191D01*
X88621172Y114395190D01*
X88704493Y114241226D01*
X88739527Y114176490D01*
X88892262Y113980256D01*
X89075217Y113811834D01*
X89283389Y113675829D01*
X89283391Y113675828D01*
X89283393Y113675827D01*
X89511119Y113575937D01*
X89752179Y113514892D01*
X89937933Y113499500D01*
X89940547Y113499500D01*
X90059453Y113499500D01*
X90062067Y113499500D01*
X90247821Y113514892D01*
X90488881Y113575937D01*
X90716607Y113675827D01*
X90924785Y113811836D01*
X91107738Y113980256D01*
X91260474Y114176491D01*
X91378828Y114395190D01*
X91459571Y114630386D01*
X91500500Y114875665D01*
X91500500Y115124335D01*
X91459571Y115369614D01*
X91378828Y115604810D01*
X91260474Y115823509D01*
X91107738Y116019744D01*
X90991016Y116127194D01*
X90924782Y116188167D01*
X90716610Y116324172D01*
X90488876Y116424065D01*
X90247826Y116485107D01*
X90247824Y116485108D01*
X90247821Y116485108D01*
X90123361Y116495422D01*
X90064665Y116500285D01*
X90064658Y116500286D01*
X90062067Y116500500D01*
X89937933Y116500500D01*
X89935342Y116500286D01*
X89935334Y116500285D01*
X89859028Y116493962D01*
X89752179Y116485108D01*
X89752176Y116485108D01*
X89752173Y116485107D01*
X89511123Y116424065D01*
X89283389Y116324172D01*
X89075217Y116188167D01*
X88892262Y116019745D01*
X88739527Y115823511D01*
X88621170Y115604807D01*
X88545052Y115383081D01*
X88540429Y115369614D01*
X88499500Y115124335D01*
X88499500Y114875665D01*
X78749015Y114875665D01*
X78755320Y115000000D01*
X78736053Y115379919D01*
X78678448Y115755940D01*
X78583098Y116124204D01*
X78450981Y116480932D01*
X78283451Y116822464D01*
X78082229Y117145295D01*
X77849380Y117446112D01*
X77587291Y117721829D01*
X77584876Y117723902D01*
X77584871Y117723907D01*
X77301084Y117967530D01*
X77301082Y117967531D01*
X77298654Y117969616D01*
X77296034Y117971440D01*
X77296027Y117971445D01*
X76989054Y118185104D01*
X76989053Y118185105D01*
X76986429Y118186931D01*
X76983643Y118188478D01*
X76983634Y118188483D01*
X76656604Y118369999D01*
X76656593Y118370005D01*
X76653821Y118371543D01*
X76650908Y118372793D01*
X76650896Y118372799D01*
X76307165Y118520305D01*
X76307158Y118520308D01*
X76304242Y118521559D01*
X76142445Y118572323D01*
X75944312Y118634488D01*
X75944306Y118634490D01*
X75941280Y118635439D01*
X75938175Y118636077D01*
X75938164Y118636080D01*
X75571784Y118711373D01*
X75571783Y118711374D01*
X75568660Y118712015D01*
X75565496Y118712337D01*
X75565488Y118712338D01*
X75193383Y118750177D01*
X75193377Y118750178D01*
X75190204Y118750500D01*
X74809796Y118750500D01*
X74806623Y118750178D01*
X74806616Y118750177D01*
X74434511Y118712338D01*
X74434500Y118712337D01*
X74431340Y118712015D01*
X74428219Y118711374D01*
X74428215Y118711373D01*
X74061835Y118636080D01*
X74061819Y118636076D01*
X74058720Y118635439D01*
X74055698Y118634491D01*
X74055687Y118634488D01*
X73698792Y118522511D01*
X73695758Y118521559D01*
X73692847Y118520310D01*
X73692834Y118520305D01*
X73349103Y118372799D01*
X73349083Y118372790D01*
X73346179Y118371543D01*
X73343414Y118370009D01*
X73343395Y118369999D01*
X73016365Y118188483D01*
X73016347Y118188472D01*
X73013571Y118186931D01*
X73010955Y118185111D01*
X73010945Y118185104D01*
X72703972Y117971445D01*
X72703956Y117971433D01*
X72701346Y117969616D01*
X72698926Y117967539D01*
X72698915Y117967530D01*
X72415128Y117723907D01*
X72415113Y117723894D01*
X72412709Y117721829D01*
X72410525Y117719533D01*
X72410515Y117719522D01*
X72152816Y117448423D01*
X72152808Y117448415D01*
X72150620Y117446112D01*
X72148675Y117443600D01*
X72148667Y117443590D01*
X71919728Y117147824D01*
X71919722Y117147817D01*
X71917771Y117145295D01*
X71916081Y117142585D01*
X71916077Y117142578D01*
X71718245Y116825186D01*
X71718239Y116825177D01*
X71716549Y116822464D01*
X71715147Y116819608D01*
X71715137Y116819588D01*
X71550428Y116483806D01*
X71550422Y116483794D01*
X71549019Y116480932D01*
X71547912Y116477946D01*
X71547908Y116477934D01*
X71440591Y116188167D01*
X71416902Y116124204D01*
X71416105Y116121130D01*
X71416103Y116121120D01*
X71322349Y115759022D01*
X71322345Y115759004D01*
X71321552Y115755940D01*
X71321071Y115752803D01*
X71321069Y115752791D01*
X71264431Y115383081D01*
X71263947Y115379919D01*
X71263785Y115376740D01*
X71263784Y115376722D01*
X71263424Y115369614D01*
X71244680Y115000000D01*
X28755320Y115000000D01*
X28736053Y115379919D01*
X28678448Y115755940D01*
X28583098Y116124204D01*
X28450981Y116480932D01*
X28283451Y116822464D01*
X28082229Y117145295D01*
X27849380Y117446112D01*
X27587291Y117721829D01*
X27584876Y117723902D01*
X27584871Y117723907D01*
X27301084Y117967530D01*
X27301082Y117967531D01*
X27298654Y117969616D01*
X27296034Y117971440D01*
X27296027Y117971445D01*
X26989054Y118185104D01*
X26989053Y118185105D01*
X26986429Y118186931D01*
X26983643Y118188478D01*
X26983634Y118188483D01*
X26656604Y118369999D01*
X26656593Y118370005D01*
X26653821Y118371543D01*
X26650908Y118372793D01*
X26650896Y118372799D01*
X26307165Y118520305D01*
X26307158Y118520308D01*
X26304242Y118521559D01*
X26142445Y118572323D01*
X25944312Y118634488D01*
X25944306Y118634490D01*
X25941280Y118635439D01*
X25938175Y118636077D01*
X25938164Y118636080D01*
X25571784Y118711373D01*
X25571783Y118711374D01*
X25568660Y118712015D01*
X25565496Y118712337D01*
X25565488Y118712338D01*
X25193383Y118750177D01*
X25193377Y118750178D01*
X25190204Y118750500D01*
X24809796Y118750500D01*
X24806623Y118750178D01*
X24806616Y118750177D01*
X24434511Y118712338D01*
X24434500Y118712337D01*
X24431340Y118712015D01*
X24428219Y118711374D01*
X24428215Y118711373D01*
X24061835Y118636080D01*
X24061819Y118636076D01*
X24058720Y118635439D01*
X24055698Y118634491D01*
X24055687Y118634488D01*
X23698792Y118522511D01*
X23695758Y118521559D01*
X23692847Y118520310D01*
X23692834Y118520305D01*
X23349103Y118372799D01*
X23349083Y118372790D01*
X23346179Y118371543D01*
X23343414Y118370009D01*
X23343395Y118369999D01*
X23016365Y118188483D01*
X23016347Y118188472D01*
X23013571Y118186931D01*
X23010955Y118185111D01*
X23010945Y118185104D01*
X22703972Y117971445D01*
X22703956Y117971433D01*
X22701346Y117969616D01*
X22698926Y117967539D01*
X22698915Y117967530D01*
X22415128Y117723907D01*
X22415113Y117723894D01*
X22412709Y117721829D01*
X22410525Y117719533D01*
X22410515Y117719522D01*
X22152816Y117448423D01*
X22152808Y117448415D01*
X22150620Y117446112D01*
X22148675Y117443600D01*
X22148667Y117443590D01*
X21919728Y117147824D01*
X21919722Y117147817D01*
X21917771Y117145295D01*
X21916081Y117142585D01*
X21916077Y117142578D01*
X21718245Y116825186D01*
X21718239Y116825177D01*
X21716549Y116822464D01*
X21715147Y116819608D01*
X21715137Y116819588D01*
X21550428Y116483806D01*
X21550422Y116483794D01*
X21549019Y116480932D01*
X21547912Y116477946D01*
X21547908Y116477934D01*
X21440591Y116188167D01*
X21416902Y116124204D01*
X21416105Y116121130D01*
X21416103Y116121120D01*
X21322349Y115759022D01*
X21322345Y115759004D01*
X21321552Y115755940D01*
X21321071Y115752803D01*
X21321069Y115752791D01*
X21264431Y115383081D01*
X21263947Y115379919D01*
X21263785Y115376740D01*
X21263784Y115376722D01*
X21263424Y115369614D01*
X21244680Y115000000D01*
X50500Y115000000D01*
X50500Y126500000D01*
X34744473Y126500000D01*
X34764564Y126167858D01*
X34765247Y126164129D01*
X34765249Y126164116D01*
X34823857Y125844304D01*
X34823859Y125844293D01*
X34824544Y125840559D01*
X34825675Y125836928D01*
X34825676Y125836926D01*
X34922403Y125526514D01*
X34922406Y125526505D01*
X34923537Y125522877D01*
X34925101Y125519402D01*
X35058537Y125222919D01*
X35058541Y125222912D01*
X35060102Y125219443D01*
X35232246Y124934682D01*
X35437458Y124672748D01*
X35672748Y124437458D01*
X35934682Y124232246D01*
X36219443Y124060102D01*
X36522877Y123923537D01*
X36840559Y123824544D01*
X37167858Y123764564D01*
X37416894Y123749500D01*
X37418782Y123749500D01*
X37581218Y123749500D01*
X37583106Y123749500D01*
X37832142Y123764564D01*
X38159441Y123824544D01*
X38477123Y123923537D01*
X38780557Y124060102D01*
X39065318Y124232246D01*
X39327252Y124437458D01*
X39562542Y124672748D01*
X39767754Y124934682D01*
X39939898Y125219443D01*
X40076463Y125522877D01*
X40175456Y125840559D01*
X40235436Y126167858D01*
X40255527Y126500000D01*
X40235436Y126832142D01*
X40175456Y127159441D01*
X40076463Y127477123D01*
X39939898Y127780557D01*
X39767754Y128065318D01*
X39562542Y128327252D01*
X39327252Y128562542D01*
X39065318Y128767754D01*
X38780557Y128939898D01*
X38777088Y128941459D01*
X38777081Y128941463D01*
X38480598Y129074899D01*
X38477123Y129076463D01*
X38473495Y129077594D01*
X38473486Y129077597D01*
X38163074Y129174324D01*
X38163072Y129174325D01*
X38159441Y129175456D01*
X38155707Y129176141D01*
X38155696Y129176143D01*
X37835884Y129234751D01*
X37835871Y129234753D01*
X37832142Y129235436D01*
X37828348Y129235666D01*
X37828344Y129235666D01*
X37584992Y129250386D01*
X37584989Y129250387D01*
X37583106Y129250500D01*
X37416894Y129250500D01*
X37415011Y129250387D01*
X37415007Y129250386D01*
X37171655Y129235666D01*
X37171649Y129235666D01*
X37167858Y129235436D01*
X37164130Y129234753D01*
X37164115Y129234751D01*
X36844303Y129176143D01*
X36844289Y129176140D01*
X36840559Y129175456D01*
X36836931Y129174326D01*
X36836925Y129174324D01*
X36526513Y129077597D01*
X36526498Y129077592D01*
X36522877Y129076463D01*
X36519407Y129074902D01*
X36519401Y129074899D01*
X36222918Y128941463D01*
X36222904Y128941456D01*
X36219443Y128939898D01*
X36216186Y128937930D01*
X36216182Y128937927D01*
X35937935Y128769721D01*
X35937929Y128769718D01*
X35934682Y128767754D01*
X35931701Y128765419D01*
X35931690Y128765411D01*
X35675750Y128564895D01*
X35675739Y128564886D01*
X35672748Y128562542D01*
X35670053Y128559848D01*
X35670045Y128559840D01*
X35440160Y128329955D01*
X35440152Y128329947D01*
X35437458Y128327252D01*
X35435114Y128324261D01*
X35435105Y128324250D01*
X35234589Y128068310D01*
X35234581Y128068299D01*
X35232246Y128065318D01*
X35060102Y127780557D01*
X35058544Y127777096D01*
X35058537Y127777082D01*
X34925101Y127480599D01*
X34923537Y127477123D01*
X34922408Y127473502D01*
X34922403Y127473487D01*
X34825676Y127163075D01*
X34824544Y127159441D01*
X34823860Y127155711D01*
X34823857Y127155697D01*
X34765249Y126835885D01*
X34765247Y126835870D01*
X34764564Y126832142D01*
X34744473Y126500000D01*
X50500Y126500000D01*
X50500Y160000000D01*
X21244680Y160000000D01*
X21244842Y159996806D01*
X21263784Y159623279D01*
X21263785Y159623263D01*
X21263947Y159620081D01*
X21321552Y159244060D01*
X21322346Y159240993D01*
X21322349Y159240979D01*
X21416103Y158878881D01*
X21416902Y158875796D01*
X21549019Y158519068D01*
X21550426Y158516200D01*
X21550428Y158516195D01*
X21715137Y158180413D01*
X21715143Y158180402D01*
X21716549Y158177536D01*
X21917771Y157854705D01*
X22150620Y157553888D01*
X22152816Y157551578D01*
X22403467Y157287893D01*
X22412709Y157278171D01*
X22701346Y157030384D01*
X23013571Y156813069D01*
X23346179Y156628457D01*
X23695758Y156478441D01*
X24058720Y156364561D01*
X24431340Y156287985D01*
X24809796Y156249500D01*
X24812996Y156249500D01*
X25187004Y156249500D01*
X25190204Y156249500D01*
X25568660Y156287985D01*
X25941280Y156364561D01*
X26304242Y156478441D01*
X26653821Y156628457D01*
X26986429Y156813069D01*
X27298654Y157030384D01*
X27587291Y157278171D01*
X27849380Y157553888D01*
X28082229Y157854705D01*
X28283451Y158177536D01*
X28450981Y158519068D01*
X28583098Y158875796D01*
X28678448Y159244060D01*
X28736053Y159620081D01*
X28755320Y160000000D01*
X71244680Y160000000D01*
X71244842Y159996806D01*
X71263784Y159623279D01*
X71263785Y159623263D01*
X71263947Y159620081D01*
X71321552Y159244060D01*
X71322346Y159240993D01*
X71322349Y159240979D01*
X71416103Y158878881D01*
X71416902Y158875796D01*
X71549019Y158519068D01*
X71550426Y158516200D01*
X71550428Y158516195D01*
X71715137Y158180413D01*
X71715143Y158180402D01*
X71716549Y158177536D01*
X71917771Y157854705D01*
X72150620Y157553888D01*
X72152816Y157551578D01*
X72403467Y157287893D01*
X72412709Y157278171D01*
X72701346Y157030384D01*
X73013571Y156813069D01*
X73346179Y156628457D01*
X73695758Y156478441D01*
X74058720Y156364561D01*
X74431340Y156287985D01*
X74809796Y156249500D01*
X74812996Y156249500D01*
X75187004Y156249500D01*
X75190204Y156249500D01*
X75568660Y156287985D01*
X75941280Y156364561D01*
X76304242Y156478441D01*
X76653821Y156628457D01*
X76986429Y156813069D01*
X77298654Y157030384D01*
X77587291Y157278171D01*
X77849380Y157553888D01*
X78082229Y157854705D01*
X78283451Y158177536D01*
X78450981Y158519068D01*
X78583098Y158875796D01*
X78678448Y159244060D01*
X78736053Y159620081D01*
X78755320Y160000000D01*
X78736053Y160379919D01*
X78678448Y160755940D01*
X78583098Y161124204D01*
X78450981Y161480932D01*
X78283451Y161822464D01*
X78082229Y162145295D01*
X77849380Y162446112D01*
X77587291Y162721829D01*
X77584876Y162723902D01*
X77584871Y162723907D01*
X77301084Y162967530D01*
X77301082Y162967531D01*
X77298654Y162969616D01*
X77296034Y162971440D01*
X77296027Y162971445D01*
X76989054Y163185104D01*
X76989053Y163185105D01*
X76986429Y163186931D01*
X76983643Y163188478D01*
X76983634Y163188483D01*
X76656604Y163369999D01*
X76656593Y163370005D01*
X76653821Y163371543D01*
X76650908Y163372793D01*
X76650896Y163372799D01*
X76307165Y163520305D01*
X76307158Y163520308D01*
X76304242Y163521559D01*
X76142445Y163572323D01*
X75944312Y163634488D01*
X75944306Y163634490D01*
X75941280Y163635439D01*
X75938175Y163636077D01*
X75938164Y163636080D01*
X75571784Y163711373D01*
X75571783Y163711374D01*
X75568660Y163712015D01*
X75565496Y163712337D01*
X75565488Y163712338D01*
X75193383Y163750177D01*
X75193377Y163750178D01*
X75190204Y163750500D01*
X74809796Y163750500D01*
X74806623Y163750178D01*
X74806616Y163750177D01*
X74434511Y163712338D01*
X74434500Y163712337D01*
X74431340Y163712015D01*
X74428219Y163711374D01*
X74428215Y163711373D01*
X74061835Y163636080D01*
X74061819Y163636076D01*
X74058720Y163635439D01*
X74055698Y163634491D01*
X74055687Y163634488D01*
X73698792Y163522511D01*
X73695758Y163521559D01*
X73692847Y163520310D01*
X73692834Y163520305D01*
X73349103Y163372799D01*
X73349083Y163372790D01*
X73346179Y163371543D01*
X73343414Y163370009D01*
X73343395Y163369999D01*
X73016365Y163188483D01*
X73016347Y163188472D01*
X73013571Y163186931D01*
X73010955Y163185111D01*
X73010945Y163185104D01*
X72703972Y162971445D01*
X72703956Y162971433D01*
X72701346Y162969616D01*
X72698926Y162967539D01*
X72698915Y162967530D01*
X72415128Y162723907D01*
X72415113Y162723894D01*
X72412709Y162721829D01*
X72410525Y162719533D01*
X72410515Y162719522D01*
X72152816Y162448423D01*
X72152808Y162448415D01*
X72150620Y162446112D01*
X72148675Y162443600D01*
X72148667Y162443590D01*
X71919728Y162147824D01*
X71919722Y162147817D01*
X71917771Y162145295D01*
X71916081Y162142585D01*
X71916077Y162142578D01*
X71718245Y161825186D01*
X71718239Y161825177D01*
X71716549Y161822464D01*
X71715147Y161819608D01*
X71715137Y161819588D01*
X71550428Y161483806D01*
X71550422Y161483794D01*
X71549019Y161480932D01*
X71547912Y161477946D01*
X71547908Y161477934D01*
X71418218Y161127758D01*
X71416902Y161124204D01*
X71416105Y161121130D01*
X71416103Y161121120D01*
X71322349Y160759022D01*
X71322345Y160759004D01*
X71321552Y160755940D01*
X71321071Y160752803D01*
X71321069Y160752791D01*
X71264431Y160383081D01*
X71263947Y160379919D01*
X71263785Y160376740D01*
X71263784Y160376722D01*
X71244842Y160003195D01*
X71244680Y160000000D01*
X28755320Y160000000D01*
X28736053Y160379919D01*
X28678448Y160755940D01*
X28583098Y161124204D01*
X28450981Y161480932D01*
X28283451Y161822464D01*
X28082229Y162145295D01*
X27849380Y162446112D01*
X27587291Y162721829D01*
X27584876Y162723902D01*
X27584871Y162723907D01*
X27301084Y162967530D01*
X27301082Y162967531D01*
X27298654Y162969616D01*
X27296034Y162971440D01*
X27296027Y162971445D01*
X26989054Y163185104D01*
X26989053Y163185105D01*
X26986429Y163186931D01*
X26983643Y163188478D01*
X26983634Y163188483D01*
X26656604Y163369999D01*
X26656593Y163370005D01*
X26653821Y163371543D01*
X26650908Y163372793D01*
X26650896Y163372799D01*
X26307165Y163520305D01*
X26307158Y163520308D01*
X26304242Y163521559D01*
X26142445Y163572323D01*
X25944312Y163634488D01*
X25944306Y163634490D01*
X25941280Y163635439D01*
X25938175Y163636077D01*
X25938164Y163636080D01*
X25571784Y163711373D01*
X25571783Y163711374D01*
X25568660Y163712015D01*
X25565496Y163712337D01*
X25565488Y163712338D01*
X25193383Y163750177D01*
X25193377Y163750178D01*
X25190204Y163750500D01*
X24809796Y163750500D01*
X24806623Y163750178D01*
X24806616Y163750177D01*
X24434511Y163712338D01*
X24434500Y163712337D01*
X24431340Y163712015D01*
X24428219Y163711374D01*
X24428215Y163711373D01*
X24061835Y163636080D01*
X24061819Y163636076D01*
X24058720Y163635439D01*
X24055698Y163634491D01*
X24055687Y163634488D01*
X23698792Y163522511D01*
X23695758Y163521559D01*
X23692847Y163520310D01*
X23692834Y163520305D01*
X23349103Y163372799D01*
X23349083Y163372790D01*
X23346179Y163371543D01*
X23343414Y163370009D01*
X23343395Y163369999D01*
X23016365Y163188483D01*
X23016347Y163188472D01*
X23013571Y163186931D01*
X23010955Y163185111D01*
X23010945Y163185104D01*
X22703972Y162971445D01*
X22703956Y162971433D01*
X22701346Y162969616D01*
X22698926Y162967539D01*
X22698915Y162967530D01*
X22415128Y162723907D01*
X22415113Y162723894D01*
X22412709Y162721829D01*
X22410525Y162719533D01*
X22410515Y162719522D01*
X22152816Y162448423D01*
X22152808Y162448415D01*
X22150620Y162446112D01*
X22148675Y162443600D01*
X22148667Y162443590D01*
X21919728Y162147824D01*
X21919722Y162147817D01*
X21917771Y162145295D01*
X21916081Y162142585D01*
X21916077Y162142578D01*
X21718245Y161825186D01*
X21718239Y161825177D01*
X21716549Y161822464D01*
X21715147Y161819608D01*
X21715137Y161819588D01*
X21550428Y161483806D01*
X21550422Y161483794D01*
X21549019Y161480932D01*
X21547912Y161477946D01*
X21547908Y161477934D01*
X21418218Y161127758D01*
X21416902Y161124204D01*
X21416105Y161121130D01*
X21416103Y161121120D01*
X21322349Y160759022D01*
X21322345Y160759004D01*
X21321552Y160755940D01*
X21321071Y160752803D01*
X21321069Y160752791D01*
X21264431Y160383081D01*
X21263947Y160379919D01*
X21263785Y160376740D01*
X21263784Y160376722D01*
X21244842Y160003195D01*
X21244680Y160000000D01*
X50500Y160000000D01*
X50500Y199823500D01*
X70502Y199891621D01*
X124158Y199938114D01*
X176500Y199949500D01*
X99823500Y199949500D01*
X99891621Y199929498D01*
G37*
G04 #@! TD.AperFunction*
G04 #@! TD*
M02*
