G04 #@! TF.GenerationSoftware,KiCad,Pcbnew,7.0.1-3b83917a11~172~ubuntu22.04.1*
G04 #@! TF.CreationDate,2023-03-17T22:06:33-04:00*
G04 #@! TF.ProjectId,springReverbRev2_panel,73707269-6e67-4526-9576-657262526576,rev?*
G04 #@! TF.SameCoordinates,Original*
G04 #@! TF.FileFunction,Other,Comment*
%FSLAX46Y46*%
G04 Gerber Fmt 4.6, Leading zero omitted, Abs format (unit mm)*
G04 Created by KiCad (PCBNEW 7.0.1-3b83917a11~172~ubuntu22.04.1) date 2023-03-17 22:06:33*
%MOMM*%
%LPD*%
G01*
G04 APERTURE LIST*
%ADD10C,0.120000*%
%ADD11C,0.150000*%
G04 APERTURE END LIST*
D10*
G04 #@! TO.C,H14*
X97000000Y0D02*
X94200000Y0D01*
X97000000Y6000000D02*
X94200000Y6000000D01*
X97000000Y194000000D02*
X94200000Y194000000D01*
X97000000Y200000000D02*
X94200000Y200000000D01*
X97000000Y0D02*
G75*
G03*
X97000000Y6000000I0J3000000D01*
G01*
X97000000Y194000000D02*
G75*
G03*
X97000000Y200000000I0J3000000D01*
G01*
X94200000Y6000000D02*
G75*
G03*
X94200000Y0I0J-3000000D01*
G01*
X94200000Y200000000D02*
G75*
G03*
X94200000Y194000000I0J-3000000D01*
G01*
D11*
G04 #@! TO.C,H9*
X57000000Y80000000D02*
G75*
G03*
X57000000Y80000000I-7000000J0D01*
G01*
G04 #@! TO.C,H10*
X82000000Y160000000D02*
G75*
G03*
X82000000Y160000000I-7000000J0D01*
G01*
G04 #@! TO.C,H1*
X22000000Y50000000D02*
G75*
G03*
X22000000Y50000000I-9500000J0D01*
G01*
D10*
G04 #@! TO.C,H11*
X3000000Y200000000D02*
X5800000Y200000000D01*
X3000000Y194000000D02*
X5800000Y194000000D01*
X3000000Y6000000D02*
X5800000Y6000000D01*
X3000000Y0D02*
X5800000Y0D01*
X3000000Y200000000D02*
G75*
G03*
X3000000Y194000000I0J-3000000D01*
G01*
X3000000Y6000000D02*
G75*
G03*
X3000000Y0I0J-3000000D01*
G01*
X5800000Y194000000D02*
G75*
G03*
X5800000Y200000000I0J3000000D01*
G01*
X5800000Y0D02*
G75*
G03*
X5800000Y6000000I0J3000000D01*
G01*
D11*
G04 #@! TO.C,H13*
X42800000Y130000000D02*
G75*
G03*
X42800000Y130000000I-2800000J0D01*
G01*
G04 #@! TO.C,H2*
X22000000Y25000000D02*
G75*
G03*
X22000000Y25000000I-9500000J0D01*
G01*
G04 #@! TO.C,H3*
X47000000Y50000000D02*
G75*
G03*
X47000000Y50000000I-9500000J0D01*
G01*
G04 #@! TO.C,H4*
X97000000Y50000000D02*
G75*
G03*
X97000000Y50000000I-9500000J0D01*
G01*
G04 #@! TO.C,H5*
X72000000Y50000000D02*
G75*
G03*
X72000000Y50000000I-9500000J0D01*
G01*
G04 #@! TO.C,H6*
X97000000Y25000000D02*
G75*
G03*
X97000000Y25000000I-9500000J0D01*
G01*
G04 #@! TO.C,H18*
X69500000Y25000000D02*
G75*
G03*
X69500000Y25000000I-7000000J0D01*
G01*
G04 #@! TO.C,H15*
X32000000Y115000000D02*
G75*
G03*
X32000000Y115000000I-7000000J0D01*
G01*
G04 #@! TO.C,H17*
X44500000Y25000000D02*
G75*
G03*
X44500000Y25000000I-7000000J0D01*
G01*
G04 #@! TO.C,H8*
X32000000Y80000000D02*
G75*
G03*
X32000000Y80000000I-7000000J0D01*
G01*
G04 #@! TO.C,H16*
X82000000Y115000000D02*
G75*
G03*
X82000000Y115000000I-7000000J0D01*
G01*
G04 #@! TO.C,H12*
X91300000Y115000000D02*
G75*
G03*
X91300000Y115000000I-1300000J0D01*
G01*
G04 #@! TO.C,H7*
X32000000Y160000000D02*
G75*
G03*
X32000000Y160000000I-7000000J0D01*
G01*
G04 #@! TD*
M02*
