G04 #@! TF.GenerationSoftware,KiCad,Pcbnew,7.0.1-3b83917a11~172~ubuntu22.04.1*
G04 #@! TF.CreationDate,2023-04-04T20:15:48-04:00*
G04 #@! TF.ProjectId,springReverbRev2_FrontPCB,73707269-6e67-4526-9576-657262526576,rev?*
G04 #@! TF.SameCoordinates,Original*
G04 #@! TF.FileFunction,Legend,Top*
G04 #@! TF.FilePolarity,Positive*
%FSLAX46Y46*%
G04 Gerber Fmt 4.6, Leading zero omitted, Abs format (unit mm)*
G04 Created by KiCad (PCBNEW 7.0.1-3b83917a11~172~ubuntu22.04.1) date 2023-04-04 20:15:48*
%MOMM*%
%LPD*%
G01*
G04 APERTURE LIST*
%ADD10C,0.150000*%
%ADD11C,0.120000*%
G04 APERTURE END LIST*
D10*
X141928571Y-56460000D02*
X142071428Y-56507619D01*
X142071428Y-56507619D02*
X142309523Y-56507619D01*
X142309523Y-56507619D02*
X142404761Y-56460000D01*
X142404761Y-56460000D02*
X142452380Y-56412380D01*
X142452380Y-56412380D02*
X142499999Y-56317142D01*
X142499999Y-56317142D02*
X142499999Y-56221904D01*
X142499999Y-56221904D02*
X142452380Y-56126666D01*
X142452380Y-56126666D02*
X142404761Y-56079047D01*
X142404761Y-56079047D02*
X142309523Y-56031428D01*
X142309523Y-56031428D02*
X142119047Y-55983809D01*
X142119047Y-55983809D02*
X142023809Y-55936190D01*
X142023809Y-55936190D02*
X141976190Y-55888571D01*
X141976190Y-55888571D02*
X141928571Y-55793333D01*
X141928571Y-55793333D02*
X141928571Y-55698095D01*
X141928571Y-55698095D02*
X141976190Y-55602857D01*
X141976190Y-55602857D02*
X142023809Y-55555238D01*
X142023809Y-55555238D02*
X142119047Y-55507619D01*
X142119047Y-55507619D02*
X142357142Y-55507619D01*
X142357142Y-55507619D02*
X142499999Y-55555238D01*
X142928571Y-55840952D02*
X142928571Y-56840952D01*
X142928571Y-55888571D02*
X143023809Y-55840952D01*
X143023809Y-55840952D02*
X143214285Y-55840952D01*
X143214285Y-55840952D02*
X143309523Y-55888571D01*
X143309523Y-55888571D02*
X143357142Y-55936190D01*
X143357142Y-55936190D02*
X143404761Y-56031428D01*
X143404761Y-56031428D02*
X143404761Y-56317142D01*
X143404761Y-56317142D02*
X143357142Y-56412380D01*
X143357142Y-56412380D02*
X143309523Y-56460000D01*
X143309523Y-56460000D02*
X143214285Y-56507619D01*
X143214285Y-56507619D02*
X143023809Y-56507619D01*
X143023809Y-56507619D02*
X142928571Y-56460000D01*
X143833333Y-56507619D02*
X143833333Y-55840952D01*
X143833333Y-56031428D02*
X143880952Y-55936190D01*
X143880952Y-55936190D02*
X143928571Y-55888571D01*
X143928571Y-55888571D02*
X144023809Y-55840952D01*
X144023809Y-55840952D02*
X144119047Y-55840952D01*
X144452381Y-56507619D02*
X144452381Y-55840952D01*
X144452381Y-55507619D02*
X144404762Y-55555238D01*
X144404762Y-55555238D02*
X144452381Y-55602857D01*
X144452381Y-55602857D02*
X144500000Y-55555238D01*
X144500000Y-55555238D02*
X144452381Y-55507619D01*
X144452381Y-55507619D02*
X144452381Y-55602857D01*
X144928571Y-55840952D02*
X144928571Y-56507619D01*
X144928571Y-55936190D02*
X144976190Y-55888571D01*
X144976190Y-55888571D02*
X145071428Y-55840952D01*
X145071428Y-55840952D02*
X145214285Y-55840952D01*
X145214285Y-55840952D02*
X145309523Y-55888571D01*
X145309523Y-55888571D02*
X145357142Y-55983809D01*
X145357142Y-55983809D02*
X145357142Y-56507619D01*
X146261904Y-55840952D02*
X146261904Y-56650476D01*
X146261904Y-56650476D02*
X146214285Y-56745714D01*
X146214285Y-56745714D02*
X146166666Y-56793333D01*
X146166666Y-56793333D02*
X146071428Y-56840952D01*
X146071428Y-56840952D02*
X145928571Y-56840952D01*
X145928571Y-56840952D02*
X145833333Y-56793333D01*
X146261904Y-56460000D02*
X146166666Y-56507619D01*
X146166666Y-56507619D02*
X145976190Y-56507619D01*
X145976190Y-56507619D02*
X145880952Y-56460000D01*
X145880952Y-56460000D02*
X145833333Y-56412380D01*
X145833333Y-56412380D02*
X145785714Y-56317142D01*
X145785714Y-56317142D02*
X145785714Y-56031428D01*
X145785714Y-56031428D02*
X145833333Y-55936190D01*
X145833333Y-55936190D02*
X145880952Y-55888571D01*
X145880952Y-55888571D02*
X145976190Y-55840952D01*
X145976190Y-55840952D02*
X146166666Y-55840952D01*
X146166666Y-55840952D02*
X146261904Y-55888571D01*
X148071428Y-56507619D02*
X147738095Y-56031428D01*
X147500000Y-56507619D02*
X147500000Y-55507619D01*
X147500000Y-55507619D02*
X147880952Y-55507619D01*
X147880952Y-55507619D02*
X147976190Y-55555238D01*
X147976190Y-55555238D02*
X148023809Y-55602857D01*
X148023809Y-55602857D02*
X148071428Y-55698095D01*
X148071428Y-55698095D02*
X148071428Y-55840952D01*
X148071428Y-55840952D02*
X148023809Y-55936190D01*
X148023809Y-55936190D02*
X147976190Y-55983809D01*
X147976190Y-55983809D02*
X147880952Y-56031428D01*
X147880952Y-56031428D02*
X147500000Y-56031428D01*
X148880952Y-56460000D02*
X148785714Y-56507619D01*
X148785714Y-56507619D02*
X148595238Y-56507619D01*
X148595238Y-56507619D02*
X148500000Y-56460000D01*
X148500000Y-56460000D02*
X148452381Y-56364761D01*
X148452381Y-56364761D02*
X148452381Y-55983809D01*
X148452381Y-55983809D02*
X148500000Y-55888571D01*
X148500000Y-55888571D02*
X148595238Y-55840952D01*
X148595238Y-55840952D02*
X148785714Y-55840952D01*
X148785714Y-55840952D02*
X148880952Y-55888571D01*
X148880952Y-55888571D02*
X148928571Y-55983809D01*
X148928571Y-55983809D02*
X148928571Y-56079047D01*
X148928571Y-56079047D02*
X148452381Y-56174285D01*
X149261905Y-55840952D02*
X149500000Y-56507619D01*
X149500000Y-56507619D02*
X149738095Y-55840952D01*
X150500000Y-56460000D02*
X150404762Y-56507619D01*
X150404762Y-56507619D02*
X150214286Y-56507619D01*
X150214286Y-56507619D02*
X150119048Y-56460000D01*
X150119048Y-56460000D02*
X150071429Y-56364761D01*
X150071429Y-56364761D02*
X150071429Y-55983809D01*
X150071429Y-55983809D02*
X150119048Y-55888571D01*
X150119048Y-55888571D02*
X150214286Y-55840952D01*
X150214286Y-55840952D02*
X150404762Y-55840952D01*
X150404762Y-55840952D02*
X150500000Y-55888571D01*
X150500000Y-55888571D02*
X150547619Y-55983809D01*
X150547619Y-55983809D02*
X150547619Y-56079047D01*
X150547619Y-56079047D02*
X150071429Y-56174285D01*
X150976191Y-56507619D02*
X150976191Y-55840952D01*
X150976191Y-56031428D02*
X151023810Y-55936190D01*
X151023810Y-55936190D02*
X151071429Y-55888571D01*
X151071429Y-55888571D02*
X151166667Y-55840952D01*
X151166667Y-55840952D02*
X151261905Y-55840952D01*
X151595239Y-56507619D02*
X151595239Y-55507619D01*
X151595239Y-55888571D02*
X151690477Y-55840952D01*
X151690477Y-55840952D02*
X151880953Y-55840952D01*
X151880953Y-55840952D02*
X151976191Y-55888571D01*
X151976191Y-55888571D02*
X152023810Y-55936190D01*
X152023810Y-55936190D02*
X152071429Y-56031428D01*
X152071429Y-56031428D02*
X152071429Y-56317142D01*
X152071429Y-56317142D02*
X152023810Y-56412380D01*
X152023810Y-56412380D02*
X151976191Y-56460000D01*
X151976191Y-56460000D02*
X151880953Y-56507619D01*
X151880953Y-56507619D02*
X151690477Y-56507619D01*
X151690477Y-56507619D02*
X151595239Y-56460000D01*
X143142856Y-57603809D02*
X142809523Y-57603809D01*
X142809523Y-58127619D02*
X142809523Y-57127619D01*
X142809523Y-57127619D02*
X143285713Y-57127619D01*
X143666666Y-58127619D02*
X143666666Y-57460952D01*
X143666666Y-57651428D02*
X143714285Y-57556190D01*
X143714285Y-57556190D02*
X143761904Y-57508571D01*
X143761904Y-57508571D02*
X143857142Y-57460952D01*
X143857142Y-57460952D02*
X143952380Y-57460952D01*
X144428571Y-58127619D02*
X144333333Y-58080000D01*
X144333333Y-58080000D02*
X144285714Y-58032380D01*
X144285714Y-58032380D02*
X144238095Y-57937142D01*
X144238095Y-57937142D02*
X144238095Y-57651428D01*
X144238095Y-57651428D02*
X144285714Y-57556190D01*
X144285714Y-57556190D02*
X144333333Y-57508571D01*
X144333333Y-57508571D02*
X144428571Y-57460952D01*
X144428571Y-57460952D02*
X144571428Y-57460952D01*
X144571428Y-57460952D02*
X144666666Y-57508571D01*
X144666666Y-57508571D02*
X144714285Y-57556190D01*
X144714285Y-57556190D02*
X144761904Y-57651428D01*
X144761904Y-57651428D02*
X144761904Y-57937142D01*
X144761904Y-57937142D02*
X144714285Y-58032380D01*
X144714285Y-58032380D02*
X144666666Y-58080000D01*
X144666666Y-58080000D02*
X144571428Y-58127619D01*
X144571428Y-58127619D02*
X144428571Y-58127619D01*
X145190476Y-57460952D02*
X145190476Y-58127619D01*
X145190476Y-57556190D02*
X145238095Y-57508571D01*
X145238095Y-57508571D02*
X145333333Y-57460952D01*
X145333333Y-57460952D02*
X145476190Y-57460952D01*
X145476190Y-57460952D02*
X145571428Y-57508571D01*
X145571428Y-57508571D02*
X145619047Y-57603809D01*
X145619047Y-57603809D02*
X145619047Y-58127619D01*
X145952381Y-57460952D02*
X146333333Y-57460952D01*
X146095238Y-57127619D02*
X146095238Y-57984761D01*
X146095238Y-57984761D02*
X146142857Y-58080000D01*
X146142857Y-58080000D02*
X146238095Y-58127619D01*
X146238095Y-58127619D02*
X146333333Y-58127619D01*
X147428572Y-58127619D02*
X147428572Y-57127619D01*
X147428572Y-57508571D02*
X147523810Y-57460952D01*
X147523810Y-57460952D02*
X147714286Y-57460952D01*
X147714286Y-57460952D02*
X147809524Y-57508571D01*
X147809524Y-57508571D02*
X147857143Y-57556190D01*
X147857143Y-57556190D02*
X147904762Y-57651428D01*
X147904762Y-57651428D02*
X147904762Y-57937142D01*
X147904762Y-57937142D02*
X147857143Y-58032380D01*
X147857143Y-58032380D02*
X147809524Y-58080000D01*
X147809524Y-58080000D02*
X147714286Y-58127619D01*
X147714286Y-58127619D02*
X147523810Y-58127619D01*
X147523810Y-58127619D02*
X147428572Y-58080000D01*
X148476191Y-58127619D02*
X148380953Y-58080000D01*
X148380953Y-58080000D02*
X148333334Y-58032380D01*
X148333334Y-58032380D02*
X148285715Y-57937142D01*
X148285715Y-57937142D02*
X148285715Y-57651428D01*
X148285715Y-57651428D02*
X148333334Y-57556190D01*
X148333334Y-57556190D02*
X148380953Y-57508571D01*
X148380953Y-57508571D02*
X148476191Y-57460952D01*
X148476191Y-57460952D02*
X148619048Y-57460952D01*
X148619048Y-57460952D02*
X148714286Y-57508571D01*
X148714286Y-57508571D02*
X148761905Y-57556190D01*
X148761905Y-57556190D02*
X148809524Y-57651428D01*
X148809524Y-57651428D02*
X148809524Y-57937142D01*
X148809524Y-57937142D02*
X148761905Y-58032380D01*
X148761905Y-58032380D02*
X148714286Y-58080000D01*
X148714286Y-58080000D02*
X148619048Y-58127619D01*
X148619048Y-58127619D02*
X148476191Y-58127619D01*
X149666667Y-58127619D02*
X149666667Y-57603809D01*
X149666667Y-57603809D02*
X149619048Y-57508571D01*
X149619048Y-57508571D02*
X149523810Y-57460952D01*
X149523810Y-57460952D02*
X149333334Y-57460952D01*
X149333334Y-57460952D02*
X149238096Y-57508571D01*
X149666667Y-58080000D02*
X149571429Y-58127619D01*
X149571429Y-58127619D02*
X149333334Y-58127619D01*
X149333334Y-58127619D02*
X149238096Y-58080000D01*
X149238096Y-58080000D02*
X149190477Y-57984761D01*
X149190477Y-57984761D02*
X149190477Y-57889523D01*
X149190477Y-57889523D02*
X149238096Y-57794285D01*
X149238096Y-57794285D02*
X149333334Y-57746666D01*
X149333334Y-57746666D02*
X149571429Y-57746666D01*
X149571429Y-57746666D02*
X149666667Y-57699047D01*
X150142858Y-58127619D02*
X150142858Y-57460952D01*
X150142858Y-57651428D02*
X150190477Y-57556190D01*
X150190477Y-57556190D02*
X150238096Y-57508571D01*
X150238096Y-57508571D02*
X150333334Y-57460952D01*
X150333334Y-57460952D02*
X150428572Y-57460952D01*
X151190477Y-58127619D02*
X151190477Y-57127619D01*
X151190477Y-58080000D02*
X151095239Y-58127619D01*
X151095239Y-58127619D02*
X150904763Y-58127619D01*
X150904763Y-58127619D02*
X150809525Y-58080000D01*
X150809525Y-58080000D02*
X150761906Y-58032380D01*
X150761906Y-58032380D02*
X150714287Y-57937142D01*
X150714287Y-57937142D02*
X150714287Y-57651428D01*
X150714287Y-57651428D02*
X150761906Y-57556190D01*
X150761906Y-57556190D02*
X150809525Y-57508571D01*
X150809525Y-57508571D02*
X150904763Y-57460952D01*
X150904763Y-57460952D02*
X151095239Y-57460952D01*
X151095239Y-57460952D02*
X151190477Y-57508571D01*
G04 #@! TO.C,RV901*
X111870095Y-56488094D02*
X111489142Y-56754761D01*
X111870095Y-56945237D02*
X111070095Y-56945237D01*
X111070095Y-56945237D02*
X111070095Y-56640475D01*
X111070095Y-56640475D02*
X111108190Y-56564285D01*
X111108190Y-56564285D02*
X111146285Y-56526190D01*
X111146285Y-56526190D02*
X111222476Y-56488094D01*
X111222476Y-56488094D02*
X111336761Y-56488094D01*
X111336761Y-56488094D02*
X111412952Y-56526190D01*
X111412952Y-56526190D02*
X111451047Y-56564285D01*
X111451047Y-56564285D02*
X111489142Y-56640475D01*
X111489142Y-56640475D02*
X111489142Y-56945237D01*
X111070095Y-56259523D02*
X111870095Y-55992856D01*
X111870095Y-55992856D02*
X111070095Y-55726190D01*
X111870095Y-55421428D02*
X111870095Y-55269047D01*
X111870095Y-55269047D02*
X111832000Y-55192857D01*
X111832000Y-55192857D02*
X111793904Y-55154761D01*
X111793904Y-55154761D02*
X111679619Y-55078571D01*
X111679619Y-55078571D02*
X111527238Y-55040476D01*
X111527238Y-55040476D02*
X111222476Y-55040476D01*
X111222476Y-55040476D02*
X111146285Y-55078571D01*
X111146285Y-55078571D02*
X111108190Y-55116666D01*
X111108190Y-55116666D02*
X111070095Y-55192857D01*
X111070095Y-55192857D02*
X111070095Y-55345238D01*
X111070095Y-55345238D02*
X111108190Y-55421428D01*
X111108190Y-55421428D02*
X111146285Y-55459523D01*
X111146285Y-55459523D02*
X111222476Y-55497619D01*
X111222476Y-55497619D02*
X111412952Y-55497619D01*
X111412952Y-55497619D02*
X111489142Y-55459523D01*
X111489142Y-55459523D02*
X111527238Y-55421428D01*
X111527238Y-55421428D02*
X111565333Y-55345238D01*
X111565333Y-55345238D02*
X111565333Y-55192857D01*
X111565333Y-55192857D02*
X111527238Y-55116666D01*
X111527238Y-55116666D02*
X111489142Y-55078571D01*
X111489142Y-55078571D02*
X111412952Y-55040476D01*
X111070095Y-54545237D02*
X111070095Y-54469047D01*
X111070095Y-54469047D02*
X111108190Y-54392856D01*
X111108190Y-54392856D02*
X111146285Y-54354761D01*
X111146285Y-54354761D02*
X111222476Y-54316666D01*
X111222476Y-54316666D02*
X111374857Y-54278571D01*
X111374857Y-54278571D02*
X111565333Y-54278571D01*
X111565333Y-54278571D02*
X111717714Y-54316666D01*
X111717714Y-54316666D02*
X111793904Y-54354761D01*
X111793904Y-54354761D02*
X111832000Y-54392856D01*
X111832000Y-54392856D02*
X111870095Y-54469047D01*
X111870095Y-54469047D02*
X111870095Y-54545237D01*
X111870095Y-54545237D02*
X111832000Y-54621428D01*
X111832000Y-54621428D02*
X111793904Y-54659523D01*
X111793904Y-54659523D02*
X111717714Y-54697618D01*
X111717714Y-54697618D02*
X111565333Y-54735714D01*
X111565333Y-54735714D02*
X111374857Y-54735714D01*
X111374857Y-54735714D02*
X111222476Y-54697618D01*
X111222476Y-54697618D02*
X111146285Y-54659523D01*
X111146285Y-54659523D02*
X111108190Y-54621428D01*
X111108190Y-54621428D02*
X111070095Y-54545237D01*
X111870095Y-53516666D02*
X111870095Y-53973809D01*
X111870095Y-53745237D02*
X111070095Y-53745237D01*
X111070095Y-53745237D02*
X111184380Y-53821428D01*
X111184380Y-53821428D02*
X111260571Y-53897618D01*
X111260571Y-53897618D02*
X111298666Y-53973809D01*
X121951047Y-56778571D02*
X121989142Y-56664285D01*
X121989142Y-56664285D02*
X122027238Y-56626190D01*
X122027238Y-56626190D02*
X122103428Y-56588094D01*
X122103428Y-56588094D02*
X122217714Y-56588094D01*
X122217714Y-56588094D02*
X122293904Y-56626190D01*
X122293904Y-56626190D02*
X122332000Y-56664285D01*
X122332000Y-56664285D02*
X122370095Y-56740475D01*
X122370095Y-56740475D02*
X122370095Y-57045237D01*
X122370095Y-57045237D02*
X121570095Y-57045237D01*
X121570095Y-57045237D02*
X121570095Y-56778571D01*
X121570095Y-56778571D02*
X121608190Y-56702380D01*
X121608190Y-56702380D02*
X121646285Y-56664285D01*
X121646285Y-56664285D02*
X121722476Y-56626190D01*
X121722476Y-56626190D02*
X121798666Y-56626190D01*
X121798666Y-56626190D02*
X121874857Y-56664285D01*
X121874857Y-56664285D02*
X121912952Y-56702380D01*
X121912952Y-56702380D02*
X121951047Y-56778571D01*
X121951047Y-56778571D02*
X121951047Y-57045237D01*
X121570095Y-55864285D02*
X121570095Y-56245237D01*
X121570095Y-56245237D02*
X121951047Y-56283333D01*
X121951047Y-56283333D02*
X121912952Y-56245237D01*
X121912952Y-56245237D02*
X121874857Y-56169047D01*
X121874857Y-56169047D02*
X121874857Y-55978571D01*
X121874857Y-55978571D02*
X121912952Y-55902380D01*
X121912952Y-55902380D02*
X121951047Y-55864285D01*
X121951047Y-55864285D02*
X122027238Y-55826190D01*
X122027238Y-55826190D02*
X122217714Y-55826190D01*
X122217714Y-55826190D02*
X122293904Y-55864285D01*
X122293904Y-55864285D02*
X122332000Y-55902380D01*
X122332000Y-55902380D02*
X122370095Y-55978571D01*
X122370095Y-55978571D02*
X122370095Y-56169047D01*
X122370095Y-56169047D02*
X122332000Y-56245237D01*
X122332000Y-56245237D02*
X122293904Y-56283333D01*
X121570095Y-55330951D02*
X121570095Y-55254761D01*
X121570095Y-55254761D02*
X121608190Y-55178570D01*
X121608190Y-55178570D02*
X121646285Y-55140475D01*
X121646285Y-55140475D02*
X121722476Y-55102380D01*
X121722476Y-55102380D02*
X121874857Y-55064285D01*
X121874857Y-55064285D02*
X122065333Y-55064285D01*
X122065333Y-55064285D02*
X122217714Y-55102380D01*
X122217714Y-55102380D02*
X122293904Y-55140475D01*
X122293904Y-55140475D02*
X122332000Y-55178570D01*
X122332000Y-55178570D02*
X122370095Y-55254761D01*
X122370095Y-55254761D02*
X122370095Y-55330951D01*
X122370095Y-55330951D02*
X122332000Y-55407142D01*
X122332000Y-55407142D02*
X122293904Y-55445237D01*
X122293904Y-55445237D02*
X122217714Y-55483332D01*
X122217714Y-55483332D02*
X122065333Y-55521428D01*
X122065333Y-55521428D02*
X121874857Y-55521428D01*
X121874857Y-55521428D02*
X121722476Y-55483332D01*
X121722476Y-55483332D02*
X121646285Y-55445237D01*
X121646285Y-55445237D02*
X121608190Y-55407142D01*
X121608190Y-55407142D02*
X121570095Y-55330951D01*
X122370095Y-54721427D02*
X121570095Y-54721427D01*
X122065333Y-54645237D02*
X122370095Y-54416665D01*
X121836761Y-54416665D02*
X122141523Y-54721427D01*
G04 #@! TO.C,LED1*
X133609761Y-93580095D02*
X133228809Y-93580095D01*
X133228809Y-93580095D02*
X133228809Y-92780095D01*
X133876428Y-93161047D02*
X134143094Y-93161047D01*
X134257380Y-93580095D02*
X133876428Y-93580095D01*
X133876428Y-93580095D02*
X133876428Y-92780095D01*
X133876428Y-92780095D02*
X134257380Y-92780095D01*
X134600238Y-93580095D02*
X134600238Y-92780095D01*
X134600238Y-92780095D02*
X134790714Y-92780095D01*
X134790714Y-92780095D02*
X134905000Y-92818190D01*
X134905000Y-92818190D02*
X134981190Y-92894380D01*
X134981190Y-92894380D02*
X135019285Y-92970571D01*
X135019285Y-92970571D02*
X135057381Y-93122952D01*
X135057381Y-93122952D02*
X135057381Y-93237238D01*
X135057381Y-93237238D02*
X135019285Y-93389619D01*
X135019285Y-93389619D02*
X134981190Y-93465809D01*
X134981190Y-93465809D02*
X134905000Y-93542000D01*
X134905000Y-93542000D02*
X134790714Y-93580095D01*
X134790714Y-93580095D02*
X134600238Y-93580095D01*
X135819285Y-93580095D02*
X135362142Y-93580095D01*
X135590714Y-93580095D02*
X135590714Y-92780095D01*
X135590714Y-92780095D02*
X135514523Y-92894380D01*
X135514523Y-92894380D02*
X135438333Y-92970571D01*
X135438333Y-92970571D02*
X135362142Y-93008666D01*
X138265476Y-89620095D02*
X138265476Y-88820095D01*
X138722619Y-89620095D02*
X138379761Y-89162952D01*
X138722619Y-88820095D02*
X138265476Y-89277238D01*
G04 #@! TO.C,VR1*
X183452381Y-96320095D02*
X183719048Y-97120095D01*
X183719048Y-97120095D02*
X183985714Y-96320095D01*
X184709524Y-97120095D02*
X184442857Y-96739142D01*
X184252381Y-97120095D02*
X184252381Y-96320095D01*
X184252381Y-96320095D02*
X184557143Y-96320095D01*
X184557143Y-96320095D02*
X184633333Y-96358190D01*
X184633333Y-96358190D02*
X184671428Y-96396285D01*
X184671428Y-96396285D02*
X184709524Y-96472476D01*
X184709524Y-96472476D02*
X184709524Y-96586761D01*
X184709524Y-96586761D02*
X184671428Y-96662952D01*
X184671428Y-96662952D02*
X184633333Y-96701047D01*
X184633333Y-96701047D02*
X184557143Y-96739142D01*
X184557143Y-96739142D02*
X184252381Y-96739142D01*
X185471428Y-97120095D02*
X185014285Y-97120095D01*
X185242857Y-97120095D02*
X185242857Y-96320095D01*
X185242857Y-96320095D02*
X185166666Y-96434380D01*
X185166666Y-96434380D02*
X185090476Y-96510571D01*
X185090476Y-96510571D02*
X185014285Y-96548666D01*
X189023809Y-97120095D02*
X188566666Y-97120095D01*
X188795238Y-97120095D02*
X188795238Y-96320095D01*
X188795238Y-96320095D02*
X188719047Y-96434380D01*
X188719047Y-96434380D02*
X188642857Y-96510571D01*
X188642857Y-96510571D02*
X188566666Y-96548666D01*
X189519048Y-96320095D02*
X189595238Y-96320095D01*
X189595238Y-96320095D02*
X189671429Y-96358190D01*
X189671429Y-96358190D02*
X189709524Y-96396285D01*
X189709524Y-96396285D02*
X189747619Y-96472476D01*
X189747619Y-96472476D02*
X189785714Y-96624857D01*
X189785714Y-96624857D02*
X189785714Y-96815333D01*
X189785714Y-96815333D02*
X189747619Y-96967714D01*
X189747619Y-96967714D02*
X189709524Y-97043904D01*
X189709524Y-97043904D02*
X189671429Y-97082000D01*
X189671429Y-97082000D02*
X189595238Y-97120095D01*
X189595238Y-97120095D02*
X189519048Y-97120095D01*
X189519048Y-97120095D02*
X189442857Y-97082000D01*
X189442857Y-97082000D02*
X189404762Y-97043904D01*
X189404762Y-97043904D02*
X189366667Y-96967714D01*
X189366667Y-96967714D02*
X189328571Y-96815333D01*
X189328571Y-96815333D02*
X189328571Y-96624857D01*
X189328571Y-96624857D02*
X189366667Y-96472476D01*
X189366667Y-96472476D02*
X189404762Y-96396285D01*
X189404762Y-96396285D02*
X189442857Y-96358190D01*
X189442857Y-96358190D02*
X189519048Y-96320095D01*
X190128572Y-97120095D02*
X190128572Y-96320095D01*
X190204762Y-96815333D02*
X190433334Y-97120095D01*
X190433334Y-96586761D02*
X190128572Y-96891523D01*
G04 #@! TO.C,RV905*
X161870095Y-101488094D02*
X161489142Y-101754761D01*
X161870095Y-101945237D02*
X161070095Y-101945237D01*
X161070095Y-101945237D02*
X161070095Y-101640475D01*
X161070095Y-101640475D02*
X161108190Y-101564285D01*
X161108190Y-101564285D02*
X161146285Y-101526190D01*
X161146285Y-101526190D02*
X161222476Y-101488094D01*
X161222476Y-101488094D02*
X161336761Y-101488094D01*
X161336761Y-101488094D02*
X161412952Y-101526190D01*
X161412952Y-101526190D02*
X161451047Y-101564285D01*
X161451047Y-101564285D02*
X161489142Y-101640475D01*
X161489142Y-101640475D02*
X161489142Y-101945237D01*
X161070095Y-101259523D02*
X161870095Y-100992856D01*
X161870095Y-100992856D02*
X161070095Y-100726190D01*
X161870095Y-100421428D02*
X161870095Y-100269047D01*
X161870095Y-100269047D02*
X161832000Y-100192857D01*
X161832000Y-100192857D02*
X161793904Y-100154761D01*
X161793904Y-100154761D02*
X161679619Y-100078571D01*
X161679619Y-100078571D02*
X161527238Y-100040476D01*
X161527238Y-100040476D02*
X161222476Y-100040476D01*
X161222476Y-100040476D02*
X161146285Y-100078571D01*
X161146285Y-100078571D02*
X161108190Y-100116666D01*
X161108190Y-100116666D02*
X161070095Y-100192857D01*
X161070095Y-100192857D02*
X161070095Y-100345238D01*
X161070095Y-100345238D02*
X161108190Y-100421428D01*
X161108190Y-100421428D02*
X161146285Y-100459523D01*
X161146285Y-100459523D02*
X161222476Y-100497619D01*
X161222476Y-100497619D02*
X161412952Y-100497619D01*
X161412952Y-100497619D02*
X161489142Y-100459523D01*
X161489142Y-100459523D02*
X161527238Y-100421428D01*
X161527238Y-100421428D02*
X161565333Y-100345238D01*
X161565333Y-100345238D02*
X161565333Y-100192857D01*
X161565333Y-100192857D02*
X161527238Y-100116666D01*
X161527238Y-100116666D02*
X161489142Y-100078571D01*
X161489142Y-100078571D02*
X161412952Y-100040476D01*
X161070095Y-99545237D02*
X161070095Y-99469047D01*
X161070095Y-99469047D02*
X161108190Y-99392856D01*
X161108190Y-99392856D02*
X161146285Y-99354761D01*
X161146285Y-99354761D02*
X161222476Y-99316666D01*
X161222476Y-99316666D02*
X161374857Y-99278571D01*
X161374857Y-99278571D02*
X161565333Y-99278571D01*
X161565333Y-99278571D02*
X161717714Y-99316666D01*
X161717714Y-99316666D02*
X161793904Y-99354761D01*
X161793904Y-99354761D02*
X161832000Y-99392856D01*
X161832000Y-99392856D02*
X161870095Y-99469047D01*
X161870095Y-99469047D02*
X161870095Y-99545237D01*
X161870095Y-99545237D02*
X161832000Y-99621428D01*
X161832000Y-99621428D02*
X161793904Y-99659523D01*
X161793904Y-99659523D02*
X161717714Y-99697618D01*
X161717714Y-99697618D02*
X161565333Y-99735714D01*
X161565333Y-99735714D02*
X161374857Y-99735714D01*
X161374857Y-99735714D02*
X161222476Y-99697618D01*
X161222476Y-99697618D02*
X161146285Y-99659523D01*
X161146285Y-99659523D02*
X161108190Y-99621428D01*
X161108190Y-99621428D02*
X161070095Y-99545237D01*
X161070095Y-98554761D02*
X161070095Y-98935713D01*
X161070095Y-98935713D02*
X161451047Y-98973809D01*
X161451047Y-98973809D02*
X161412952Y-98935713D01*
X161412952Y-98935713D02*
X161374857Y-98859523D01*
X161374857Y-98859523D02*
X161374857Y-98669047D01*
X161374857Y-98669047D02*
X161412952Y-98592856D01*
X161412952Y-98592856D02*
X161451047Y-98554761D01*
X161451047Y-98554761D02*
X161527238Y-98516666D01*
X161527238Y-98516666D02*
X161717714Y-98516666D01*
X161717714Y-98516666D02*
X161793904Y-98554761D01*
X161793904Y-98554761D02*
X161832000Y-98592856D01*
X161832000Y-98592856D02*
X161870095Y-98669047D01*
X161870095Y-98669047D02*
X161870095Y-98859523D01*
X161870095Y-98859523D02*
X161832000Y-98935713D01*
X161832000Y-98935713D02*
X161793904Y-98973809D01*
X171951047Y-101778571D02*
X171989142Y-101664285D01*
X171989142Y-101664285D02*
X172027238Y-101626190D01*
X172027238Y-101626190D02*
X172103428Y-101588094D01*
X172103428Y-101588094D02*
X172217714Y-101588094D01*
X172217714Y-101588094D02*
X172293904Y-101626190D01*
X172293904Y-101626190D02*
X172332000Y-101664285D01*
X172332000Y-101664285D02*
X172370095Y-101740475D01*
X172370095Y-101740475D02*
X172370095Y-102045237D01*
X172370095Y-102045237D02*
X171570095Y-102045237D01*
X171570095Y-102045237D02*
X171570095Y-101778571D01*
X171570095Y-101778571D02*
X171608190Y-101702380D01*
X171608190Y-101702380D02*
X171646285Y-101664285D01*
X171646285Y-101664285D02*
X171722476Y-101626190D01*
X171722476Y-101626190D02*
X171798666Y-101626190D01*
X171798666Y-101626190D02*
X171874857Y-101664285D01*
X171874857Y-101664285D02*
X171912952Y-101702380D01*
X171912952Y-101702380D02*
X171951047Y-101778571D01*
X171951047Y-101778571D02*
X171951047Y-102045237D01*
X171570095Y-100864285D02*
X171570095Y-101245237D01*
X171570095Y-101245237D02*
X171951047Y-101283333D01*
X171951047Y-101283333D02*
X171912952Y-101245237D01*
X171912952Y-101245237D02*
X171874857Y-101169047D01*
X171874857Y-101169047D02*
X171874857Y-100978571D01*
X171874857Y-100978571D02*
X171912952Y-100902380D01*
X171912952Y-100902380D02*
X171951047Y-100864285D01*
X171951047Y-100864285D02*
X172027238Y-100826190D01*
X172027238Y-100826190D02*
X172217714Y-100826190D01*
X172217714Y-100826190D02*
X172293904Y-100864285D01*
X172293904Y-100864285D02*
X172332000Y-100902380D01*
X172332000Y-100902380D02*
X172370095Y-100978571D01*
X172370095Y-100978571D02*
X172370095Y-101169047D01*
X172370095Y-101169047D02*
X172332000Y-101245237D01*
X172332000Y-101245237D02*
X172293904Y-101283333D01*
X171570095Y-100330951D02*
X171570095Y-100254761D01*
X171570095Y-100254761D02*
X171608190Y-100178570D01*
X171608190Y-100178570D02*
X171646285Y-100140475D01*
X171646285Y-100140475D02*
X171722476Y-100102380D01*
X171722476Y-100102380D02*
X171874857Y-100064285D01*
X171874857Y-100064285D02*
X172065333Y-100064285D01*
X172065333Y-100064285D02*
X172217714Y-100102380D01*
X172217714Y-100102380D02*
X172293904Y-100140475D01*
X172293904Y-100140475D02*
X172332000Y-100178570D01*
X172332000Y-100178570D02*
X172370095Y-100254761D01*
X172370095Y-100254761D02*
X172370095Y-100330951D01*
X172370095Y-100330951D02*
X172332000Y-100407142D01*
X172332000Y-100407142D02*
X172293904Y-100445237D01*
X172293904Y-100445237D02*
X172217714Y-100483332D01*
X172217714Y-100483332D02*
X172065333Y-100521428D01*
X172065333Y-100521428D02*
X171874857Y-100521428D01*
X171874857Y-100521428D02*
X171722476Y-100483332D01*
X171722476Y-100483332D02*
X171646285Y-100445237D01*
X171646285Y-100445237D02*
X171608190Y-100407142D01*
X171608190Y-100407142D02*
X171570095Y-100330951D01*
X172370095Y-99721427D02*
X171570095Y-99721427D01*
X172065333Y-99645237D02*
X172370095Y-99416665D01*
X171836761Y-99416665D02*
X172141523Y-99721427D01*
G04 #@! TO.C,RV903*
X111870095Y-136488094D02*
X111489142Y-136754761D01*
X111870095Y-136945237D02*
X111070095Y-136945237D01*
X111070095Y-136945237D02*
X111070095Y-136640475D01*
X111070095Y-136640475D02*
X111108190Y-136564285D01*
X111108190Y-136564285D02*
X111146285Y-136526190D01*
X111146285Y-136526190D02*
X111222476Y-136488094D01*
X111222476Y-136488094D02*
X111336761Y-136488094D01*
X111336761Y-136488094D02*
X111412952Y-136526190D01*
X111412952Y-136526190D02*
X111451047Y-136564285D01*
X111451047Y-136564285D02*
X111489142Y-136640475D01*
X111489142Y-136640475D02*
X111489142Y-136945237D01*
X111070095Y-136259523D02*
X111870095Y-135992856D01*
X111870095Y-135992856D02*
X111070095Y-135726190D01*
X111870095Y-135421428D02*
X111870095Y-135269047D01*
X111870095Y-135269047D02*
X111832000Y-135192857D01*
X111832000Y-135192857D02*
X111793904Y-135154761D01*
X111793904Y-135154761D02*
X111679619Y-135078571D01*
X111679619Y-135078571D02*
X111527238Y-135040476D01*
X111527238Y-135040476D02*
X111222476Y-135040476D01*
X111222476Y-135040476D02*
X111146285Y-135078571D01*
X111146285Y-135078571D02*
X111108190Y-135116666D01*
X111108190Y-135116666D02*
X111070095Y-135192857D01*
X111070095Y-135192857D02*
X111070095Y-135345238D01*
X111070095Y-135345238D02*
X111108190Y-135421428D01*
X111108190Y-135421428D02*
X111146285Y-135459523D01*
X111146285Y-135459523D02*
X111222476Y-135497619D01*
X111222476Y-135497619D02*
X111412952Y-135497619D01*
X111412952Y-135497619D02*
X111489142Y-135459523D01*
X111489142Y-135459523D02*
X111527238Y-135421428D01*
X111527238Y-135421428D02*
X111565333Y-135345238D01*
X111565333Y-135345238D02*
X111565333Y-135192857D01*
X111565333Y-135192857D02*
X111527238Y-135116666D01*
X111527238Y-135116666D02*
X111489142Y-135078571D01*
X111489142Y-135078571D02*
X111412952Y-135040476D01*
X111070095Y-134545237D02*
X111070095Y-134469047D01*
X111070095Y-134469047D02*
X111108190Y-134392856D01*
X111108190Y-134392856D02*
X111146285Y-134354761D01*
X111146285Y-134354761D02*
X111222476Y-134316666D01*
X111222476Y-134316666D02*
X111374857Y-134278571D01*
X111374857Y-134278571D02*
X111565333Y-134278571D01*
X111565333Y-134278571D02*
X111717714Y-134316666D01*
X111717714Y-134316666D02*
X111793904Y-134354761D01*
X111793904Y-134354761D02*
X111832000Y-134392856D01*
X111832000Y-134392856D02*
X111870095Y-134469047D01*
X111870095Y-134469047D02*
X111870095Y-134545237D01*
X111870095Y-134545237D02*
X111832000Y-134621428D01*
X111832000Y-134621428D02*
X111793904Y-134659523D01*
X111793904Y-134659523D02*
X111717714Y-134697618D01*
X111717714Y-134697618D02*
X111565333Y-134735714D01*
X111565333Y-134735714D02*
X111374857Y-134735714D01*
X111374857Y-134735714D02*
X111222476Y-134697618D01*
X111222476Y-134697618D02*
X111146285Y-134659523D01*
X111146285Y-134659523D02*
X111108190Y-134621428D01*
X111108190Y-134621428D02*
X111070095Y-134545237D01*
X111070095Y-134011904D02*
X111070095Y-133516666D01*
X111070095Y-133516666D02*
X111374857Y-133783332D01*
X111374857Y-133783332D02*
X111374857Y-133669047D01*
X111374857Y-133669047D02*
X111412952Y-133592856D01*
X111412952Y-133592856D02*
X111451047Y-133554761D01*
X111451047Y-133554761D02*
X111527238Y-133516666D01*
X111527238Y-133516666D02*
X111717714Y-133516666D01*
X111717714Y-133516666D02*
X111793904Y-133554761D01*
X111793904Y-133554761D02*
X111832000Y-133592856D01*
X111832000Y-133592856D02*
X111870095Y-133669047D01*
X111870095Y-133669047D02*
X111870095Y-133897618D01*
X111870095Y-133897618D02*
X111832000Y-133973809D01*
X111832000Y-133973809D02*
X111793904Y-134011904D01*
X121951047Y-136778571D02*
X121989142Y-136664285D01*
X121989142Y-136664285D02*
X122027238Y-136626190D01*
X122027238Y-136626190D02*
X122103428Y-136588094D01*
X122103428Y-136588094D02*
X122217714Y-136588094D01*
X122217714Y-136588094D02*
X122293904Y-136626190D01*
X122293904Y-136626190D02*
X122332000Y-136664285D01*
X122332000Y-136664285D02*
X122370095Y-136740475D01*
X122370095Y-136740475D02*
X122370095Y-137045237D01*
X122370095Y-137045237D02*
X121570095Y-137045237D01*
X121570095Y-137045237D02*
X121570095Y-136778571D01*
X121570095Y-136778571D02*
X121608190Y-136702380D01*
X121608190Y-136702380D02*
X121646285Y-136664285D01*
X121646285Y-136664285D02*
X121722476Y-136626190D01*
X121722476Y-136626190D02*
X121798666Y-136626190D01*
X121798666Y-136626190D02*
X121874857Y-136664285D01*
X121874857Y-136664285D02*
X121912952Y-136702380D01*
X121912952Y-136702380D02*
X121951047Y-136778571D01*
X121951047Y-136778571D02*
X121951047Y-137045237D01*
X121570095Y-135864285D02*
X121570095Y-136245237D01*
X121570095Y-136245237D02*
X121951047Y-136283333D01*
X121951047Y-136283333D02*
X121912952Y-136245237D01*
X121912952Y-136245237D02*
X121874857Y-136169047D01*
X121874857Y-136169047D02*
X121874857Y-135978571D01*
X121874857Y-135978571D02*
X121912952Y-135902380D01*
X121912952Y-135902380D02*
X121951047Y-135864285D01*
X121951047Y-135864285D02*
X122027238Y-135826190D01*
X122027238Y-135826190D02*
X122217714Y-135826190D01*
X122217714Y-135826190D02*
X122293904Y-135864285D01*
X122293904Y-135864285D02*
X122332000Y-135902380D01*
X122332000Y-135902380D02*
X122370095Y-135978571D01*
X122370095Y-135978571D02*
X122370095Y-136169047D01*
X122370095Y-136169047D02*
X122332000Y-136245237D01*
X122332000Y-136245237D02*
X122293904Y-136283333D01*
X121570095Y-135330951D02*
X121570095Y-135254761D01*
X121570095Y-135254761D02*
X121608190Y-135178570D01*
X121608190Y-135178570D02*
X121646285Y-135140475D01*
X121646285Y-135140475D02*
X121722476Y-135102380D01*
X121722476Y-135102380D02*
X121874857Y-135064285D01*
X121874857Y-135064285D02*
X122065333Y-135064285D01*
X122065333Y-135064285D02*
X122217714Y-135102380D01*
X122217714Y-135102380D02*
X122293904Y-135140475D01*
X122293904Y-135140475D02*
X122332000Y-135178570D01*
X122332000Y-135178570D02*
X122370095Y-135254761D01*
X122370095Y-135254761D02*
X122370095Y-135330951D01*
X122370095Y-135330951D02*
X122332000Y-135407142D01*
X122332000Y-135407142D02*
X122293904Y-135445237D01*
X122293904Y-135445237D02*
X122217714Y-135483332D01*
X122217714Y-135483332D02*
X122065333Y-135521428D01*
X122065333Y-135521428D02*
X121874857Y-135521428D01*
X121874857Y-135521428D02*
X121722476Y-135483332D01*
X121722476Y-135483332D02*
X121646285Y-135445237D01*
X121646285Y-135445237D02*
X121608190Y-135407142D01*
X121608190Y-135407142D02*
X121570095Y-135330951D01*
X122370095Y-134721427D02*
X121570095Y-134721427D01*
X122065333Y-134645237D02*
X122370095Y-134416665D01*
X121836761Y-134416665D02*
X122141523Y-134721427D01*
G04 #@! TO.C,RV904*
X161870095Y-56488094D02*
X161489142Y-56754761D01*
X161870095Y-56945237D02*
X161070095Y-56945237D01*
X161070095Y-56945237D02*
X161070095Y-56640475D01*
X161070095Y-56640475D02*
X161108190Y-56564285D01*
X161108190Y-56564285D02*
X161146285Y-56526190D01*
X161146285Y-56526190D02*
X161222476Y-56488094D01*
X161222476Y-56488094D02*
X161336761Y-56488094D01*
X161336761Y-56488094D02*
X161412952Y-56526190D01*
X161412952Y-56526190D02*
X161451047Y-56564285D01*
X161451047Y-56564285D02*
X161489142Y-56640475D01*
X161489142Y-56640475D02*
X161489142Y-56945237D01*
X161070095Y-56259523D02*
X161870095Y-55992856D01*
X161870095Y-55992856D02*
X161070095Y-55726190D01*
X161870095Y-55421428D02*
X161870095Y-55269047D01*
X161870095Y-55269047D02*
X161832000Y-55192857D01*
X161832000Y-55192857D02*
X161793904Y-55154761D01*
X161793904Y-55154761D02*
X161679619Y-55078571D01*
X161679619Y-55078571D02*
X161527238Y-55040476D01*
X161527238Y-55040476D02*
X161222476Y-55040476D01*
X161222476Y-55040476D02*
X161146285Y-55078571D01*
X161146285Y-55078571D02*
X161108190Y-55116666D01*
X161108190Y-55116666D02*
X161070095Y-55192857D01*
X161070095Y-55192857D02*
X161070095Y-55345238D01*
X161070095Y-55345238D02*
X161108190Y-55421428D01*
X161108190Y-55421428D02*
X161146285Y-55459523D01*
X161146285Y-55459523D02*
X161222476Y-55497619D01*
X161222476Y-55497619D02*
X161412952Y-55497619D01*
X161412952Y-55497619D02*
X161489142Y-55459523D01*
X161489142Y-55459523D02*
X161527238Y-55421428D01*
X161527238Y-55421428D02*
X161565333Y-55345238D01*
X161565333Y-55345238D02*
X161565333Y-55192857D01*
X161565333Y-55192857D02*
X161527238Y-55116666D01*
X161527238Y-55116666D02*
X161489142Y-55078571D01*
X161489142Y-55078571D02*
X161412952Y-55040476D01*
X161070095Y-54545237D02*
X161070095Y-54469047D01*
X161070095Y-54469047D02*
X161108190Y-54392856D01*
X161108190Y-54392856D02*
X161146285Y-54354761D01*
X161146285Y-54354761D02*
X161222476Y-54316666D01*
X161222476Y-54316666D02*
X161374857Y-54278571D01*
X161374857Y-54278571D02*
X161565333Y-54278571D01*
X161565333Y-54278571D02*
X161717714Y-54316666D01*
X161717714Y-54316666D02*
X161793904Y-54354761D01*
X161793904Y-54354761D02*
X161832000Y-54392856D01*
X161832000Y-54392856D02*
X161870095Y-54469047D01*
X161870095Y-54469047D02*
X161870095Y-54545237D01*
X161870095Y-54545237D02*
X161832000Y-54621428D01*
X161832000Y-54621428D02*
X161793904Y-54659523D01*
X161793904Y-54659523D02*
X161717714Y-54697618D01*
X161717714Y-54697618D02*
X161565333Y-54735714D01*
X161565333Y-54735714D02*
X161374857Y-54735714D01*
X161374857Y-54735714D02*
X161222476Y-54697618D01*
X161222476Y-54697618D02*
X161146285Y-54659523D01*
X161146285Y-54659523D02*
X161108190Y-54621428D01*
X161108190Y-54621428D02*
X161070095Y-54545237D01*
X161336761Y-53592856D02*
X161870095Y-53592856D01*
X161032000Y-53783332D02*
X161603428Y-53973809D01*
X161603428Y-53973809D02*
X161603428Y-53478570D01*
X171951047Y-56778571D02*
X171989142Y-56664285D01*
X171989142Y-56664285D02*
X172027238Y-56626190D01*
X172027238Y-56626190D02*
X172103428Y-56588094D01*
X172103428Y-56588094D02*
X172217714Y-56588094D01*
X172217714Y-56588094D02*
X172293904Y-56626190D01*
X172293904Y-56626190D02*
X172332000Y-56664285D01*
X172332000Y-56664285D02*
X172370095Y-56740475D01*
X172370095Y-56740475D02*
X172370095Y-57045237D01*
X172370095Y-57045237D02*
X171570095Y-57045237D01*
X171570095Y-57045237D02*
X171570095Y-56778571D01*
X171570095Y-56778571D02*
X171608190Y-56702380D01*
X171608190Y-56702380D02*
X171646285Y-56664285D01*
X171646285Y-56664285D02*
X171722476Y-56626190D01*
X171722476Y-56626190D02*
X171798666Y-56626190D01*
X171798666Y-56626190D02*
X171874857Y-56664285D01*
X171874857Y-56664285D02*
X171912952Y-56702380D01*
X171912952Y-56702380D02*
X171951047Y-56778571D01*
X171951047Y-56778571D02*
X171951047Y-57045237D01*
X172370095Y-55826190D02*
X172370095Y-56283333D01*
X172370095Y-56054761D02*
X171570095Y-56054761D01*
X171570095Y-56054761D02*
X171684380Y-56130952D01*
X171684380Y-56130952D02*
X171760571Y-56207142D01*
X171760571Y-56207142D02*
X171798666Y-56283333D01*
X171570095Y-55330951D02*
X171570095Y-55254761D01*
X171570095Y-55254761D02*
X171608190Y-55178570D01*
X171608190Y-55178570D02*
X171646285Y-55140475D01*
X171646285Y-55140475D02*
X171722476Y-55102380D01*
X171722476Y-55102380D02*
X171874857Y-55064285D01*
X171874857Y-55064285D02*
X172065333Y-55064285D01*
X172065333Y-55064285D02*
X172217714Y-55102380D01*
X172217714Y-55102380D02*
X172293904Y-55140475D01*
X172293904Y-55140475D02*
X172332000Y-55178570D01*
X172332000Y-55178570D02*
X172370095Y-55254761D01*
X172370095Y-55254761D02*
X172370095Y-55330951D01*
X172370095Y-55330951D02*
X172332000Y-55407142D01*
X172332000Y-55407142D02*
X172293904Y-55445237D01*
X172293904Y-55445237D02*
X172217714Y-55483332D01*
X172217714Y-55483332D02*
X172065333Y-55521428D01*
X172065333Y-55521428D02*
X171874857Y-55521428D01*
X171874857Y-55521428D02*
X171722476Y-55483332D01*
X171722476Y-55483332D02*
X171646285Y-55445237D01*
X171646285Y-55445237D02*
X171608190Y-55407142D01*
X171608190Y-55407142D02*
X171570095Y-55330951D01*
X172370095Y-54721427D02*
X171570095Y-54721427D01*
X172065333Y-54645237D02*
X172370095Y-54416665D01*
X171836761Y-54416665D02*
X172141523Y-54721427D01*
G04 #@! TO.C,TP905*
X189042095Y-141651428D02*
X189042095Y-141194285D01*
X189842095Y-141422857D02*
X189042095Y-141422857D01*
X189842095Y-140927618D02*
X189042095Y-140927618D01*
X189042095Y-140927618D02*
X189042095Y-140622856D01*
X189042095Y-140622856D02*
X189080190Y-140546666D01*
X189080190Y-140546666D02*
X189118285Y-140508571D01*
X189118285Y-140508571D02*
X189194476Y-140470475D01*
X189194476Y-140470475D02*
X189308761Y-140470475D01*
X189308761Y-140470475D02*
X189384952Y-140508571D01*
X189384952Y-140508571D02*
X189423047Y-140546666D01*
X189423047Y-140546666D02*
X189461142Y-140622856D01*
X189461142Y-140622856D02*
X189461142Y-140927618D01*
X189842095Y-140089523D02*
X189842095Y-139937142D01*
X189842095Y-139937142D02*
X189804000Y-139860952D01*
X189804000Y-139860952D02*
X189765904Y-139822856D01*
X189765904Y-139822856D02*
X189651619Y-139746666D01*
X189651619Y-139746666D02*
X189499238Y-139708571D01*
X189499238Y-139708571D02*
X189194476Y-139708571D01*
X189194476Y-139708571D02*
X189118285Y-139746666D01*
X189118285Y-139746666D02*
X189080190Y-139784761D01*
X189080190Y-139784761D02*
X189042095Y-139860952D01*
X189042095Y-139860952D02*
X189042095Y-140013333D01*
X189042095Y-140013333D02*
X189080190Y-140089523D01*
X189080190Y-140089523D02*
X189118285Y-140127618D01*
X189118285Y-140127618D02*
X189194476Y-140165714D01*
X189194476Y-140165714D02*
X189384952Y-140165714D01*
X189384952Y-140165714D02*
X189461142Y-140127618D01*
X189461142Y-140127618D02*
X189499238Y-140089523D01*
X189499238Y-140089523D02*
X189537333Y-140013333D01*
X189537333Y-140013333D02*
X189537333Y-139860952D01*
X189537333Y-139860952D02*
X189499238Y-139784761D01*
X189499238Y-139784761D02*
X189461142Y-139746666D01*
X189461142Y-139746666D02*
X189384952Y-139708571D01*
X189042095Y-139213332D02*
X189042095Y-139137142D01*
X189042095Y-139137142D02*
X189080190Y-139060951D01*
X189080190Y-139060951D02*
X189118285Y-139022856D01*
X189118285Y-139022856D02*
X189194476Y-138984761D01*
X189194476Y-138984761D02*
X189346857Y-138946666D01*
X189346857Y-138946666D02*
X189537333Y-138946666D01*
X189537333Y-138946666D02*
X189689714Y-138984761D01*
X189689714Y-138984761D02*
X189765904Y-139022856D01*
X189765904Y-139022856D02*
X189804000Y-139060951D01*
X189804000Y-139060951D02*
X189842095Y-139137142D01*
X189842095Y-139137142D02*
X189842095Y-139213332D01*
X189842095Y-139213332D02*
X189804000Y-139289523D01*
X189804000Y-139289523D02*
X189765904Y-139327618D01*
X189765904Y-139327618D02*
X189689714Y-139365713D01*
X189689714Y-139365713D02*
X189537333Y-139403809D01*
X189537333Y-139403809D02*
X189346857Y-139403809D01*
X189346857Y-139403809D02*
X189194476Y-139365713D01*
X189194476Y-139365713D02*
X189118285Y-139327618D01*
X189118285Y-139327618D02*
X189080190Y-139289523D01*
X189080190Y-139289523D02*
X189042095Y-139213332D01*
X189042095Y-138222856D02*
X189042095Y-138603808D01*
X189042095Y-138603808D02*
X189423047Y-138641904D01*
X189423047Y-138641904D02*
X189384952Y-138603808D01*
X189384952Y-138603808D02*
X189346857Y-138527618D01*
X189346857Y-138527618D02*
X189346857Y-138337142D01*
X189346857Y-138337142D02*
X189384952Y-138260951D01*
X189384952Y-138260951D02*
X189423047Y-138222856D01*
X189423047Y-138222856D02*
X189499238Y-138184761D01*
X189499238Y-138184761D02*
X189689714Y-138184761D01*
X189689714Y-138184761D02*
X189765904Y-138222856D01*
X189765904Y-138222856D02*
X189804000Y-138260951D01*
X189804000Y-138260951D02*
X189842095Y-138337142D01*
X189842095Y-138337142D02*
X189842095Y-138527618D01*
X189842095Y-138527618D02*
X189804000Y-138603808D01*
X189804000Y-138603808D02*
X189765904Y-138641904D01*
X190096190Y-140489523D02*
X190058095Y-140565713D01*
X190058095Y-140565713D02*
X190058095Y-140679999D01*
X190058095Y-140679999D02*
X190096190Y-140794285D01*
X190096190Y-140794285D02*
X190172380Y-140870475D01*
X190172380Y-140870475D02*
X190248571Y-140908570D01*
X190248571Y-140908570D02*
X190400952Y-140946666D01*
X190400952Y-140946666D02*
X190515238Y-140946666D01*
X190515238Y-140946666D02*
X190667619Y-140908570D01*
X190667619Y-140908570D02*
X190743809Y-140870475D01*
X190743809Y-140870475D02*
X190820000Y-140794285D01*
X190820000Y-140794285D02*
X190858095Y-140679999D01*
X190858095Y-140679999D02*
X190858095Y-140603808D01*
X190858095Y-140603808D02*
X190820000Y-140489523D01*
X190820000Y-140489523D02*
X190781904Y-140451427D01*
X190781904Y-140451427D02*
X190515238Y-140451427D01*
X190515238Y-140451427D02*
X190515238Y-140603808D01*
X190858095Y-140108570D02*
X190058095Y-140108570D01*
X190058095Y-140108570D02*
X190858095Y-139651427D01*
X190858095Y-139651427D02*
X190058095Y-139651427D01*
X190858095Y-139270475D02*
X190058095Y-139270475D01*
X190058095Y-139270475D02*
X190058095Y-139079999D01*
X190058095Y-139079999D02*
X190096190Y-138965713D01*
X190096190Y-138965713D02*
X190172380Y-138889523D01*
X190172380Y-138889523D02*
X190248571Y-138851428D01*
X190248571Y-138851428D02*
X190400952Y-138813332D01*
X190400952Y-138813332D02*
X190515238Y-138813332D01*
X190515238Y-138813332D02*
X190667619Y-138851428D01*
X190667619Y-138851428D02*
X190743809Y-138889523D01*
X190743809Y-138889523D02*
X190820000Y-138965713D01*
X190820000Y-138965713D02*
X190858095Y-139079999D01*
X190858095Y-139079999D02*
X190858095Y-139270475D01*
G04 #@! TO.C,TP904*
X189042095Y-134031428D02*
X189042095Y-133574285D01*
X189842095Y-133802857D02*
X189042095Y-133802857D01*
X189842095Y-133307618D02*
X189042095Y-133307618D01*
X189042095Y-133307618D02*
X189042095Y-133002856D01*
X189042095Y-133002856D02*
X189080190Y-132926666D01*
X189080190Y-132926666D02*
X189118285Y-132888571D01*
X189118285Y-132888571D02*
X189194476Y-132850475D01*
X189194476Y-132850475D02*
X189308761Y-132850475D01*
X189308761Y-132850475D02*
X189384952Y-132888571D01*
X189384952Y-132888571D02*
X189423047Y-132926666D01*
X189423047Y-132926666D02*
X189461142Y-133002856D01*
X189461142Y-133002856D02*
X189461142Y-133307618D01*
X189842095Y-132469523D02*
X189842095Y-132317142D01*
X189842095Y-132317142D02*
X189804000Y-132240952D01*
X189804000Y-132240952D02*
X189765904Y-132202856D01*
X189765904Y-132202856D02*
X189651619Y-132126666D01*
X189651619Y-132126666D02*
X189499238Y-132088571D01*
X189499238Y-132088571D02*
X189194476Y-132088571D01*
X189194476Y-132088571D02*
X189118285Y-132126666D01*
X189118285Y-132126666D02*
X189080190Y-132164761D01*
X189080190Y-132164761D02*
X189042095Y-132240952D01*
X189042095Y-132240952D02*
X189042095Y-132393333D01*
X189042095Y-132393333D02*
X189080190Y-132469523D01*
X189080190Y-132469523D02*
X189118285Y-132507618D01*
X189118285Y-132507618D02*
X189194476Y-132545714D01*
X189194476Y-132545714D02*
X189384952Y-132545714D01*
X189384952Y-132545714D02*
X189461142Y-132507618D01*
X189461142Y-132507618D02*
X189499238Y-132469523D01*
X189499238Y-132469523D02*
X189537333Y-132393333D01*
X189537333Y-132393333D02*
X189537333Y-132240952D01*
X189537333Y-132240952D02*
X189499238Y-132164761D01*
X189499238Y-132164761D02*
X189461142Y-132126666D01*
X189461142Y-132126666D02*
X189384952Y-132088571D01*
X189042095Y-131593332D02*
X189042095Y-131517142D01*
X189042095Y-131517142D02*
X189080190Y-131440951D01*
X189080190Y-131440951D02*
X189118285Y-131402856D01*
X189118285Y-131402856D02*
X189194476Y-131364761D01*
X189194476Y-131364761D02*
X189346857Y-131326666D01*
X189346857Y-131326666D02*
X189537333Y-131326666D01*
X189537333Y-131326666D02*
X189689714Y-131364761D01*
X189689714Y-131364761D02*
X189765904Y-131402856D01*
X189765904Y-131402856D02*
X189804000Y-131440951D01*
X189804000Y-131440951D02*
X189842095Y-131517142D01*
X189842095Y-131517142D02*
X189842095Y-131593332D01*
X189842095Y-131593332D02*
X189804000Y-131669523D01*
X189804000Y-131669523D02*
X189765904Y-131707618D01*
X189765904Y-131707618D02*
X189689714Y-131745713D01*
X189689714Y-131745713D02*
X189537333Y-131783809D01*
X189537333Y-131783809D02*
X189346857Y-131783809D01*
X189346857Y-131783809D02*
X189194476Y-131745713D01*
X189194476Y-131745713D02*
X189118285Y-131707618D01*
X189118285Y-131707618D02*
X189080190Y-131669523D01*
X189080190Y-131669523D02*
X189042095Y-131593332D01*
X189308761Y-130640951D02*
X189842095Y-130640951D01*
X189004000Y-130831427D02*
X189575428Y-131021904D01*
X189575428Y-131021904D02*
X189575428Y-130526665D01*
X190553333Y-133669523D02*
X190553333Y-133060000D01*
X190858095Y-133364761D02*
X190248571Y-133364761D01*
X190858095Y-132260000D02*
X190858095Y-132717143D01*
X190858095Y-132488571D02*
X190058095Y-132488571D01*
X190058095Y-132488571D02*
X190172380Y-132564762D01*
X190172380Y-132564762D02*
X190248571Y-132640952D01*
X190248571Y-132640952D02*
X190286666Y-132717143D01*
X190134285Y-131955238D02*
X190096190Y-131917142D01*
X190096190Y-131917142D02*
X190058095Y-131840952D01*
X190058095Y-131840952D02*
X190058095Y-131650476D01*
X190058095Y-131650476D02*
X190096190Y-131574285D01*
X190096190Y-131574285D02*
X190134285Y-131536190D01*
X190134285Y-131536190D02*
X190210476Y-131498095D01*
X190210476Y-131498095D02*
X190286666Y-131498095D01*
X190286666Y-131498095D02*
X190400952Y-131536190D01*
X190400952Y-131536190D02*
X190858095Y-131993333D01*
X190858095Y-131993333D02*
X190858095Y-131498095D01*
X190058095Y-131269523D02*
X190858095Y-131002856D01*
X190858095Y-131002856D02*
X190058095Y-130736190D01*
G04 #@! TO.C,SW901*
X145171427Y-128682000D02*
X145285713Y-128720095D01*
X145285713Y-128720095D02*
X145476189Y-128720095D01*
X145476189Y-128720095D02*
X145552380Y-128682000D01*
X145552380Y-128682000D02*
X145590475Y-128643904D01*
X145590475Y-128643904D02*
X145628570Y-128567714D01*
X145628570Y-128567714D02*
X145628570Y-128491523D01*
X145628570Y-128491523D02*
X145590475Y-128415333D01*
X145590475Y-128415333D02*
X145552380Y-128377238D01*
X145552380Y-128377238D02*
X145476189Y-128339142D01*
X145476189Y-128339142D02*
X145323808Y-128301047D01*
X145323808Y-128301047D02*
X145247618Y-128262952D01*
X145247618Y-128262952D02*
X145209523Y-128224857D01*
X145209523Y-128224857D02*
X145171427Y-128148666D01*
X145171427Y-128148666D02*
X145171427Y-128072476D01*
X145171427Y-128072476D02*
X145209523Y-127996285D01*
X145209523Y-127996285D02*
X145247618Y-127958190D01*
X145247618Y-127958190D02*
X145323808Y-127920095D01*
X145323808Y-127920095D02*
X145514285Y-127920095D01*
X145514285Y-127920095D02*
X145628570Y-127958190D01*
X145895237Y-127920095D02*
X146085713Y-128720095D01*
X146085713Y-128720095D02*
X146238094Y-128148666D01*
X146238094Y-128148666D02*
X146390475Y-128720095D01*
X146390475Y-128720095D02*
X146580952Y-127920095D01*
X146923809Y-128720095D02*
X147076190Y-128720095D01*
X147076190Y-128720095D02*
X147152380Y-128682000D01*
X147152380Y-128682000D02*
X147190476Y-128643904D01*
X147190476Y-128643904D02*
X147266666Y-128529619D01*
X147266666Y-128529619D02*
X147304761Y-128377238D01*
X147304761Y-128377238D02*
X147304761Y-128072476D01*
X147304761Y-128072476D02*
X147266666Y-127996285D01*
X147266666Y-127996285D02*
X147228571Y-127958190D01*
X147228571Y-127958190D02*
X147152380Y-127920095D01*
X147152380Y-127920095D02*
X146999999Y-127920095D01*
X146999999Y-127920095D02*
X146923809Y-127958190D01*
X146923809Y-127958190D02*
X146885714Y-127996285D01*
X146885714Y-127996285D02*
X146847618Y-128072476D01*
X146847618Y-128072476D02*
X146847618Y-128262952D01*
X146847618Y-128262952D02*
X146885714Y-128339142D01*
X146885714Y-128339142D02*
X146923809Y-128377238D01*
X146923809Y-128377238D02*
X146999999Y-128415333D01*
X146999999Y-128415333D02*
X147152380Y-128415333D01*
X147152380Y-128415333D02*
X147228571Y-128377238D01*
X147228571Y-128377238D02*
X147266666Y-128339142D01*
X147266666Y-128339142D02*
X147304761Y-128262952D01*
X147800000Y-127920095D02*
X147876190Y-127920095D01*
X147876190Y-127920095D02*
X147952381Y-127958190D01*
X147952381Y-127958190D02*
X147990476Y-127996285D01*
X147990476Y-127996285D02*
X148028571Y-128072476D01*
X148028571Y-128072476D02*
X148066666Y-128224857D01*
X148066666Y-128224857D02*
X148066666Y-128415333D01*
X148066666Y-128415333D02*
X148028571Y-128567714D01*
X148028571Y-128567714D02*
X147990476Y-128643904D01*
X147990476Y-128643904D02*
X147952381Y-128682000D01*
X147952381Y-128682000D02*
X147876190Y-128720095D01*
X147876190Y-128720095D02*
X147800000Y-128720095D01*
X147800000Y-128720095D02*
X147723809Y-128682000D01*
X147723809Y-128682000D02*
X147685714Y-128643904D01*
X147685714Y-128643904D02*
X147647619Y-128567714D01*
X147647619Y-128567714D02*
X147609523Y-128415333D01*
X147609523Y-128415333D02*
X147609523Y-128224857D01*
X147609523Y-128224857D02*
X147647619Y-128072476D01*
X147647619Y-128072476D02*
X147685714Y-127996285D01*
X147685714Y-127996285D02*
X147723809Y-127958190D01*
X147723809Y-127958190D02*
X147800000Y-127920095D01*
X148828571Y-128720095D02*
X148371428Y-128720095D01*
X148600000Y-128720095D02*
X148600000Y-127920095D01*
X148600000Y-127920095D02*
X148523809Y-128034380D01*
X148523809Y-128034380D02*
X148447619Y-128110571D01*
X148447619Y-128110571D02*
X148371428Y-128148666D01*
G04 #@! TO.C,RV902*
X111870095Y-101488094D02*
X111489142Y-101754761D01*
X111870095Y-101945237D02*
X111070095Y-101945237D01*
X111070095Y-101945237D02*
X111070095Y-101640475D01*
X111070095Y-101640475D02*
X111108190Y-101564285D01*
X111108190Y-101564285D02*
X111146285Y-101526190D01*
X111146285Y-101526190D02*
X111222476Y-101488094D01*
X111222476Y-101488094D02*
X111336761Y-101488094D01*
X111336761Y-101488094D02*
X111412952Y-101526190D01*
X111412952Y-101526190D02*
X111451047Y-101564285D01*
X111451047Y-101564285D02*
X111489142Y-101640475D01*
X111489142Y-101640475D02*
X111489142Y-101945237D01*
X111070095Y-101259523D02*
X111870095Y-100992856D01*
X111870095Y-100992856D02*
X111070095Y-100726190D01*
X111870095Y-100421428D02*
X111870095Y-100269047D01*
X111870095Y-100269047D02*
X111832000Y-100192857D01*
X111832000Y-100192857D02*
X111793904Y-100154761D01*
X111793904Y-100154761D02*
X111679619Y-100078571D01*
X111679619Y-100078571D02*
X111527238Y-100040476D01*
X111527238Y-100040476D02*
X111222476Y-100040476D01*
X111222476Y-100040476D02*
X111146285Y-100078571D01*
X111146285Y-100078571D02*
X111108190Y-100116666D01*
X111108190Y-100116666D02*
X111070095Y-100192857D01*
X111070095Y-100192857D02*
X111070095Y-100345238D01*
X111070095Y-100345238D02*
X111108190Y-100421428D01*
X111108190Y-100421428D02*
X111146285Y-100459523D01*
X111146285Y-100459523D02*
X111222476Y-100497619D01*
X111222476Y-100497619D02*
X111412952Y-100497619D01*
X111412952Y-100497619D02*
X111489142Y-100459523D01*
X111489142Y-100459523D02*
X111527238Y-100421428D01*
X111527238Y-100421428D02*
X111565333Y-100345238D01*
X111565333Y-100345238D02*
X111565333Y-100192857D01*
X111565333Y-100192857D02*
X111527238Y-100116666D01*
X111527238Y-100116666D02*
X111489142Y-100078571D01*
X111489142Y-100078571D02*
X111412952Y-100040476D01*
X111070095Y-99545237D02*
X111070095Y-99469047D01*
X111070095Y-99469047D02*
X111108190Y-99392856D01*
X111108190Y-99392856D02*
X111146285Y-99354761D01*
X111146285Y-99354761D02*
X111222476Y-99316666D01*
X111222476Y-99316666D02*
X111374857Y-99278571D01*
X111374857Y-99278571D02*
X111565333Y-99278571D01*
X111565333Y-99278571D02*
X111717714Y-99316666D01*
X111717714Y-99316666D02*
X111793904Y-99354761D01*
X111793904Y-99354761D02*
X111832000Y-99392856D01*
X111832000Y-99392856D02*
X111870095Y-99469047D01*
X111870095Y-99469047D02*
X111870095Y-99545237D01*
X111870095Y-99545237D02*
X111832000Y-99621428D01*
X111832000Y-99621428D02*
X111793904Y-99659523D01*
X111793904Y-99659523D02*
X111717714Y-99697618D01*
X111717714Y-99697618D02*
X111565333Y-99735714D01*
X111565333Y-99735714D02*
X111374857Y-99735714D01*
X111374857Y-99735714D02*
X111222476Y-99697618D01*
X111222476Y-99697618D02*
X111146285Y-99659523D01*
X111146285Y-99659523D02*
X111108190Y-99621428D01*
X111108190Y-99621428D02*
X111070095Y-99545237D01*
X111146285Y-98973809D02*
X111108190Y-98935713D01*
X111108190Y-98935713D02*
X111070095Y-98859523D01*
X111070095Y-98859523D02*
X111070095Y-98669047D01*
X111070095Y-98669047D02*
X111108190Y-98592856D01*
X111108190Y-98592856D02*
X111146285Y-98554761D01*
X111146285Y-98554761D02*
X111222476Y-98516666D01*
X111222476Y-98516666D02*
X111298666Y-98516666D01*
X111298666Y-98516666D02*
X111412952Y-98554761D01*
X111412952Y-98554761D02*
X111870095Y-99011904D01*
X111870095Y-99011904D02*
X111870095Y-98516666D01*
X121951047Y-101778571D02*
X121989142Y-101664285D01*
X121989142Y-101664285D02*
X122027238Y-101626190D01*
X122027238Y-101626190D02*
X122103428Y-101588094D01*
X122103428Y-101588094D02*
X122217714Y-101588094D01*
X122217714Y-101588094D02*
X122293904Y-101626190D01*
X122293904Y-101626190D02*
X122332000Y-101664285D01*
X122332000Y-101664285D02*
X122370095Y-101740475D01*
X122370095Y-101740475D02*
X122370095Y-102045237D01*
X122370095Y-102045237D02*
X121570095Y-102045237D01*
X121570095Y-102045237D02*
X121570095Y-101778571D01*
X121570095Y-101778571D02*
X121608190Y-101702380D01*
X121608190Y-101702380D02*
X121646285Y-101664285D01*
X121646285Y-101664285D02*
X121722476Y-101626190D01*
X121722476Y-101626190D02*
X121798666Y-101626190D01*
X121798666Y-101626190D02*
X121874857Y-101664285D01*
X121874857Y-101664285D02*
X121912952Y-101702380D01*
X121912952Y-101702380D02*
X121951047Y-101778571D01*
X121951047Y-101778571D02*
X121951047Y-102045237D01*
X121570095Y-100864285D02*
X121570095Y-101245237D01*
X121570095Y-101245237D02*
X121951047Y-101283333D01*
X121951047Y-101283333D02*
X121912952Y-101245237D01*
X121912952Y-101245237D02*
X121874857Y-101169047D01*
X121874857Y-101169047D02*
X121874857Y-100978571D01*
X121874857Y-100978571D02*
X121912952Y-100902380D01*
X121912952Y-100902380D02*
X121951047Y-100864285D01*
X121951047Y-100864285D02*
X122027238Y-100826190D01*
X122027238Y-100826190D02*
X122217714Y-100826190D01*
X122217714Y-100826190D02*
X122293904Y-100864285D01*
X122293904Y-100864285D02*
X122332000Y-100902380D01*
X122332000Y-100902380D02*
X122370095Y-100978571D01*
X122370095Y-100978571D02*
X122370095Y-101169047D01*
X122370095Y-101169047D02*
X122332000Y-101245237D01*
X122332000Y-101245237D02*
X122293904Y-101283333D01*
X121570095Y-100330951D02*
X121570095Y-100254761D01*
X121570095Y-100254761D02*
X121608190Y-100178570D01*
X121608190Y-100178570D02*
X121646285Y-100140475D01*
X121646285Y-100140475D02*
X121722476Y-100102380D01*
X121722476Y-100102380D02*
X121874857Y-100064285D01*
X121874857Y-100064285D02*
X122065333Y-100064285D01*
X122065333Y-100064285D02*
X122217714Y-100102380D01*
X122217714Y-100102380D02*
X122293904Y-100140475D01*
X122293904Y-100140475D02*
X122332000Y-100178570D01*
X122332000Y-100178570D02*
X122370095Y-100254761D01*
X122370095Y-100254761D02*
X122370095Y-100330951D01*
X122370095Y-100330951D02*
X122332000Y-100407142D01*
X122332000Y-100407142D02*
X122293904Y-100445237D01*
X122293904Y-100445237D02*
X122217714Y-100483332D01*
X122217714Y-100483332D02*
X122065333Y-100521428D01*
X122065333Y-100521428D02*
X121874857Y-100521428D01*
X121874857Y-100521428D02*
X121722476Y-100483332D01*
X121722476Y-100483332D02*
X121646285Y-100445237D01*
X121646285Y-100445237D02*
X121608190Y-100407142D01*
X121608190Y-100407142D02*
X121570095Y-100330951D01*
X122370095Y-99721427D02*
X121570095Y-99721427D01*
X122065333Y-99645237D02*
X122370095Y-99416665D01*
X121836761Y-99416665D02*
X122141523Y-99721427D01*
G04 #@! TO.C,TP906*
X189042095Y-148001428D02*
X189042095Y-147544285D01*
X189842095Y-147772857D02*
X189042095Y-147772857D01*
X189842095Y-147277618D02*
X189042095Y-147277618D01*
X189042095Y-147277618D02*
X189042095Y-146972856D01*
X189042095Y-146972856D02*
X189080190Y-146896666D01*
X189080190Y-146896666D02*
X189118285Y-146858571D01*
X189118285Y-146858571D02*
X189194476Y-146820475D01*
X189194476Y-146820475D02*
X189308761Y-146820475D01*
X189308761Y-146820475D02*
X189384952Y-146858571D01*
X189384952Y-146858571D02*
X189423047Y-146896666D01*
X189423047Y-146896666D02*
X189461142Y-146972856D01*
X189461142Y-146972856D02*
X189461142Y-147277618D01*
X189842095Y-146439523D02*
X189842095Y-146287142D01*
X189842095Y-146287142D02*
X189804000Y-146210952D01*
X189804000Y-146210952D02*
X189765904Y-146172856D01*
X189765904Y-146172856D02*
X189651619Y-146096666D01*
X189651619Y-146096666D02*
X189499238Y-146058571D01*
X189499238Y-146058571D02*
X189194476Y-146058571D01*
X189194476Y-146058571D02*
X189118285Y-146096666D01*
X189118285Y-146096666D02*
X189080190Y-146134761D01*
X189080190Y-146134761D02*
X189042095Y-146210952D01*
X189042095Y-146210952D02*
X189042095Y-146363333D01*
X189042095Y-146363333D02*
X189080190Y-146439523D01*
X189080190Y-146439523D02*
X189118285Y-146477618D01*
X189118285Y-146477618D02*
X189194476Y-146515714D01*
X189194476Y-146515714D02*
X189384952Y-146515714D01*
X189384952Y-146515714D02*
X189461142Y-146477618D01*
X189461142Y-146477618D02*
X189499238Y-146439523D01*
X189499238Y-146439523D02*
X189537333Y-146363333D01*
X189537333Y-146363333D02*
X189537333Y-146210952D01*
X189537333Y-146210952D02*
X189499238Y-146134761D01*
X189499238Y-146134761D02*
X189461142Y-146096666D01*
X189461142Y-146096666D02*
X189384952Y-146058571D01*
X189042095Y-145563332D02*
X189042095Y-145487142D01*
X189042095Y-145487142D02*
X189080190Y-145410951D01*
X189080190Y-145410951D02*
X189118285Y-145372856D01*
X189118285Y-145372856D02*
X189194476Y-145334761D01*
X189194476Y-145334761D02*
X189346857Y-145296666D01*
X189346857Y-145296666D02*
X189537333Y-145296666D01*
X189537333Y-145296666D02*
X189689714Y-145334761D01*
X189689714Y-145334761D02*
X189765904Y-145372856D01*
X189765904Y-145372856D02*
X189804000Y-145410951D01*
X189804000Y-145410951D02*
X189842095Y-145487142D01*
X189842095Y-145487142D02*
X189842095Y-145563332D01*
X189842095Y-145563332D02*
X189804000Y-145639523D01*
X189804000Y-145639523D02*
X189765904Y-145677618D01*
X189765904Y-145677618D02*
X189689714Y-145715713D01*
X189689714Y-145715713D02*
X189537333Y-145753809D01*
X189537333Y-145753809D02*
X189346857Y-145753809D01*
X189346857Y-145753809D02*
X189194476Y-145715713D01*
X189194476Y-145715713D02*
X189118285Y-145677618D01*
X189118285Y-145677618D02*
X189080190Y-145639523D01*
X189080190Y-145639523D02*
X189042095Y-145563332D01*
X189042095Y-144610951D02*
X189042095Y-144763332D01*
X189042095Y-144763332D02*
X189080190Y-144839523D01*
X189080190Y-144839523D02*
X189118285Y-144877618D01*
X189118285Y-144877618D02*
X189232571Y-144953808D01*
X189232571Y-144953808D02*
X189384952Y-144991904D01*
X189384952Y-144991904D02*
X189689714Y-144991904D01*
X189689714Y-144991904D02*
X189765904Y-144953808D01*
X189765904Y-144953808D02*
X189804000Y-144915713D01*
X189804000Y-144915713D02*
X189842095Y-144839523D01*
X189842095Y-144839523D02*
X189842095Y-144687142D01*
X189842095Y-144687142D02*
X189804000Y-144610951D01*
X189804000Y-144610951D02*
X189765904Y-144572856D01*
X189765904Y-144572856D02*
X189689714Y-144534761D01*
X189689714Y-144534761D02*
X189499238Y-144534761D01*
X189499238Y-144534761D02*
X189423047Y-144572856D01*
X189423047Y-144572856D02*
X189384952Y-144610951D01*
X189384952Y-144610951D02*
X189346857Y-144687142D01*
X189346857Y-144687142D02*
X189346857Y-144839523D01*
X189346857Y-144839523D02*
X189384952Y-144915713D01*
X189384952Y-144915713D02*
X189423047Y-144953808D01*
X189423047Y-144953808D02*
X189499238Y-144991904D01*
X190553333Y-147639523D02*
X190553333Y-147030000D01*
X190858095Y-146230000D02*
X190858095Y-146687143D01*
X190858095Y-146458571D02*
X190058095Y-146458571D01*
X190058095Y-146458571D02*
X190172380Y-146534762D01*
X190172380Y-146534762D02*
X190248571Y-146610952D01*
X190248571Y-146610952D02*
X190286666Y-146687143D01*
X190134285Y-145925238D02*
X190096190Y-145887142D01*
X190096190Y-145887142D02*
X190058095Y-145810952D01*
X190058095Y-145810952D02*
X190058095Y-145620476D01*
X190058095Y-145620476D02*
X190096190Y-145544285D01*
X190096190Y-145544285D02*
X190134285Y-145506190D01*
X190134285Y-145506190D02*
X190210476Y-145468095D01*
X190210476Y-145468095D02*
X190286666Y-145468095D01*
X190286666Y-145468095D02*
X190400952Y-145506190D01*
X190400952Y-145506190D02*
X190858095Y-145963333D01*
X190858095Y-145963333D02*
X190858095Y-145468095D01*
X190058095Y-145239523D02*
X190858095Y-144972856D01*
X190858095Y-144972856D02*
X190058095Y-144706190D01*
D11*
G04 #@! TO.C,RV901*
X113000000Y-70750000D02*
X113000000Y-46750000D01*
X116000000Y-70750000D02*
X113000000Y-70750000D01*
X121000000Y-70750000D02*
X118000000Y-70750000D01*
X126000000Y-70750000D02*
X123000000Y-70750000D01*
X131000000Y-70750000D02*
X128000000Y-70750000D01*
X113000000Y-46750000D02*
X131000000Y-46750000D01*
X131000000Y-46750000D02*
X131000000Y-70750000D01*
G04 #@! TO.C,LED1*
X137065000Y-90795000D02*
X137065000Y-87705000D01*
X131515001Y-89249538D02*
G75*
G03*
X137064999Y-90794830I2989999J-462D01*
G01*
X137065000Y-87705170D02*
G75*
G03*
X131515000Y-89250462I-2560000J-1544830D01*
G01*
X137005000Y-89250000D02*
G75*
G03*
X137005000Y-89250000I-2500000J0D01*
G01*
G04 #@! TO.C,VR1*
X183700000Y-97610000D02*
X190300000Y-97610000D01*
X183700000Y-104590000D02*
X183700000Y-97610000D01*
X183700000Y-104590000D02*
X190300000Y-104590000D01*
X185550000Y-100750000D02*
X188450000Y-100750000D01*
X190300000Y-97610000D02*
X190300000Y-104590000D01*
X188450000Y-100750000D02*
G75*
G03*
X188450000Y-100750000I-1450000J0D01*
G01*
G04 #@! TO.C,RV905*
X163000000Y-115750000D02*
X163000000Y-91750000D01*
X166000000Y-115750000D02*
X163000000Y-115750000D01*
X171000000Y-115750000D02*
X168000000Y-115750000D01*
X176000000Y-115750000D02*
X173000000Y-115750000D01*
X181000000Y-115750000D02*
X178000000Y-115750000D01*
X163000000Y-91750000D02*
X181000000Y-91750000D01*
X181000000Y-91750000D02*
X181000000Y-115750000D01*
G04 #@! TO.C,RV903*
X113000000Y-150750000D02*
X113000000Y-126750000D01*
X116000000Y-150750000D02*
X113000000Y-150750000D01*
X121000000Y-150750000D02*
X118000000Y-150750000D01*
X126000000Y-150750000D02*
X123000000Y-150750000D01*
X131000000Y-150750000D02*
X128000000Y-150750000D01*
X113000000Y-126750000D02*
X131000000Y-126750000D01*
X131000000Y-126750000D02*
X131000000Y-150750000D01*
G04 #@! TO.C,RV904*
X163000000Y-70750000D02*
X163000000Y-46750000D01*
X166000000Y-70750000D02*
X163000000Y-70750000D01*
X171000000Y-70750000D02*
X168000000Y-70750000D01*
X176000000Y-70750000D02*
X173000000Y-70750000D01*
X181000000Y-70750000D02*
X178000000Y-70750000D01*
X163000000Y-46750000D02*
X181000000Y-46750000D01*
X181000000Y-46750000D02*
X181000000Y-70750000D01*
G04 #@! TO.C,TP905*
X193470000Y-139880000D02*
G75*
G03*
X193470000Y-139880000I-950000J0D01*
G01*
G04 #@! TO.C,TP904*
X193470000Y-132260000D02*
G75*
G03*
X193470000Y-132260000I-950000J0D01*
G01*
G04 #@! TO.C,SW901*
X143570000Y-129400000D02*
X150420000Y-129400000D01*
X143570000Y-142090000D02*
X143570000Y-129400000D01*
X150420000Y-129400000D02*
X150420000Y-129410000D01*
X150430000Y-129400000D02*
X150430000Y-142100000D01*
X150430000Y-142100000D02*
X143570000Y-142100000D01*
G04 #@! TO.C,RV902*
X113000000Y-115750000D02*
X113000000Y-91750000D01*
X116000000Y-115750000D02*
X113000000Y-115750000D01*
X121000000Y-115750000D02*
X118000000Y-115750000D01*
X126000000Y-115750000D02*
X123000000Y-115750000D01*
X131000000Y-115750000D02*
X128000000Y-115750000D01*
X113000000Y-91750000D02*
X131000000Y-91750000D01*
X131000000Y-91750000D02*
X131000000Y-115750000D01*
G04 #@! TO.C,TP906*
X193470000Y-146230000D02*
G75*
G03*
X193470000Y-146230000I-950000J0D01*
G01*
G04 #@! TD*
M02*
