G04 #@! TF.GenerationSoftware,KiCad,Pcbnew,7.0.1-3b83917a11~172~ubuntu22.04.1*
G04 #@! TF.CreationDate,2023-04-04T20:15:48-04:00*
G04 #@! TF.ProjectId,springReverbRev2_FrontPCB,73707269-6e67-4526-9576-657262526576,rev?*
G04 #@! TF.SameCoordinates,Original*
G04 #@! TF.FileFunction,Soldermask,Top*
G04 #@! TF.FilePolarity,Negative*
%FSLAX46Y46*%
G04 Gerber Fmt 4.6, Leading zero omitted, Abs format (unit mm)*
G04 Created by KiCad (PCBNEW 7.0.1-3b83917a11~172~ubuntu22.04.1) date 2023-04-04 20:15:48*
%MOMM*%
%LPD*%
G01*
G04 APERTURE LIST*
%ADD10C,3.200000*%
%ADD11C,2.340000*%
%ADD12R,1.800000X1.800000*%
%ADD13C,1.800000*%
%ADD14R,1.400000X1.400000*%
%ADD15C,1.400000*%
%ADD16C,1.500000*%
%ADD17C,3.100000*%
%ADD18C,1.600000*%
%ADD19O,1.600000X1.600000*%
%ADD20R,1.700000X1.700000*%
%ADD21O,1.700000X1.700000*%
%ADD22R,1.600000X2.400000*%
%ADD23O,1.600000X2.400000*%
%ADD24R,2.400000X1.600000*%
%ADD25O,2.400000X1.600000*%
G04 APERTURE END LIST*
D10*
G04 #@! TO.C,H905*
X192000000Y-47250000D03*
G04 #@! TD*
D11*
G04 #@! TO.C,RV901*
X117000000Y-71750000D03*
X122000000Y-71750000D03*
X127000000Y-71750000D03*
G04 #@! TD*
D12*
G04 #@! TO.C,LED1*
X135775000Y-89250000D03*
D13*
X133235000Y-89250000D03*
G04 #@! TD*
D14*
G04 #@! TO.C,VR1*
X184460000Y-101060000D03*
D15*
X187000000Y-98520000D03*
X189540000Y-101060000D03*
G04 #@! TD*
D11*
G04 #@! TO.C,RV905*
X167000000Y-116750000D03*
X172000000Y-116750000D03*
X177000000Y-116750000D03*
G04 #@! TD*
G04 #@! TO.C,RV903*
X117000000Y-151750000D03*
X122000000Y-151750000D03*
X127000000Y-151750000D03*
G04 #@! TD*
G04 #@! TO.C,RV904*
X167000000Y-71750000D03*
X172000000Y-71750000D03*
X177000000Y-71750000D03*
G04 #@! TD*
D16*
G04 #@! TO.C,TP905*
X192520000Y-139880000D03*
G04 #@! TD*
G04 #@! TO.C,TP904*
X192520000Y-132260000D03*
G04 #@! TD*
D17*
G04 #@! TO.C,SW901*
X147000000Y-140450000D03*
X147000000Y-135750000D03*
X147000000Y-131050000D03*
G04 #@! TD*
D11*
G04 #@! TO.C,RV902*
X117000000Y-116750000D03*
X122000000Y-116750000D03*
X127000000Y-116750000D03*
G04 #@! TD*
D16*
G04 #@! TO.C,TP906*
X192520000Y-146230000D03*
G04 #@! TD*
D10*
G04 #@! TO.C,H903*
X108000000Y-47250000D03*
G04 #@! TD*
D18*
G04 #@! TO.C,C903*
X163510000Y-148770000D03*
X166010000Y-148770000D03*
G04 #@! TD*
G04 #@! TO.C,R2*
X171130000Y-144960000D03*
D19*
X181290000Y-144960000D03*
G04 #@! TD*
D18*
G04 #@! TO.C,R23*
X154745000Y-77650000D03*
D19*
X154745000Y-67490000D03*
G04 #@! TD*
D18*
G04 #@! TO.C,R24*
X144585000Y-77650000D03*
D19*
X144585000Y-67490000D03*
G04 #@! TD*
D18*
G04 #@! TO.C,R26*
X139380000Y-129720000D03*
D19*
X139380000Y-139880000D03*
G04 #@! TD*
D18*
G04 #@! TO.C,R16*
X154620000Y-105590000D03*
D19*
X154620000Y-95430000D03*
G04 #@! TD*
D18*
G04 #@! TO.C,R22*
X149540000Y-95430000D03*
D19*
X149540000Y-105590000D03*
G04 #@! TD*
D20*
G04 #@! TO.C,J909*
X185090000Y-124615000D03*
D21*
X182550000Y-124615000D03*
X180010000Y-124615000D03*
X177470000Y-124615000D03*
X174930000Y-124615000D03*
X172390000Y-124615000D03*
X169850000Y-124615000D03*
X167310000Y-124615000D03*
X164770000Y-124615000D03*
G04 #@! TD*
D18*
G04 #@! TO.C,C6*
X140825000Y-90350000D03*
X140825000Y-87850000D03*
G04 #@! TD*
G04 #@! TO.C,R9*
X144470000Y-120820000D03*
D19*
X144470000Y-110660000D03*
G04 #@! TD*
D18*
G04 #@! TO.C,R8*
X139380000Y-110670000D03*
D19*
X139380000Y-120830000D03*
G04 #@! TD*
D22*
G04 #@! TO.C,U2*
X144645000Y-82740000D03*
D23*
X147185000Y-82740000D03*
X149725000Y-82740000D03*
X152265000Y-82740000D03*
X152265000Y-90360000D03*
X149725000Y-90360000D03*
X147185000Y-90360000D03*
X144645000Y-90360000D03*
G04 #@! TD*
D18*
G04 #@! TO.C,R12*
X149540000Y-120830000D03*
D19*
X149540000Y-110670000D03*
G04 #@! TD*
D18*
G04 #@! TO.C,C7*
X156065000Y-85270000D03*
X156065000Y-82770000D03*
G04 #@! TD*
G04 #@! TO.C,C904*
X160724286Y-133530000D03*
X158224286Y-133530000D03*
G04 #@! TD*
G04 #@! TO.C,R20*
X144460000Y-105590000D03*
D19*
X144460000Y-95430000D03*
G04 #@! TD*
D20*
G04 #@! TO.C,J907*
X164795000Y-82755000D03*
D21*
X167335000Y-82755000D03*
X169875000Y-82755000D03*
X172415000Y-82755000D03*
X174955000Y-82755000D03*
X177495000Y-82755000D03*
X180035000Y-82755000D03*
X182575000Y-82755000D03*
G04 #@! TD*
D18*
G04 #@! TO.C,R7*
X171130000Y-139880000D03*
D19*
X181290000Y-139880000D03*
G04 #@! TD*
D24*
G04 #@! TO.C,U1*
X158194286Y-144950000D03*
D25*
X158194286Y-142410000D03*
X158194286Y-139870000D03*
X158194286Y-137330000D03*
X165814286Y-137330000D03*
X165814286Y-139870000D03*
X165814286Y-142410000D03*
X165814286Y-144950000D03*
G04 #@! TD*
D18*
G04 #@! TO.C,R1*
X171130000Y-150040000D03*
D19*
X181290000Y-150040000D03*
G04 #@! TD*
D18*
G04 #@! TO.C,R13*
X154620000Y-120830000D03*
D19*
X154620000Y-110670000D03*
G04 #@! TD*
D18*
G04 #@! TO.C,R21*
X149665000Y-67490000D03*
D19*
X149665000Y-77650000D03*
G04 #@! TD*
D18*
G04 #@! TO.C,R25*
X134300000Y-139880000D03*
D19*
X134300000Y-129720000D03*
G04 #@! TD*
M02*
