G04 #@! TF.GenerationSoftware,KiCad,Pcbnew,7.0.2-6a45011f42~172~ubuntu22.04.1*
G04 #@! TF.CreationDate,2023-05-05T21:02:08-04:00*
G04 #@! TF.ProjectId,springReverbRev2_FrontPCB,73707269-6e67-4526-9576-657262526576,rev?*
G04 #@! TF.SameCoordinates,Original*
G04 #@! TF.FileFunction,Copper,L2,Bot*
G04 #@! TF.FilePolarity,Positive*
%FSLAX46Y46*%
G04 Gerber Fmt 4.6, Leading zero omitted, Abs format (unit mm)*
G04 Created by KiCad (PCBNEW 7.0.2-6a45011f42~172~ubuntu22.04.1) date 2023-05-05 21:02:08*
%MOMM*%
%LPD*%
G01*
G04 APERTURE LIST*
G04 #@! TA.AperFunction,ComponentPad*
%ADD10C,2.340000*%
G04 #@! TD*
G04 #@! TA.AperFunction,ComponentPad*
%ADD11R,1.400000X1.400000*%
G04 #@! TD*
G04 #@! TA.AperFunction,ComponentPad*
%ADD12C,1.400000*%
G04 #@! TD*
G04 #@! TA.AperFunction,ComponentPad*
%ADD13C,1.500000*%
G04 #@! TD*
G04 #@! TA.AperFunction,ComponentPad*
%ADD14C,3.100000*%
G04 #@! TD*
G04 #@! TA.AperFunction,ComponentPad*
%ADD15R,1.800000X1.800000*%
G04 #@! TD*
G04 #@! TA.AperFunction,ComponentPad*
%ADD16C,1.800000*%
G04 #@! TD*
G04 #@! TA.AperFunction,ComponentPad*
%ADD17C,1.600000*%
G04 #@! TD*
G04 #@! TA.AperFunction,ComponentPad*
%ADD18O,1.600000X1.600000*%
G04 #@! TD*
G04 #@! TA.AperFunction,ComponentPad*
%ADD19R,2.400000X1.600000*%
G04 #@! TD*
G04 #@! TA.AperFunction,ComponentPad*
%ADD20O,2.400000X1.600000*%
G04 #@! TD*
G04 #@! TA.AperFunction,ComponentPad*
%ADD21R,1.600000X2.400000*%
G04 #@! TD*
G04 #@! TA.AperFunction,ComponentPad*
%ADD22O,1.600000X2.400000*%
G04 #@! TD*
G04 #@! TA.AperFunction,ComponentPad*
%ADD23R,1.700000X1.700000*%
G04 #@! TD*
G04 #@! TA.AperFunction,ComponentPad*
%ADD24O,1.700000X1.700000*%
G04 #@! TD*
G04 #@! TA.AperFunction,ViaPad*
%ADD25C,0.800000*%
G04 #@! TD*
G04 #@! TA.AperFunction,Conductor*
%ADD26C,0.250000*%
G04 #@! TD*
G04 #@! TA.AperFunction,Conductor*
%ADD27C,0.750000*%
G04 #@! TD*
G04 APERTURE END LIST*
D10*
G04 #@! TO.P,RV901,1,1*
G04 #@! TO.N,Board_0-GND*
X117000000Y-71750000D03*
G04 #@! TO.P,RV901,2,2*
G04 #@! TO.N,Board_0-/Front board/MIX*
X122000000Y-71750000D03*
G04 #@! TO.P,RV901,3,3*
G04 #@! TO.N,Board_0-+12V*
X127000000Y-71750000D03*
G04 #@! TD*
D11*
G04 #@! TO.P,VR1,1,1*
G04 #@! TO.N,Board_0-/Front board/TRIM_F*
X184460000Y-101060000D03*
D12*
G04 #@! TO.P,VR1,2,2*
G04 #@! TO.N,Board_0-GND*
X187000000Y-98520000D03*
G04 #@! TO.P,VR1,3,3*
X189540000Y-101060000D03*
G04 #@! TD*
D13*
G04 #@! TO.P,TP905,1,1*
G04 #@! TO.N,Board_0-GND*
X192520000Y-139880000D03*
G04 #@! TD*
D10*
G04 #@! TO.P,RV905,1,1*
G04 #@! TO.N,Board_0-/Front board/MIXPOT_SPRING_F*
X167000000Y-116750000D03*
G04 #@! TO.P,RV905,2,2*
G04 #@! TO.N,Board_0-/Front board/MIXPOT_SB_MIX_F*
X172000000Y-116750000D03*
G04 #@! TO.P,RV905,3,3*
G04 #@! TO.N,Board_0-/Front board/MIXPOT_BRICK_F*
X177000000Y-116750000D03*
G04 #@! TD*
D14*
G04 #@! TO.P,SW901,1,1*
G04 #@! TO.N,Board_0-Net-(R25-Pad1)*
X147000000Y-140450000D03*
G04 #@! TO.P,SW901,2,2*
G04 #@! TO.N,Board_0-Net-(U1B-+)*
X147000000Y-135750000D03*
G04 #@! TO.P,SW901,3,3*
G04 #@! TO.N,Board_0-/Front board/FB_LEVEL*
X147000000Y-131050000D03*
G04 #@! TD*
D10*
G04 #@! TO.P,RV903,1,1*
G04 #@! TO.N,Board_0-GND*
X117000000Y-151750000D03*
G04 #@! TO.P,RV903,2,2*
G04 #@! TO.N,Board_0-/Front board/FB_LEVEL*
X122000000Y-151750000D03*
G04 #@! TO.P,RV903,3,3*
G04 #@! TO.N,Board_0-/Front board/AUDIO_IN_2*
X127000000Y-151750000D03*
G04 #@! TD*
D13*
G04 #@! TO.P,TP904,1,1*
G04 #@! TO.N,Board_0-+12V*
X192520000Y-132260000D03*
G04 #@! TD*
D10*
G04 #@! TO.P,RV902,1,1*
G04 #@! TO.N,Board_0-GND*
X117000000Y-116750000D03*
G04 #@! TO.P,RV902,2,2*
G04 #@! TO.N,Board_0-/Front board/CV_LEVEL*
X122000000Y-116750000D03*
G04 #@! TO.P,RV902,3,3*
G04 #@! TO.N,Board_0-/Front board/CV_IN*
X127000000Y-116750000D03*
G04 #@! TD*
D15*
G04 #@! TO.P,LED1,1,K*
G04 #@! TO.N,Board_0-/Front board/VAC_AN_F*
X135775000Y-89250000D03*
D16*
G04 #@! TO.P,LED1,2,A*
G04 #@! TO.N,Board_0-Net-(LED1-A)*
X133235000Y-89250000D03*
G04 #@! TD*
D10*
G04 #@! TO.P,RV904,1,1*
G04 #@! TO.N,Board_0-/Front board/EQ_POT_1_F*
X167000000Y-71750000D03*
G04 #@! TO.P,RV904,2,2*
G04 #@! TO.N,Board_0-/Front board/EQ_POT_2_F*
X172000000Y-71750000D03*
G04 #@! TO.P,RV904,3,3*
G04 #@! TO.N,Board_0-/Front board/EQ_POT_3_F*
X177000000Y-71750000D03*
G04 #@! TD*
D13*
G04 #@! TO.P,TP906,1,1*
G04 #@! TO.N,Board_0--12V*
X192520000Y-146230000D03*
G04 #@! TD*
D17*
G04 #@! TO.P,R26,1*
G04 #@! TO.N,Board_0-/Front board/FB_LEVEL*
X139380000Y-129720000D03*
D18*
G04 #@! TO.P,R26,2*
G04 #@! TO.N,Board_0-Net-(R25-Pad1)*
X139380000Y-139880000D03*
G04 #@! TD*
D17*
G04 #@! TO.P,R20,1*
G04 #@! TO.N,Board_0-Net-(U2B--)*
X144460000Y-105590000D03*
D18*
G04 #@! TO.P,R20,2*
G04 #@! TO.N,Board_0-Net-(R20-Pad2)*
X144460000Y-95430000D03*
G04 #@! TD*
D17*
G04 #@! TO.P,R16,1*
G04 #@! TO.N,Board_0-/Front board/CV_IN*
X154620000Y-105590000D03*
D18*
G04 #@! TO.P,R16,2*
G04 #@! TO.N,Board_0-Net-(U2B--)*
X154620000Y-95430000D03*
G04 #@! TD*
D19*
G04 #@! TO.P,U1,1*
G04 #@! TO.N,Board_0-/Front board/DRY_F*
X158194286Y-144950000D03*
D20*
G04 #@! TO.P,U1,2,-*
G04 #@! TO.N,Board_0-Net-(U1A--)*
X158194286Y-142410000D03*
G04 #@! TO.P,U1,3,+*
G04 #@! TO.N,Board_0-Net-(U1A-+)*
X158194286Y-139870000D03*
G04 #@! TO.P,U1,4,V-*
G04 #@! TO.N,Board_0--12V*
X158194286Y-137330000D03*
G04 #@! TO.P,U1,5,+*
G04 #@! TO.N,Board_0-Net-(U1B-+)*
X165814286Y-137330000D03*
G04 #@! TO.P,U1,6,-*
G04 #@! TO.N,Board_0-Net-(U1B--)*
X165814286Y-139870000D03*
G04 #@! TO.P,U1,7*
G04 #@! TO.N,Board_0-Net-(R7-Pad2)*
X165814286Y-142410000D03*
G04 #@! TO.P,U1,8,V+*
G04 #@! TO.N,Board_0-+12V*
X165814286Y-144950000D03*
G04 #@! TD*
D17*
G04 #@! TO.P,C7,1*
G04 #@! TO.N,Board_0-GND*
X156065000Y-85270000D03*
G04 #@! TO.P,C7,2*
G04 #@! TO.N,Board_0--12V*
X156065000Y-82770000D03*
G04 #@! TD*
D21*
G04 #@! TO.P,U2,1*
G04 #@! TO.N,Board_0-Net-(LED1-A)*
X144645000Y-82740000D03*
D22*
G04 #@! TO.P,U2,2,-*
G04 #@! TO.N,Board_0-/Front board/VAC_CA_F*
X147185000Y-82740000D03*
G04 #@! TO.P,U2,3,+*
G04 #@! TO.N,Board_0-Net-(U2A-+)*
X149725000Y-82740000D03*
G04 #@! TO.P,U2,4,V-*
G04 #@! TO.N,Board_0--12V*
X152265000Y-82740000D03*
G04 #@! TO.P,U2,5,+*
G04 #@! TO.N,Board_0-/Front board/CV_LEVEL*
X152265000Y-90360000D03*
G04 #@! TO.P,U2,6,-*
G04 #@! TO.N,Board_0-Net-(U2B--)*
X149725000Y-90360000D03*
G04 #@! TO.P,U2,7*
G04 #@! TO.N,Board_0-Net-(R20-Pad2)*
X147185000Y-90360000D03*
G04 #@! TO.P,U2,8,V+*
G04 #@! TO.N,Board_0-+12V*
X144645000Y-90360000D03*
G04 #@! TD*
D23*
G04 #@! TO.P,J909,1,Pin_1*
G04 #@! TO.N,Board_0-GND*
X185090000Y-124615000D03*
D24*
G04 #@! TO.P,J909,2,Pin_2*
G04 #@! TO.N,Board_0-+12V*
X182550000Y-124615000D03*
G04 #@! TO.P,J909,3,Pin_3*
G04 #@! TO.N,Board_0--12V*
X180010000Y-124615000D03*
G04 #@! TO.P,J909,4,Pin_4*
G04 #@! TO.N,Board_0-/Front board/TRIM_F*
X177470000Y-124615000D03*
G04 #@! TO.P,J909,5,Pin_5*
G04 #@! TO.N,Board_0-/Front board/VAC_AN_F*
X174930000Y-124615000D03*
G04 #@! TO.P,J909,6,Pin_6*
G04 #@! TO.N,Board_0-/Front board/VAC_CA_F*
X172390000Y-124615000D03*
G04 #@! TO.P,J909,7,Pin_7*
G04 #@! TO.N,Board_0-/Front board/MIXPOT_BRICK_F*
X169850000Y-124615000D03*
G04 #@! TO.P,J909,8,Pin_8*
G04 #@! TO.N,Board_0-/Front board/MIXPOT_SB_MIX_F*
X167310000Y-124615000D03*
G04 #@! TO.P,J909,9,Pin_9*
G04 #@! TO.N,Board_0-/Front board/MIXPOT_SPRING_F*
X164770000Y-124615000D03*
G04 #@! TD*
D17*
G04 #@! TO.P,R25,1*
G04 #@! TO.N,Board_0-Net-(R25-Pad1)*
X134300000Y-139880000D03*
D18*
G04 #@! TO.P,R25,2*
G04 #@! TO.N,Board_0-GND*
X134300000Y-129720000D03*
G04 #@! TD*
D17*
G04 #@! TO.P,R7,1*
G04 #@! TO.N,Board_0-Net-(U1B--)*
X171130000Y-139880000D03*
D18*
G04 #@! TO.P,R7,2*
G04 #@! TO.N,Board_0-Net-(R7-Pad2)*
X181290000Y-139880000D03*
G04 #@! TD*
D17*
G04 #@! TO.P,R1,1*
G04 #@! TO.N,Board_0-/Front board/FB_LEVEL*
X171130000Y-150040000D03*
D18*
G04 #@! TO.P,R1,2*
G04 #@! TO.N,Board_0-Net-(U1B--)*
X181290000Y-150040000D03*
G04 #@! TD*
D17*
G04 #@! TO.P,R12,1*
G04 #@! TO.N,Board_0-Net-(U1A--)*
X149540000Y-120830000D03*
D18*
G04 #@! TO.P,R12,2*
G04 #@! TO.N,Board_0-GND*
X149540000Y-110670000D03*
G04 #@! TD*
D17*
G04 #@! TO.P,R21,1*
G04 #@! TO.N,Board_0-/Front board/MIX*
X149665000Y-67490000D03*
D18*
G04 #@! TO.P,R21,2*
G04 #@! TO.N,Board_0-Net-(U2A-+)*
X149665000Y-77650000D03*
G04 #@! TD*
D17*
G04 #@! TO.P,R8,1*
G04 #@! TO.N,Board_0-/Front board/AUDIO_IN_1*
X139380000Y-110670000D03*
D18*
G04 #@! TO.P,R8,2*
G04 #@! TO.N,Board_0-Net-(U1A-+)*
X139380000Y-120830000D03*
G04 #@! TD*
D17*
G04 #@! TO.P,R22,1*
G04 #@! TO.N,Board_0-Net-(R20-Pad2)*
X149540000Y-95430000D03*
D18*
G04 #@! TO.P,R22,2*
G04 #@! TO.N,Board_0-Net-(U2A-+)*
X149540000Y-105590000D03*
G04 #@! TD*
D17*
G04 #@! TO.P,R24,1*
G04 #@! TO.N,Board_0-/Front board/VAC_CA_F*
X144585000Y-77650000D03*
D18*
G04 #@! TO.P,R24,2*
G04 #@! TO.N,Board_0-GND*
X144585000Y-67490000D03*
G04 #@! TD*
D17*
G04 #@! TO.P,C903,1*
G04 #@! TO.N,Board_0-+12V*
X163510000Y-148770000D03*
G04 #@! TO.P,C903,2*
G04 #@! TO.N,Board_0-GND*
X166010000Y-148770000D03*
G04 #@! TD*
G04 #@! TO.P,C6,1*
G04 #@! TO.N,Board_0-+12V*
X140825000Y-90350000D03*
G04 #@! TO.P,C6,2*
G04 #@! TO.N,Board_0-GND*
X140825000Y-87850000D03*
G04 #@! TD*
G04 #@! TO.P,C904,1*
G04 #@! TO.N,Board_0-GND*
X160724286Y-133530000D03*
G04 #@! TO.P,C904,2*
G04 #@! TO.N,Board_0--12V*
X158224286Y-133530000D03*
G04 #@! TD*
G04 #@! TO.P,R9,1*
G04 #@! TO.N,Board_0-Net-(R7-Pad2)*
X144470000Y-120820000D03*
D18*
G04 #@! TO.P,R9,2*
G04 #@! TO.N,Board_0-Net-(U1A-+)*
X144470000Y-110660000D03*
G04 #@! TD*
D23*
G04 #@! TO.P,J907,1,Pin_1*
G04 #@! TO.N,Board_0-/Front board/EQ_POT_1_F*
X164795000Y-82755000D03*
D24*
G04 #@! TO.P,J907,2,Pin_2*
G04 #@! TO.N,Board_0-/Front board/EQ_POT_2_F*
X167335000Y-82755000D03*
G04 #@! TO.P,J907,3,Pin_3*
G04 #@! TO.N,Board_0-/Front board/EQ_POT_3_F*
X169875000Y-82755000D03*
G04 #@! TO.P,J907,4,Pin_4*
G04 #@! TO.N,Board_0-/Front board/CV_IN*
X172415000Y-82755000D03*
G04 #@! TO.P,J907,5,Pin_5*
G04 #@! TO.N,Board_0-/Front board/AUDIO_IN_1*
X174955000Y-82755000D03*
G04 #@! TO.P,J907,6,Pin_6*
G04 #@! TO.N,Board_0-/Front board/AUDIO_IN_2*
X177495000Y-82755000D03*
G04 #@! TO.P,J907,7,Pin_7*
G04 #@! TO.N,Board_0-/Front board/DRY_F*
X180035000Y-82755000D03*
G04 #@! TO.P,J907,8,Pin_8*
G04 #@! TO.N,Board_0-GND*
X182575000Y-82755000D03*
G04 #@! TD*
D17*
G04 #@! TO.P,R13,1*
G04 #@! TO.N,Board_0-Net-(U1A--)*
X154620000Y-120830000D03*
D18*
G04 #@! TO.P,R13,2*
G04 #@! TO.N,Board_0-/Front board/DRY_F*
X154620000Y-110670000D03*
G04 #@! TD*
D17*
G04 #@! TO.P,R2,1*
G04 #@! TO.N,Board_0-Net-(U1B-+)*
X171130000Y-144960000D03*
D18*
G04 #@! TO.P,R2,2*
G04 #@! TO.N,Board_0-GND*
X181290000Y-144960000D03*
G04 #@! TD*
D17*
G04 #@! TO.P,R23,1*
G04 #@! TO.N,Board_0-Net-(U2A-+)*
X154745000Y-77650000D03*
D18*
G04 #@! TO.P,R23,2*
G04 #@! TO.N,Board_0-GND*
X154745000Y-67490000D03*
G04 #@! TD*
D25*
G04 #@! TO.N,Board_0-/Front board/VAC_AN_F*
X139761000Y-126037000D03*
G04 #@! TO.N,Board_0-/Front board/VAC_CA_F*
X148054732Y-123713500D03*
G04 #@! TO.N,Board_0-Net-(R7-Pad2)*
X160843000Y-122989000D03*
G04 #@! TD*
D26*
G04 #@! TO.N,Board_0-+12V*
X192520000Y-132260000D02*
X184084002Y-132260000D01*
D27*
X182550000Y-124615000D02*
X182550000Y-130725998D01*
X182052000Y-146357000D02*
X184084002Y-144324998D01*
X184084002Y-144324998D02*
X184084002Y-132260000D01*
X167221286Y-146357000D02*
X182052000Y-146357000D01*
X144645000Y-90360000D02*
X140835000Y-90360000D01*
X182550000Y-130725998D02*
X184084002Y-132260000D01*
X165814286Y-144950000D02*
X167221286Y-146357000D01*
X140835000Y-90360000D02*
X140825000Y-90350000D01*
G04 #@! TO.N,Board_0--12V*
X156035000Y-82740000D02*
X156065000Y-82770000D01*
X152265000Y-82740000D02*
X156035000Y-82740000D01*
X180010000Y-124615000D02*
X172470000Y-132155000D01*
X172470000Y-132155000D02*
X159599286Y-132155000D01*
X159599286Y-132155000D02*
X158224286Y-133530000D01*
D26*
G04 #@! TO.N,Board_0-/Front board/AUDIO_IN_1*
X141412000Y-108638000D02*
X155763000Y-108638000D01*
X174955000Y-89446000D02*
X174955000Y-82755000D01*
X139380000Y-110670000D02*
X141412000Y-108638000D01*
X155763000Y-108638000D02*
X174955000Y-89446000D01*
G04 #@! TO.N,Board_0-/Front board/CV_IN*
X137035000Y-106715000D02*
X153495000Y-106715000D01*
X127000000Y-116750000D02*
X137035000Y-106715000D01*
X172415000Y-87795000D02*
X172415000Y-82755000D01*
X154620000Y-105590000D02*
X172415000Y-87795000D01*
X153495000Y-106715000D02*
X154620000Y-105590000D01*
G04 #@! TO.N,Board_0-/Front board/CV_LEVEL*
X152265000Y-90360000D02*
X148320000Y-94305000D01*
X122000000Y-115604000D02*
X122000000Y-116750000D01*
X148320000Y-94305000D02*
X143299000Y-94305000D01*
X143299000Y-94305000D02*
X122000000Y-115604000D01*
G04 #@! TO.N,Board_0-/Front board/DRY_F*
X175448000Y-87342000D02*
X175448000Y-89842000D01*
X175448000Y-89842000D02*
X154620000Y-110670000D01*
X180035000Y-82755000D02*
X175448000Y-87342000D01*
G04 #@! TO.N,Board_0-/Front board/FB_LEVEL*
X139380000Y-129720000D02*
X145670000Y-129720000D01*
X145670000Y-129720000D02*
X147000000Y-131050000D01*
G04 #@! TO.N,Board_0-/Front board/MIX*
X122000000Y-71750000D02*
X125135000Y-68615000D01*
X148540000Y-68615000D02*
X149665000Y-67490000D01*
X125135000Y-68615000D02*
X148540000Y-68615000D01*
G04 #@! TO.N,Board_0-/Front board/VAC_AN_F*
X173185499Y-126359501D02*
X140083501Y-126359501D01*
X174930000Y-124615000D02*
X173185499Y-126359501D01*
X140083501Y-126359501D02*
X139761000Y-126037000D01*
G04 #@! TO.N,Board_0-/Front board/VAC_CA_F*
X171095000Y-125910000D02*
X150251232Y-125910000D01*
X150251232Y-125910000D02*
X148054732Y-123713500D01*
X172390000Y-124615000D02*
X171095000Y-125910000D01*
G04 #@! TO.N,Board_0-Net-(LED1-A)*
X133235000Y-89250000D02*
X139745000Y-82740000D01*
X139745000Y-82740000D02*
X144645000Y-82740000D01*
G04 #@! TO.N,Board_0-Net-(R20-Pad2)*
X144460000Y-95430000D02*
X149540000Y-95430000D01*
G04 #@! TO.N,Board_0-Net-(R25-Pad1)*
X139380000Y-139880000D02*
X146430000Y-139880000D01*
X146430000Y-139880000D02*
X147000000Y-140450000D01*
G04 #@! TO.N,Board_0-Net-(R7-Pad2)*
X160843000Y-122989000D02*
X146639000Y-122989000D01*
X170759000Y-142410000D02*
X173289000Y-139880000D01*
X165814286Y-142410000D02*
X170759000Y-142410000D01*
X146639000Y-122989000D02*
X144470000Y-120820000D01*
X173289000Y-139880000D02*
X181290000Y-139880000D01*
G04 #@! TO.N,Board_0-Net-(U1A-+)*
X139380000Y-120830000D02*
X144470000Y-115740000D01*
X137729000Y-122481000D02*
X139380000Y-120830000D01*
X158194286Y-139870000D02*
X155949286Y-137625000D01*
X137729000Y-133403000D02*
X137729000Y-122481000D01*
X141951000Y-137625000D02*
X137729000Y-133403000D01*
X144470000Y-115740000D02*
X144470000Y-110660000D01*
X155949286Y-137625000D02*
X141951000Y-137625000D01*
G04 #@! TO.N,Board_0-Net-(U1A--)*
X149540000Y-120830000D02*
X154620000Y-120830000D01*
G04 #@! TO.N,Board_0-Net-(U1B-+)*
X147000000Y-135750000D02*
X147696000Y-135054000D01*
X163538286Y-135054000D02*
X165814286Y-137330000D01*
X147696000Y-135054000D02*
X163538286Y-135054000D01*
G04 #@! TO.N,Board_0-Net-(U1B--)*
X165814286Y-139870000D02*
X171120000Y-139870000D01*
X171120000Y-139870000D02*
X171130000Y-139880000D01*
G04 #@! TO.N,Board_0-Net-(U2A-+)*
X154745000Y-77650000D02*
X149665000Y-77650000D01*
G04 #@! TO.N,Board_0-Net-(U2B--)*
X144460000Y-105590000D02*
X154620000Y-95430000D01*
G04 #@! TD*
G04 #@! TA.AperFunction,Conductor*
G04 #@! TO.N,Board_0-GND*
G36*
X181339969Y-125274458D02*
G01*
X181385481Y-125316354D01*
X181474278Y-125452268D01*
X181574434Y-125561065D01*
X181633201Y-125624903D01*
X181657880Y-125664439D01*
X181666500Y-125710241D01*
X181666500Y-130646543D01*
X181664949Y-130666252D01*
X181662850Y-130679505D01*
X181666327Y-130745849D01*
X181666500Y-130752443D01*
X181666500Y-130772310D01*
X181668575Y-130792063D01*
X181669092Y-130798630D01*
X181672569Y-130864967D01*
X181676043Y-130877933D01*
X181679643Y-130897361D01*
X181681045Y-130910697D01*
X181681046Y-130910700D01*
X181701574Y-130973879D01*
X181703442Y-130980187D01*
X181720637Y-131044360D01*
X181726727Y-131056312D01*
X181734292Y-131074575D01*
X181738437Y-131087331D01*
X181771646Y-131144851D01*
X181774793Y-131150647D01*
X181804951Y-131209834D01*
X181813391Y-131220257D01*
X181824587Y-131236548D01*
X181831295Y-131248166D01*
X181875744Y-131297533D01*
X181880026Y-131302546D01*
X181885405Y-131309188D01*
X181892528Y-131317984D01*
X181906589Y-131332045D01*
X181911095Y-131336793D01*
X181955566Y-131386183D01*
X181966421Y-131394069D01*
X181981453Y-131406909D01*
X183163597Y-132589053D01*
X183190911Y-132629930D01*
X183200502Y-132678148D01*
X183200502Y-143906850D01*
X183190911Y-143955068D01*
X183163597Y-143995946D01*
X182690742Y-144468799D01*
X182639536Y-144499871D01*
X182579767Y-144503789D01*
X182524943Y-144479666D01*
X182487452Y-144432953D01*
X182427087Y-144303501D01*
X182295810Y-144116018D01*
X182133981Y-143954189D01*
X181946498Y-143822912D01*
X181739070Y-143726186D01*
X181543999Y-143673917D01*
X181544000Y-143673918D01*
X181544000Y-145088000D01*
X181527119Y-145151000D01*
X181481000Y-145197119D01*
X181418000Y-145214000D01*
X180003918Y-145214000D01*
X180030951Y-145314889D01*
X180032823Y-145372081D01*
X180009206Y-145424204D01*
X179964972Y-145460506D01*
X179909244Y-145473500D01*
X172511273Y-145473500D01*
X172455545Y-145460506D01*
X172411310Y-145424204D01*
X172387694Y-145372081D01*
X172389566Y-145314889D01*
X172423543Y-145188087D01*
X172443498Y-144960000D01*
X172423543Y-144731913D01*
X172416600Y-144706000D01*
X180003917Y-144706000D01*
X181036000Y-144706000D01*
X181036000Y-143673917D01*
X180840929Y-143726186D01*
X180633501Y-143822912D01*
X180446018Y-143954189D01*
X180284189Y-144116018D01*
X180152912Y-144303501D01*
X180056186Y-144510929D01*
X180003917Y-144706000D01*
X172416600Y-144706000D01*
X172364284Y-144510757D01*
X172363792Y-144509702D01*
X172267522Y-144303249D01*
X172179817Y-144177995D01*
X172136198Y-144115700D01*
X172136197Y-144115699D01*
X172136195Y-144115696D01*
X171974303Y-143953804D01*
X171786750Y-143822477D01*
X171579243Y-143725715D01*
X171358087Y-143666457D01*
X171130000Y-143646502D01*
X170901912Y-143666457D01*
X170680756Y-143725715D01*
X170473249Y-143822477D01*
X170285696Y-143953804D01*
X170123804Y-144115696D01*
X169992477Y-144303249D01*
X169895715Y-144510756D01*
X169836457Y-144731912D01*
X169822054Y-144896534D01*
X169816502Y-144960000D01*
X169836457Y-145188087D01*
X169870434Y-145314889D01*
X169872306Y-145372081D01*
X169848690Y-145424204D01*
X169804455Y-145460506D01*
X169748727Y-145473500D01*
X167639434Y-145473500D01*
X167591216Y-145463909D01*
X167550339Y-145436595D01*
X167513621Y-145399877D01*
X167481009Y-145343392D01*
X167481009Y-145278173D01*
X167507829Y-145178087D01*
X167527784Y-144950000D01*
X167507829Y-144721913D01*
X167450967Y-144509702D01*
X167448570Y-144500756D01*
X167351808Y-144293249D01*
X167220481Y-144105696D01*
X167058589Y-143943804D01*
X166871034Y-143812476D01*
X166831829Y-143794195D01*
X166778811Y-143747700D01*
X166759078Y-143680000D01*
X166778811Y-143612300D01*
X166831829Y-143565805D01*
X166836449Y-143563650D01*
X166871035Y-143547523D01*
X167058586Y-143416198D01*
X167220484Y-143254300D01*
X167330467Y-143097227D01*
X167375499Y-143057737D01*
X167433679Y-143043500D01*
X170675147Y-143043500D01*
X170695935Y-143045795D01*
X170698907Y-143045701D01*
X170698909Y-143045702D01*
X170766985Y-143043562D01*
X170770945Y-143043500D01*
X170798852Y-143043500D01*
X170798856Y-143043500D01*
X170802865Y-143042993D01*
X170814699Y-143042061D01*
X170858889Y-143040673D01*
X170878338Y-143035021D01*
X170897698Y-143031012D01*
X170917797Y-143028474D01*
X170958915Y-143012193D01*
X170970117Y-143008357D01*
X171012593Y-142996018D01*
X171030039Y-142985699D01*
X171047780Y-142977009D01*
X171066617Y-142969552D01*
X171102392Y-142943558D01*
X171112303Y-142937048D01*
X171150362Y-142914542D01*
X171164691Y-142900212D01*
X171179719Y-142887377D01*
X171196107Y-142875472D01*
X171224303Y-142841386D01*
X171232272Y-142832630D01*
X173514498Y-140550405D01*
X173555376Y-140523091D01*
X173603594Y-140513500D01*
X180070607Y-140513500D01*
X180128787Y-140527737D01*
X180173818Y-140567227D01*
X180218403Y-140630901D01*
X180283804Y-140724303D01*
X180445696Y-140886195D01*
X180633249Y-141017522D01*
X180840756Y-141114284D01*
X180875595Y-141123619D01*
X181061913Y-141173543D01*
X181290000Y-141193498D01*
X181518087Y-141173543D01*
X181739243Y-141114284D01*
X181946749Y-141017523D01*
X182134300Y-140886198D01*
X182296198Y-140724300D01*
X182427523Y-140536749D01*
X182524284Y-140329243D01*
X182583543Y-140108087D01*
X182603498Y-139880000D01*
X182583543Y-139651913D01*
X182524284Y-139430757D01*
X182519620Y-139420756D01*
X182427522Y-139223249D01*
X182296195Y-139035696D01*
X182134303Y-138873804D01*
X181946750Y-138742477D01*
X181739243Y-138645715D01*
X181518087Y-138586457D01*
X181290000Y-138566502D01*
X181061912Y-138586457D01*
X180840756Y-138645715D01*
X180633249Y-138742477D01*
X180445696Y-138873804D01*
X180283804Y-139035696D01*
X180221511Y-139124659D01*
X180173818Y-139192772D01*
X180128787Y-139232263D01*
X180070607Y-139246500D01*
X173372853Y-139246500D01*
X173352064Y-139244204D01*
X173281014Y-139246438D01*
X173277055Y-139246500D01*
X173249139Y-139246500D01*
X173245123Y-139247007D01*
X173233303Y-139247937D01*
X173189110Y-139249326D01*
X173169657Y-139254978D01*
X173150303Y-139258986D01*
X173130204Y-139261525D01*
X173089096Y-139277801D01*
X173077870Y-139281644D01*
X173035408Y-139293981D01*
X173017964Y-139304297D01*
X173000215Y-139312991D01*
X172981384Y-139320446D01*
X172945625Y-139346427D01*
X172935706Y-139352943D01*
X172897636Y-139375457D01*
X172883309Y-139389785D01*
X172868279Y-139402622D01*
X172851894Y-139414526D01*
X172823711Y-139448593D01*
X172815723Y-139457370D01*
X172619626Y-139653467D01*
X172563142Y-139686079D01*
X172497920Y-139686079D01*
X172441435Y-139653467D01*
X172408824Y-139596983D01*
X172364284Y-139430756D01*
X172267522Y-139223249D01*
X172136195Y-139035696D01*
X171974303Y-138873804D01*
X171786750Y-138742477D01*
X171579243Y-138645715D01*
X171358087Y-138586457D01*
X171130000Y-138566502D01*
X170901912Y-138586457D01*
X170680756Y-138645715D01*
X170473249Y-138742477D01*
X170285696Y-138873804D01*
X170123804Y-139035696D01*
X170061255Y-139125024D01*
X170020820Y-139182772D01*
X169975789Y-139222263D01*
X169917609Y-139236500D01*
X167433679Y-139236500D01*
X167375499Y-139222263D01*
X167330467Y-139182772D01*
X167220484Y-139025700D01*
X167220483Y-139025699D01*
X167220481Y-139025696D01*
X167058589Y-138863804D01*
X166871034Y-138732476D01*
X166831829Y-138714195D01*
X166778811Y-138667700D01*
X166759078Y-138600000D01*
X166778811Y-138532300D01*
X166831829Y-138485805D01*
X166851601Y-138476585D01*
X166871035Y-138467523D01*
X167058586Y-138336198D01*
X167220484Y-138174300D01*
X167351809Y-137986749D01*
X167448570Y-137779243D01*
X167507829Y-137558087D01*
X167527784Y-137330000D01*
X167507829Y-137101913D01*
X167448570Y-136880757D01*
X167351809Y-136673251D01*
X167315350Y-136621183D01*
X167220481Y-136485696D01*
X167058589Y-136323804D01*
X166871036Y-136192477D01*
X166663529Y-136095715D01*
X166442373Y-136036457D01*
X166271413Y-136021500D01*
X166271408Y-136021500D01*
X165453880Y-136021500D01*
X165405662Y-136011909D01*
X165364785Y-135984595D01*
X164045530Y-134665339D01*
X164032458Y-134649022D01*
X163980650Y-134600372D01*
X163977805Y-134597615D01*
X163958056Y-134577865D01*
X163957635Y-134577539D01*
X163954855Y-134575381D01*
X163945841Y-134567682D01*
X163913606Y-134537413D01*
X163895853Y-134527653D01*
X163879327Y-134516797D01*
X163863327Y-134504386D01*
X163822752Y-134486828D01*
X163812090Y-134481604D01*
X163773349Y-134460305D01*
X163759599Y-134456775D01*
X163753723Y-134455266D01*
X163735017Y-134448862D01*
X163732722Y-134447869D01*
X163716431Y-134440819D01*
X163672760Y-134433901D01*
X163661139Y-134431495D01*
X163618316Y-134420500D01*
X163618315Y-134420500D01*
X163598062Y-134420500D01*
X163578352Y-134418949D01*
X163558343Y-134415779D01*
X163514325Y-134419941D01*
X163502467Y-134420500D01*
X161939568Y-134420500D01*
X161874203Y-134402219D01*
X161827805Y-134352680D01*
X161813838Y-134286259D01*
X161836355Y-134222229D01*
X161861373Y-134186498D01*
X161958099Y-133979070D01*
X162017334Y-133757999D01*
X162037281Y-133529999D01*
X162017334Y-133302000D01*
X161989230Y-133197111D01*
X161987358Y-133139918D01*
X162010975Y-133087796D01*
X162055209Y-133051494D01*
X162110937Y-133038500D01*
X172390545Y-133038500D01*
X172410254Y-133040051D01*
X172412253Y-133040367D01*
X172423507Y-133042150D01*
X172486752Y-133038835D01*
X172489851Y-133038673D01*
X172496445Y-133038500D01*
X172516305Y-133038500D01*
X172516306Y-133038500D01*
X172536065Y-133036422D01*
X172542625Y-133035906D01*
X172608971Y-133032430D01*
X172621926Y-133028958D01*
X172641366Y-133025355D01*
X172648410Y-133024615D01*
X172654704Y-133023954D01*
X172717879Y-133003426D01*
X172724193Y-133001555D01*
X172788363Y-132984362D01*
X172800310Y-132978274D01*
X172818568Y-132970710D01*
X172831331Y-132966564D01*
X172888875Y-132933339D01*
X172894631Y-132930214D01*
X172953839Y-132900047D01*
X172964259Y-132891608D01*
X172980550Y-132880411D01*
X172992169Y-132873704D01*
X173041555Y-132829235D01*
X173046535Y-132824983D01*
X173061986Y-132812472D01*
X173076055Y-132798401D01*
X173080802Y-132793897D01*
X173130185Y-132749434D01*
X173138070Y-132738579D01*
X173150906Y-132723550D01*
X179864052Y-126010405D01*
X179904930Y-125983091D01*
X179953148Y-125973500D01*
X180122566Y-125973500D01*
X180122569Y-125973500D01*
X180344635Y-125936444D01*
X180557574Y-125863342D01*
X180755576Y-125756189D01*
X180933240Y-125617906D01*
X181085722Y-125452268D01*
X181174518Y-125316354D01*
X181220031Y-125274458D01*
X181280000Y-125259272D01*
X181339969Y-125274458D01*
G37*
G04 #@! TD.AperFunction*
G04 #@! TA.AperFunction,Conductor*
G36*
X194911500Y-44292381D02*
G01*
X194957619Y-44338500D01*
X194974500Y-44401500D01*
X194974500Y-155598500D01*
X194957619Y-155661500D01*
X194911500Y-155707619D01*
X194848500Y-155724500D01*
X105151500Y-155724500D01*
X105088500Y-155707619D01*
X105042381Y-155661500D01*
X105025500Y-155598500D01*
X105025500Y-153103199D01*
X116006011Y-153103199D01*
X116158644Y-153207263D01*
X116385241Y-153316387D01*
X116625559Y-153390514D01*
X116874254Y-153428000D01*
X117125746Y-153428000D01*
X117374440Y-153390514D01*
X117614761Y-153316386D01*
X117841349Y-153207266D01*
X117993988Y-153103198D01*
X117000001Y-152109210D01*
X116999999Y-152109210D01*
X116006011Y-153103197D01*
X116006011Y-153103199D01*
X105025500Y-153103199D01*
X105025500Y-151750000D01*
X115317295Y-151750000D01*
X115336089Y-152000795D01*
X115392053Y-152245987D01*
X115483935Y-152480098D01*
X115609684Y-152697901D01*
X115646597Y-152744189D01*
X115646599Y-152744189D01*
X116640789Y-151750001D01*
X117359210Y-151750001D01*
X118353400Y-152744190D01*
X118353401Y-152744190D01*
X118390317Y-152697899D01*
X118516064Y-152480099D01*
X118607946Y-152245987D01*
X118663910Y-152000795D01*
X118682704Y-151750000D01*
X120316793Y-151750000D01*
X120335593Y-152000871D01*
X120391572Y-152246133D01*
X120483397Y-152480098D01*
X120483483Y-152480316D01*
X120609269Y-152698184D01*
X120766122Y-152894872D01*
X120932533Y-153049278D01*
X120950541Y-153065987D01*
X121106432Y-153172270D01*
X121158397Y-153207700D01*
X121275901Y-153264287D01*
X121385054Y-153316853D01*
X121438667Y-153333390D01*
X121625451Y-153391005D01*
X121874214Y-153428500D01*
X122125784Y-153428500D01*
X122125786Y-153428500D01*
X122374549Y-153391005D01*
X122614945Y-153316853D01*
X122841604Y-153207700D01*
X123049462Y-153065984D01*
X123233878Y-152894872D01*
X123390731Y-152698184D01*
X123516517Y-152480316D01*
X123608427Y-152246134D01*
X123664407Y-152000869D01*
X123683207Y-151750000D01*
X125316793Y-151750000D01*
X125335593Y-152000871D01*
X125391572Y-152246133D01*
X125483397Y-152480098D01*
X125483483Y-152480316D01*
X125609269Y-152698184D01*
X125766122Y-152894872D01*
X125932533Y-153049278D01*
X125950541Y-153065987D01*
X126106432Y-153172270D01*
X126158397Y-153207700D01*
X126275901Y-153264287D01*
X126385054Y-153316853D01*
X126438667Y-153333390D01*
X126625451Y-153391005D01*
X126874214Y-153428500D01*
X127125784Y-153428500D01*
X127125786Y-153428500D01*
X127374549Y-153391005D01*
X127614945Y-153316853D01*
X127841604Y-153207700D01*
X128049462Y-153065984D01*
X128233878Y-152894872D01*
X128390731Y-152698184D01*
X128516517Y-152480316D01*
X128608427Y-152246134D01*
X128664407Y-152000869D01*
X128683207Y-151750000D01*
X128664407Y-151499131D01*
X128608427Y-151253866D01*
X128516517Y-151019684D01*
X128390731Y-150801816D01*
X128233878Y-150605128D01*
X128049462Y-150434016D01*
X127841604Y-150292300D01*
X127841603Y-150292299D01*
X127841601Y-150292298D01*
X127614945Y-150183146D01*
X127441134Y-150129533D01*
X127374549Y-150108995D01*
X127125786Y-150071500D01*
X126874214Y-150071500D01*
X126625451Y-150108995D01*
X126612477Y-150112996D01*
X126385054Y-150183146D01*
X126158396Y-150292300D01*
X125950541Y-150434012D01*
X125891017Y-150489243D01*
X125766122Y-150605128D01*
X125609269Y-150801816D01*
X125609267Y-150801819D01*
X125483483Y-151019683D01*
X125391572Y-151253866D01*
X125335593Y-151499128D01*
X125316793Y-151750000D01*
X123683207Y-151750000D01*
X123664407Y-151499131D01*
X123608427Y-151253866D01*
X123516517Y-151019684D01*
X123390731Y-150801816D01*
X123233878Y-150605128D01*
X123049462Y-150434016D01*
X122841604Y-150292300D01*
X122841603Y-150292299D01*
X122841601Y-150292298D01*
X122614945Y-150183146D01*
X122441134Y-150129533D01*
X122374549Y-150108995D01*
X122125786Y-150071500D01*
X121874214Y-150071500D01*
X121625451Y-150108995D01*
X121612477Y-150112996D01*
X121385054Y-150183146D01*
X121158396Y-150292300D01*
X120950541Y-150434012D01*
X120891017Y-150489243D01*
X120766122Y-150605128D01*
X120609269Y-150801816D01*
X120609267Y-150801819D01*
X120483483Y-151019683D01*
X120391572Y-151253866D01*
X120335593Y-151499128D01*
X120316793Y-151750000D01*
X118682704Y-151750000D01*
X118682704Y-151749999D01*
X118663910Y-151499204D01*
X118607946Y-151254012D01*
X118516064Y-151019901D01*
X118390315Y-150802098D01*
X118353401Y-150755809D01*
X118353399Y-150755809D01*
X117359210Y-151749999D01*
X117359210Y-151750001D01*
X116640789Y-151750001D01*
X116640789Y-151749999D01*
X115646598Y-150755809D01*
X115646597Y-150755809D01*
X115609684Y-150802098D01*
X115483935Y-151019901D01*
X115392053Y-151254012D01*
X115336089Y-151499204D01*
X115317295Y-151750000D01*
X105025500Y-151750000D01*
X105025500Y-150396801D01*
X116006011Y-150396801D01*
X116999999Y-151390789D01*
X117000001Y-151390789D01*
X117993987Y-150396801D01*
X117993987Y-150396799D01*
X117841353Y-150292735D01*
X117614761Y-150183613D01*
X117374440Y-150109485D01*
X117125746Y-150072000D01*
X116874254Y-150072000D01*
X116625559Y-150109485D01*
X116385241Y-150183612D01*
X116158650Y-150292734D01*
X116006011Y-150396800D01*
X116006011Y-150396801D01*
X105025500Y-150396801D01*
X105025500Y-148769999D01*
X162196502Y-148769999D01*
X162216457Y-148998087D01*
X162275715Y-149219243D01*
X162372477Y-149426750D01*
X162503804Y-149614303D01*
X162665696Y-149776195D01*
X162853249Y-149907522D01*
X163060756Y-150004284D01*
X163120015Y-150020162D01*
X163281913Y-150063543D01*
X163510000Y-150083498D01*
X163738087Y-150063543D01*
X163959243Y-150004284D01*
X164166749Y-149907523D01*
X164238760Y-149857100D01*
X165282110Y-149857100D01*
X165353497Y-149907085D01*
X165560929Y-150003813D01*
X165782000Y-150063048D01*
X166010000Y-150082995D01*
X166237999Y-150063048D01*
X166324016Y-150040000D01*
X169816502Y-150040000D01*
X169836457Y-150268087D01*
X169895715Y-150489243D01*
X169992477Y-150696750D01*
X170123804Y-150884303D01*
X170285696Y-151046195D01*
X170473249Y-151177522D01*
X170680756Y-151274284D01*
X170740014Y-151290162D01*
X170901913Y-151333543D01*
X171130000Y-151353498D01*
X171358087Y-151333543D01*
X171579243Y-151274284D01*
X171786749Y-151177523D01*
X171974300Y-151046198D01*
X172136198Y-150884300D01*
X172267523Y-150696749D01*
X172364284Y-150489243D01*
X172423543Y-150268087D01*
X172443498Y-150040000D01*
X179976502Y-150040000D01*
X179996457Y-150268087D01*
X180055715Y-150489243D01*
X180152477Y-150696750D01*
X180283804Y-150884303D01*
X180445696Y-151046195D01*
X180633249Y-151177522D01*
X180840756Y-151274284D01*
X180900014Y-151290162D01*
X181061913Y-151333543D01*
X181290000Y-151353498D01*
X181518087Y-151333543D01*
X181739243Y-151274284D01*
X181946749Y-151177523D01*
X182134300Y-151046198D01*
X182296198Y-150884300D01*
X182427523Y-150696749D01*
X182524284Y-150489243D01*
X182583543Y-150268087D01*
X182603498Y-150040000D01*
X182583543Y-149811913D01*
X182530593Y-149614303D01*
X182524284Y-149590756D01*
X182427522Y-149383249D01*
X182296195Y-149195696D01*
X182134303Y-149033804D01*
X181946750Y-148902477D01*
X181739243Y-148805715D01*
X181518087Y-148746457D01*
X181290000Y-148726502D01*
X181061912Y-148746457D01*
X180840756Y-148805715D01*
X180633249Y-148902477D01*
X180445696Y-149033804D01*
X180283804Y-149195696D01*
X180152477Y-149383249D01*
X180055715Y-149590756D01*
X179996457Y-149811912D01*
X179976502Y-150040000D01*
X172443498Y-150040000D01*
X172423543Y-149811913D01*
X172370593Y-149614303D01*
X172364284Y-149590756D01*
X172267522Y-149383249D01*
X172136195Y-149195696D01*
X171974303Y-149033804D01*
X171786750Y-148902477D01*
X171579243Y-148805715D01*
X171358087Y-148746457D01*
X171130000Y-148726502D01*
X170901912Y-148746457D01*
X170680756Y-148805715D01*
X170473249Y-148902477D01*
X170285696Y-149033804D01*
X170123804Y-149195696D01*
X169992477Y-149383249D01*
X169895715Y-149590756D01*
X169836457Y-149811912D01*
X169816502Y-150040000D01*
X166324016Y-150040000D01*
X166459070Y-150003813D01*
X166666498Y-149907087D01*
X166737888Y-149857099D01*
X166737888Y-149857097D01*
X166010001Y-149129210D01*
X166010000Y-149129210D01*
X165282110Y-149857098D01*
X165282110Y-149857100D01*
X164238760Y-149857100D01*
X164354300Y-149776198D01*
X164516198Y-149614300D01*
X164647523Y-149426749D01*
X164647522Y-149426749D01*
X164653846Y-149417719D01*
X164655622Y-149418962D01*
X164692571Y-149376826D01*
X164760272Y-149357090D01*
X164827974Y-149376822D01*
X164864750Y-149418756D01*
X164866590Y-149417468D01*
X164922900Y-149497887D01*
X165650789Y-148770001D01*
X166369210Y-148770001D01*
X167097097Y-149497888D01*
X167097099Y-149497888D01*
X167147087Y-149426498D01*
X167243813Y-149219070D01*
X167303048Y-148997999D01*
X167322995Y-148769999D01*
X167303048Y-148542000D01*
X167243813Y-148320929D01*
X167147085Y-148113497D01*
X167097100Y-148042110D01*
X167097098Y-148042110D01*
X166369210Y-148770000D01*
X166369210Y-148770001D01*
X165650789Y-148770001D01*
X165650790Y-148770000D01*
X165650790Y-148769999D01*
X164922900Y-148042109D01*
X164866590Y-148122531D01*
X164864751Y-148121243D01*
X164827971Y-148163179D01*
X164760272Y-148182909D01*
X164692574Y-148163175D01*
X164655621Y-148121037D01*
X164653846Y-148122281D01*
X164516195Y-147925696D01*
X164354303Y-147763804D01*
X164238761Y-147682900D01*
X165282109Y-147682900D01*
X166009999Y-148410790D01*
X166010000Y-148410790D01*
X166737888Y-147682899D01*
X166666497Y-147632912D01*
X166459070Y-147536186D01*
X166237999Y-147476951D01*
X166010000Y-147457004D01*
X165782000Y-147476951D01*
X165560929Y-147536186D01*
X165353499Y-147632913D01*
X165282109Y-147682900D01*
X164238761Y-147682900D01*
X164166750Y-147632477D01*
X163959243Y-147535715D01*
X163738087Y-147476457D01*
X163510000Y-147456502D01*
X163281912Y-147476457D01*
X163060756Y-147535715D01*
X162853249Y-147632477D01*
X162665696Y-147763804D01*
X162503804Y-147925696D01*
X162372477Y-148113249D01*
X162275715Y-148320756D01*
X162216457Y-148541912D01*
X162196502Y-148769999D01*
X105025500Y-148769999D01*
X105025500Y-139879999D01*
X132986502Y-139879999D01*
X133006457Y-140108087D01*
X133065715Y-140329243D01*
X133162477Y-140536750D01*
X133293804Y-140724303D01*
X133455696Y-140886195D01*
X133643249Y-141017522D01*
X133850756Y-141114284D01*
X133885595Y-141123619D01*
X134071913Y-141173543D01*
X134300000Y-141193498D01*
X134528087Y-141173543D01*
X134749243Y-141114284D01*
X134956749Y-141017523D01*
X135144300Y-140886198D01*
X135306198Y-140724300D01*
X135437523Y-140536749D01*
X135534284Y-140329243D01*
X135593543Y-140108087D01*
X135613498Y-139880000D01*
X135593543Y-139651913D01*
X135534284Y-139430757D01*
X135529620Y-139420756D01*
X135437522Y-139223249D01*
X135306195Y-139035696D01*
X135144303Y-138873804D01*
X134956750Y-138742477D01*
X134749243Y-138645715D01*
X134528087Y-138586457D01*
X134300000Y-138566502D01*
X134071912Y-138586457D01*
X133850756Y-138645715D01*
X133643249Y-138742477D01*
X133455696Y-138873804D01*
X133293804Y-139035696D01*
X133162477Y-139223249D01*
X133065715Y-139430756D01*
X133006457Y-139651912D01*
X132986502Y-139879999D01*
X105025500Y-139879999D01*
X105025500Y-129974000D01*
X133013918Y-129974000D01*
X133066186Y-130169070D01*
X133162912Y-130376498D01*
X133294189Y-130563981D01*
X133456018Y-130725810D01*
X133643501Y-130857087D01*
X133850929Y-130953813D01*
X134046000Y-131006082D01*
X134046000Y-129974000D01*
X134554000Y-129974000D01*
X134554000Y-131006082D01*
X134749070Y-130953813D01*
X134956498Y-130857087D01*
X135143981Y-130725810D01*
X135305810Y-130563981D01*
X135437087Y-130376498D01*
X135533813Y-130169070D01*
X135586082Y-129974000D01*
X134554000Y-129974000D01*
X134046000Y-129974000D01*
X133013918Y-129974000D01*
X105025500Y-129974000D01*
X105025500Y-129466000D01*
X133013917Y-129466000D01*
X134046000Y-129466000D01*
X134046000Y-128433917D01*
X134553999Y-128433917D01*
X134554000Y-128433918D01*
X134554000Y-129466000D01*
X135586082Y-129466000D01*
X135533813Y-129270929D01*
X135437087Y-129063501D01*
X135305810Y-128876018D01*
X135143981Y-128714189D01*
X134956498Y-128582912D01*
X134749070Y-128486186D01*
X134553999Y-128433917D01*
X134046000Y-128433917D01*
X133850929Y-128486186D01*
X133643501Y-128582912D01*
X133456018Y-128714189D01*
X133294189Y-128876018D01*
X133162912Y-129063501D01*
X133066186Y-129270929D01*
X133013917Y-129466000D01*
X105025500Y-129466000D01*
X105025500Y-118103199D01*
X116006011Y-118103199D01*
X116158644Y-118207263D01*
X116385241Y-118316387D01*
X116625559Y-118390514D01*
X116874254Y-118428000D01*
X117125746Y-118428000D01*
X117374440Y-118390514D01*
X117614761Y-118316386D01*
X117841349Y-118207266D01*
X117993988Y-118103198D01*
X117000001Y-117109210D01*
X116999999Y-117109210D01*
X116006011Y-118103197D01*
X116006011Y-118103199D01*
X105025500Y-118103199D01*
X105025500Y-116749999D01*
X115317295Y-116749999D01*
X115336089Y-117000795D01*
X115392053Y-117245987D01*
X115483935Y-117480098D01*
X115609684Y-117697901D01*
X115646597Y-117744189D01*
X115646599Y-117744189D01*
X116640789Y-116750000D01*
X117359210Y-116750000D01*
X118353400Y-117744190D01*
X118353401Y-117744190D01*
X118390317Y-117697899D01*
X118516064Y-117480099D01*
X118607946Y-117245987D01*
X118663910Y-117000795D01*
X118682704Y-116750000D01*
X118682704Y-116749999D01*
X120316793Y-116749999D01*
X120335593Y-117000871D01*
X120391572Y-117246133D01*
X120483397Y-117480098D01*
X120483483Y-117480316D01*
X120609269Y-117698184D01*
X120766122Y-117894872D01*
X120932533Y-118049278D01*
X120950541Y-118065987D01*
X121106432Y-118172270D01*
X121158397Y-118207700D01*
X121275901Y-118264287D01*
X121385054Y-118316853D01*
X121438667Y-118333390D01*
X121625451Y-118391005D01*
X121874214Y-118428500D01*
X122125784Y-118428500D01*
X122125786Y-118428500D01*
X122374549Y-118391005D01*
X122614945Y-118316853D01*
X122841604Y-118207700D01*
X123049462Y-118065984D01*
X123233878Y-117894872D01*
X123390731Y-117698184D01*
X123516517Y-117480316D01*
X123608427Y-117246134D01*
X123664407Y-117000869D01*
X123683207Y-116750000D01*
X123683207Y-116749999D01*
X125316793Y-116749999D01*
X125335593Y-117000871D01*
X125391572Y-117246133D01*
X125483397Y-117480098D01*
X125483483Y-117480316D01*
X125609269Y-117698184D01*
X125766122Y-117894872D01*
X125932533Y-118049278D01*
X125950541Y-118065987D01*
X126106432Y-118172270D01*
X126158397Y-118207700D01*
X126275901Y-118264287D01*
X126385054Y-118316853D01*
X126438667Y-118333390D01*
X126625451Y-118391005D01*
X126874214Y-118428500D01*
X127125784Y-118428500D01*
X127125786Y-118428500D01*
X127374549Y-118391005D01*
X127614945Y-118316853D01*
X127841604Y-118207700D01*
X128049462Y-118065984D01*
X128233878Y-117894872D01*
X128390731Y-117698184D01*
X128516517Y-117480316D01*
X128608427Y-117246134D01*
X128664407Y-117000869D01*
X128683207Y-116750000D01*
X128664407Y-116499131D01*
X128608427Y-116253866D01*
X128577575Y-116175258D01*
X128568876Y-116127655D01*
X128578760Y-116080283D01*
X128605768Y-116040134D01*
X137260499Y-107385405D01*
X137301377Y-107358091D01*
X137349595Y-107348500D01*
X153411147Y-107348500D01*
X153431935Y-107350795D01*
X153434907Y-107350701D01*
X153434909Y-107350702D01*
X153502985Y-107348562D01*
X153506945Y-107348500D01*
X153534852Y-107348500D01*
X153534856Y-107348500D01*
X153538865Y-107347993D01*
X153550699Y-107347061D01*
X153594889Y-107345673D01*
X153614338Y-107340021D01*
X153633698Y-107336012D01*
X153653797Y-107333474D01*
X153694915Y-107317193D01*
X153706117Y-107313357D01*
X153748593Y-107301018D01*
X153766039Y-107290699D01*
X153783780Y-107282009D01*
X153802617Y-107274552D01*
X153838392Y-107248558D01*
X153848303Y-107242048D01*
X153886362Y-107219542D01*
X153900691Y-107205212D01*
X153915719Y-107192377D01*
X153932107Y-107180472D01*
X153960303Y-107146386D01*
X153968272Y-107137630D01*
X154206753Y-106899149D01*
X154263235Y-106866539D01*
X154328457Y-106866539D01*
X154391913Y-106883543D01*
X154620000Y-106903498D01*
X154848087Y-106883543D01*
X155069243Y-106824284D01*
X155276749Y-106727523D01*
X155464300Y-106596198D01*
X155626198Y-106434300D01*
X155757523Y-106246749D01*
X155854284Y-106039243D01*
X155913543Y-105818087D01*
X155933498Y-105590000D01*
X155913543Y-105361913D01*
X155896539Y-105298457D01*
X155896539Y-105233235D01*
X155929149Y-105176753D01*
X172803658Y-88302244D01*
X172819979Y-88289170D01*
X172822014Y-88287002D01*
X172822018Y-88287000D01*
X172868677Y-88237311D01*
X172871368Y-88234534D01*
X172891134Y-88214770D01*
X172893605Y-88211583D01*
X172901312Y-88202559D01*
X172931586Y-88170321D01*
X172941343Y-88152570D01*
X172952199Y-88136043D01*
X172964613Y-88120041D01*
X172982172Y-88079461D01*
X172987392Y-88068809D01*
X173008694Y-88030061D01*
X173008695Y-88030060D01*
X173013732Y-88010439D01*
X173020138Y-87991730D01*
X173022298Y-87986739D01*
X173028181Y-87973145D01*
X173035096Y-87929476D01*
X173037496Y-87917881D01*
X173048500Y-87875030D01*
X173048500Y-87854769D01*
X173050051Y-87835058D01*
X173053219Y-87815055D01*
X173049059Y-87771046D01*
X173048500Y-87759189D01*
X173048500Y-84031921D01*
X173066259Y-83967424D01*
X173114528Y-83921108D01*
X173160576Y-83896189D01*
X173338240Y-83757906D01*
X173490722Y-83592268D01*
X173579518Y-83456354D01*
X173625031Y-83414458D01*
X173685000Y-83399272D01*
X173744969Y-83414458D01*
X173790481Y-83456354D01*
X173879278Y-83592268D01*
X173991525Y-83714200D01*
X174031762Y-83757908D01*
X174209418Y-83896185D01*
X174209420Y-83896186D01*
X174209424Y-83896189D01*
X174255471Y-83921108D01*
X174303741Y-83967424D01*
X174321500Y-84031921D01*
X174321500Y-89131406D01*
X174311909Y-89179624D01*
X174284595Y-89220501D01*
X155537500Y-107967595D01*
X155496623Y-107994909D01*
X155448405Y-108004500D01*
X141495853Y-108004500D01*
X141475063Y-108002204D01*
X141404001Y-108004438D01*
X141400043Y-108004500D01*
X141372142Y-108004500D01*
X141368134Y-108005006D01*
X141356313Y-108005936D01*
X141312108Y-108007325D01*
X141292651Y-108012978D01*
X141273301Y-108016986D01*
X141253202Y-108019525D01*
X141212093Y-108035802D01*
X141200865Y-108039646D01*
X141158408Y-108051981D01*
X141140964Y-108062297D01*
X141123217Y-108070990D01*
X141104384Y-108078446D01*
X141068611Y-108104437D01*
X141058693Y-108110951D01*
X141020639Y-108133457D01*
X141006312Y-108147783D01*
X140991283Y-108160618D01*
X140974894Y-108172525D01*
X140946701Y-108206604D01*
X140938713Y-108215381D01*
X139793246Y-109360847D01*
X139736762Y-109393459D01*
X139671540Y-109393459D01*
X139608087Y-109376457D01*
X139493786Y-109366457D01*
X139380000Y-109356502D01*
X139379999Y-109356502D01*
X139151912Y-109376457D01*
X138930756Y-109435715D01*
X138723249Y-109532477D01*
X138535696Y-109663804D01*
X138373804Y-109825696D01*
X138242477Y-110013249D01*
X138145715Y-110220756D01*
X138086457Y-110441912D01*
X138066502Y-110669999D01*
X138086457Y-110898087D01*
X138145715Y-111119243D01*
X138242477Y-111326750D01*
X138373804Y-111514303D01*
X138535696Y-111676195D01*
X138723249Y-111807522D01*
X138930756Y-111904284D01*
X138990014Y-111920162D01*
X139151913Y-111963543D01*
X139380000Y-111983498D01*
X139608087Y-111963543D01*
X139829243Y-111904284D01*
X140036749Y-111807523D01*
X140224300Y-111676198D01*
X140386198Y-111514300D01*
X140517523Y-111326749D01*
X140614284Y-111119243D01*
X140673543Y-110898087D01*
X140693498Y-110670000D01*
X140673543Y-110441913D01*
X140660901Y-110394733D01*
X140656540Y-110378457D01*
X140656540Y-110313235D01*
X140689149Y-110256754D01*
X141637502Y-109308402D01*
X141678377Y-109281091D01*
X141726595Y-109271500D01*
X143783123Y-109271500D01*
X143848018Y-109289497D01*
X143894374Y-109338346D01*
X143908950Y-109404094D01*
X143887582Y-109467958D01*
X143836373Y-109511695D01*
X143813250Y-109522477D01*
X143625696Y-109653804D01*
X143463804Y-109815696D01*
X143332477Y-110003249D01*
X143235715Y-110210756D01*
X143176457Y-110431912D01*
X143156502Y-110659999D01*
X143176457Y-110888087D01*
X143235715Y-111109243D01*
X143332477Y-111316750D01*
X143463804Y-111504303D01*
X143625696Y-111666195D01*
X143625699Y-111666197D01*
X143625700Y-111666198D01*
X143782772Y-111776181D01*
X143822263Y-111821213D01*
X143836500Y-111879393D01*
X143836500Y-115425406D01*
X143826909Y-115473624D01*
X143799595Y-115514501D01*
X139793246Y-119520847D01*
X139736762Y-119553459D01*
X139671540Y-119553459D01*
X139608087Y-119536457D01*
X139380000Y-119516502D01*
X139151912Y-119536457D01*
X138930756Y-119595715D01*
X138723249Y-119692477D01*
X138535696Y-119823804D01*
X138373804Y-119985696D01*
X138242477Y-120173249D01*
X138145715Y-120380756D01*
X138086457Y-120601912D01*
X138066502Y-120829999D01*
X138086457Y-121058087D01*
X138103459Y-121121540D01*
X138103459Y-121186762D01*
X138070847Y-121243246D01*
X137340336Y-121973757D01*
X137324016Y-121986833D01*
X137275370Y-122038635D01*
X137272620Y-122041473D01*
X137252868Y-122061226D01*
X137252864Y-122061230D01*
X137252865Y-122061230D01*
X137250379Y-122064433D01*
X137242687Y-122073439D01*
X137212413Y-122105678D01*
X137202652Y-122123434D01*
X137191801Y-122139952D01*
X137179385Y-122155959D01*
X137161824Y-122196539D01*
X137156604Y-122207195D01*
X137135304Y-122245940D01*
X137130267Y-122265559D01*
X137123864Y-122284261D01*
X137115818Y-122302855D01*
X137108901Y-122346524D01*
X137106495Y-122358144D01*
X137095500Y-122400970D01*
X137095500Y-122421224D01*
X137093949Y-122440934D01*
X137090779Y-122460942D01*
X137094941Y-122504961D01*
X137095500Y-122516819D01*
X137095500Y-133319147D01*
X137093204Y-133339935D01*
X137095438Y-133410986D01*
X137095500Y-133414945D01*
X137095500Y-133442857D01*
X137096007Y-133446873D01*
X137096937Y-133458696D01*
X137098326Y-133502892D01*
X137103977Y-133522341D01*
X137107986Y-133541696D01*
X137110525Y-133561794D01*
X137126801Y-133602903D01*
X137130644Y-133614130D01*
X137142980Y-133656590D01*
X137153294Y-133674030D01*
X137161987Y-133691774D01*
X137169448Y-133710617D01*
X137169449Y-133710619D01*
X137195431Y-133746380D01*
X137201948Y-133756301D01*
X137224458Y-133794363D01*
X137238778Y-133808683D01*
X137251618Y-133823716D01*
X137263526Y-133840105D01*
X137297598Y-133868292D01*
X137306378Y-133876282D01*
X141443751Y-138013655D01*
X141456835Y-138029985D01*
X141508666Y-138078657D01*
X141511509Y-138081413D01*
X141531230Y-138101134D01*
X141534418Y-138103607D01*
X141543446Y-138111317D01*
X141575679Y-138141586D01*
X141593432Y-138151346D01*
X141609955Y-138162200D01*
X141625555Y-138174300D01*
X141625960Y-138174614D01*
X141666539Y-138192174D01*
X141677188Y-138197391D01*
X141715935Y-138218693D01*
X141715937Y-138218693D01*
X141715940Y-138218695D01*
X141735574Y-138223736D01*
X141754259Y-138230134D01*
X141772855Y-138238181D01*
X141816530Y-138245098D01*
X141828125Y-138247498D01*
X141870970Y-138258500D01*
X141891224Y-138258500D01*
X141910934Y-138260051D01*
X141930942Y-138263220D01*
X141930942Y-138263219D01*
X141930943Y-138263220D01*
X141974961Y-138259058D01*
X141986819Y-138258500D01*
X146275034Y-138258500D01*
X146333002Y-138272626D01*
X146377972Y-138311838D01*
X146399860Y-138367342D01*
X146393759Y-138426694D01*
X146361036Y-138476585D01*
X146316590Y-138501575D01*
X146316945Y-138502391D01*
X146309043Y-138505822D01*
X146309040Y-138505824D01*
X146177814Y-138562823D01*
X146050744Y-138618017D01*
X145810129Y-138764338D01*
X145591679Y-138942060D01*
X145399467Y-139147869D01*
X145367496Y-139193162D01*
X145322526Y-139232374D01*
X145264558Y-139246500D01*
X140599393Y-139246500D01*
X140541213Y-139232263D01*
X140496181Y-139192772D01*
X140386198Y-139035700D01*
X140386197Y-139035699D01*
X140386195Y-139035696D01*
X140224303Y-138873804D01*
X140036750Y-138742477D01*
X139829243Y-138645715D01*
X139608087Y-138586457D01*
X139380000Y-138566502D01*
X139151912Y-138586457D01*
X138930756Y-138645715D01*
X138723249Y-138742477D01*
X138535696Y-138873804D01*
X138373804Y-139035696D01*
X138242477Y-139223249D01*
X138145715Y-139430756D01*
X138086457Y-139651912D01*
X138066502Y-139879999D01*
X138086457Y-140108087D01*
X138145715Y-140329243D01*
X138242477Y-140536750D01*
X138373804Y-140724303D01*
X138535696Y-140886195D01*
X138723249Y-141017522D01*
X138930756Y-141114284D01*
X138965595Y-141123619D01*
X139151913Y-141173543D01*
X139380000Y-141193498D01*
X139608087Y-141173543D01*
X139829243Y-141114284D01*
X140036749Y-141017523D01*
X140224300Y-140886198D01*
X140386198Y-140724300D01*
X140496181Y-140567227D01*
X140541213Y-140527737D01*
X140599393Y-140513500D01*
X144823358Y-140513500D01*
X144883858Y-140528975D01*
X144929497Y-140571599D01*
X144949064Y-140630901D01*
X144955907Y-140730950D01*
X145013203Y-141006675D01*
X145107510Y-141272030D01*
X145237066Y-141522060D01*
X145237068Y-141522063D01*
X145399467Y-141752130D01*
X145591681Y-141957941D01*
X145810130Y-142135662D01*
X146050743Y-142281982D01*
X146309040Y-142394176D01*
X146580206Y-142470153D01*
X146580207Y-142470154D01*
X146859192Y-142508500D01*
X146859195Y-142508500D01*
X147140805Y-142508500D01*
X147140808Y-142508500D01*
X147350046Y-142479740D01*
X147419793Y-142470154D01*
X147690960Y-142394176D01*
X147949257Y-142281982D01*
X148189870Y-142135662D01*
X148408319Y-141957941D01*
X148600533Y-141752130D01*
X148762932Y-141522063D01*
X148892258Y-141272475D01*
X148892489Y-141272030D01*
X148898828Y-141254195D01*
X148986797Y-141006674D01*
X149044092Y-140730954D01*
X149063310Y-140450000D01*
X149044092Y-140169046D01*
X148986797Y-139893326D01*
X148892491Y-139627975D01*
X148892489Y-139627969D01*
X148762933Y-139377939D01*
X148740689Y-139346427D01*
X148600533Y-139147870D01*
X148408319Y-138942059D01*
X148189870Y-138764338D01*
X147949257Y-138618018D01*
X147947362Y-138617195D01*
X147830655Y-138566502D01*
X147690960Y-138505824D01*
X147690956Y-138505822D01*
X147683055Y-138502391D01*
X147683409Y-138501575D01*
X147638964Y-138476585D01*
X147606241Y-138426694D01*
X147600140Y-138367342D01*
X147622028Y-138311838D01*
X147666998Y-138272626D01*
X147724966Y-138258500D01*
X155634692Y-138258500D01*
X155682910Y-138268091D01*
X155723787Y-138295405D01*
X156589565Y-139161183D01*
X156617568Y-139203758D01*
X156626417Y-139253942D01*
X156614665Y-139303527D01*
X156560002Y-139420754D01*
X156500743Y-139641912D01*
X156480788Y-139869999D01*
X156500743Y-140098087D01*
X156560001Y-140319243D01*
X156656763Y-140526750D01*
X156788090Y-140714303D01*
X156949982Y-140876195D01*
X156949985Y-140876197D01*
X156949986Y-140876198D01*
X157137537Y-141007523D01*
X157172645Y-141023894D01*
X157176743Y-141025805D01*
X157229760Y-141072300D01*
X157249493Y-141140000D01*
X157229760Y-141207700D01*
X157176743Y-141254195D01*
X157137536Y-141272477D01*
X156949982Y-141403804D01*
X156788090Y-141565696D01*
X156656763Y-141753249D01*
X156560001Y-141960756D01*
X156500743Y-142181912D01*
X156480788Y-142409999D01*
X156500743Y-142638087D01*
X156560001Y-142859243D01*
X156656763Y-143066750D01*
X156788090Y-143254303D01*
X156949982Y-143416195D01*
X156953285Y-143418508D01*
X156993054Y-143464072D01*
X157007010Y-143522919D01*
X156991939Y-143581490D01*
X156951311Y-143626291D01*
X156894488Y-143647000D01*
X156889879Y-143647495D01*
X156885085Y-143648011D01*
X156839417Y-143665044D01*
X156748080Y-143699111D01*
X156631024Y-143786738D01*
X156543397Y-143903794D01*
X156492297Y-144040799D01*
X156485786Y-144101362D01*
X156485786Y-145798638D01*
X156492297Y-145859200D01*
X156543397Y-145996205D01*
X156631024Y-146113261D01*
X156748080Y-146200888D01*
X156748081Y-146200888D01*
X156748082Y-146200889D01*
X156885085Y-146251989D01*
X156945648Y-146258500D01*
X159442924Y-146258500D01*
X159503487Y-146251989D01*
X159640490Y-146200889D01*
X159757547Y-146113261D01*
X159845175Y-145996204D01*
X159896275Y-145859201D01*
X159902786Y-145798638D01*
X159902786Y-144101362D01*
X159896275Y-144040799D01*
X159845175Y-143903796D01*
X159845174Y-143903794D01*
X159757547Y-143786738D01*
X159640491Y-143699111D01*
X159552942Y-143666457D01*
X159503487Y-143648011D01*
X159494082Y-143646999D01*
X159437259Y-143626290D01*
X159396632Y-143581488D01*
X159381561Y-143522916D01*
X159395519Y-143464069D01*
X159435288Y-143418507D01*
X159438586Y-143416198D01*
X159600484Y-143254300D01*
X159731809Y-143066749D01*
X159828570Y-142859243D01*
X159887829Y-142638087D01*
X159907784Y-142410000D01*
X159887829Y-142181913D01*
X159828570Y-141960757D01*
X159731809Y-141753251D01*
X159600484Y-141565700D01*
X159600483Y-141565699D01*
X159600481Y-141565696D01*
X159438589Y-141403804D01*
X159251033Y-141272475D01*
X159211827Y-141254193D01*
X159158810Y-141207697D01*
X159139078Y-141139997D01*
X159158812Y-141072297D01*
X159211828Y-141025805D01*
X159251035Y-141007523D01*
X159438586Y-140876198D01*
X159600484Y-140714300D01*
X159731809Y-140526749D01*
X159828570Y-140319243D01*
X159887829Y-140098087D01*
X159907784Y-139870000D01*
X159887829Y-139641913D01*
X159844448Y-139480015D01*
X159828570Y-139420756D01*
X159731808Y-139213249D01*
X159600481Y-139025696D01*
X159438589Y-138863804D01*
X159251034Y-138732476D01*
X159211829Y-138714195D01*
X159158811Y-138667700D01*
X159139078Y-138600000D01*
X159158811Y-138532300D01*
X159211829Y-138485805D01*
X159231601Y-138476585D01*
X159251035Y-138467523D01*
X159438586Y-138336198D01*
X159600484Y-138174300D01*
X159731809Y-137986749D01*
X159828570Y-137779243D01*
X159887829Y-137558087D01*
X159907784Y-137330000D01*
X159887829Y-137101913D01*
X159828570Y-136880757D01*
X159731809Y-136673251D01*
X159695350Y-136621183D01*
X159600481Y-136485696D01*
X159438589Y-136323804D01*
X159251036Y-136192477D01*
X159043529Y-136095715D01*
X158822373Y-136036457D01*
X158651413Y-136021500D01*
X157737159Y-136021500D01*
X157594692Y-136033964D01*
X157566198Y-136036457D01*
X157345042Y-136095715D01*
X157137535Y-136192477D01*
X156949982Y-136323804D01*
X156788090Y-136485696D01*
X156656763Y-136673249D01*
X156559999Y-136880761D01*
X156518199Y-137036760D01*
X156491658Y-137086729D01*
X156445927Y-137120046D01*
X156390227Y-137129992D01*
X156335791Y-137114562D01*
X156306853Y-137098653D01*
X156290327Y-137087797D01*
X156274327Y-137075386D01*
X156233752Y-137057828D01*
X156223090Y-137052604D01*
X156184349Y-137031305D01*
X156170599Y-137027775D01*
X156164723Y-137026266D01*
X156146017Y-137019862D01*
X156127431Y-137011819D01*
X156083761Y-137004902D01*
X156072139Y-137002495D01*
X156029316Y-136991500D01*
X156029315Y-136991500D01*
X156009062Y-136991500D01*
X155989352Y-136989949D01*
X155969343Y-136986779D01*
X155925325Y-136990941D01*
X155913467Y-136991500D01*
X148882335Y-136991500D01*
X148820581Y-136975329D01*
X148774678Y-136930968D01*
X148756408Y-136869802D01*
X148770461Y-136807532D01*
X148892491Y-136572025D01*
X148986797Y-136306674D01*
X149044092Y-136030954D01*
X149059554Y-135804899D01*
X149079121Y-135745599D01*
X149124760Y-135702975D01*
X149185260Y-135687500D01*
X163223692Y-135687500D01*
X163271910Y-135697091D01*
X163312787Y-135724405D01*
X164209565Y-136621183D01*
X164237568Y-136663758D01*
X164246417Y-136713942D01*
X164234665Y-136763527D01*
X164180002Y-136880754D01*
X164120743Y-137101912D01*
X164100788Y-137329999D01*
X164120743Y-137558087D01*
X164180001Y-137779243D01*
X164276763Y-137986750D01*
X164408090Y-138174303D01*
X164569982Y-138336195D01*
X164569985Y-138336197D01*
X164569986Y-138336198D01*
X164757537Y-138467523D01*
X164776971Y-138476585D01*
X164796743Y-138485805D01*
X164849760Y-138532300D01*
X164869493Y-138600000D01*
X164849760Y-138667700D01*
X164796743Y-138714195D01*
X164757536Y-138732477D01*
X164569982Y-138863804D01*
X164408090Y-139025696D01*
X164276763Y-139213249D01*
X164180001Y-139420756D01*
X164120743Y-139641912D01*
X164100788Y-139869999D01*
X164120743Y-140098087D01*
X164180001Y-140319243D01*
X164276763Y-140526750D01*
X164408090Y-140714303D01*
X164569982Y-140876195D01*
X164569985Y-140876197D01*
X164569986Y-140876198D01*
X164757537Y-141007523D01*
X164792645Y-141023894D01*
X164796743Y-141025805D01*
X164849760Y-141072300D01*
X164869493Y-141140000D01*
X164849760Y-141207700D01*
X164796743Y-141254195D01*
X164757536Y-141272477D01*
X164569982Y-141403804D01*
X164408090Y-141565696D01*
X164276763Y-141753249D01*
X164180001Y-141960756D01*
X164120743Y-142181912D01*
X164100788Y-142409999D01*
X164120743Y-142638087D01*
X164180001Y-142859243D01*
X164276763Y-143066750D01*
X164408090Y-143254303D01*
X164569982Y-143416195D01*
X164569985Y-143416197D01*
X164569986Y-143416198D01*
X164757537Y-143547523D01*
X164792645Y-143563894D01*
X164796743Y-143565805D01*
X164849760Y-143612300D01*
X164869493Y-143680000D01*
X164849760Y-143747700D01*
X164796743Y-143794195D01*
X164757536Y-143812477D01*
X164569982Y-143943804D01*
X164408090Y-144105696D01*
X164276763Y-144293249D01*
X164180001Y-144500756D01*
X164120743Y-144721912D01*
X164118315Y-144749659D01*
X164100788Y-144950000D01*
X164103866Y-144985182D01*
X164120743Y-145178087D01*
X164180001Y-145399243D01*
X164276763Y-145606750D01*
X164408090Y-145794303D01*
X164569982Y-145956195D01*
X164757535Y-146087522D01*
X164965042Y-146184284D01*
X165024301Y-146200162D01*
X165186199Y-146243543D01*
X165357159Y-146258500D01*
X165821138Y-146258500D01*
X165869356Y-146268091D01*
X165910233Y-146295405D01*
X166540374Y-146925546D01*
X166553215Y-146940580D01*
X166561099Y-146951432D01*
X166561100Y-146951433D01*
X166561101Y-146951434D01*
X166610490Y-146995904D01*
X166615236Y-147000408D01*
X166629300Y-147014472D01*
X166629302Y-147014474D01*
X166644742Y-147026977D01*
X166649757Y-147031260D01*
X166699117Y-147075704D01*
X166710736Y-147082412D01*
X166727019Y-147093603D01*
X166737446Y-147102047D01*
X166768924Y-147118086D01*
X166796639Y-147132208D01*
X166802435Y-147135355D01*
X166859951Y-147168562D01*
X166859955Y-147168564D01*
X166872703Y-147172705D01*
X166890976Y-147180274D01*
X166902923Y-147186362D01*
X166945421Y-147197749D01*
X166967089Y-147203555D01*
X166973414Y-147205429D01*
X167036583Y-147225954D01*
X167041887Y-147226511D01*
X167049919Y-147227355D01*
X167069359Y-147230957D01*
X167082314Y-147234429D01*
X167148640Y-147237904D01*
X167155203Y-147238420D01*
X167170382Y-147240016D01*
X167174979Y-147240500D01*
X167174980Y-147240500D01*
X167194860Y-147240500D01*
X167201453Y-147240672D01*
X167267779Y-147244149D01*
X167279899Y-147242229D01*
X167281026Y-147242051D01*
X167300735Y-147240500D01*
X181972545Y-147240500D01*
X181992254Y-147242051D01*
X181994253Y-147242367D01*
X182005507Y-147244150D01*
X182068752Y-147240835D01*
X182071851Y-147240673D01*
X182078445Y-147240500D01*
X182098305Y-147240500D01*
X182098306Y-147240500D01*
X182118065Y-147238422D01*
X182124625Y-147237906D01*
X182190971Y-147234430D01*
X182203926Y-147230958D01*
X182223366Y-147227355D01*
X182230410Y-147226615D01*
X182236704Y-147225954D01*
X182299879Y-147205426D01*
X182306193Y-147203555D01*
X182370363Y-147186362D01*
X182382310Y-147180274D01*
X182400568Y-147172710D01*
X182413331Y-147168564D01*
X182470875Y-147135339D01*
X182476643Y-147132208D01*
X182535839Y-147102047D01*
X182546259Y-147093608D01*
X182562550Y-147082411D01*
X182574169Y-147075704D01*
X182623555Y-147031235D01*
X182628535Y-147026983D01*
X182643986Y-147014472D01*
X182658055Y-147000401D01*
X182662802Y-146995897D01*
X182712185Y-146951434D01*
X182720070Y-146940579D01*
X182732906Y-146925550D01*
X183428457Y-146229999D01*
X191256693Y-146229999D01*
X191275885Y-146449375D01*
X191332879Y-146662074D01*
X191425943Y-146861653D01*
X191552253Y-147042041D01*
X191707958Y-147197746D01*
X191707961Y-147197748D01*
X191707962Y-147197749D01*
X191888346Y-147324056D01*
X192087924Y-147417120D01*
X192181707Y-147442249D01*
X192300624Y-147474114D01*
X192300625Y-147474114D01*
X192300629Y-147474115D01*
X192520000Y-147493307D01*
X192739371Y-147474115D01*
X192952076Y-147417120D01*
X193151654Y-147324056D01*
X193332038Y-147197749D01*
X193487749Y-147042038D01*
X193614056Y-146861654D01*
X193707120Y-146662076D01*
X193764115Y-146449371D01*
X193783307Y-146230000D01*
X193764115Y-146010629D01*
X193707120Y-145797924D01*
X193614056Y-145598347D01*
X193487749Y-145417962D01*
X193487748Y-145417961D01*
X193487746Y-145417958D01*
X193332041Y-145262253D01*
X193151653Y-145135943D01*
X192952074Y-145042879D01*
X192739375Y-144985885D01*
X192520000Y-144966693D01*
X192300624Y-144985885D01*
X192087925Y-145042879D01*
X191888347Y-145135943D01*
X191707958Y-145262253D01*
X191552253Y-145417958D01*
X191425943Y-145598347D01*
X191332879Y-145797925D01*
X191275885Y-146010624D01*
X191256693Y-146229999D01*
X183428457Y-146229999D01*
X184652546Y-145005909D01*
X184667578Y-144993071D01*
X184678436Y-144985183D01*
X184722907Y-144935791D01*
X184727410Y-144931045D01*
X184741474Y-144916983D01*
X184753981Y-144901535D01*
X184758224Y-144896567D01*
X184802706Y-144847167D01*
X184809417Y-144835542D01*
X184820610Y-144819257D01*
X184829049Y-144808837D01*
X184859216Y-144749629D01*
X184862341Y-144743873D01*
X184895566Y-144686329D01*
X184899712Y-144673566D01*
X184907278Y-144655304D01*
X184913364Y-144643361D01*
X184930557Y-144579191D01*
X184932428Y-144572877D01*
X184952956Y-144509702D01*
X184954357Y-144496367D01*
X184957960Y-144476924D01*
X184961432Y-144463969D01*
X184964908Y-144397623D01*
X184965426Y-144391046D01*
X184967502Y-144371303D01*
X184967502Y-144351443D01*
X184967675Y-144344849D01*
X184967837Y-144341750D01*
X184971152Y-144278505D01*
X184969053Y-144265252D01*
X184967502Y-144245543D01*
X184967502Y-140931198D01*
X191828012Y-140931198D01*
X191888595Y-140973620D01*
X192088094Y-141066649D01*
X192300715Y-141123619D01*
X192520000Y-141142804D01*
X192739284Y-141123619D01*
X192951904Y-141066649D01*
X193151405Y-140973619D01*
X193211986Y-140931198D01*
X193211986Y-140931197D01*
X192520000Y-140239210D01*
X192519999Y-140239210D01*
X191828012Y-140931196D01*
X191828012Y-140931198D01*
X184967502Y-140931198D01*
X184967502Y-139880000D01*
X191257195Y-139880000D01*
X191276380Y-140099284D01*
X191333350Y-140311905D01*
X191426379Y-140511403D01*
X191468801Y-140571986D01*
X192160789Y-139880000D01*
X192879210Y-139880000D01*
X193571197Y-140571986D01*
X193571198Y-140571986D01*
X193613619Y-140511405D01*
X193706649Y-140311904D01*
X193763619Y-140099284D01*
X193782804Y-139880000D01*
X193763619Y-139660715D01*
X193706649Y-139448095D01*
X193613620Y-139248597D01*
X193571198Y-139188012D01*
X193571196Y-139188012D01*
X192879210Y-139879999D01*
X192879210Y-139880000D01*
X192160789Y-139880000D01*
X192160789Y-139879999D01*
X191468801Y-139188011D01*
X191426378Y-139248598D01*
X191333351Y-139448092D01*
X191276380Y-139660715D01*
X191257195Y-139880000D01*
X184967502Y-139880000D01*
X184967502Y-138828801D01*
X191828011Y-138828801D01*
X192519999Y-139520789D01*
X192520000Y-139520789D01*
X193211986Y-138828801D01*
X193211986Y-138828800D01*
X193151403Y-138786379D01*
X192951905Y-138693350D01*
X192739284Y-138636380D01*
X192520000Y-138617195D01*
X192300715Y-138636380D01*
X192088092Y-138693351D01*
X191888598Y-138786378D01*
X191828011Y-138828801D01*
X184967502Y-138828801D01*
X184967502Y-133019500D01*
X184984383Y-132956500D01*
X185030502Y-132910381D01*
X185093502Y-132893500D01*
X191361646Y-132893500D01*
X191419826Y-132907737D01*
X191464857Y-132947227D01*
X191518582Y-133023954D01*
X191552253Y-133072041D01*
X191707958Y-133227746D01*
X191707961Y-133227748D01*
X191707962Y-133227749D01*
X191888346Y-133354056D01*
X192087924Y-133447120D01*
X192108969Y-133452759D01*
X192300624Y-133504114D01*
X192300625Y-133504114D01*
X192300629Y-133504115D01*
X192520000Y-133523307D01*
X192739371Y-133504115D01*
X192743947Y-133502889D01*
X192764509Y-133497379D01*
X192952076Y-133447120D01*
X193151654Y-133354056D01*
X193332038Y-133227749D01*
X193487749Y-133072038D01*
X193614056Y-132891654D01*
X193707120Y-132692076D01*
X193764115Y-132479371D01*
X193783307Y-132260000D01*
X193764115Y-132040629D01*
X193707120Y-131827924D01*
X193614056Y-131628347D01*
X193487749Y-131447962D01*
X193487748Y-131447961D01*
X193487746Y-131447958D01*
X193332041Y-131292253D01*
X193151653Y-131165943D01*
X192952074Y-131072879D01*
X192739375Y-131015885D01*
X192520000Y-130996693D01*
X192300624Y-131015885D01*
X192087925Y-131072879D01*
X191888347Y-131165943D01*
X191707958Y-131292253D01*
X191552253Y-131447958D01*
X191526294Y-131485032D01*
X191473406Y-131560565D01*
X191464859Y-131572771D01*
X191419826Y-131612263D01*
X191361646Y-131626500D01*
X184756105Y-131626500D01*
X184717167Y-131620333D01*
X184682041Y-131602434D01*
X184667576Y-131591924D01*
X184652545Y-131579085D01*
X183470405Y-130396945D01*
X183443091Y-130356068D01*
X183433500Y-130307850D01*
X183433500Y-125710241D01*
X183442119Y-125664440D01*
X183466798Y-125624904D01*
X183496601Y-125592529D01*
X183534627Y-125551222D01*
X183588095Y-125516825D01*
X183651557Y-125512914D01*
X183708849Y-125540490D01*
X183745381Y-125592529D01*
X183789554Y-125710963D01*
X183877095Y-125827904D01*
X183994037Y-125915445D01*
X184130906Y-125966494D01*
X184191411Y-125973000D01*
X184836000Y-125973000D01*
X184836000Y-124869000D01*
X185344000Y-124869000D01*
X185344000Y-125973000D01*
X185988589Y-125973000D01*
X186049093Y-125966494D01*
X186185962Y-125915445D01*
X186302904Y-125827904D01*
X186390445Y-125710962D01*
X186441494Y-125574093D01*
X186448000Y-125513589D01*
X186448000Y-124869000D01*
X185344000Y-124869000D01*
X184836000Y-124869000D01*
X184836000Y-123257000D01*
X185344000Y-123257000D01*
X185344000Y-124361000D01*
X186448000Y-124361000D01*
X186448000Y-123716411D01*
X186441494Y-123655906D01*
X186390445Y-123519037D01*
X186302904Y-123402095D01*
X186185962Y-123314554D01*
X186049093Y-123263505D01*
X185988589Y-123257000D01*
X185344000Y-123257000D01*
X184836000Y-123257000D01*
X184191411Y-123257000D01*
X184130906Y-123263505D01*
X183994037Y-123314554D01*
X183877095Y-123402095D01*
X183789554Y-123519036D01*
X183745381Y-123637470D01*
X183708849Y-123689509D01*
X183651558Y-123717085D01*
X183588096Y-123713175D01*
X183534624Y-123678774D01*
X183473240Y-123612093D01*
X183295578Y-123473812D01*
X183097573Y-123366657D01*
X182945800Y-123314554D01*
X182884635Y-123293556D01*
X182662569Y-123256500D01*
X182437431Y-123256500D01*
X182215365Y-123293556D01*
X182215362Y-123293556D01*
X182215362Y-123293557D01*
X182002426Y-123366657D01*
X181804421Y-123473812D01*
X181626762Y-123612091D01*
X181474278Y-123777731D01*
X181385483Y-123913643D01*
X181339969Y-123955541D01*
X181280000Y-123970727D01*
X181220031Y-123955541D01*
X181174517Y-123913643D01*
X181087281Y-123780118D01*
X181085722Y-123777732D01*
X180933240Y-123612094D01*
X180933239Y-123612093D01*
X180933237Y-123612091D01*
X180755578Y-123473812D01*
X180557573Y-123366657D01*
X180405800Y-123314554D01*
X180344635Y-123293556D01*
X180122569Y-123256500D01*
X179897431Y-123256500D01*
X179675365Y-123293556D01*
X179675362Y-123293556D01*
X179675362Y-123293557D01*
X179462426Y-123366657D01*
X179264421Y-123473812D01*
X179086762Y-123612091D01*
X178934278Y-123777731D01*
X178845483Y-123913643D01*
X178799969Y-123955541D01*
X178740000Y-123970727D01*
X178680031Y-123955541D01*
X178634517Y-123913643D01*
X178547281Y-123780118D01*
X178545722Y-123777732D01*
X178393240Y-123612094D01*
X178393239Y-123612093D01*
X178393237Y-123612091D01*
X178215578Y-123473812D01*
X178017573Y-123366657D01*
X177865800Y-123314554D01*
X177804635Y-123293556D01*
X177582569Y-123256500D01*
X177357431Y-123256500D01*
X177135365Y-123293556D01*
X177135362Y-123293556D01*
X177135362Y-123293557D01*
X176922426Y-123366657D01*
X176724421Y-123473812D01*
X176546762Y-123612091D01*
X176394278Y-123777731D01*
X176305483Y-123913643D01*
X176259969Y-123955541D01*
X176200000Y-123970727D01*
X176140031Y-123955541D01*
X176094517Y-123913643D01*
X176007281Y-123780118D01*
X176005722Y-123777732D01*
X175853240Y-123612094D01*
X175853239Y-123612093D01*
X175853237Y-123612091D01*
X175675578Y-123473812D01*
X175477573Y-123366657D01*
X175325800Y-123314554D01*
X175264635Y-123293556D01*
X175042569Y-123256500D01*
X174817431Y-123256500D01*
X174595365Y-123293556D01*
X174595362Y-123293556D01*
X174595362Y-123293557D01*
X174382426Y-123366657D01*
X174184421Y-123473812D01*
X174006762Y-123612091D01*
X173854278Y-123777731D01*
X173765483Y-123913643D01*
X173719969Y-123955541D01*
X173660000Y-123970727D01*
X173600031Y-123955541D01*
X173554517Y-123913643D01*
X173467281Y-123780118D01*
X173465722Y-123777732D01*
X173313240Y-123612094D01*
X173313239Y-123612093D01*
X173313237Y-123612091D01*
X173135578Y-123473812D01*
X172937573Y-123366657D01*
X172785800Y-123314554D01*
X172724635Y-123293556D01*
X172502569Y-123256500D01*
X172277431Y-123256500D01*
X172055365Y-123293556D01*
X172055362Y-123293556D01*
X172055362Y-123293557D01*
X171842426Y-123366657D01*
X171644421Y-123473812D01*
X171466762Y-123612091D01*
X171314278Y-123777731D01*
X171225483Y-123913643D01*
X171179969Y-123955541D01*
X171120000Y-123970727D01*
X171060031Y-123955541D01*
X171014517Y-123913643D01*
X170927281Y-123780118D01*
X170925722Y-123777732D01*
X170773240Y-123612094D01*
X170773239Y-123612093D01*
X170773237Y-123612091D01*
X170595578Y-123473812D01*
X170397573Y-123366657D01*
X170245800Y-123314554D01*
X170184635Y-123293556D01*
X169962569Y-123256500D01*
X169737431Y-123256500D01*
X169515365Y-123293556D01*
X169515362Y-123293556D01*
X169515362Y-123293557D01*
X169302426Y-123366657D01*
X169104421Y-123473812D01*
X168926762Y-123612091D01*
X168774278Y-123777731D01*
X168685483Y-123913643D01*
X168639969Y-123955541D01*
X168580000Y-123970727D01*
X168520031Y-123955541D01*
X168474517Y-123913643D01*
X168387281Y-123780118D01*
X168385722Y-123777732D01*
X168233240Y-123612094D01*
X168233239Y-123612093D01*
X168233237Y-123612091D01*
X168055578Y-123473812D01*
X167857573Y-123366657D01*
X167705800Y-123314554D01*
X167644635Y-123293556D01*
X167422569Y-123256500D01*
X167197431Y-123256500D01*
X166975365Y-123293556D01*
X166975362Y-123293556D01*
X166975362Y-123293557D01*
X166762426Y-123366657D01*
X166564421Y-123473812D01*
X166386762Y-123612091D01*
X166234278Y-123777731D01*
X166145483Y-123913643D01*
X166099969Y-123955541D01*
X166040000Y-123970727D01*
X165980031Y-123955541D01*
X165934517Y-123913643D01*
X165847281Y-123780118D01*
X165845722Y-123777732D01*
X165693240Y-123612094D01*
X165693239Y-123612093D01*
X165693237Y-123612091D01*
X165515578Y-123473812D01*
X165317573Y-123366657D01*
X165165800Y-123314554D01*
X165104635Y-123293556D01*
X164882569Y-123256500D01*
X164657431Y-123256500D01*
X164435365Y-123293556D01*
X164435362Y-123293556D01*
X164435362Y-123293557D01*
X164222426Y-123366657D01*
X164024421Y-123473812D01*
X163846762Y-123612091D01*
X163694278Y-123777731D01*
X163571139Y-123966209D01*
X163480702Y-124172388D01*
X163425437Y-124390627D01*
X163425436Y-124390632D01*
X163406844Y-124615000D01*
X163425436Y-124839368D01*
X163425436Y-124839371D01*
X163425437Y-124839372D01*
X163480703Y-125057614D01*
X163499246Y-125099888D01*
X163509428Y-125160906D01*
X163489341Y-125219416D01*
X163443827Y-125261314D01*
X163383858Y-125276500D01*
X150565826Y-125276500D01*
X150517608Y-125266909D01*
X150476731Y-125239595D01*
X149074732Y-123837595D01*
X149043994Y-123787436D01*
X149039378Y-123728789D01*
X149061891Y-123674439D01*
X149106624Y-123636233D01*
X149163827Y-123622500D01*
X160134800Y-123622500D01*
X160186048Y-123633393D01*
X160228435Y-123664188D01*
X160231746Y-123667866D01*
X160298563Y-123716411D01*
X160386248Y-123780118D01*
X160560712Y-123857794D01*
X160747513Y-123897500D01*
X160938485Y-123897500D01*
X160938487Y-123897500D01*
X161125288Y-123857794D01*
X161299752Y-123780118D01*
X161454253Y-123667866D01*
X161582040Y-123525944D01*
X161677527Y-123360556D01*
X161736542Y-123178928D01*
X161756504Y-122989000D01*
X161736542Y-122799072D01*
X161677527Y-122617444D01*
X161677527Y-122617443D01*
X161582041Y-122452057D01*
X161495101Y-122355500D01*
X161454253Y-122310134D01*
X161444234Y-122302855D01*
X161312570Y-122207195D01*
X161299752Y-122197882D01*
X161125288Y-122120206D01*
X160938487Y-122080500D01*
X160747513Y-122080500D01*
X160629056Y-122105679D01*
X160560711Y-122120206D01*
X160480409Y-122155959D01*
X160389265Y-122196539D01*
X160386246Y-122197883D01*
X160231746Y-122310133D01*
X160228435Y-122313812D01*
X160186048Y-122344607D01*
X160134800Y-122355500D01*
X154939477Y-122355500D01*
X154881297Y-122341263D01*
X154836264Y-122301771D01*
X154814555Y-122245946D01*
X154821076Y-122186406D01*
X154854353Y-122136603D01*
X154906866Y-122107793D01*
X154911543Y-122106540D01*
X155069243Y-122064284D01*
X155276749Y-121967523D01*
X155464300Y-121836198D01*
X155626198Y-121674300D01*
X155757523Y-121486749D01*
X155854284Y-121279243D01*
X155913543Y-121058087D01*
X155933498Y-120830000D01*
X155913543Y-120601913D01*
X155854284Y-120380757D01*
X155849620Y-120370756D01*
X155757522Y-120173249D01*
X155626195Y-119985696D01*
X155464303Y-119823804D01*
X155276750Y-119692477D01*
X155069243Y-119595715D01*
X154848087Y-119536457D01*
X154620000Y-119516502D01*
X154391912Y-119536457D01*
X154170756Y-119595715D01*
X153963249Y-119692477D01*
X153775696Y-119823804D01*
X153613804Y-119985696D01*
X153551511Y-120074659D01*
X153503818Y-120142772D01*
X153458787Y-120182263D01*
X153400607Y-120196500D01*
X150759393Y-120196500D01*
X150701213Y-120182263D01*
X150656181Y-120142772D01*
X150546198Y-119985700D01*
X150546197Y-119985699D01*
X150546195Y-119985696D01*
X150384303Y-119823804D01*
X150196750Y-119692477D01*
X149989243Y-119595715D01*
X149768087Y-119536457D01*
X149540000Y-119516502D01*
X149311912Y-119536457D01*
X149090756Y-119595715D01*
X148883249Y-119692477D01*
X148695696Y-119823804D01*
X148533804Y-119985696D01*
X148402477Y-120173249D01*
X148305715Y-120380756D01*
X148246457Y-120601912D01*
X148226502Y-120829999D01*
X148246457Y-121058087D01*
X148305715Y-121279243D01*
X148402477Y-121486750D01*
X148533804Y-121674303D01*
X148695696Y-121836195D01*
X148883249Y-121967522D01*
X149090756Y-122064284D01*
X149151275Y-122080500D01*
X149248457Y-122106540D01*
X149253134Y-122107793D01*
X149305647Y-122136603D01*
X149338924Y-122186406D01*
X149345445Y-122245946D01*
X149323736Y-122301771D01*
X149278703Y-122341263D01*
X149220523Y-122355500D01*
X146953595Y-122355500D01*
X146905377Y-122345909D01*
X146864500Y-122318595D01*
X145779151Y-121233246D01*
X145746539Y-121176761D01*
X145746539Y-121111541D01*
X145763543Y-121048087D01*
X145783498Y-120820000D01*
X145763543Y-120591913D01*
X145704284Y-120370757D01*
X145607523Y-120163251D01*
X145476198Y-119975700D01*
X145476197Y-119975699D01*
X145476195Y-119975696D01*
X145314303Y-119813804D01*
X145126750Y-119682477D01*
X144919243Y-119585715D01*
X144698087Y-119526457D01*
X144470000Y-119506502D01*
X144241912Y-119526457D01*
X144020756Y-119585715D01*
X143813249Y-119682477D01*
X143625696Y-119813804D01*
X143463804Y-119975696D01*
X143332477Y-120163249D01*
X143235715Y-120370756D01*
X143176457Y-120591912D01*
X143156502Y-120819999D01*
X143176457Y-121048087D01*
X143235715Y-121269243D01*
X143332477Y-121476750D01*
X143463804Y-121664303D01*
X143625696Y-121826195D01*
X143625699Y-121826197D01*
X143625700Y-121826198D01*
X143687995Y-121869817D01*
X143813249Y-121957522D01*
X144020756Y-122054284D01*
X144058077Y-122064284D01*
X144241913Y-122113543D01*
X144470000Y-122133498D01*
X144698087Y-122113543D01*
X144761542Y-122096540D01*
X144826764Y-122096540D01*
X144883248Y-122129152D01*
X146131751Y-123377655D01*
X146144834Y-123393985D01*
X146196665Y-123442656D01*
X146199477Y-123445381D01*
X146219230Y-123465134D01*
X146221183Y-123466649D01*
X146222424Y-123467612D01*
X146231444Y-123475316D01*
X146263679Y-123505586D01*
X146281435Y-123515347D01*
X146297951Y-123526196D01*
X146313959Y-123538613D01*
X146354525Y-123556167D01*
X146365188Y-123561391D01*
X146403935Y-123582693D01*
X146403937Y-123582693D01*
X146403940Y-123582695D01*
X146423574Y-123587736D01*
X146442259Y-123594134D01*
X146460855Y-123602181D01*
X146504530Y-123609098D01*
X146516125Y-123611498D01*
X146558970Y-123622500D01*
X146579224Y-123622500D01*
X146598934Y-123624051D01*
X146618942Y-123627220D01*
X146618942Y-123627219D01*
X146618943Y-123627220D01*
X146662961Y-123623058D01*
X146674819Y-123622500D01*
X147018213Y-123622500D01*
X147077366Y-123637249D01*
X147122672Y-123678042D01*
X147143522Y-123735327D01*
X147147979Y-123777731D01*
X147161190Y-123903429D01*
X147220204Y-124085056D01*
X147315690Y-124250442D01*
X147315692Y-124250444D01*
X147443479Y-124392366D01*
X147597980Y-124504618D01*
X147772444Y-124582294D01*
X147959245Y-124622000D01*
X148015138Y-124622000D01*
X148063356Y-124631591D01*
X148104230Y-124658902D01*
X148956235Y-125510908D01*
X148986971Y-125561065D01*
X148991587Y-125619712D01*
X148969074Y-125674062D01*
X148924341Y-125712268D01*
X148867138Y-125726001D01*
X140703236Y-125726001D01*
X140640236Y-125709120D01*
X140594117Y-125663001D01*
X140500041Y-125500057D01*
X140372252Y-125358133D01*
X140246693Y-125266909D01*
X140217752Y-125245882D01*
X140043288Y-125168206D01*
X139856487Y-125128500D01*
X139665513Y-125128500D01*
X139540978Y-125154970D01*
X139478711Y-125168206D01*
X139304246Y-125245883D01*
X139149747Y-125358133D01*
X139021958Y-125500057D01*
X138926472Y-125665443D01*
X138867458Y-125847070D01*
X138847496Y-126037000D01*
X138867458Y-126226929D01*
X138926472Y-126408556D01*
X139021958Y-126573942D01*
X139021960Y-126573944D01*
X139149747Y-126715866D01*
X139304248Y-126828118D01*
X139478712Y-126905794D01*
X139665513Y-126945500D01*
X139802550Y-126945500D01*
X139833882Y-126949458D01*
X139848440Y-126953195D01*
X139848441Y-126953196D01*
X139868067Y-126958235D01*
X139886760Y-126964635D01*
X139905356Y-126972682D01*
X139949031Y-126979599D01*
X139960626Y-126981999D01*
X140003471Y-126993001D01*
X140023725Y-126993001D01*
X140043435Y-126994552D01*
X140063443Y-126997721D01*
X140063443Y-126997720D01*
X140063444Y-126997721D01*
X140107462Y-126993559D01*
X140119320Y-126993001D01*
X173101646Y-126993001D01*
X173122434Y-126995296D01*
X173125406Y-126995202D01*
X173125408Y-126995203D01*
X173193484Y-126993063D01*
X173197444Y-126993001D01*
X173225351Y-126993001D01*
X173225355Y-126993001D01*
X173229364Y-126992494D01*
X173241198Y-126991562D01*
X173285388Y-126990174D01*
X173304837Y-126984522D01*
X173324197Y-126980513D01*
X173344296Y-126977975D01*
X173385414Y-126961694D01*
X173396616Y-126957858D01*
X173439092Y-126945519D01*
X173456538Y-126935200D01*
X173474279Y-126926510D01*
X173493116Y-126919053D01*
X173528891Y-126893059D01*
X173538802Y-126886549D01*
X173576861Y-126864043D01*
X173591190Y-126849713D01*
X173606218Y-126836878D01*
X173622606Y-126824973D01*
X173650797Y-126790894D01*
X173658767Y-126782135D01*
X174472078Y-125968825D01*
X174532774Y-125935165D01*
X174584546Y-125937844D01*
X174585067Y-125934725D01*
X174595361Y-125936442D01*
X174595365Y-125936444D01*
X174817431Y-125973500D01*
X175042566Y-125973500D01*
X175042569Y-125973500D01*
X175264635Y-125936444D01*
X175477574Y-125863342D01*
X175675576Y-125756189D01*
X175853240Y-125617906D01*
X176005722Y-125452268D01*
X176094518Y-125316354D01*
X176140031Y-125274458D01*
X176200000Y-125259272D01*
X176259969Y-125274458D01*
X176305481Y-125316354D01*
X176394278Y-125452268D01*
X176453707Y-125516825D01*
X176546762Y-125617908D01*
X176724421Y-125756187D01*
X176724424Y-125756189D01*
X176922426Y-125863342D01*
X177135365Y-125936444D01*
X177154218Y-125939590D01*
X177215902Y-125968568D01*
X177253473Y-126025429D01*
X177255938Y-126093538D01*
X177222575Y-126152966D01*
X172140947Y-131234595D01*
X172100070Y-131261909D01*
X172051852Y-131271500D01*
X159678741Y-131271500D01*
X159659032Y-131269949D01*
X159652025Y-131268839D01*
X159645779Y-131267850D01*
X159645778Y-131267850D01*
X159579435Y-131271327D01*
X159572841Y-131271500D01*
X159552974Y-131271500D01*
X159533221Y-131273575D01*
X159526654Y-131274092D01*
X159460317Y-131277569D01*
X159447352Y-131281043D01*
X159427923Y-131284643D01*
X159414583Y-131286045D01*
X159351411Y-131306571D01*
X159345089Y-131308444D01*
X159280920Y-131325638D01*
X159268968Y-131331728D01*
X159250715Y-131339289D01*
X159237957Y-131343435D01*
X159180440Y-131376642D01*
X159174645Y-131379788D01*
X159115449Y-131409950D01*
X159105022Y-131418394D01*
X159088733Y-131429589D01*
X159077118Y-131436295D01*
X159027738Y-131480755D01*
X159022730Y-131485032D01*
X159007300Y-131497527D01*
X158993250Y-131511577D01*
X158988470Y-131516112D01*
X158939100Y-131560565D01*
X158931208Y-131571427D01*
X158918371Y-131586456D01*
X158324720Y-132180107D01*
X158278725Y-132209411D01*
X158235231Y-132215140D01*
X158235267Y-132215542D01*
X158226092Y-132216344D01*
X158224655Y-132216534D01*
X158224291Y-132216502D01*
X158224288Y-132216502D01*
X158224286Y-132216502D01*
X158034213Y-132233131D01*
X157996198Y-132236457D01*
X157775042Y-132295715D01*
X157567535Y-132392477D01*
X157379982Y-132523804D01*
X157218090Y-132685696D01*
X157086763Y-132873249D01*
X156990001Y-133080756D01*
X156930743Y-133301912D01*
X156910788Y-133529999D01*
X156930743Y-133758087D01*
X156990001Y-133979243D01*
X157086765Y-134186753D01*
X157111606Y-134222230D01*
X157134123Y-134286260D01*
X157120156Y-134352681D01*
X157073758Y-134402219D01*
X157008393Y-134420500D01*
X148629701Y-134420500D01*
X148579502Y-134410069D01*
X148537615Y-134380501D01*
X148408320Y-134242059D01*
X148189870Y-134064338D01*
X147949255Y-133918017D01*
X147834776Y-133868292D01*
X147690960Y-133805824D01*
X147690958Y-133805823D01*
X147690955Y-133805822D01*
X147419792Y-133729845D01*
X147140808Y-133691500D01*
X147140805Y-133691500D01*
X146859195Y-133691500D01*
X146859192Y-133691500D01*
X146580207Y-133729845D01*
X146309044Y-133805822D01*
X146050744Y-133918017D01*
X145810129Y-134064338D01*
X145591679Y-134242060D01*
X145399467Y-134447869D01*
X145237066Y-134677939D01*
X145107510Y-134927969D01*
X145013203Y-135193324D01*
X144955907Y-135469049D01*
X144936690Y-135749999D01*
X144955907Y-136030950D01*
X145013203Y-136306675D01*
X145107508Y-136572024D01*
X145229539Y-136807532D01*
X145243592Y-136869802D01*
X145225322Y-136930968D01*
X145179419Y-136975329D01*
X145117665Y-136991500D01*
X142265594Y-136991500D01*
X142217376Y-136981909D01*
X142176499Y-136954595D01*
X138399405Y-133177500D01*
X138372091Y-133136623D01*
X138362500Y-133088405D01*
X138362500Y-130846966D01*
X138380781Y-130781601D01*
X138430320Y-130735203D01*
X138496741Y-130721236D01*
X138560771Y-130743753D01*
X138723249Y-130857522D01*
X138930756Y-130954284D01*
X138990014Y-130970162D01*
X139151913Y-131013543D01*
X139380000Y-131033498D01*
X139608087Y-131013543D01*
X139829243Y-130954284D01*
X140036749Y-130857523D01*
X140224300Y-130726198D01*
X140386198Y-130564300D01*
X140496181Y-130407227D01*
X140541213Y-130367737D01*
X140599393Y-130353500D01*
X144887384Y-130353500D01*
X144941499Y-130365713D01*
X144985124Y-130399983D01*
X145009801Y-130449667D01*
X145010749Y-130505135D01*
X144955907Y-130769049D01*
X144936690Y-131050000D01*
X144955907Y-131330950D01*
X145013203Y-131606675D01*
X145107510Y-131872030D01*
X145194872Y-132040629D01*
X145237068Y-132122063D01*
X145399467Y-132352130D01*
X145591681Y-132557941D01*
X145810130Y-132735662D01*
X146050743Y-132881982D01*
X146309040Y-132994176D01*
X146457975Y-133035906D01*
X146580207Y-133070154D01*
X146859192Y-133108500D01*
X146859195Y-133108500D01*
X147140805Y-133108500D01*
X147140808Y-133108500D01*
X147350045Y-133079740D01*
X147419793Y-133070154D01*
X147690960Y-132994176D01*
X147949257Y-132881982D01*
X148189870Y-132735662D01*
X148408319Y-132557941D01*
X148600533Y-132352130D01*
X148762932Y-132122063D01*
X148825656Y-132001009D01*
X148892489Y-131872030D01*
X148908164Y-131827925D01*
X148986797Y-131606674D01*
X149044092Y-131330954D01*
X149063310Y-131050000D01*
X149044092Y-130769046D01*
X148986797Y-130493326D01*
X148892491Y-130227975D01*
X148892489Y-130227969D01*
X148762933Y-129977939D01*
X148600532Y-129747869D01*
X148408320Y-129542060D01*
X148189870Y-129364338D01*
X147949255Y-129218017D01*
X147738112Y-129126305D01*
X147690960Y-129105824D01*
X147690958Y-129105823D01*
X147690955Y-129105822D01*
X147419792Y-129029845D01*
X147140808Y-128991500D01*
X147140805Y-128991500D01*
X146859195Y-128991500D01*
X146859192Y-128991500D01*
X146580207Y-129029845D01*
X146309043Y-129105822D01*
X146122852Y-129186696D01*
X146056944Y-129196144D01*
X146009701Y-129176591D01*
X146009651Y-129176708D01*
X146002382Y-129173562D01*
X145995423Y-129170682D01*
X145995041Y-129170386D01*
X145954465Y-129152827D01*
X145943804Y-129147604D01*
X145905063Y-129126305D01*
X145891313Y-129122775D01*
X145885437Y-129121266D01*
X145866731Y-129114862D01*
X145848145Y-129106819D01*
X145804475Y-129099902D01*
X145792853Y-129097495D01*
X145750030Y-129086500D01*
X145750029Y-129086500D01*
X145729776Y-129086500D01*
X145710066Y-129084949D01*
X145690057Y-129081779D01*
X145646039Y-129085941D01*
X145634181Y-129086500D01*
X140599393Y-129086500D01*
X140541213Y-129072263D01*
X140496181Y-129032772D01*
X140386198Y-128875700D01*
X140386197Y-128875699D01*
X140386195Y-128875696D01*
X140224303Y-128713804D01*
X140036750Y-128582477D01*
X139829243Y-128485715D01*
X139608087Y-128426457D01*
X139380000Y-128406502D01*
X139151912Y-128426457D01*
X138930756Y-128485715D01*
X138723249Y-128582477D01*
X138560771Y-128696247D01*
X138496741Y-128718764D01*
X138430320Y-128704797D01*
X138380781Y-128658399D01*
X138362500Y-128593034D01*
X138362500Y-122795595D01*
X138372091Y-122747377D01*
X138399404Y-122706500D01*
X138674762Y-122431142D01*
X138966751Y-122139151D01*
X139023236Y-122106540D01*
X139088457Y-122106540D01*
X139151913Y-122123543D01*
X139380000Y-122143498D01*
X139608087Y-122123543D01*
X139829243Y-122064284D01*
X140036749Y-121967523D01*
X140224300Y-121836198D01*
X140386198Y-121674300D01*
X140517523Y-121486749D01*
X140614284Y-121279243D01*
X140673543Y-121058087D01*
X140693498Y-120830000D01*
X140673543Y-120601913D01*
X140656539Y-120538457D01*
X140656539Y-120473235D01*
X140689149Y-120416753D01*
X144355904Y-116749999D01*
X165316793Y-116749999D01*
X165335593Y-117000871D01*
X165391572Y-117246133D01*
X165483397Y-117480098D01*
X165483483Y-117480316D01*
X165609269Y-117698184D01*
X165766122Y-117894872D01*
X165932533Y-118049278D01*
X165950541Y-118065987D01*
X166106432Y-118172270D01*
X166158397Y-118207700D01*
X166275901Y-118264287D01*
X166385054Y-118316853D01*
X166438667Y-118333390D01*
X166625451Y-118391005D01*
X166874214Y-118428500D01*
X167125784Y-118428500D01*
X167125786Y-118428500D01*
X167374549Y-118391005D01*
X167614945Y-118316853D01*
X167841604Y-118207700D01*
X168049462Y-118065984D01*
X168233878Y-117894872D01*
X168390731Y-117698184D01*
X168516517Y-117480316D01*
X168608427Y-117246134D01*
X168664407Y-117000869D01*
X168683207Y-116750000D01*
X168683207Y-116749999D01*
X170316793Y-116749999D01*
X170335593Y-117000871D01*
X170391572Y-117246133D01*
X170483397Y-117480098D01*
X170483483Y-117480316D01*
X170609269Y-117698184D01*
X170766122Y-117894872D01*
X170932533Y-118049278D01*
X170950541Y-118065987D01*
X171106432Y-118172270D01*
X171158397Y-118207700D01*
X171275901Y-118264287D01*
X171385054Y-118316853D01*
X171438667Y-118333390D01*
X171625451Y-118391005D01*
X171874214Y-118428500D01*
X172125784Y-118428500D01*
X172125786Y-118428500D01*
X172374549Y-118391005D01*
X172614945Y-118316853D01*
X172841604Y-118207700D01*
X173049462Y-118065984D01*
X173233878Y-117894872D01*
X173390731Y-117698184D01*
X173516517Y-117480316D01*
X173608427Y-117246134D01*
X173664407Y-117000869D01*
X173683207Y-116750000D01*
X173683207Y-116749999D01*
X175316793Y-116749999D01*
X175335593Y-117000871D01*
X175391572Y-117246133D01*
X175483397Y-117480098D01*
X175483483Y-117480316D01*
X175609269Y-117698184D01*
X175766122Y-117894872D01*
X175932533Y-118049278D01*
X175950541Y-118065987D01*
X176106432Y-118172270D01*
X176158397Y-118207700D01*
X176275901Y-118264287D01*
X176385054Y-118316853D01*
X176438667Y-118333390D01*
X176625451Y-118391005D01*
X176874214Y-118428500D01*
X177125784Y-118428500D01*
X177125786Y-118428500D01*
X177374549Y-118391005D01*
X177614945Y-118316853D01*
X177841604Y-118207700D01*
X178049462Y-118065984D01*
X178233878Y-117894872D01*
X178390731Y-117698184D01*
X178516517Y-117480316D01*
X178608427Y-117246134D01*
X178664407Y-117000869D01*
X178683207Y-116750000D01*
X178664407Y-116499131D01*
X178608427Y-116253866D01*
X178516517Y-116019684D01*
X178390731Y-115801816D01*
X178233878Y-115605128D01*
X178049462Y-115434016D01*
X177841604Y-115292300D01*
X177841603Y-115292299D01*
X177841601Y-115292298D01*
X177614945Y-115183146D01*
X177416282Y-115121868D01*
X177374549Y-115108995D01*
X177125786Y-115071500D01*
X176874214Y-115071500D01*
X176625451Y-115108995D01*
X176615709Y-115112000D01*
X176385054Y-115183146D01*
X176158396Y-115292300D01*
X175950541Y-115434012D01*
X175863795Y-115514501D01*
X175766122Y-115605128D01*
X175610896Y-115799776D01*
X175609267Y-115801819D01*
X175483483Y-116019683D01*
X175391572Y-116253866D01*
X175335593Y-116499128D01*
X175316793Y-116749999D01*
X173683207Y-116749999D01*
X173664407Y-116499131D01*
X173608427Y-116253866D01*
X173516517Y-116019684D01*
X173390731Y-115801816D01*
X173233878Y-115605128D01*
X173049462Y-115434016D01*
X172841604Y-115292300D01*
X172841603Y-115292299D01*
X172841601Y-115292298D01*
X172614945Y-115183146D01*
X172416282Y-115121868D01*
X172374549Y-115108995D01*
X172125786Y-115071500D01*
X171874214Y-115071500D01*
X171625451Y-115108995D01*
X171615709Y-115112000D01*
X171385054Y-115183146D01*
X171158396Y-115292300D01*
X170950541Y-115434012D01*
X170863795Y-115514501D01*
X170766122Y-115605128D01*
X170610896Y-115799776D01*
X170609267Y-115801819D01*
X170483483Y-116019683D01*
X170391572Y-116253866D01*
X170335593Y-116499128D01*
X170316793Y-116749999D01*
X168683207Y-116749999D01*
X168664407Y-116499131D01*
X168608427Y-116253866D01*
X168516517Y-116019684D01*
X168390731Y-115801816D01*
X168233878Y-115605128D01*
X168049462Y-115434016D01*
X167841604Y-115292300D01*
X167841603Y-115292299D01*
X167841601Y-115292298D01*
X167614945Y-115183146D01*
X167416282Y-115121868D01*
X167374549Y-115108995D01*
X167125786Y-115071500D01*
X166874214Y-115071500D01*
X166625451Y-115108995D01*
X166615709Y-115112000D01*
X166385054Y-115183146D01*
X166158396Y-115292300D01*
X165950541Y-115434012D01*
X165863795Y-115514501D01*
X165766122Y-115605128D01*
X165610896Y-115799776D01*
X165609267Y-115801819D01*
X165483483Y-116019683D01*
X165391572Y-116253866D01*
X165335593Y-116499128D01*
X165316793Y-116749999D01*
X144355904Y-116749999D01*
X144858659Y-116247244D01*
X144874980Y-116234169D01*
X144877014Y-116232001D01*
X144877018Y-116232000D01*
X144923660Y-116182329D01*
X144926351Y-116179552D01*
X144946135Y-116159770D01*
X144948621Y-116156564D01*
X144956310Y-116147561D01*
X144986586Y-116115321D01*
X144996342Y-116097571D01*
X145007195Y-116081050D01*
X145019614Y-116065041D01*
X145037175Y-116024454D01*
X145042388Y-116013813D01*
X145063695Y-115975060D01*
X145068733Y-115955434D01*
X145075137Y-115936732D01*
X145083181Y-115918144D01*
X145090096Y-115874482D01*
X145092504Y-115862853D01*
X145103500Y-115820029D01*
X145103500Y-115799776D01*
X145105051Y-115780066D01*
X145108220Y-115760057D01*
X145104059Y-115716039D01*
X145103500Y-115704181D01*
X145103500Y-111879393D01*
X145117737Y-111821213D01*
X145157227Y-111776181D01*
X145314300Y-111666198D01*
X145476198Y-111504300D01*
X145607523Y-111316749D01*
X145704284Y-111109243D01*
X145753920Y-110924000D01*
X148253918Y-110924000D01*
X148306186Y-111119070D01*
X148402912Y-111326498D01*
X148534189Y-111513981D01*
X148696018Y-111675810D01*
X148883501Y-111807087D01*
X149090929Y-111903813D01*
X149286000Y-111956082D01*
X149286000Y-110924000D01*
X149794000Y-110924000D01*
X149794000Y-111956082D01*
X149989070Y-111903813D01*
X150196498Y-111807087D01*
X150383981Y-111675810D01*
X150545810Y-111513981D01*
X150677087Y-111326498D01*
X150773813Y-111119070D01*
X150826082Y-110924000D01*
X149794000Y-110924000D01*
X149286000Y-110924000D01*
X148253918Y-110924000D01*
X145753920Y-110924000D01*
X145763543Y-110888087D01*
X145783498Y-110660000D01*
X145763543Y-110431913D01*
X145704284Y-110210757D01*
X145607523Y-110003251D01*
X145476198Y-109815700D01*
X145476197Y-109815699D01*
X145476195Y-109815696D01*
X145314303Y-109653804D01*
X145126749Y-109522477D01*
X145103627Y-109511695D01*
X145052418Y-109467958D01*
X145031050Y-109404094D01*
X145045626Y-109338346D01*
X145091982Y-109289497D01*
X145156877Y-109271500D01*
X148875752Y-109271500D01*
X148940647Y-109289497D01*
X148987003Y-109338347D01*
X149001579Y-109404094D01*
X148980211Y-109467958D01*
X148929002Y-109511695D01*
X148883501Y-109532912D01*
X148696018Y-109664189D01*
X148534189Y-109826018D01*
X148402912Y-110013501D01*
X148306186Y-110220929D01*
X148253917Y-110416000D01*
X150826082Y-110416000D01*
X150773813Y-110220929D01*
X150677087Y-110013501D01*
X150545810Y-109826018D01*
X150383981Y-109664189D01*
X150196498Y-109532912D01*
X150150998Y-109511695D01*
X150099789Y-109467958D01*
X150078421Y-109404094D01*
X150092997Y-109338347D01*
X150139353Y-109289497D01*
X150204248Y-109271500D01*
X153954569Y-109271500D01*
X154019464Y-109289497D01*
X154065820Y-109338347D01*
X154080396Y-109404095D01*
X154059027Y-109467959D01*
X154007818Y-109511695D01*
X153963251Y-109532476D01*
X153775696Y-109663804D01*
X153613804Y-109825696D01*
X153482477Y-110013249D01*
X153385715Y-110220756D01*
X153326457Y-110441912D01*
X153306502Y-110669999D01*
X153326457Y-110898087D01*
X153385715Y-111119243D01*
X153482477Y-111326750D01*
X153613804Y-111514303D01*
X153775696Y-111676195D01*
X153963249Y-111807522D01*
X154170756Y-111904284D01*
X154230014Y-111920162D01*
X154391913Y-111963543D01*
X154620000Y-111983498D01*
X154848087Y-111963543D01*
X155069243Y-111904284D01*
X155276749Y-111807523D01*
X155464300Y-111676198D01*
X155626198Y-111514300D01*
X155757523Y-111326749D01*
X155854284Y-111119243D01*
X155913543Y-110898087D01*
X155933498Y-110670000D01*
X155913543Y-110441913D01*
X155896539Y-110378457D01*
X155896539Y-110313235D01*
X155929149Y-110256753D01*
X164377264Y-101808638D01*
X183251500Y-101808638D01*
X183258011Y-101869200D01*
X183309111Y-102006205D01*
X183396738Y-102123261D01*
X183513794Y-102210888D01*
X183513795Y-102210888D01*
X183513796Y-102210889D01*
X183650799Y-102261989D01*
X183711362Y-102268500D01*
X185208638Y-102268500D01*
X185269201Y-102261989D01*
X185406204Y-102210889D01*
X185523261Y-102123261D01*
X185559166Y-102075297D01*
X188883912Y-102075297D01*
X188933691Y-102110153D01*
X189125261Y-102199484D01*
X189329431Y-102254191D01*
X189540000Y-102272613D01*
X189750568Y-102254191D01*
X189954740Y-102199483D01*
X190146304Y-102110156D01*
X190196087Y-102075297D01*
X190196087Y-102075296D01*
X189540001Y-101419210D01*
X189540000Y-101419210D01*
X188883912Y-102075296D01*
X188883912Y-102075297D01*
X185559166Y-102075297D01*
X185610889Y-102006204D01*
X185661989Y-101869201D01*
X185668500Y-101808638D01*
X185668500Y-101060000D01*
X188327386Y-101060000D01*
X188345808Y-101270568D01*
X188400515Y-101474738D01*
X188489846Y-101666308D01*
X188524701Y-101716086D01*
X188524702Y-101716086D01*
X189180789Y-101060001D01*
X189899210Y-101060001D01*
X190555296Y-101716087D01*
X190555297Y-101716087D01*
X190590156Y-101666304D01*
X190679483Y-101474740D01*
X190734191Y-101270568D01*
X190752613Y-101060000D01*
X190734191Y-100849431D01*
X190679484Y-100645261D01*
X190590153Y-100453691D01*
X190555297Y-100403912D01*
X190555296Y-100403912D01*
X189899210Y-101060000D01*
X189899210Y-101060001D01*
X189180789Y-101060001D01*
X189180790Y-101060000D01*
X189180790Y-101059999D01*
X188524703Y-100403912D01*
X188524702Y-100403912D01*
X188489845Y-100453693D01*
X188400515Y-100645262D01*
X188345808Y-100849431D01*
X188327386Y-101060000D01*
X185668500Y-101060000D01*
X185668500Y-100311362D01*
X185661989Y-100250799D01*
X185610889Y-100113796D01*
X185610888Y-100113794D01*
X185559167Y-100044703D01*
X188883912Y-100044703D01*
X189539999Y-100700790D01*
X189540000Y-100700790D01*
X190196086Y-100044702D01*
X190196086Y-100044701D01*
X190146308Y-100009846D01*
X189954738Y-99920515D01*
X189750568Y-99865808D01*
X189539999Y-99847386D01*
X189329431Y-99865808D01*
X189125262Y-99920515D01*
X188933693Y-100009845D01*
X188883912Y-100044702D01*
X188883912Y-100044703D01*
X185559167Y-100044703D01*
X185523261Y-99996738D01*
X185406205Y-99909111D01*
X185290105Y-99865808D01*
X185269201Y-99858011D01*
X185208638Y-99851500D01*
X183711362Y-99851500D01*
X183650799Y-99858011D01*
X183513794Y-99909111D01*
X183396738Y-99996738D01*
X183309111Y-100113794D01*
X183258011Y-100250799D01*
X183251500Y-100311362D01*
X183251500Y-101808638D01*
X164377264Y-101808638D01*
X166650605Y-99535297D01*
X186343912Y-99535297D01*
X186393691Y-99570153D01*
X186585261Y-99659484D01*
X186789431Y-99714191D01*
X187000000Y-99732613D01*
X187210568Y-99714191D01*
X187414740Y-99659483D01*
X187606304Y-99570156D01*
X187656087Y-99535297D01*
X187656087Y-99535296D01*
X187000001Y-98879210D01*
X187000000Y-98879210D01*
X186343912Y-99535296D01*
X186343912Y-99535297D01*
X166650605Y-99535297D01*
X167665903Y-98519999D01*
X185787386Y-98519999D01*
X185805808Y-98730568D01*
X185860515Y-98934738D01*
X185949846Y-99126308D01*
X185984701Y-99176086D01*
X185984702Y-99176086D01*
X186640789Y-98520001D01*
X187359210Y-98520001D01*
X188015296Y-99176087D01*
X188015297Y-99176087D01*
X188050156Y-99126304D01*
X188139483Y-98934740D01*
X188194191Y-98730568D01*
X188212613Y-98520000D01*
X188194191Y-98309431D01*
X188139484Y-98105261D01*
X188050153Y-97913691D01*
X188015297Y-97863912D01*
X188015296Y-97863912D01*
X187359210Y-98520000D01*
X187359210Y-98520001D01*
X186640789Y-98520001D01*
X186640790Y-98520000D01*
X186640790Y-98519999D01*
X185984703Y-97863912D01*
X185984702Y-97863912D01*
X185949845Y-97913693D01*
X185860515Y-98105262D01*
X185805808Y-98309431D01*
X185787386Y-98519999D01*
X167665903Y-98519999D01*
X168681199Y-97504703D01*
X186343912Y-97504703D01*
X186999999Y-98160790D01*
X187000000Y-98160790D01*
X187656086Y-97504702D01*
X187656086Y-97504701D01*
X187606308Y-97469846D01*
X187414738Y-97380515D01*
X187210568Y-97325808D01*
X187000000Y-97307386D01*
X186789431Y-97325808D01*
X186585262Y-97380515D01*
X186393693Y-97469845D01*
X186343912Y-97504702D01*
X186343912Y-97504703D01*
X168681199Y-97504703D01*
X175836659Y-90349244D01*
X175852980Y-90336169D01*
X175855014Y-90334001D01*
X175855018Y-90334000D01*
X175901660Y-90284329D01*
X175904351Y-90281552D01*
X175924135Y-90261770D01*
X175926621Y-90258564D01*
X175934310Y-90249561D01*
X175964586Y-90217321D01*
X175974342Y-90199571D01*
X175985195Y-90183050D01*
X175997614Y-90167041D01*
X176015175Y-90126454D01*
X176020388Y-90115813D01*
X176041695Y-90077060D01*
X176046733Y-90057434D01*
X176053137Y-90038732D01*
X176061181Y-90020144D01*
X176068096Y-89976482D01*
X176070504Y-89964853D01*
X176081500Y-89922029D01*
X176081500Y-89901776D01*
X176083051Y-89882066D01*
X176086220Y-89862057D01*
X176082059Y-89818039D01*
X176081500Y-89806181D01*
X176081500Y-87656594D01*
X176091091Y-87608376D01*
X176118405Y-87567499D01*
X176972992Y-86712912D01*
X179577076Y-84108826D01*
X179637766Y-84075166D01*
X179689545Y-84077842D01*
X179690066Y-84074725D01*
X179700362Y-84076443D01*
X179700365Y-84076444D01*
X179922431Y-84113500D01*
X180147566Y-84113500D01*
X180147569Y-84113500D01*
X180369635Y-84076444D01*
X180582574Y-84003342D01*
X180780576Y-83896189D01*
X180958240Y-83757906D01*
X181110722Y-83592268D01*
X181199818Y-83455896D01*
X181245329Y-83413999D01*
X181305299Y-83398813D01*
X181365268Y-83413999D01*
X181410782Y-83455897D01*
X181499678Y-83591962D01*
X181652096Y-83757533D01*
X181829697Y-83895766D01*
X182027631Y-84002883D01*
X182240485Y-84075955D01*
X182321000Y-84089391D01*
X182321000Y-83009000D01*
X182829000Y-83009000D01*
X182829000Y-84089391D01*
X182909514Y-84075955D01*
X183122368Y-84002883D01*
X183320302Y-83895766D01*
X183497903Y-83757533D01*
X183650321Y-83591962D01*
X183773419Y-83403548D01*
X183863822Y-83197451D01*
X183911544Y-83009000D01*
X182829000Y-83009000D01*
X182321000Y-83009000D01*
X182321000Y-81420609D01*
X182829000Y-81420609D01*
X182829000Y-82501000D01*
X183911544Y-82501000D01*
X183911544Y-82500999D01*
X183863822Y-82312548D01*
X183773419Y-82106451D01*
X183650321Y-81918037D01*
X183497903Y-81752466D01*
X183320302Y-81614233D01*
X183122368Y-81507116D01*
X182909514Y-81434044D01*
X182829000Y-81420609D01*
X182321000Y-81420609D01*
X182240485Y-81434044D01*
X182027631Y-81507116D01*
X181829697Y-81614233D01*
X181652096Y-81752466D01*
X181499678Y-81918037D01*
X181410782Y-82054102D01*
X181365268Y-82096000D01*
X181305299Y-82111186D01*
X181245329Y-82096000D01*
X181199816Y-82054101D01*
X181151730Y-81980500D01*
X181110722Y-81917732D01*
X180958240Y-81752094D01*
X180958239Y-81752093D01*
X180958237Y-81752091D01*
X180780578Y-81613812D01*
X180582573Y-81506657D01*
X180429510Y-81454111D01*
X180369635Y-81433556D01*
X180147569Y-81396500D01*
X179922431Y-81396500D01*
X179700365Y-81433556D01*
X179700362Y-81433556D01*
X179700362Y-81433557D01*
X179487426Y-81506657D01*
X179289421Y-81613812D01*
X179111762Y-81752091D01*
X178959278Y-81917731D01*
X178870483Y-82053643D01*
X178824969Y-82095541D01*
X178765000Y-82110727D01*
X178705031Y-82095541D01*
X178659517Y-82053643D01*
X178611730Y-81980500D01*
X178570722Y-81917732D01*
X178418240Y-81752094D01*
X178418239Y-81752093D01*
X178418237Y-81752091D01*
X178240578Y-81613812D01*
X178042573Y-81506657D01*
X177889510Y-81454111D01*
X177829635Y-81433556D01*
X177607569Y-81396500D01*
X177382431Y-81396500D01*
X177160365Y-81433556D01*
X177160362Y-81433556D01*
X177160362Y-81433557D01*
X176947426Y-81506657D01*
X176749421Y-81613812D01*
X176571762Y-81752091D01*
X176419278Y-81917731D01*
X176330483Y-82053643D01*
X176284969Y-82095541D01*
X176225000Y-82110727D01*
X176165031Y-82095541D01*
X176119517Y-82053643D01*
X176071730Y-81980500D01*
X176030722Y-81917732D01*
X175878240Y-81752094D01*
X175878239Y-81752093D01*
X175878237Y-81752091D01*
X175700578Y-81613812D01*
X175502573Y-81506657D01*
X175349510Y-81454111D01*
X175289635Y-81433556D01*
X175067569Y-81396500D01*
X174842431Y-81396500D01*
X174620365Y-81433556D01*
X174620362Y-81433556D01*
X174620362Y-81433557D01*
X174407426Y-81506657D01*
X174209421Y-81613812D01*
X174031762Y-81752091D01*
X173879278Y-81917731D01*
X173790483Y-82053643D01*
X173744969Y-82095541D01*
X173685000Y-82110727D01*
X173625031Y-82095541D01*
X173579517Y-82053643D01*
X173531730Y-81980500D01*
X173490722Y-81917732D01*
X173338240Y-81752094D01*
X173338239Y-81752093D01*
X173338237Y-81752091D01*
X173160578Y-81613812D01*
X172962573Y-81506657D01*
X172809510Y-81454111D01*
X172749635Y-81433556D01*
X172527569Y-81396500D01*
X172302431Y-81396500D01*
X172080365Y-81433556D01*
X172080362Y-81433556D01*
X172080362Y-81433557D01*
X171867426Y-81506657D01*
X171669421Y-81613812D01*
X171491762Y-81752091D01*
X171339278Y-81917731D01*
X171250483Y-82053643D01*
X171204969Y-82095541D01*
X171145000Y-82110727D01*
X171085031Y-82095541D01*
X171039517Y-82053643D01*
X170991730Y-81980500D01*
X170950722Y-81917732D01*
X170798240Y-81752094D01*
X170798239Y-81752093D01*
X170798237Y-81752091D01*
X170620578Y-81613812D01*
X170422573Y-81506657D01*
X170269510Y-81454111D01*
X170209635Y-81433556D01*
X169987569Y-81396500D01*
X169762431Y-81396500D01*
X169540365Y-81433556D01*
X169540362Y-81433556D01*
X169540362Y-81433557D01*
X169327426Y-81506657D01*
X169129421Y-81613812D01*
X168951762Y-81752091D01*
X168799278Y-81917731D01*
X168710483Y-82053643D01*
X168664969Y-82095541D01*
X168605000Y-82110727D01*
X168545031Y-82095541D01*
X168499517Y-82053643D01*
X168451730Y-81980500D01*
X168410722Y-81917732D01*
X168258240Y-81752094D01*
X168258239Y-81752093D01*
X168258237Y-81752091D01*
X168080578Y-81613812D01*
X167882573Y-81506657D01*
X167729510Y-81454111D01*
X167669635Y-81433556D01*
X167447569Y-81396500D01*
X167222431Y-81396500D01*
X167000365Y-81433556D01*
X167000362Y-81433556D01*
X167000362Y-81433557D01*
X166787426Y-81506657D01*
X166589421Y-81613812D01*
X166411758Y-81752094D01*
X166350754Y-81818362D01*
X166297282Y-81852762D01*
X166233820Y-81856672D01*
X166176530Y-81829096D01*
X166139998Y-81777056D01*
X166135055Y-81763804D01*
X166095889Y-81658796D01*
X166076187Y-81632477D01*
X166008261Y-81541738D01*
X165891205Y-81454111D01*
X165822702Y-81428560D01*
X165754201Y-81403011D01*
X165693638Y-81396500D01*
X163896362Y-81396500D01*
X163835799Y-81403011D01*
X163698794Y-81454111D01*
X163581738Y-81541738D01*
X163494111Y-81658794D01*
X163450592Y-81775474D01*
X163443011Y-81795799D01*
X163436500Y-81856362D01*
X163436500Y-83653638D01*
X163443011Y-83714201D01*
X163459173Y-83757533D01*
X163494111Y-83851205D01*
X163581738Y-83968261D01*
X163698794Y-84055888D01*
X163698795Y-84055888D01*
X163698796Y-84055889D01*
X163835799Y-84106989D01*
X163896362Y-84113500D01*
X165693638Y-84113500D01*
X165754201Y-84106989D01*
X165891204Y-84055889D01*
X166008261Y-83968261D01*
X166095889Y-83851204D01*
X166139999Y-83732941D01*
X166176530Y-83680903D01*
X166233821Y-83653327D01*
X166297282Y-83657237D01*
X166350753Y-83691636D01*
X166388780Y-83732943D01*
X166411762Y-83757908D01*
X166589421Y-83896187D01*
X166589424Y-83896189D01*
X166787426Y-84003342D01*
X167000365Y-84076444D01*
X167222431Y-84113500D01*
X167447566Y-84113500D01*
X167447569Y-84113500D01*
X167669635Y-84076444D01*
X167882574Y-84003342D01*
X168080576Y-83896189D01*
X168258240Y-83757906D01*
X168410722Y-83592268D01*
X168499518Y-83456354D01*
X168545031Y-83414458D01*
X168605000Y-83399272D01*
X168664969Y-83414458D01*
X168710481Y-83456354D01*
X168799278Y-83592268D01*
X168911525Y-83714200D01*
X168951762Y-83757908D01*
X169129421Y-83896187D01*
X169129424Y-83896189D01*
X169327426Y-84003342D01*
X169540365Y-84076444D01*
X169762431Y-84113500D01*
X169987566Y-84113500D01*
X169987569Y-84113500D01*
X170209635Y-84076444D01*
X170422574Y-84003342D01*
X170620576Y-83896189D01*
X170798240Y-83757906D01*
X170950722Y-83592268D01*
X171039518Y-83456354D01*
X171085031Y-83414458D01*
X171145000Y-83399272D01*
X171204969Y-83414458D01*
X171250481Y-83456354D01*
X171339278Y-83592268D01*
X171451525Y-83714200D01*
X171491762Y-83757908D01*
X171669418Y-83896185D01*
X171669420Y-83896186D01*
X171669424Y-83896189D01*
X171715471Y-83921108D01*
X171763741Y-83967424D01*
X171781500Y-84031921D01*
X171781500Y-87480405D01*
X171771909Y-87528623D01*
X171744595Y-87569500D01*
X155033246Y-104280847D01*
X154976762Y-104313459D01*
X154911540Y-104313459D01*
X154848087Y-104296457D01*
X154620000Y-104276502D01*
X154391912Y-104296457D01*
X154170756Y-104355715D01*
X153963249Y-104452477D01*
X153775696Y-104583804D01*
X153613804Y-104745696D01*
X153482477Y-104933249D01*
X153385715Y-105140756D01*
X153326457Y-105361912D01*
X153306502Y-105589999D01*
X153326457Y-105818087D01*
X153343459Y-105881540D01*
X153343459Y-105946762D01*
X153310849Y-106003245D01*
X153269501Y-106044594D01*
X153228623Y-106071909D01*
X153180404Y-106081500D01*
X150927168Y-106081500D01*
X150871440Y-106068506D01*
X150827205Y-106032204D01*
X150803589Y-105980081D01*
X150805461Y-105922889D01*
X150833543Y-105818087D01*
X150853498Y-105590000D01*
X150833543Y-105361913D01*
X150774284Y-105140757D01*
X150677523Y-104933251D01*
X150546198Y-104745700D01*
X150546197Y-104745699D01*
X150546195Y-104745696D01*
X150384303Y-104583804D01*
X150196750Y-104452477D01*
X149989243Y-104355715D01*
X149768087Y-104296457D01*
X149540000Y-104276502D01*
X149311912Y-104296457D01*
X149090756Y-104355715D01*
X148883249Y-104452477D01*
X148695696Y-104583804D01*
X148533804Y-104745696D01*
X148402477Y-104933249D01*
X148305715Y-105140756D01*
X148246457Y-105361912D01*
X148226502Y-105589999D01*
X148246457Y-105818087D01*
X148274539Y-105922889D01*
X148276411Y-105980081D01*
X148252795Y-106032204D01*
X148208560Y-106068506D01*
X148152832Y-106081500D01*
X145847168Y-106081500D01*
X145791440Y-106068506D01*
X145747205Y-106032204D01*
X145723589Y-105980081D01*
X145725461Y-105922889D01*
X145753543Y-105818087D01*
X145773498Y-105590000D01*
X145753543Y-105361913D01*
X145736539Y-105298457D01*
X145736539Y-105233235D01*
X145769149Y-105176753D01*
X154206753Y-96739150D01*
X154263235Y-96706540D01*
X154328457Y-96706540D01*
X154344733Y-96710901D01*
X154391913Y-96723543D01*
X154620000Y-96743498D01*
X154848087Y-96723543D01*
X155069243Y-96664284D01*
X155276749Y-96567523D01*
X155464300Y-96436198D01*
X155626198Y-96274300D01*
X155757523Y-96086749D01*
X155854284Y-95879243D01*
X155913543Y-95658087D01*
X155933498Y-95430000D01*
X155913543Y-95201913D01*
X155854284Y-94980757D01*
X155757523Y-94773251D01*
X155626198Y-94585700D01*
X155626197Y-94585699D01*
X155626195Y-94585696D01*
X155464303Y-94423804D01*
X155276750Y-94292477D01*
X155069243Y-94195715D01*
X154848087Y-94136457D01*
X154620000Y-94116502D01*
X154391912Y-94136457D01*
X154170756Y-94195715D01*
X153963249Y-94292477D01*
X153775696Y-94423804D01*
X153613804Y-94585696D01*
X153482477Y-94773249D01*
X153385715Y-94980756D01*
X153326457Y-95201912D01*
X153306502Y-95429999D01*
X153326457Y-95658089D01*
X153343459Y-95721542D01*
X153343459Y-95786764D01*
X153310847Y-95843247D01*
X144873246Y-104280847D01*
X144816762Y-104313459D01*
X144751540Y-104313459D01*
X144688087Y-104296457D01*
X144460000Y-104276502D01*
X144231912Y-104296457D01*
X144010756Y-104355715D01*
X143803249Y-104452477D01*
X143615696Y-104583804D01*
X143453804Y-104745696D01*
X143322477Y-104933249D01*
X143225715Y-105140756D01*
X143166457Y-105361912D01*
X143146502Y-105589999D01*
X143166457Y-105818087D01*
X143194539Y-105922889D01*
X143196411Y-105980081D01*
X143172795Y-106032204D01*
X143128560Y-106068506D01*
X143072832Y-106081500D01*
X137118853Y-106081500D01*
X137098064Y-106079204D01*
X137027014Y-106081438D01*
X137023055Y-106081500D01*
X136995139Y-106081500D01*
X136991123Y-106082007D01*
X136979303Y-106082937D01*
X136935110Y-106084326D01*
X136915657Y-106089978D01*
X136896303Y-106093986D01*
X136876202Y-106096525D01*
X136835098Y-106112800D01*
X136823869Y-106116645D01*
X136781405Y-106128982D01*
X136763964Y-106139296D01*
X136746217Y-106147990D01*
X136727384Y-106155447D01*
X136691611Y-106181437D01*
X136681693Y-106187951D01*
X136643639Y-106210457D01*
X136629312Y-106224783D01*
X136614283Y-106237618D01*
X136597894Y-106249525D01*
X136569701Y-106283604D01*
X136561713Y-106292381D01*
X127711430Y-115142663D01*
X127652665Y-115175863D01*
X127585196Y-115173970D01*
X127384291Y-115112000D01*
X127374549Y-115108995D01*
X127125786Y-115071500D01*
X126874214Y-115071500D01*
X126625451Y-115108995D01*
X126615709Y-115112000D01*
X126385054Y-115183146D01*
X126158396Y-115292300D01*
X125950541Y-115434012D01*
X125863795Y-115514501D01*
X125766122Y-115605128D01*
X125610896Y-115799776D01*
X125609267Y-115801819D01*
X125483483Y-116019683D01*
X125391572Y-116253866D01*
X125335593Y-116499128D01*
X125316793Y-116749999D01*
X123683207Y-116749999D01*
X123664407Y-116499131D01*
X123608427Y-116253866D01*
X123516517Y-116019684D01*
X123390731Y-115801816D01*
X123354042Y-115755809D01*
X123233879Y-115605128D01*
X123153867Y-115530889D01*
X123118712Y-115474160D01*
X123117464Y-115407433D01*
X123150471Y-115349431D01*
X142949276Y-95550626D01*
X143011098Y-95516710D01*
X143081464Y-95521322D01*
X143138332Y-95563019D01*
X143163890Y-95628742D01*
X143166457Y-95658087D01*
X143225715Y-95879243D01*
X143322477Y-96086750D01*
X143453804Y-96274303D01*
X143615696Y-96436195D01*
X143803249Y-96567522D01*
X144010756Y-96664284D01*
X144070014Y-96680162D01*
X144231913Y-96723543D01*
X144460000Y-96743498D01*
X144688087Y-96723543D01*
X144909243Y-96664284D01*
X145116749Y-96567523D01*
X145304300Y-96436198D01*
X145466198Y-96274300D01*
X145576181Y-96117227D01*
X145621213Y-96077737D01*
X145679393Y-96063500D01*
X148320607Y-96063500D01*
X148378787Y-96077737D01*
X148423818Y-96117227D01*
X148518297Y-96252158D01*
X148533804Y-96274303D01*
X148695696Y-96436195D01*
X148883249Y-96567522D01*
X149090756Y-96664284D01*
X149150014Y-96680162D01*
X149311913Y-96723543D01*
X149540000Y-96743498D01*
X149768087Y-96723543D01*
X149989243Y-96664284D01*
X150196749Y-96567523D01*
X150384300Y-96436198D01*
X150546198Y-96274300D01*
X150677523Y-96086749D01*
X150774284Y-95879243D01*
X150833543Y-95658087D01*
X150853498Y-95430000D01*
X150833543Y-95201913D01*
X150774284Y-94980757D01*
X150677523Y-94773251D01*
X150546198Y-94585700D01*
X150546197Y-94585699D01*
X150546195Y-94585696D01*
X150384303Y-94423804D01*
X150196750Y-94292477D01*
X149989243Y-94195715D01*
X149768082Y-94136455D01*
X149684488Y-94129142D01*
X149618766Y-94103584D01*
X149577069Y-94046716D01*
X149572457Y-93976351D01*
X149606373Y-93914529D01*
X151556185Y-91964717D01*
X151598758Y-91936716D01*
X151648943Y-91927867D01*
X151698526Y-91939618D01*
X151815757Y-91994284D01*
X152036913Y-92053543D01*
X152265000Y-92073498D01*
X152493087Y-92053543D01*
X152714243Y-91994284D01*
X152921749Y-91897523D01*
X153109300Y-91766198D01*
X153271198Y-91604300D01*
X153402523Y-91416749D01*
X153499284Y-91209243D01*
X153558543Y-90988087D01*
X153573500Y-90817127D01*
X153573500Y-89902873D01*
X153558543Y-89731913D01*
X153499284Y-89510757D01*
X153486168Y-89482630D01*
X153402522Y-89303249D01*
X153271195Y-89115696D01*
X153109303Y-88953804D01*
X152921750Y-88822477D01*
X152714243Y-88725715D01*
X152493087Y-88666457D01*
X152265000Y-88646502D01*
X152036912Y-88666457D01*
X151815756Y-88725715D01*
X151608249Y-88822477D01*
X151420696Y-88953804D01*
X151258804Y-89115696D01*
X151127477Y-89303250D01*
X151109195Y-89342457D01*
X151062700Y-89395474D01*
X150995000Y-89415207D01*
X150927300Y-89395474D01*
X150880805Y-89342457D01*
X150878894Y-89338359D01*
X150862523Y-89303251D01*
X150731198Y-89115700D01*
X150731197Y-89115699D01*
X150731195Y-89115696D01*
X150569303Y-88953804D01*
X150381750Y-88822477D01*
X150174243Y-88725715D01*
X149953087Y-88666457D01*
X149725000Y-88646502D01*
X149496912Y-88666457D01*
X149275756Y-88725715D01*
X149068249Y-88822477D01*
X148880696Y-88953804D01*
X148718804Y-89115696D01*
X148587477Y-89303250D01*
X148569195Y-89342457D01*
X148522700Y-89395474D01*
X148455000Y-89415207D01*
X148387300Y-89395474D01*
X148340805Y-89342457D01*
X148338894Y-89338359D01*
X148322523Y-89303251D01*
X148191198Y-89115700D01*
X148191197Y-89115699D01*
X148191195Y-89115696D01*
X148029303Y-88953804D01*
X147841750Y-88822477D01*
X147634243Y-88725715D01*
X147413087Y-88666457D01*
X147185000Y-88646502D01*
X146956912Y-88666457D01*
X146735756Y-88725715D01*
X146528249Y-88822477D01*
X146340696Y-88953804D01*
X146178804Y-89115696D01*
X146047477Y-89303250D01*
X146029195Y-89342457D01*
X145982700Y-89395474D01*
X145915000Y-89415207D01*
X145847300Y-89395474D01*
X145800805Y-89342457D01*
X145798894Y-89338359D01*
X145782523Y-89303251D01*
X145651198Y-89115700D01*
X145651197Y-89115699D01*
X145651195Y-89115696D01*
X145489303Y-88953804D01*
X145301750Y-88822477D01*
X145094243Y-88725715D01*
X144873087Y-88666457D01*
X144645000Y-88646502D01*
X144416912Y-88666457D01*
X144195756Y-88725715D01*
X143988249Y-88822477D01*
X143800696Y-88953804D01*
X143638804Y-89115696D01*
X143507477Y-89303249D01*
X143460614Y-89403750D01*
X143414119Y-89456767D01*
X143346419Y-89476500D01*
X141854188Y-89476500D01*
X141805970Y-89466909D01*
X141765095Y-89439597D01*
X141669300Y-89343802D01*
X141611386Y-89303250D01*
X141472719Y-89206154D01*
X141473962Y-89204378D01*
X141431824Y-89167424D01*
X141412091Y-89099724D01*
X141431824Y-89032024D01*
X141473755Y-88995250D01*
X141472468Y-88993411D01*
X141552888Y-88937099D01*
X141552888Y-88937097D01*
X140825001Y-88209210D01*
X140825000Y-88209210D01*
X140097110Y-88937098D01*
X140097110Y-88937100D01*
X140177531Y-88993411D01*
X140176242Y-88995251D01*
X140218169Y-89032013D01*
X140237908Y-89099708D01*
X140218185Y-89167408D01*
X140176039Y-89204380D01*
X140177281Y-89206154D01*
X139980696Y-89343804D01*
X139818804Y-89505696D01*
X139687477Y-89693249D01*
X139590715Y-89900756D01*
X139533096Y-90115795D01*
X139531457Y-90121913D01*
X139511502Y-90350000D01*
X139518780Y-90433190D01*
X139531457Y-90578087D01*
X139590715Y-90799243D01*
X139687477Y-91006750D01*
X139818804Y-91194303D01*
X139980696Y-91356195D01*
X140168249Y-91487522D01*
X140375756Y-91584284D01*
X140435015Y-91600162D01*
X140596913Y-91643543D01*
X140825000Y-91663498D01*
X141053087Y-91643543D01*
X141274243Y-91584284D01*
X141481749Y-91487523D01*
X141669300Y-91356198D01*
X141745095Y-91280402D01*
X141785970Y-91253091D01*
X141834188Y-91243500D01*
X143346419Y-91243500D01*
X143414119Y-91263233D01*
X143460613Y-91316249D01*
X143477337Y-91352114D01*
X143507477Y-91416750D01*
X143638804Y-91604303D01*
X143800696Y-91766195D01*
X143988249Y-91897522D01*
X144195756Y-91994284D01*
X144255015Y-92010162D01*
X144416913Y-92053543D01*
X144645000Y-92073498D01*
X144873087Y-92053543D01*
X145094243Y-91994284D01*
X145301749Y-91897523D01*
X145489300Y-91766198D01*
X145651198Y-91604300D01*
X145782523Y-91416749D01*
X145800804Y-91377543D01*
X145847300Y-91324525D01*
X145915000Y-91304792D01*
X145982700Y-91324525D01*
X146029195Y-91377543D01*
X146047476Y-91416748D01*
X146178804Y-91604303D01*
X146340696Y-91766195D01*
X146528249Y-91897522D01*
X146735756Y-91994284D01*
X146795015Y-92010162D01*
X146956913Y-92053543D01*
X147185000Y-92073498D01*
X147413087Y-92053543D01*
X147634243Y-91994284D01*
X147841749Y-91897523D01*
X148029300Y-91766198D01*
X148191198Y-91604300D01*
X148322523Y-91416749D01*
X148340804Y-91377543D01*
X148387300Y-91324525D01*
X148455000Y-91304792D01*
X148522700Y-91324525D01*
X148569195Y-91377543D01*
X148587476Y-91416748D01*
X148718804Y-91604303D01*
X148880696Y-91766195D01*
X149068249Y-91897522D01*
X149275756Y-91994284D01*
X149362958Y-92017649D01*
X149426998Y-92034809D01*
X149483482Y-92067421D01*
X149516094Y-92123905D01*
X149516094Y-92189127D01*
X149483482Y-92245611D01*
X148094497Y-93634597D01*
X148053623Y-93661909D01*
X148005405Y-93671500D01*
X143382854Y-93671500D01*
X143362064Y-93669204D01*
X143291002Y-93671438D01*
X143287044Y-93671500D01*
X143259142Y-93671500D01*
X143255134Y-93672006D01*
X143243313Y-93672936D01*
X143199109Y-93674325D01*
X143179653Y-93679978D01*
X143160301Y-93683986D01*
X143140200Y-93686526D01*
X143099094Y-93702800D01*
X143087870Y-93706643D01*
X143045405Y-93718981D01*
X143027960Y-93729297D01*
X143010217Y-93737989D01*
X142991384Y-93745446D01*
X142955616Y-93771433D01*
X142945697Y-93777949D01*
X142907636Y-93800458D01*
X142893311Y-93814783D01*
X142878284Y-93827617D01*
X142861894Y-93839525D01*
X142833701Y-93873604D01*
X142825713Y-93882381D01*
X121611335Y-115096758D01*
X121589764Y-115114042D01*
X121585753Y-115116588D01*
X121555369Y-115130611D01*
X121385053Y-115183147D01*
X121158396Y-115292300D01*
X120950541Y-115434012D01*
X120863795Y-115514501D01*
X120766122Y-115605128D01*
X120610896Y-115799776D01*
X120609267Y-115801819D01*
X120483483Y-116019683D01*
X120391572Y-116253866D01*
X120335593Y-116499128D01*
X120316793Y-116749999D01*
X118682704Y-116749999D01*
X118663910Y-116499204D01*
X118607946Y-116254012D01*
X118516064Y-116019901D01*
X118390315Y-115802098D01*
X118353401Y-115755809D01*
X118353399Y-115755809D01*
X117359210Y-116749998D01*
X117359210Y-116750000D01*
X116640789Y-116750000D01*
X116640789Y-116749999D01*
X115646597Y-115755809D01*
X115609684Y-115802098D01*
X115483935Y-116019901D01*
X115392053Y-116254012D01*
X115336089Y-116499204D01*
X115317295Y-116749999D01*
X105025500Y-116749999D01*
X105025500Y-115396801D01*
X116006011Y-115396801D01*
X116999999Y-116390789D01*
X117000001Y-116390789D01*
X117993987Y-115396801D01*
X117993987Y-115396799D01*
X117841353Y-115292735D01*
X117614761Y-115183613D01*
X117374440Y-115109485D01*
X117125746Y-115072000D01*
X116874254Y-115072000D01*
X116625559Y-115109485D01*
X116385241Y-115183612D01*
X116158650Y-115292734D01*
X116006011Y-115396800D01*
X116006011Y-115396801D01*
X105025500Y-115396801D01*
X105025500Y-89250000D01*
X131821673Y-89250000D01*
X131840949Y-89482626D01*
X131840949Y-89482629D01*
X131840950Y-89482630D01*
X131894285Y-89693249D01*
X131898251Y-89708907D01*
X131992016Y-89922669D01*
X132119686Y-90118083D01*
X132277780Y-90289818D01*
X132461983Y-90433190D01*
X132667273Y-90544287D01*
X132888049Y-90620080D01*
X133118288Y-90658500D01*
X133351709Y-90658500D01*
X133351712Y-90658500D01*
X133581951Y-90620080D01*
X133802727Y-90544287D01*
X134008017Y-90433190D01*
X134192220Y-90289818D01*
X134192221Y-90289816D01*
X134200459Y-90283405D01*
X134201550Y-90284806D01*
X134243451Y-90257847D01*
X134306915Y-90253934D01*
X134364208Y-90281509D01*
X134400742Y-90333550D01*
X134424111Y-90396206D01*
X134511738Y-90513261D01*
X134628794Y-90600888D01*
X134628795Y-90600888D01*
X134628796Y-90600889D01*
X134765799Y-90651989D01*
X134826362Y-90658500D01*
X136723638Y-90658500D01*
X136784201Y-90651989D01*
X136921204Y-90600889D01*
X137038261Y-90513261D01*
X137125889Y-90396204D01*
X137176989Y-90259201D01*
X137183500Y-90198638D01*
X137183500Y-88301362D01*
X137176989Y-88240799D01*
X137125889Y-88103796D01*
X137125888Y-88103794D01*
X137038261Y-87986738D01*
X136921205Y-87899111D01*
X136852702Y-87873561D01*
X136789534Y-87850000D01*
X139512004Y-87850000D01*
X139531951Y-88077999D01*
X139591186Y-88299070D01*
X139687912Y-88506497D01*
X139737900Y-88577887D01*
X140465789Y-87850001D01*
X141184210Y-87850001D01*
X141912097Y-88577888D01*
X141912099Y-88577888D01*
X141962087Y-88506498D01*
X142058813Y-88299070D01*
X142118048Y-88077999D01*
X142137995Y-87850000D01*
X142118048Y-87622000D01*
X142058813Y-87400929D01*
X141962085Y-87193497D01*
X141912100Y-87122110D01*
X141912098Y-87122110D01*
X141184210Y-87850000D01*
X141184210Y-87850001D01*
X140465789Y-87850001D01*
X140465790Y-87850000D01*
X140465790Y-87849999D01*
X139737900Y-87122109D01*
X139687913Y-87193499D01*
X139591186Y-87400929D01*
X139531951Y-87622000D01*
X139512004Y-87850000D01*
X136789534Y-87850000D01*
X136784201Y-87848011D01*
X136723638Y-87841500D01*
X135843594Y-87841500D01*
X135786391Y-87827767D01*
X135741658Y-87789561D01*
X135719145Y-87735211D01*
X135723761Y-87676564D01*
X135754499Y-87626405D01*
X136618004Y-86762900D01*
X140097109Y-86762900D01*
X140824999Y-87490790D01*
X140825000Y-87490790D01*
X141552888Y-86762899D01*
X141481497Y-86712912D01*
X141274070Y-86616186D01*
X141052999Y-86556951D01*
X140825000Y-86537004D01*
X140597000Y-86556951D01*
X140375929Y-86616186D01*
X140168499Y-86712913D01*
X140097109Y-86762900D01*
X136618004Y-86762900D01*
X137023804Y-86357100D01*
X155337110Y-86357100D01*
X155408497Y-86407085D01*
X155615929Y-86503813D01*
X155837000Y-86563048D01*
X156065000Y-86582995D01*
X156292999Y-86563048D01*
X156514070Y-86503813D01*
X156721498Y-86407087D01*
X156792888Y-86357099D01*
X156792888Y-86357097D01*
X156065001Y-85629210D01*
X156065000Y-85629210D01*
X155337110Y-86357098D01*
X155337110Y-86357100D01*
X137023804Y-86357100D01*
X138110905Y-85269999D01*
X154752004Y-85269999D01*
X154771951Y-85497999D01*
X154831186Y-85719070D01*
X154927912Y-85926497D01*
X154977900Y-85997887D01*
X155705789Y-85270001D01*
X156424210Y-85270001D01*
X157152097Y-85997888D01*
X157152099Y-85997888D01*
X157202087Y-85926498D01*
X157298813Y-85719070D01*
X157358048Y-85497999D01*
X157377995Y-85269999D01*
X157358048Y-85042000D01*
X157298813Y-84820929D01*
X157202085Y-84613497D01*
X157152100Y-84542110D01*
X157152098Y-84542110D01*
X156424210Y-85270000D01*
X156424210Y-85270001D01*
X155705789Y-85270001D01*
X155705790Y-85270000D01*
X155705790Y-85269999D01*
X154977900Y-84542109D01*
X154927913Y-84613499D01*
X154831186Y-84820929D01*
X154771951Y-85042000D01*
X154752004Y-85269999D01*
X138110905Y-85269999D01*
X139970499Y-83410405D01*
X140011376Y-83383091D01*
X140059594Y-83373500D01*
X143210500Y-83373500D01*
X143273500Y-83390381D01*
X143319619Y-83436500D01*
X143336500Y-83499500D01*
X143336500Y-83988638D01*
X143343011Y-84049201D01*
X143355803Y-84083498D01*
X143394111Y-84186205D01*
X143481738Y-84303261D01*
X143598794Y-84390888D01*
X143598795Y-84390888D01*
X143598796Y-84390889D01*
X143735799Y-84441989D01*
X143796362Y-84448500D01*
X145493638Y-84448500D01*
X145554201Y-84441989D01*
X145691204Y-84390889D01*
X145808261Y-84303261D01*
X145895889Y-84186204D01*
X145946989Y-84049201D01*
X145947999Y-84039800D01*
X145968706Y-83982978D01*
X146013506Y-83942348D01*
X146072077Y-83927275D01*
X146130924Y-83941230D01*
X146176490Y-83980998D01*
X146178804Y-83984303D01*
X146340696Y-84146195D01*
X146528249Y-84277522D01*
X146735756Y-84374284D01*
X146795014Y-84390162D01*
X146956913Y-84433543D01*
X147185000Y-84453498D01*
X147413087Y-84433543D01*
X147634243Y-84374284D01*
X147841749Y-84277523D01*
X148029300Y-84146198D01*
X148191198Y-83984300D01*
X148322523Y-83796749D01*
X148340804Y-83757543D01*
X148387300Y-83704525D01*
X148455000Y-83684792D01*
X148522700Y-83704525D01*
X148569195Y-83757543D01*
X148587476Y-83796748D01*
X148718804Y-83984303D01*
X148880696Y-84146195D01*
X149068249Y-84277522D01*
X149275756Y-84374284D01*
X149335014Y-84390162D01*
X149496913Y-84433543D01*
X149725000Y-84453498D01*
X149953087Y-84433543D01*
X150174243Y-84374284D01*
X150381749Y-84277523D01*
X150569300Y-84146198D01*
X150731198Y-83984300D01*
X150862523Y-83796749D01*
X150880804Y-83757543D01*
X150927300Y-83704525D01*
X150995000Y-83684792D01*
X151062700Y-83704525D01*
X151109195Y-83757543D01*
X151127476Y-83796748D01*
X151258804Y-83984303D01*
X151420696Y-84146195D01*
X151608249Y-84277522D01*
X151815756Y-84374284D01*
X151875014Y-84390162D01*
X152036913Y-84433543D01*
X152265000Y-84453498D01*
X152493087Y-84433543D01*
X152714243Y-84374284D01*
X152921749Y-84277523D01*
X153109300Y-84146198D01*
X153271198Y-83984300D01*
X153402523Y-83796749D01*
X153449386Y-83696249D01*
X153495881Y-83643233D01*
X153563581Y-83623500D01*
X155015812Y-83623500D01*
X155064030Y-83633091D01*
X155104904Y-83660402D01*
X155220700Y-83776198D01*
X155327819Y-83851204D01*
X155417281Y-83913846D01*
X155416037Y-83915621D01*
X155458175Y-83952574D01*
X155477909Y-84020272D01*
X155458179Y-84087971D01*
X155416243Y-84124751D01*
X155417531Y-84126590D01*
X155337109Y-84182900D01*
X156064999Y-84910790D01*
X156065000Y-84910790D01*
X156792888Y-84182899D01*
X156712468Y-84126590D01*
X156713756Y-84124750D01*
X156671822Y-84087974D01*
X156652090Y-84020272D01*
X156671826Y-83952571D01*
X156713962Y-83915622D01*
X156712719Y-83913846D01*
X156802179Y-83851205D01*
X156909300Y-83776198D01*
X157071198Y-83614300D01*
X157202523Y-83426749D01*
X157299284Y-83219243D01*
X157358543Y-82998087D01*
X157378498Y-82770000D01*
X157358543Y-82541913D01*
X157299284Y-82320757D01*
X157295456Y-82312548D01*
X157202522Y-82113249D01*
X157071195Y-81925696D01*
X156909303Y-81763804D01*
X156721750Y-81632477D01*
X156514243Y-81535715D01*
X156293087Y-81476457D01*
X156065000Y-81456502D01*
X155836912Y-81476457D01*
X155615756Y-81535715D01*
X155408249Y-81632477D01*
X155237425Y-81752091D01*
X155220700Y-81763802D01*
X155164904Y-81819597D01*
X155124031Y-81846909D01*
X155075812Y-81856500D01*
X153563581Y-81856500D01*
X153495881Y-81836767D01*
X153449386Y-81783750D01*
X153402522Y-81683249D01*
X153299217Y-81535715D01*
X153271198Y-81495700D01*
X153271196Y-81495698D01*
X153271195Y-81495696D01*
X153109303Y-81333804D01*
X152921750Y-81202477D01*
X152714243Y-81105715D01*
X152493087Y-81046457D01*
X152265000Y-81026502D01*
X152036912Y-81046457D01*
X151815756Y-81105715D01*
X151608249Y-81202477D01*
X151420696Y-81333804D01*
X151258804Y-81495696D01*
X151127477Y-81683250D01*
X151109195Y-81722457D01*
X151062700Y-81775474D01*
X150995000Y-81795207D01*
X150927300Y-81775474D01*
X150880805Y-81722457D01*
X150878894Y-81718359D01*
X150862523Y-81683251D01*
X150731198Y-81495700D01*
X150731196Y-81495698D01*
X150731195Y-81495696D01*
X150569303Y-81333804D01*
X150381750Y-81202477D01*
X150174243Y-81105715D01*
X149953087Y-81046457D01*
X149725000Y-81026502D01*
X149496912Y-81046457D01*
X149275756Y-81105715D01*
X149068249Y-81202477D01*
X148880696Y-81333804D01*
X148718804Y-81495696D01*
X148587477Y-81683250D01*
X148569195Y-81722457D01*
X148522700Y-81775474D01*
X148455000Y-81795207D01*
X148387300Y-81775474D01*
X148340805Y-81722457D01*
X148338894Y-81718359D01*
X148322523Y-81683251D01*
X148191198Y-81495700D01*
X148191196Y-81495698D01*
X148191195Y-81495696D01*
X148029303Y-81333804D01*
X147841750Y-81202477D01*
X147634243Y-81105715D01*
X147413087Y-81046457D01*
X147185000Y-81026502D01*
X146956912Y-81046457D01*
X146735756Y-81105715D01*
X146528249Y-81202477D01*
X146340696Y-81333804D01*
X146178802Y-81495698D01*
X146176487Y-81499005D01*
X146130921Y-81538771D01*
X146072074Y-81552724D01*
X146013504Y-81537650D01*
X145968705Y-81497021D01*
X145947999Y-81440197D01*
X145946989Y-81430799D01*
X145895889Y-81293796D01*
X145895888Y-81293794D01*
X145808261Y-81176738D01*
X145691205Y-81089111D01*
X145576845Y-81046457D01*
X145554201Y-81038011D01*
X145493638Y-81031500D01*
X143796362Y-81031500D01*
X143735799Y-81038011D01*
X143598794Y-81089111D01*
X143481738Y-81176738D01*
X143394111Y-81293794D01*
X143343011Y-81430799D01*
X143336500Y-81491362D01*
X143336500Y-81980500D01*
X143319619Y-82043500D01*
X143273500Y-82089619D01*
X143210500Y-82106500D01*
X139828853Y-82106500D01*
X139808064Y-82104204D01*
X139737014Y-82106438D01*
X139733055Y-82106500D01*
X139705139Y-82106500D01*
X139701123Y-82107007D01*
X139689303Y-82107937D01*
X139645110Y-82109326D01*
X139625657Y-82114978D01*
X139606303Y-82118986D01*
X139586204Y-82121525D01*
X139545096Y-82137801D01*
X139533870Y-82141644D01*
X139491408Y-82153981D01*
X139473964Y-82164297D01*
X139456215Y-82172991D01*
X139437384Y-82180446D01*
X139401625Y-82206427D01*
X139391706Y-82212943D01*
X139353636Y-82235457D01*
X139339309Y-82249785D01*
X139324279Y-82262622D01*
X139307894Y-82274526D01*
X139279711Y-82308593D01*
X139271723Y-82317370D01*
X133732276Y-87856817D01*
X133671582Y-87890479D01*
X133602270Y-87886895D01*
X133581956Y-87879921D01*
X133581951Y-87879920D01*
X133351712Y-87841500D01*
X133118288Y-87841500D01*
X132888049Y-87879920D01*
X132888046Y-87879920D01*
X132888046Y-87879921D01*
X132667273Y-87955712D01*
X132461984Y-88066809D01*
X132277779Y-88210182D01*
X132119684Y-88381919D01*
X131992016Y-88577330D01*
X131898250Y-88791094D01*
X131846551Y-88995251D01*
X131840949Y-89017374D01*
X131821673Y-89250000D01*
X105025500Y-89250000D01*
X105025500Y-77649999D01*
X143271502Y-77649999D01*
X143291457Y-77878087D01*
X143350715Y-78099243D01*
X143447477Y-78306750D01*
X143578804Y-78494303D01*
X143740696Y-78656195D01*
X143928249Y-78787522D01*
X144135756Y-78884284D01*
X144195014Y-78900162D01*
X144356913Y-78943543D01*
X144585000Y-78963498D01*
X144813087Y-78943543D01*
X145034243Y-78884284D01*
X145241749Y-78787523D01*
X145429300Y-78656198D01*
X145591198Y-78494300D01*
X145722523Y-78306749D01*
X145819284Y-78099243D01*
X145878543Y-77878087D01*
X145898498Y-77650000D01*
X145898498Y-77649999D01*
X148351502Y-77649999D01*
X148371457Y-77878087D01*
X148430715Y-78099243D01*
X148527477Y-78306750D01*
X148658804Y-78494303D01*
X148820696Y-78656195D01*
X149008249Y-78787522D01*
X149215756Y-78884284D01*
X149275014Y-78900162D01*
X149436913Y-78943543D01*
X149665000Y-78963498D01*
X149893087Y-78943543D01*
X150114243Y-78884284D01*
X150321749Y-78787523D01*
X150509300Y-78656198D01*
X150671198Y-78494300D01*
X150781181Y-78337227D01*
X150826213Y-78297737D01*
X150884393Y-78283500D01*
X153525607Y-78283500D01*
X153583787Y-78297737D01*
X153628818Y-78337227D01*
X153723297Y-78472158D01*
X153738804Y-78494303D01*
X153900696Y-78656195D01*
X154088249Y-78787522D01*
X154295756Y-78884284D01*
X154355014Y-78900162D01*
X154516913Y-78943543D01*
X154745000Y-78963498D01*
X154973087Y-78943543D01*
X155194243Y-78884284D01*
X155401749Y-78787523D01*
X155589300Y-78656198D01*
X155751198Y-78494300D01*
X155882523Y-78306749D01*
X155979284Y-78099243D01*
X156038543Y-77878087D01*
X156058498Y-77650000D01*
X156038543Y-77421913D01*
X155979284Y-77200757D01*
X155882523Y-76993251D01*
X155751198Y-76805700D01*
X155751197Y-76805699D01*
X155751195Y-76805696D01*
X155589303Y-76643804D01*
X155401750Y-76512477D01*
X155194243Y-76415715D01*
X154973087Y-76356457D01*
X154745000Y-76336502D01*
X154516912Y-76356457D01*
X154295756Y-76415715D01*
X154088249Y-76512477D01*
X153900696Y-76643804D01*
X153738804Y-76805696D01*
X153676511Y-76894659D01*
X153628818Y-76962772D01*
X153583787Y-77002263D01*
X153525607Y-77016500D01*
X150884393Y-77016500D01*
X150826213Y-77002263D01*
X150781181Y-76962772D01*
X150671198Y-76805700D01*
X150671197Y-76805699D01*
X150671195Y-76805696D01*
X150509303Y-76643804D01*
X150321750Y-76512477D01*
X150114243Y-76415715D01*
X149893087Y-76356457D01*
X149665000Y-76336502D01*
X149436912Y-76356457D01*
X149215756Y-76415715D01*
X149008249Y-76512477D01*
X148820696Y-76643804D01*
X148658804Y-76805696D01*
X148527477Y-76993249D01*
X148430715Y-77200756D01*
X148371457Y-77421912D01*
X148351502Y-77649999D01*
X145898498Y-77649999D01*
X145878543Y-77421913D01*
X145819284Y-77200757D01*
X145722523Y-76993251D01*
X145591198Y-76805700D01*
X145591197Y-76805699D01*
X145591195Y-76805696D01*
X145429303Y-76643804D01*
X145241750Y-76512477D01*
X145034243Y-76415715D01*
X144813087Y-76356457D01*
X144585000Y-76336502D01*
X144356912Y-76356457D01*
X144135756Y-76415715D01*
X143928249Y-76512477D01*
X143740696Y-76643804D01*
X143578804Y-76805696D01*
X143447477Y-76993249D01*
X143350715Y-77200756D01*
X143291457Y-77421912D01*
X143271502Y-77649999D01*
X105025500Y-77649999D01*
X105025500Y-73103199D01*
X116006011Y-73103199D01*
X116158644Y-73207263D01*
X116385241Y-73316387D01*
X116625559Y-73390514D01*
X116874254Y-73428000D01*
X117125746Y-73428000D01*
X117374440Y-73390514D01*
X117614761Y-73316386D01*
X117841349Y-73207266D01*
X117993988Y-73103198D01*
X117000001Y-72109210D01*
X116999999Y-72109210D01*
X116006011Y-73103197D01*
X116006011Y-73103199D01*
X105025500Y-73103199D01*
X105025500Y-71750000D01*
X115317295Y-71750000D01*
X115336089Y-72000795D01*
X115392053Y-72245987D01*
X115483935Y-72480098D01*
X115609684Y-72697901D01*
X115646597Y-72744189D01*
X115646599Y-72744189D01*
X116640789Y-71750001D01*
X117359210Y-71750001D01*
X118353400Y-72744190D01*
X118353401Y-72744190D01*
X118390317Y-72697899D01*
X118516064Y-72480099D01*
X118607946Y-72245987D01*
X118663910Y-72000795D01*
X118682704Y-71750000D01*
X120316793Y-71750000D01*
X120335593Y-72000871D01*
X120391572Y-72246133D01*
X120483397Y-72480098D01*
X120483483Y-72480316D01*
X120609269Y-72698184D01*
X120766122Y-72894872D01*
X120932533Y-73049278D01*
X120950541Y-73065987D01*
X121106432Y-73172270D01*
X121158397Y-73207700D01*
X121275900Y-73264287D01*
X121385054Y-73316853D01*
X121438667Y-73333390D01*
X121625451Y-73391005D01*
X121874214Y-73428500D01*
X122125784Y-73428500D01*
X122125786Y-73428500D01*
X122374549Y-73391005D01*
X122614945Y-73316853D01*
X122841604Y-73207700D01*
X123049462Y-73065984D01*
X123233878Y-72894872D01*
X123390731Y-72698184D01*
X123516517Y-72480316D01*
X123608427Y-72246134D01*
X123664407Y-72000869D01*
X123683207Y-71750000D01*
X125316793Y-71750000D01*
X125335593Y-72000871D01*
X125391572Y-72246133D01*
X125483397Y-72480098D01*
X125483483Y-72480316D01*
X125609269Y-72698184D01*
X125766122Y-72894872D01*
X125932533Y-73049278D01*
X125950541Y-73065987D01*
X126106432Y-73172270D01*
X126158397Y-73207700D01*
X126275900Y-73264287D01*
X126385054Y-73316853D01*
X126438667Y-73333390D01*
X126625451Y-73391005D01*
X126874214Y-73428500D01*
X127125784Y-73428500D01*
X127125786Y-73428500D01*
X127374549Y-73391005D01*
X127614945Y-73316853D01*
X127841604Y-73207700D01*
X128049462Y-73065984D01*
X128233878Y-72894872D01*
X128390731Y-72698184D01*
X128516517Y-72480316D01*
X128608427Y-72246134D01*
X128664407Y-72000869D01*
X128683207Y-71750000D01*
X165316793Y-71750000D01*
X165335593Y-72000871D01*
X165391572Y-72246133D01*
X165483397Y-72480098D01*
X165483483Y-72480316D01*
X165609269Y-72698184D01*
X165766122Y-72894872D01*
X165932533Y-73049278D01*
X165950541Y-73065987D01*
X166106432Y-73172270D01*
X166158397Y-73207700D01*
X166275900Y-73264287D01*
X166385054Y-73316853D01*
X166438667Y-73333390D01*
X166625451Y-73391005D01*
X166874214Y-73428500D01*
X167125784Y-73428500D01*
X167125786Y-73428500D01*
X167374549Y-73391005D01*
X167614945Y-73316853D01*
X167841604Y-73207700D01*
X168049462Y-73065984D01*
X168233878Y-72894872D01*
X168390731Y-72698184D01*
X168516517Y-72480316D01*
X168608427Y-72246134D01*
X168664407Y-72000869D01*
X168683207Y-71750000D01*
X170316793Y-71750000D01*
X170335593Y-72000871D01*
X170391572Y-72246133D01*
X170483397Y-72480098D01*
X170483483Y-72480316D01*
X170609269Y-72698184D01*
X170766122Y-72894872D01*
X170932533Y-73049278D01*
X170950541Y-73065987D01*
X171106432Y-73172270D01*
X171158397Y-73207700D01*
X171275900Y-73264287D01*
X171385054Y-73316853D01*
X171438667Y-73333390D01*
X171625451Y-73391005D01*
X171874214Y-73428500D01*
X172125784Y-73428500D01*
X172125786Y-73428500D01*
X172374549Y-73391005D01*
X172614945Y-73316853D01*
X172841604Y-73207700D01*
X173049462Y-73065984D01*
X173233878Y-72894872D01*
X173390731Y-72698184D01*
X173516517Y-72480316D01*
X173608427Y-72246134D01*
X173664407Y-72000869D01*
X173683207Y-71750000D01*
X175316793Y-71750000D01*
X175335593Y-72000871D01*
X175391572Y-72246133D01*
X175483397Y-72480098D01*
X175483483Y-72480316D01*
X175609269Y-72698184D01*
X175766122Y-72894872D01*
X175932533Y-73049278D01*
X175950541Y-73065987D01*
X176106432Y-73172270D01*
X176158397Y-73207700D01*
X176275900Y-73264287D01*
X176385054Y-73316853D01*
X176438667Y-73333390D01*
X176625451Y-73391005D01*
X176874214Y-73428500D01*
X177125784Y-73428500D01*
X177125786Y-73428500D01*
X177374549Y-73391005D01*
X177614945Y-73316853D01*
X177841604Y-73207700D01*
X178049462Y-73065984D01*
X178233878Y-72894872D01*
X178390731Y-72698184D01*
X178516517Y-72480316D01*
X178608427Y-72246134D01*
X178664407Y-72000869D01*
X178683207Y-71750000D01*
X178664407Y-71499131D01*
X178608427Y-71253866D01*
X178516517Y-71019684D01*
X178390731Y-70801816D01*
X178233878Y-70605128D01*
X178049462Y-70434016D01*
X177841604Y-70292300D01*
X177841603Y-70292299D01*
X177841601Y-70292298D01*
X177614945Y-70183146D01*
X177441134Y-70129533D01*
X177374549Y-70108995D01*
X177125786Y-70071500D01*
X176874214Y-70071500D01*
X176625451Y-70108995D01*
X176612477Y-70112996D01*
X176385054Y-70183146D01*
X176158396Y-70292300D01*
X175950541Y-70434012D01*
X175849327Y-70527924D01*
X175766122Y-70605128D01*
X175609269Y-70801816D01*
X175609267Y-70801819D01*
X175483483Y-71019683D01*
X175391572Y-71253866D01*
X175335593Y-71499128D01*
X175316793Y-71750000D01*
X173683207Y-71750000D01*
X173664407Y-71499131D01*
X173608427Y-71253866D01*
X173516517Y-71019684D01*
X173390731Y-70801816D01*
X173233878Y-70605128D01*
X173049462Y-70434016D01*
X172841604Y-70292300D01*
X172841603Y-70292299D01*
X172841601Y-70292298D01*
X172614945Y-70183146D01*
X172441134Y-70129533D01*
X172374549Y-70108995D01*
X172125786Y-70071500D01*
X171874214Y-70071500D01*
X171625451Y-70108995D01*
X171612477Y-70112996D01*
X171385054Y-70183146D01*
X171158396Y-70292300D01*
X170950541Y-70434012D01*
X170849327Y-70527924D01*
X170766122Y-70605128D01*
X170609269Y-70801816D01*
X170609267Y-70801819D01*
X170483483Y-71019683D01*
X170391572Y-71253866D01*
X170335593Y-71499128D01*
X170316793Y-71750000D01*
X168683207Y-71750000D01*
X168664407Y-71499131D01*
X168608427Y-71253866D01*
X168516517Y-71019684D01*
X168390731Y-70801816D01*
X168233878Y-70605128D01*
X168049462Y-70434016D01*
X167841604Y-70292300D01*
X167841603Y-70292299D01*
X167841601Y-70292298D01*
X167614945Y-70183146D01*
X167441134Y-70129533D01*
X167374549Y-70108995D01*
X167125786Y-70071500D01*
X166874214Y-70071500D01*
X166625451Y-70108995D01*
X166612477Y-70112996D01*
X166385054Y-70183146D01*
X166158396Y-70292300D01*
X165950541Y-70434012D01*
X165849327Y-70527924D01*
X165766122Y-70605128D01*
X165609269Y-70801816D01*
X165609267Y-70801819D01*
X165483483Y-71019683D01*
X165391572Y-71253866D01*
X165335593Y-71499128D01*
X165316793Y-71750000D01*
X128683207Y-71750000D01*
X128664407Y-71499131D01*
X128608427Y-71253866D01*
X128516517Y-71019684D01*
X128390731Y-70801816D01*
X128233878Y-70605128D01*
X128049462Y-70434016D01*
X127841604Y-70292300D01*
X127841603Y-70292299D01*
X127841601Y-70292298D01*
X127614945Y-70183146D01*
X127441134Y-70129533D01*
X127374549Y-70108995D01*
X127125786Y-70071500D01*
X126874214Y-70071500D01*
X126625451Y-70108995D01*
X126612477Y-70112996D01*
X126385054Y-70183146D01*
X126158396Y-70292300D01*
X125950541Y-70434012D01*
X125849327Y-70527924D01*
X125766122Y-70605128D01*
X125609269Y-70801816D01*
X125609267Y-70801819D01*
X125483483Y-71019683D01*
X125391572Y-71253866D01*
X125335593Y-71499128D01*
X125316793Y-71750000D01*
X123683207Y-71750000D01*
X123664407Y-71499131D01*
X123608427Y-71253866D01*
X123577575Y-71175258D01*
X123568876Y-71127655D01*
X123578760Y-71080283D01*
X123605766Y-71040136D01*
X125360501Y-69285402D01*
X125401376Y-69258091D01*
X125449594Y-69248500D01*
X148456147Y-69248500D01*
X148476935Y-69250795D01*
X148479907Y-69250701D01*
X148479909Y-69250702D01*
X148547985Y-69248562D01*
X148551945Y-69248500D01*
X148579852Y-69248500D01*
X148579856Y-69248500D01*
X148583865Y-69247993D01*
X148595699Y-69247061D01*
X148639889Y-69245673D01*
X148659338Y-69240021D01*
X148678698Y-69236012D01*
X148698797Y-69233474D01*
X148739915Y-69217193D01*
X148751117Y-69213357D01*
X148793593Y-69201018D01*
X148811039Y-69190699D01*
X148828780Y-69182009D01*
X148847617Y-69174552D01*
X148883392Y-69148558D01*
X148893303Y-69142048D01*
X148931362Y-69119542D01*
X148945691Y-69105212D01*
X148960719Y-69092377D01*
X148977107Y-69080472D01*
X149005303Y-69046386D01*
X149013272Y-69037630D01*
X149251753Y-68799149D01*
X149308235Y-68766539D01*
X149373457Y-68766539D01*
X149436913Y-68783543D01*
X149665000Y-68803498D01*
X149893087Y-68783543D01*
X150114243Y-68724284D01*
X150321749Y-68627523D01*
X150509300Y-68496198D01*
X150671198Y-68334300D01*
X150802523Y-68146749D01*
X150899284Y-67939243D01*
X150951600Y-67744000D01*
X153458918Y-67744000D01*
X153511186Y-67939070D01*
X153607912Y-68146498D01*
X153739189Y-68333981D01*
X153901018Y-68495810D01*
X154088501Y-68627087D01*
X154295929Y-68723813D01*
X154491000Y-68776082D01*
X154491000Y-67744000D01*
X154999000Y-67744000D01*
X154999000Y-68776082D01*
X155194070Y-68723813D01*
X155401498Y-68627087D01*
X155588981Y-68495810D01*
X155750810Y-68333981D01*
X155882087Y-68146498D01*
X155978813Y-67939070D01*
X156031082Y-67744000D01*
X154999000Y-67744000D01*
X154491000Y-67744000D01*
X153458918Y-67744000D01*
X150951600Y-67744000D01*
X150958543Y-67718087D01*
X150978498Y-67490000D01*
X150958543Y-67261913D01*
X150951600Y-67236000D01*
X153458917Y-67236000D01*
X154491000Y-67236000D01*
X154491000Y-66203917D01*
X154998999Y-66203917D01*
X154999000Y-66203918D01*
X154999000Y-67236000D01*
X156031082Y-67236000D01*
X155978813Y-67040929D01*
X155882087Y-66833501D01*
X155750810Y-66646018D01*
X155588981Y-66484189D01*
X155401498Y-66352912D01*
X155194070Y-66256186D01*
X154998999Y-66203917D01*
X154491000Y-66203917D01*
X154295929Y-66256186D01*
X154088501Y-66352912D01*
X153901018Y-66484189D01*
X153739189Y-66646018D01*
X153607912Y-66833501D01*
X153511186Y-67040929D01*
X153458917Y-67236000D01*
X150951600Y-67236000D01*
X150899284Y-67040757D01*
X150802523Y-66833251D01*
X150671198Y-66645700D01*
X150671197Y-66645699D01*
X150671195Y-66645696D01*
X150509303Y-66483804D01*
X150321750Y-66352477D01*
X150114243Y-66255715D01*
X149893087Y-66196457D01*
X149665000Y-66176502D01*
X149436912Y-66196457D01*
X149215756Y-66255715D01*
X149008249Y-66352477D01*
X148820696Y-66483804D01*
X148658804Y-66645696D01*
X148527477Y-66833249D01*
X148430715Y-67040756D01*
X148371457Y-67261912D01*
X148351502Y-67489999D01*
X148371457Y-67718087D01*
X148388459Y-67781540D01*
X148388459Y-67846762D01*
X148355849Y-67903245D01*
X148314501Y-67944594D01*
X148273623Y-67971909D01*
X148225404Y-67981500D01*
X145971651Y-67981500D01*
X145915923Y-67968506D01*
X145871689Y-67932204D01*
X145848072Y-67880082D01*
X145849944Y-67822889D01*
X145871082Y-67744000D01*
X143298918Y-67744000D01*
X143320056Y-67822889D01*
X143321928Y-67880082D01*
X143298311Y-67932204D01*
X143254077Y-67968506D01*
X143198349Y-67981500D01*
X125218854Y-67981500D01*
X125198064Y-67979204D01*
X125127002Y-67981438D01*
X125123044Y-67981500D01*
X125095142Y-67981500D01*
X125091134Y-67982006D01*
X125079313Y-67982936D01*
X125035109Y-67984325D01*
X125015653Y-67989978D01*
X124996301Y-67993986D01*
X124976200Y-67996526D01*
X124935094Y-68012800D01*
X124923870Y-68016643D01*
X124881405Y-68028981D01*
X124863960Y-68039297D01*
X124846217Y-68047989D01*
X124827384Y-68055446D01*
X124791616Y-68081433D01*
X124781697Y-68087949D01*
X124743636Y-68110458D01*
X124729311Y-68124783D01*
X124714284Y-68137617D01*
X124697894Y-68149525D01*
X124669701Y-68183604D01*
X124661713Y-68192381D01*
X122711430Y-70142663D01*
X122652665Y-70175863D01*
X122585196Y-70173970D01*
X122395069Y-70115324D01*
X122374549Y-70108995D01*
X122125786Y-70071500D01*
X121874214Y-70071500D01*
X121625451Y-70108995D01*
X121612477Y-70112996D01*
X121385054Y-70183146D01*
X121158396Y-70292300D01*
X120950541Y-70434012D01*
X120849327Y-70527924D01*
X120766122Y-70605128D01*
X120609269Y-70801816D01*
X120609267Y-70801819D01*
X120483483Y-71019683D01*
X120391572Y-71253866D01*
X120335593Y-71499128D01*
X120316793Y-71750000D01*
X118682704Y-71750000D01*
X118663910Y-71499204D01*
X118607946Y-71254012D01*
X118516064Y-71019901D01*
X118390315Y-70802098D01*
X118353401Y-70755809D01*
X118353399Y-70755809D01*
X117359210Y-71749999D01*
X117359210Y-71750001D01*
X116640789Y-71750001D01*
X116640789Y-71749999D01*
X115646598Y-70755809D01*
X115646597Y-70755809D01*
X115609684Y-70802098D01*
X115483935Y-71019901D01*
X115392053Y-71254012D01*
X115336089Y-71499204D01*
X115317295Y-71750000D01*
X105025500Y-71750000D01*
X105025500Y-70396801D01*
X116006011Y-70396801D01*
X116999999Y-71390789D01*
X117000001Y-71390789D01*
X117993987Y-70396801D01*
X117993987Y-70396799D01*
X117841353Y-70292735D01*
X117614761Y-70183613D01*
X117374440Y-70109485D01*
X117125746Y-70072000D01*
X116874254Y-70072000D01*
X116625559Y-70109485D01*
X116385241Y-70183612D01*
X116158650Y-70292734D01*
X116006011Y-70396800D01*
X116006011Y-70396801D01*
X105025500Y-70396801D01*
X105025500Y-67236000D01*
X143298917Y-67236000D01*
X144331000Y-67236000D01*
X144331000Y-66203917D01*
X144838999Y-66203917D01*
X144839000Y-66203918D01*
X144839000Y-67236000D01*
X145871082Y-67236000D01*
X145818813Y-67040929D01*
X145722087Y-66833501D01*
X145590810Y-66646018D01*
X145428981Y-66484189D01*
X145241498Y-66352912D01*
X145034070Y-66256186D01*
X144838999Y-66203917D01*
X144331000Y-66203917D01*
X144135929Y-66256186D01*
X143928501Y-66352912D01*
X143741018Y-66484189D01*
X143579189Y-66646018D01*
X143447912Y-66833501D01*
X143351186Y-67040929D01*
X143298917Y-67236000D01*
X105025500Y-67236000D01*
X105025500Y-44401500D01*
X105042381Y-44338500D01*
X105088500Y-44292381D01*
X105151500Y-44275500D01*
X194848500Y-44275500D01*
X194911500Y-44292381D01*
G37*
G04 #@! TD.AperFunction*
G04 #@! TD*
M02*
