G04 #@! TF.GenerationSoftware,KiCad,Pcbnew,7.0.2-6a45011f42~172~ubuntu22.04.1*
G04 #@! TF.CreationDate,2023-05-05T21:02:08-04:00*
G04 #@! TF.ProjectId,springReverbRev2_FrontPCB,73707269-6e67-4526-9576-657262526576,rev?*
G04 #@! TF.SameCoordinates,Original*
G04 #@! TF.FileFunction,Copper,L1,Top*
G04 #@! TF.FilePolarity,Positive*
%FSLAX46Y46*%
G04 Gerber Fmt 4.6, Leading zero omitted, Abs format (unit mm)*
G04 Created by KiCad (PCBNEW 7.0.2-6a45011f42~172~ubuntu22.04.1) date 2023-05-05 21:02:08*
%MOMM*%
%LPD*%
G01*
G04 APERTURE LIST*
G04 #@! TA.AperFunction,ComponentPad*
%ADD10C,2.340000*%
G04 #@! TD*
G04 #@! TA.AperFunction,ComponentPad*
%ADD11R,1.400000X1.400000*%
G04 #@! TD*
G04 #@! TA.AperFunction,ComponentPad*
%ADD12C,1.400000*%
G04 #@! TD*
G04 #@! TA.AperFunction,ComponentPad*
%ADD13C,1.500000*%
G04 #@! TD*
G04 #@! TA.AperFunction,ComponentPad*
%ADD14C,3.100000*%
G04 #@! TD*
G04 #@! TA.AperFunction,ComponentPad*
%ADD15R,1.800000X1.800000*%
G04 #@! TD*
G04 #@! TA.AperFunction,ComponentPad*
%ADD16C,1.800000*%
G04 #@! TD*
G04 #@! TA.AperFunction,ComponentPad*
%ADD17C,1.600000*%
G04 #@! TD*
G04 #@! TA.AperFunction,ComponentPad*
%ADD18O,1.600000X1.600000*%
G04 #@! TD*
G04 #@! TA.AperFunction,ComponentPad*
%ADD19R,2.400000X1.600000*%
G04 #@! TD*
G04 #@! TA.AperFunction,ComponentPad*
%ADD20O,2.400000X1.600000*%
G04 #@! TD*
G04 #@! TA.AperFunction,ComponentPad*
%ADD21R,1.600000X2.400000*%
G04 #@! TD*
G04 #@! TA.AperFunction,ComponentPad*
%ADD22O,1.600000X2.400000*%
G04 #@! TD*
G04 #@! TA.AperFunction,ComponentPad*
%ADD23R,1.700000X1.700000*%
G04 #@! TD*
G04 #@! TA.AperFunction,ComponentPad*
%ADD24O,1.700000X1.700000*%
G04 #@! TD*
G04 #@! TA.AperFunction,ViaPad*
%ADD25C,0.800000*%
G04 #@! TD*
G04 #@! TA.AperFunction,Conductor*
%ADD26C,0.750000*%
G04 #@! TD*
G04 #@! TA.AperFunction,Conductor*
%ADD27C,0.250000*%
G04 #@! TD*
G04 APERTURE END LIST*
D10*
G04 #@! TO.P,RV901,1,1*
G04 #@! TO.N,Board_0-GND*
X117000000Y-71750000D03*
G04 #@! TO.P,RV901,2,2*
G04 #@! TO.N,Board_0-/Front board/MIX*
X122000000Y-71750000D03*
G04 #@! TO.P,RV901,3,3*
G04 #@! TO.N,Board_0-+12V*
X127000000Y-71750000D03*
G04 #@! TD*
D11*
G04 #@! TO.P,VR1,1,1*
G04 #@! TO.N,Board_0-/Front board/TRIM_F*
X184460000Y-101060000D03*
D12*
G04 #@! TO.P,VR1,2,2*
G04 #@! TO.N,Board_0-GND*
X187000000Y-98520000D03*
G04 #@! TO.P,VR1,3,3*
X189540000Y-101060000D03*
G04 #@! TD*
D13*
G04 #@! TO.P,TP905,1,1*
G04 #@! TO.N,Board_0-GND*
X192520000Y-139880000D03*
G04 #@! TD*
D10*
G04 #@! TO.P,RV905,1,1*
G04 #@! TO.N,Board_0-/Front board/MIXPOT_SPRING_F*
X167000000Y-116750000D03*
G04 #@! TO.P,RV905,2,2*
G04 #@! TO.N,Board_0-/Front board/MIXPOT_SB_MIX_F*
X172000000Y-116750000D03*
G04 #@! TO.P,RV905,3,3*
G04 #@! TO.N,Board_0-/Front board/MIXPOT_BRICK_F*
X177000000Y-116750000D03*
G04 #@! TD*
D14*
G04 #@! TO.P,SW901,1,1*
G04 #@! TO.N,Board_0-Net-(R25-Pad1)*
X147000000Y-140450000D03*
G04 #@! TO.P,SW901,2,2*
G04 #@! TO.N,Board_0-Net-(U1B-+)*
X147000000Y-135750000D03*
G04 #@! TO.P,SW901,3,3*
G04 #@! TO.N,Board_0-/Front board/FB_LEVEL*
X147000000Y-131050000D03*
G04 #@! TD*
D10*
G04 #@! TO.P,RV903,1,1*
G04 #@! TO.N,Board_0-GND*
X117000000Y-151750000D03*
G04 #@! TO.P,RV903,2,2*
G04 #@! TO.N,Board_0-/Front board/FB_LEVEL*
X122000000Y-151750000D03*
G04 #@! TO.P,RV903,3,3*
G04 #@! TO.N,Board_0-/Front board/AUDIO_IN_2*
X127000000Y-151750000D03*
G04 #@! TD*
D13*
G04 #@! TO.P,TP904,1,1*
G04 #@! TO.N,Board_0-+12V*
X192520000Y-132260000D03*
G04 #@! TD*
D10*
G04 #@! TO.P,RV902,1,1*
G04 #@! TO.N,Board_0-GND*
X117000000Y-116750000D03*
G04 #@! TO.P,RV902,2,2*
G04 #@! TO.N,Board_0-/Front board/CV_LEVEL*
X122000000Y-116750000D03*
G04 #@! TO.P,RV902,3,3*
G04 #@! TO.N,Board_0-/Front board/CV_IN*
X127000000Y-116750000D03*
G04 #@! TD*
D15*
G04 #@! TO.P,LED1,1,K*
G04 #@! TO.N,Board_0-/Front board/VAC_AN_F*
X135775000Y-89250000D03*
D16*
G04 #@! TO.P,LED1,2,A*
G04 #@! TO.N,Board_0-Net-(LED1-A)*
X133235000Y-89250000D03*
G04 #@! TD*
D10*
G04 #@! TO.P,RV904,1,1*
G04 #@! TO.N,Board_0-/Front board/EQ_POT_1_F*
X167000000Y-71750000D03*
G04 #@! TO.P,RV904,2,2*
G04 #@! TO.N,Board_0-/Front board/EQ_POT_2_F*
X172000000Y-71750000D03*
G04 #@! TO.P,RV904,3,3*
G04 #@! TO.N,Board_0-/Front board/EQ_POT_3_F*
X177000000Y-71750000D03*
G04 #@! TD*
D13*
G04 #@! TO.P,TP906,1,1*
G04 #@! TO.N,Board_0--12V*
X192520000Y-146230000D03*
G04 #@! TD*
D17*
G04 #@! TO.P,R26,1*
G04 #@! TO.N,Board_0-/Front board/FB_LEVEL*
X139380000Y-129720000D03*
D18*
G04 #@! TO.P,R26,2*
G04 #@! TO.N,Board_0-Net-(R25-Pad1)*
X139380000Y-139880000D03*
G04 #@! TD*
D17*
G04 #@! TO.P,R20,1*
G04 #@! TO.N,Board_0-Net-(U2B--)*
X144460000Y-105590000D03*
D18*
G04 #@! TO.P,R20,2*
G04 #@! TO.N,Board_0-Net-(R20-Pad2)*
X144460000Y-95430000D03*
G04 #@! TD*
D17*
G04 #@! TO.P,R16,1*
G04 #@! TO.N,Board_0-/Front board/CV_IN*
X154620000Y-105590000D03*
D18*
G04 #@! TO.P,R16,2*
G04 #@! TO.N,Board_0-Net-(U2B--)*
X154620000Y-95430000D03*
G04 #@! TD*
D19*
G04 #@! TO.P,U1,1*
G04 #@! TO.N,Board_0-/Front board/DRY_F*
X158194286Y-144950000D03*
D20*
G04 #@! TO.P,U1,2,-*
G04 #@! TO.N,Board_0-Net-(U1A--)*
X158194286Y-142410000D03*
G04 #@! TO.P,U1,3,+*
G04 #@! TO.N,Board_0-Net-(U1A-+)*
X158194286Y-139870000D03*
G04 #@! TO.P,U1,4,V-*
G04 #@! TO.N,Board_0--12V*
X158194286Y-137330000D03*
G04 #@! TO.P,U1,5,+*
G04 #@! TO.N,Board_0-Net-(U1B-+)*
X165814286Y-137330000D03*
G04 #@! TO.P,U1,6,-*
G04 #@! TO.N,Board_0-Net-(U1B--)*
X165814286Y-139870000D03*
G04 #@! TO.P,U1,7*
G04 #@! TO.N,Board_0-Net-(R7-Pad2)*
X165814286Y-142410000D03*
G04 #@! TO.P,U1,8,V+*
G04 #@! TO.N,Board_0-+12V*
X165814286Y-144950000D03*
G04 #@! TD*
D17*
G04 #@! TO.P,C7,1*
G04 #@! TO.N,Board_0-GND*
X156065000Y-85270000D03*
G04 #@! TO.P,C7,2*
G04 #@! TO.N,Board_0--12V*
X156065000Y-82770000D03*
G04 #@! TD*
D21*
G04 #@! TO.P,U2,1*
G04 #@! TO.N,Board_0-Net-(LED1-A)*
X144645000Y-82740000D03*
D22*
G04 #@! TO.P,U2,2,-*
G04 #@! TO.N,Board_0-/Front board/VAC_CA_F*
X147185000Y-82740000D03*
G04 #@! TO.P,U2,3,+*
G04 #@! TO.N,Board_0-Net-(U2A-+)*
X149725000Y-82740000D03*
G04 #@! TO.P,U2,4,V-*
G04 #@! TO.N,Board_0--12V*
X152265000Y-82740000D03*
G04 #@! TO.P,U2,5,+*
G04 #@! TO.N,Board_0-/Front board/CV_LEVEL*
X152265000Y-90360000D03*
G04 #@! TO.P,U2,6,-*
G04 #@! TO.N,Board_0-Net-(U2B--)*
X149725000Y-90360000D03*
G04 #@! TO.P,U2,7*
G04 #@! TO.N,Board_0-Net-(R20-Pad2)*
X147185000Y-90360000D03*
G04 #@! TO.P,U2,8,V+*
G04 #@! TO.N,Board_0-+12V*
X144645000Y-90360000D03*
G04 #@! TD*
D23*
G04 #@! TO.P,J909,1,Pin_1*
G04 #@! TO.N,Board_0-GND*
X185090000Y-124615000D03*
D24*
G04 #@! TO.P,J909,2,Pin_2*
G04 #@! TO.N,Board_0-+12V*
X182550000Y-124615000D03*
G04 #@! TO.P,J909,3,Pin_3*
G04 #@! TO.N,Board_0--12V*
X180010000Y-124615000D03*
G04 #@! TO.P,J909,4,Pin_4*
G04 #@! TO.N,Board_0-/Front board/TRIM_F*
X177470000Y-124615000D03*
G04 #@! TO.P,J909,5,Pin_5*
G04 #@! TO.N,Board_0-/Front board/VAC_AN_F*
X174930000Y-124615000D03*
G04 #@! TO.P,J909,6,Pin_6*
G04 #@! TO.N,Board_0-/Front board/VAC_CA_F*
X172390000Y-124615000D03*
G04 #@! TO.P,J909,7,Pin_7*
G04 #@! TO.N,Board_0-/Front board/MIXPOT_BRICK_F*
X169850000Y-124615000D03*
G04 #@! TO.P,J909,8,Pin_8*
G04 #@! TO.N,Board_0-/Front board/MIXPOT_SB_MIX_F*
X167310000Y-124615000D03*
G04 #@! TO.P,J909,9,Pin_9*
G04 #@! TO.N,Board_0-/Front board/MIXPOT_SPRING_F*
X164770000Y-124615000D03*
G04 #@! TD*
D17*
G04 #@! TO.P,R25,1*
G04 #@! TO.N,Board_0-Net-(R25-Pad1)*
X134300000Y-139880000D03*
D18*
G04 #@! TO.P,R25,2*
G04 #@! TO.N,Board_0-GND*
X134300000Y-129720000D03*
G04 #@! TD*
D17*
G04 #@! TO.P,R7,1*
G04 #@! TO.N,Board_0-Net-(U1B--)*
X171130000Y-139880000D03*
D18*
G04 #@! TO.P,R7,2*
G04 #@! TO.N,Board_0-Net-(R7-Pad2)*
X181290000Y-139880000D03*
G04 #@! TD*
D17*
G04 #@! TO.P,R1,1*
G04 #@! TO.N,Board_0-/Front board/FB_LEVEL*
X171130000Y-150040000D03*
D18*
G04 #@! TO.P,R1,2*
G04 #@! TO.N,Board_0-Net-(U1B--)*
X181290000Y-150040000D03*
G04 #@! TD*
D17*
G04 #@! TO.P,R12,1*
G04 #@! TO.N,Board_0-Net-(U1A--)*
X149540000Y-120830000D03*
D18*
G04 #@! TO.P,R12,2*
G04 #@! TO.N,Board_0-GND*
X149540000Y-110670000D03*
G04 #@! TD*
D17*
G04 #@! TO.P,R21,1*
G04 #@! TO.N,Board_0-/Front board/MIX*
X149665000Y-67490000D03*
D18*
G04 #@! TO.P,R21,2*
G04 #@! TO.N,Board_0-Net-(U2A-+)*
X149665000Y-77650000D03*
G04 #@! TD*
D17*
G04 #@! TO.P,R8,1*
G04 #@! TO.N,Board_0-/Front board/AUDIO_IN_1*
X139380000Y-110670000D03*
D18*
G04 #@! TO.P,R8,2*
G04 #@! TO.N,Board_0-Net-(U1A-+)*
X139380000Y-120830000D03*
G04 #@! TD*
D17*
G04 #@! TO.P,R22,1*
G04 #@! TO.N,Board_0-Net-(R20-Pad2)*
X149540000Y-95430000D03*
D18*
G04 #@! TO.P,R22,2*
G04 #@! TO.N,Board_0-Net-(U2A-+)*
X149540000Y-105590000D03*
G04 #@! TD*
D17*
G04 #@! TO.P,R24,1*
G04 #@! TO.N,Board_0-/Front board/VAC_CA_F*
X144585000Y-77650000D03*
D18*
G04 #@! TO.P,R24,2*
G04 #@! TO.N,Board_0-GND*
X144585000Y-67490000D03*
G04 #@! TD*
D17*
G04 #@! TO.P,C903,1*
G04 #@! TO.N,Board_0-+12V*
X163510000Y-148770000D03*
G04 #@! TO.P,C903,2*
G04 #@! TO.N,Board_0-GND*
X166010000Y-148770000D03*
G04 #@! TD*
G04 #@! TO.P,C6,1*
G04 #@! TO.N,Board_0-+12V*
X140825000Y-90350000D03*
G04 #@! TO.P,C6,2*
G04 #@! TO.N,Board_0-GND*
X140825000Y-87850000D03*
G04 #@! TD*
G04 #@! TO.P,C904,1*
G04 #@! TO.N,Board_0-GND*
X160724286Y-133530000D03*
G04 #@! TO.P,C904,2*
G04 #@! TO.N,Board_0--12V*
X158224286Y-133530000D03*
G04 #@! TD*
G04 #@! TO.P,R9,1*
G04 #@! TO.N,Board_0-Net-(R7-Pad2)*
X144470000Y-120820000D03*
D18*
G04 #@! TO.P,R9,2*
G04 #@! TO.N,Board_0-Net-(U1A-+)*
X144470000Y-110660000D03*
G04 #@! TD*
D23*
G04 #@! TO.P,J907,1,Pin_1*
G04 #@! TO.N,Board_0-/Front board/EQ_POT_1_F*
X164795000Y-82755000D03*
D24*
G04 #@! TO.P,J907,2,Pin_2*
G04 #@! TO.N,Board_0-/Front board/EQ_POT_2_F*
X167335000Y-82755000D03*
G04 #@! TO.P,J907,3,Pin_3*
G04 #@! TO.N,Board_0-/Front board/EQ_POT_3_F*
X169875000Y-82755000D03*
G04 #@! TO.P,J907,4,Pin_4*
G04 #@! TO.N,Board_0-/Front board/CV_IN*
X172415000Y-82755000D03*
G04 #@! TO.P,J907,5,Pin_5*
G04 #@! TO.N,Board_0-/Front board/AUDIO_IN_1*
X174955000Y-82755000D03*
G04 #@! TO.P,J907,6,Pin_6*
G04 #@! TO.N,Board_0-/Front board/AUDIO_IN_2*
X177495000Y-82755000D03*
G04 #@! TO.P,J907,7,Pin_7*
G04 #@! TO.N,Board_0-/Front board/DRY_F*
X180035000Y-82755000D03*
G04 #@! TO.P,J907,8,Pin_8*
G04 #@! TO.N,Board_0-GND*
X182575000Y-82755000D03*
G04 #@! TD*
D17*
G04 #@! TO.P,R13,1*
G04 #@! TO.N,Board_0-Net-(U1A--)*
X154620000Y-120830000D03*
D18*
G04 #@! TO.P,R13,2*
G04 #@! TO.N,Board_0-/Front board/DRY_F*
X154620000Y-110670000D03*
G04 #@! TD*
D17*
G04 #@! TO.P,R2,1*
G04 #@! TO.N,Board_0-Net-(U1B-+)*
X171130000Y-144960000D03*
D18*
G04 #@! TO.P,R2,2*
G04 #@! TO.N,Board_0-GND*
X181290000Y-144960000D03*
G04 #@! TD*
D17*
G04 #@! TO.P,R23,1*
G04 #@! TO.N,Board_0-Net-(U2A-+)*
X154745000Y-77650000D03*
D18*
G04 #@! TO.P,R23,2*
G04 #@! TO.N,Board_0-GND*
X154745000Y-67490000D03*
G04 #@! TD*
D25*
G04 #@! TO.N,Board_0-/Front board/VAC_AN_F*
X139761000Y-126037000D03*
G04 #@! TO.N,Board_0-/Front board/VAC_CA_F*
X148054732Y-123713500D03*
G04 #@! TO.N,Board_0-Net-(R7-Pad2)*
X160843000Y-122989000D03*
G04 #@! TD*
D26*
G04 #@! TO.N,Board_0-+12V*
X140825000Y-119989000D02*
X152269000Y-131433000D01*
X140825000Y-90350000D02*
X140825000Y-119989000D01*
X152269000Y-144365000D02*
X156674000Y-148770000D01*
X163510000Y-148770000D02*
X163510000Y-147254286D01*
X152269000Y-131433000D02*
X152269000Y-144365000D01*
D27*
X127000000Y-71750000D02*
X127000000Y-76525000D01*
D26*
X156674000Y-148770000D02*
X163510000Y-148770000D01*
D27*
X127000000Y-76525000D02*
X140825000Y-90350000D01*
D26*
X163510000Y-147254286D02*
X165814286Y-144950000D01*
D27*
G04 #@! TO.N,Board_0--12V*
X192520000Y-146230000D02*
X180010000Y-133720000D01*
D26*
X158224286Y-84929286D02*
X158224286Y-133530000D01*
X158194286Y-137330000D02*
X158194286Y-133560000D01*
D27*
X180010000Y-133720000D02*
X180010000Y-124615000D01*
D26*
X156065000Y-82770000D02*
X158224286Y-84929286D01*
X158194286Y-133560000D02*
X158224286Y-133530000D01*
D27*
G04 #@! TO.N,Board_0-/Front board/AUDIO_IN_2*
X177495000Y-82755000D02*
X178495000Y-83755000D01*
X170005000Y-140660000D02*
X173797000Y-144452000D01*
X170005000Y-138465000D02*
X170005000Y-140660000D01*
X173797000Y-144452000D02*
X173797000Y-149532000D01*
X176105000Y-121951690D02*
X176105000Y-132365000D01*
X178495000Y-83755000D02*
X178495000Y-119561690D01*
X178495000Y-119561690D02*
X176105000Y-121951690D01*
X173797000Y-149532000D02*
X171579000Y-151750000D01*
X171579000Y-151750000D02*
X127000000Y-151750000D01*
X176105000Y-132365000D02*
X170005000Y-138465000D01*
G04 #@! TO.N,Board_0-/Front board/DRY_F*
X152969000Y-139724714D02*
X158194286Y-144950000D01*
X152969000Y-112321000D02*
X152969000Y-139724714D01*
X154620000Y-110670000D02*
X152969000Y-112321000D01*
G04 #@! TO.N,Board_0-/Front board/EQ_POT_1_F*
X164795000Y-73955000D02*
X167000000Y-71750000D01*
X164795000Y-82755000D02*
X164795000Y-73955000D01*
G04 #@! TO.N,Board_0-/Front board/EQ_POT_2_F*
X167335000Y-76415000D02*
X172000000Y-71750000D01*
X167335000Y-82755000D02*
X167335000Y-76415000D01*
G04 #@! TO.N,Board_0-/Front board/EQ_POT_3_F*
X169875000Y-78875000D02*
X177000000Y-71750000D01*
X169875000Y-82755000D02*
X169875000Y-78875000D01*
G04 #@! TO.N,Board_0-/Front board/FB_LEVEL*
X149667000Y-133717000D02*
X149667000Y-146357000D01*
X149667000Y-146357000D02*
X153350000Y-150040000D01*
X153350000Y-150040000D02*
X171130000Y-150040000D01*
X122000000Y-151750000D02*
X122000000Y-147100000D01*
X122000000Y-147100000D02*
X139380000Y-129720000D01*
X147000000Y-131050000D02*
X149667000Y-133717000D01*
G04 #@! TO.N,Board_0-/Front board/MIXPOT_BRICK_F*
X177000000Y-116750000D02*
X177000000Y-120421000D01*
X177000000Y-120421000D02*
X173981000Y-123440000D01*
X173981000Y-123440000D02*
X171025000Y-123440000D01*
X171025000Y-123440000D02*
X169850000Y-124615000D01*
G04 #@! TO.N,Board_0-/Front board/MIXPOT_SB_MIX_F*
X172000000Y-116750000D02*
X172000000Y-119925000D01*
X172000000Y-119925000D02*
X167310000Y-124615000D01*
G04 #@! TO.N,Board_0-/Front board/MIXPOT_SPRING_F*
X167000000Y-122385000D02*
X164770000Y-124615000D01*
X167000000Y-116750000D02*
X167000000Y-122385000D01*
G04 #@! TO.N,Board_0-/Front board/TRIM_F*
X184460000Y-117625000D02*
X177470000Y-124615000D01*
X184460000Y-101060000D02*
X184460000Y-117625000D01*
G04 #@! TO.N,Board_0-/Front board/VAC_AN_F*
X135775000Y-89250000D02*
X135775000Y-122051000D01*
X135775000Y-122051000D02*
X139761000Y-126037000D01*
G04 #@! TO.N,Board_0-/Front board/VAC_CA_F*
X143335000Y-92714009D02*
X148054732Y-97433741D01*
X143335000Y-86590000D02*
X143335000Y-92714009D01*
X144585000Y-77650000D02*
X144585000Y-80140000D01*
X148054732Y-97433741D02*
X148054732Y-123713500D01*
X147185000Y-82740000D02*
X143335000Y-86590000D01*
X144585000Y-80140000D02*
X147185000Y-82740000D01*
G04 #@! TO.N,Board_0-Net-(R20-Pad2)*
X147185000Y-94853000D02*
X147185000Y-90360000D01*
X149540000Y-95430000D02*
X147762000Y-95430000D01*
X147762000Y-95430000D02*
X147185000Y-94853000D01*
G04 #@! TO.N,Board_0-Net-(R25-Pad1)*
X139380000Y-139880000D02*
X134300000Y-139880000D01*
G04 #@! TO.N,Board_0-Net-(R7-Pad2)*
X165814286Y-142410000D02*
X161849286Y-138445000D01*
X161849286Y-123995286D02*
X160843000Y-122989000D01*
X161849286Y-138445000D02*
X161849286Y-123995286D01*
G04 #@! TO.N,Board_0-Net-(U1A--)*
X154620000Y-120830000D02*
X154620000Y-138835714D01*
X154620000Y-138835714D02*
X158194286Y-142410000D01*
G04 #@! TO.N,Board_0-Net-(U1B-+)*
X167320000Y-141150000D02*
X171130000Y-144960000D01*
X165814286Y-137330000D02*
X165814286Y-137612286D01*
X167339286Y-140335990D02*
X167320000Y-140355276D01*
X167339286Y-139137286D02*
X167339286Y-140335990D01*
X165814286Y-137612286D02*
X167339286Y-139137286D01*
X167320000Y-140355276D02*
X167320000Y-141150000D01*
G04 #@! TO.N,Board_0-Net-(U1B--)*
X171130000Y-139880000D02*
X181290000Y-150040000D01*
G04 #@! TO.N,Board_0-Net-(U2A-+)*
X149665000Y-82680000D02*
X149725000Y-82740000D01*
X145770000Y-86695000D02*
X149725000Y-82740000D01*
X149665000Y-77650000D02*
X149665000Y-82680000D01*
X149540000Y-105590000D02*
X149540000Y-98283319D01*
X145770000Y-94513319D02*
X145770000Y-86695000D01*
X149540000Y-98283319D02*
X145770000Y-94513319D01*
G04 #@! TO.N,Board_0-Net-(U2B--)*
X154620000Y-95430000D02*
X149725000Y-90535000D01*
X149725000Y-90535000D02*
X149725000Y-90360000D01*
G04 #@! TD*
G04 #@! TA.AperFunction,Conductor*
G04 #@! TO.N,Board_0-GND*
G36*
X194911500Y-44292381D02*
G01*
X194957619Y-44338500D01*
X194974500Y-44401500D01*
X194974500Y-155598500D01*
X194957619Y-155661500D01*
X194911500Y-155707619D01*
X194848500Y-155724500D01*
X105151500Y-155724500D01*
X105088500Y-155707619D01*
X105042381Y-155661500D01*
X105025500Y-155598500D01*
X105025500Y-153103199D01*
X116006011Y-153103199D01*
X116158644Y-153207263D01*
X116385241Y-153316387D01*
X116625559Y-153390514D01*
X116874254Y-153428000D01*
X117125746Y-153428000D01*
X117374440Y-153390514D01*
X117614761Y-153316386D01*
X117841349Y-153207266D01*
X117993988Y-153103198D01*
X117000001Y-152109210D01*
X116999999Y-152109210D01*
X116006011Y-153103197D01*
X116006011Y-153103199D01*
X105025500Y-153103199D01*
X105025500Y-151750000D01*
X115317295Y-151750000D01*
X115336089Y-152000795D01*
X115392053Y-152245987D01*
X115483935Y-152480098D01*
X115609684Y-152697901D01*
X115646597Y-152744189D01*
X115646599Y-152744189D01*
X116640789Y-151750001D01*
X117359210Y-151750001D01*
X118353400Y-152744190D01*
X118353401Y-152744190D01*
X118390317Y-152697899D01*
X118516064Y-152480099D01*
X118607946Y-152245987D01*
X118663910Y-152000795D01*
X118682704Y-151750000D01*
X120316793Y-151750000D01*
X120335593Y-152000871D01*
X120391572Y-152246133D01*
X120476869Y-152463465D01*
X120483483Y-152480316D01*
X120609269Y-152698184D01*
X120766122Y-152894872D01*
X120932533Y-153049278D01*
X120950541Y-153065987D01*
X121106432Y-153172270D01*
X121158397Y-153207700D01*
X121275901Y-153264287D01*
X121385054Y-153316853D01*
X121438667Y-153333390D01*
X121625451Y-153391005D01*
X121874214Y-153428500D01*
X122125784Y-153428500D01*
X122125786Y-153428500D01*
X122374549Y-153391005D01*
X122614945Y-153316853D01*
X122841604Y-153207700D01*
X123049462Y-153065984D01*
X123233878Y-152894872D01*
X123390731Y-152698184D01*
X123516517Y-152480316D01*
X123608427Y-152246134D01*
X123664407Y-152000869D01*
X123683207Y-151750000D01*
X125316793Y-151750000D01*
X125335593Y-152000871D01*
X125391572Y-152246133D01*
X125476869Y-152463465D01*
X125483483Y-152480316D01*
X125609269Y-152698184D01*
X125766122Y-152894872D01*
X125932533Y-153049278D01*
X125950541Y-153065987D01*
X126106432Y-153172270D01*
X126158397Y-153207700D01*
X126275901Y-153264287D01*
X126385054Y-153316853D01*
X126438667Y-153333390D01*
X126625451Y-153391005D01*
X126874214Y-153428500D01*
X127125784Y-153428500D01*
X127125786Y-153428500D01*
X127374549Y-153391005D01*
X127614945Y-153316853D01*
X127841604Y-153207700D01*
X128049462Y-153065984D01*
X128233878Y-152894872D01*
X128390731Y-152698184D01*
X128516517Y-152480316D01*
X128523131Y-152463465D01*
X128550222Y-152421521D01*
X128591478Y-152393394D01*
X128640420Y-152383500D01*
X171495147Y-152383500D01*
X171515935Y-152385795D01*
X171518907Y-152385701D01*
X171518909Y-152385702D01*
X171586985Y-152383562D01*
X171590945Y-152383500D01*
X171618852Y-152383500D01*
X171618856Y-152383500D01*
X171622865Y-152382993D01*
X171634699Y-152382061D01*
X171678889Y-152380673D01*
X171698338Y-152375021D01*
X171717698Y-152371012D01*
X171737797Y-152368474D01*
X171778915Y-152352193D01*
X171790117Y-152348357D01*
X171832593Y-152336018D01*
X171850039Y-152325699D01*
X171867780Y-152317009D01*
X171886617Y-152309552D01*
X171922392Y-152283558D01*
X171932303Y-152277048D01*
X171970362Y-152254542D01*
X171984691Y-152240212D01*
X171999719Y-152227377D01*
X172016107Y-152215472D01*
X172044303Y-152181386D01*
X172052272Y-152172630D01*
X174185658Y-150039244D01*
X174201979Y-150026170D01*
X174204014Y-150024002D01*
X174204018Y-150024000D01*
X174250676Y-149974312D01*
X174253367Y-149971535D01*
X174273135Y-149951769D01*
X174275611Y-149948576D01*
X174283316Y-149939553D01*
X174313586Y-149907321D01*
X174323345Y-149889567D01*
X174334198Y-149873045D01*
X174346614Y-149857040D01*
X174364174Y-149816459D01*
X174369388Y-149805815D01*
X174390695Y-149767060D01*
X174395732Y-149747439D01*
X174402138Y-149728730D01*
X174410181Y-149710144D01*
X174417096Y-149666481D01*
X174419504Y-149654853D01*
X174430500Y-149612029D01*
X174430500Y-149591776D01*
X174432051Y-149572066D01*
X174435220Y-149552057D01*
X174431059Y-149508039D01*
X174430500Y-149496181D01*
X174430500Y-144535853D01*
X174432795Y-144515063D01*
X174432446Y-144503971D01*
X174430561Y-144444000D01*
X174430500Y-144440043D01*
X174430500Y-144412149D01*
X174430500Y-144412144D01*
X174429993Y-144408138D01*
X174429062Y-144396306D01*
X174428632Y-144382619D01*
X174440901Y-144324300D01*
X174478601Y-144278142D01*
X174533297Y-144254473D01*
X174592753Y-144258589D01*
X174643664Y-144289568D01*
X177319619Y-146965524D01*
X179980847Y-149626752D01*
X180013458Y-149683235D01*
X180013459Y-149748457D01*
X179996457Y-149811910D01*
X179976502Y-150040000D01*
X179996457Y-150268087D01*
X180055715Y-150489243D01*
X180152477Y-150696750D01*
X180283804Y-150884303D01*
X180445696Y-151046195D01*
X180633249Y-151177522D01*
X180840756Y-151274284D01*
X180900014Y-151290162D01*
X181061913Y-151333543D01*
X181290000Y-151353498D01*
X181518087Y-151333543D01*
X181739243Y-151274284D01*
X181946749Y-151177523D01*
X182134300Y-151046198D01*
X182296198Y-150884300D01*
X182427523Y-150696749D01*
X182524284Y-150489243D01*
X182583543Y-150268087D01*
X182603498Y-150040000D01*
X182583543Y-149811913D01*
X182524284Y-149590757D01*
X182520134Y-149581858D01*
X182427522Y-149383249D01*
X182296195Y-149195696D01*
X182134303Y-149033804D01*
X181946750Y-148902477D01*
X181739243Y-148805715D01*
X181518087Y-148746457D01*
X181290000Y-148726502D01*
X181061910Y-148746457D01*
X180998456Y-148763459D01*
X180933234Y-148763458D01*
X180876751Y-148730847D01*
X177359904Y-145214000D01*
X180003918Y-145214000D01*
X180056186Y-145409070D01*
X180152912Y-145616498D01*
X180284189Y-145803981D01*
X180446018Y-145965810D01*
X180633501Y-146097087D01*
X180840929Y-146193813D01*
X181036000Y-146246082D01*
X181036000Y-145214000D01*
X181544000Y-145214000D01*
X181544000Y-146246082D01*
X181739070Y-146193813D01*
X181946498Y-146097087D01*
X182133981Y-145965810D01*
X182295810Y-145803981D01*
X182427087Y-145616498D01*
X182523813Y-145409070D01*
X182576082Y-145214000D01*
X181544000Y-145214000D01*
X181036000Y-145214000D01*
X180003918Y-145214000D01*
X177359904Y-145214000D01*
X176851904Y-144706000D01*
X180003917Y-144706000D01*
X181036000Y-144706000D01*
X181036000Y-143673917D01*
X181543999Y-143673917D01*
X181544000Y-143673918D01*
X181544000Y-144706000D01*
X182576082Y-144706000D01*
X182523813Y-144510929D01*
X182427087Y-144303501D01*
X182295810Y-144116018D01*
X182133981Y-143954189D01*
X181946498Y-143822912D01*
X181739070Y-143726186D01*
X181543999Y-143673917D01*
X181036000Y-143673917D01*
X180840929Y-143726186D01*
X180633501Y-143822912D01*
X180446018Y-143954189D01*
X180284189Y-144116018D01*
X180152912Y-144303501D01*
X180056186Y-144510929D01*
X180003917Y-144706000D01*
X176851904Y-144706000D01*
X172439151Y-140293246D01*
X172406539Y-140236761D01*
X172406539Y-140171541D01*
X172423543Y-140108087D01*
X172443498Y-139880000D01*
X179976502Y-139880000D01*
X179996457Y-140108087D01*
X180055715Y-140329243D01*
X180152477Y-140536750D01*
X180283804Y-140724303D01*
X180445696Y-140886195D01*
X180633249Y-141017522D01*
X180840756Y-141114284D01*
X180875595Y-141123619D01*
X181061913Y-141173543D01*
X181290000Y-141193498D01*
X181518087Y-141173543D01*
X181739243Y-141114284D01*
X181946749Y-141017523D01*
X182134300Y-140886198D01*
X182296198Y-140724300D01*
X182427523Y-140536749D01*
X182524284Y-140329243D01*
X182583543Y-140108087D01*
X182603498Y-139880000D01*
X182583543Y-139651913D01*
X182540110Y-139489819D01*
X182524284Y-139430756D01*
X182427522Y-139223249D01*
X182297386Y-139037397D01*
X182296198Y-139035700D01*
X182296197Y-139035699D01*
X182296195Y-139035696D01*
X182134303Y-138873804D01*
X181946750Y-138742477D01*
X181739243Y-138645715D01*
X181518087Y-138586457D01*
X181290000Y-138566502D01*
X181061912Y-138586457D01*
X180840756Y-138645715D01*
X180633249Y-138742477D01*
X180445696Y-138873804D01*
X180283804Y-139035696D01*
X180152477Y-139223249D01*
X180055715Y-139430756D01*
X179996457Y-139651912D01*
X179976502Y-139880000D01*
X172443498Y-139880000D01*
X172423543Y-139651913D01*
X172380110Y-139489819D01*
X172364284Y-139430756D01*
X172267522Y-139223249D01*
X172137386Y-139037397D01*
X172136198Y-139035700D01*
X172136197Y-139035699D01*
X172136195Y-139035696D01*
X171974303Y-138873804D01*
X171786750Y-138742477D01*
X171579243Y-138645715D01*
X171358087Y-138586457D01*
X171358086Y-138586456D01*
X171130000Y-138566502D01*
X171129998Y-138566502D01*
X171129996Y-138566502D01*
X171112564Y-138568027D01*
X171052351Y-138558488D01*
X171003664Y-138521799D01*
X170977901Y-138466546D01*
X170981092Y-138405666D01*
X171012489Y-138353413D01*
X176493659Y-132872244D01*
X176509980Y-132859169D01*
X176512014Y-132857001D01*
X176512018Y-132857000D01*
X176558660Y-132807329D01*
X176561351Y-132804552D01*
X176581135Y-132784770D01*
X176583621Y-132781564D01*
X176591310Y-132772561D01*
X176621586Y-132740321D01*
X176631342Y-132722571D01*
X176642195Y-132706050D01*
X176654614Y-132690041D01*
X176672175Y-132649454D01*
X176677388Y-132638813D01*
X176698695Y-132600060D01*
X176703733Y-132580434D01*
X176710137Y-132561732D01*
X176711778Y-132557941D01*
X176718181Y-132543145D01*
X176725096Y-132499481D01*
X176727504Y-132487853D01*
X176738500Y-132445029D01*
X176738500Y-132424776D01*
X176740051Y-132405066D01*
X176743220Y-132385057D01*
X176739059Y-132341039D01*
X176738500Y-132329181D01*
X176738500Y-125975262D01*
X176754949Y-125913017D01*
X176800000Y-125867023D01*
X176861892Y-125849289D01*
X176912041Y-125861436D01*
X176912551Y-125859952D01*
X176922426Y-125863342D01*
X177135365Y-125936444D01*
X177357431Y-125973500D01*
X177582566Y-125973500D01*
X177582569Y-125973500D01*
X177804635Y-125936444D01*
X178017574Y-125863342D01*
X178215576Y-125756189D01*
X178393240Y-125617906D01*
X178545722Y-125452268D01*
X178634518Y-125316354D01*
X178680031Y-125274458D01*
X178740000Y-125259272D01*
X178799969Y-125274458D01*
X178845481Y-125316354D01*
X178934278Y-125452268D01*
X178993707Y-125516825D01*
X179086762Y-125617908D01*
X179264418Y-125756185D01*
X179264420Y-125756186D01*
X179264424Y-125756189D01*
X179310471Y-125781108D01*
X179358741Y-125827424D01*
X179376500Y-125891921D01*
X179376500Y-133636147D01*
X179374204Y-133656935D01*
X179376438Y-133727986D01*
X179376500Y-133731945D01*
X179376500Y-133759857D01*
X179377007Y-133763873D01*
X179377937Y-133775696D01*
X179379326Y-133819892D01*
X179384977Y-133839341D01*
X179388986Y-133858696D01*
X179391525Y-133878794D01*
X179391525Y-133878796D01*
X179391526Y-133878797D01*
X179407054Y-133918018D01*
X179407801Y-133919903D01*
X179411644Y-133931130D01*
X179423980Y-133973590D01*
X179434294Y-133991030D01*
X179442987Y-134008774D01*
X179450448Y-134027617D01*
X179450449Y-134027619D01*
X179476431Y-134063380D01*
X179482948Y-134073301D01*
X179505458Y-134111363D01*
X179519778Y-134125683D01*
X179532618Y-134140716D01*
X179544526Y-134157105D01*
X179578598Y-134185292D01*
X179587378Y-134193282D01*
X191251672Y-145857576D01*
X191284283Y-145914059D01*
X191284284Y-145979281D01*
X191275885Y-146010626D01*
X191256693Y-146229999D01*
X191275885Y-146449375D01*
X191332879Y-146662074D01*
X191425943Y-146861653D01*
X191552253Y-147042041D01*
X191707958Y-147197746D01*
X191707961Y-147197748D01*
X191707962Y-147197749D01*
X191888346Y-147324056D01*
X192087924Y-147417120D01*
X192181707Y-147442249D01*
X192300624Y-147474114D01*
X192300625Y-147474114D01*
X192300629Y-147474115D01*
X192520000Y-147493307D01*
X192739371Y-147474115D01*
X192952076Y-147417120D01*
X193151654Y-147324056D01*
X193332038Y-147197749D01*
X193487749Y-147042038D01*
X193614056Y-146861654D01*
X193707120Y-146662076D01*
X193764115Y-146449371D01*
X193783307Y-146230000D01*
X193764115Y-146010629D01*
X193736887Y-145909016D01*
X193707120Y-145797925D01*
X193705431Y-145794303D01*
X193614056Y-145598347D01*
X193487749Y-145417962D01*
X193487748Y-145417961D01*
X193487746Y-145417958D01*
X193332041Y-145262253D01*
X193151653Y-145135943D01*
X192952074Y-145042879D01*
X192739375Y-144985885D01*
X192520000Y-144966693D01*
X192300626Y-144985885D01*
X192269281Y-144994284D01*
X192204059Y-144994283D01*
X192147576Y-144961672D01*
X188117102Y-140931198D01*
X191828012Y-140931198D01*
X191888595Y-140973620D01*
X192088094Y-141066649D01*
X192300715Y-141123619D01*
X192520000Y-141142804D01*
X192739284Y-141123619D01*
X192951904Y-141066649D01*
X193151405Y-140973619D01*
X193211986Y-140931198D01*
X193211986Y-140931197D01*
X192520000Y-140239210D01*
X192519999Y-140239210D01*
X191828012Y-140931196D01*
X191828012Y-140931198D01*
X188117102Y-140931198D01*
X187065904Y-139880000D01*
X191257195Y-139880000D01*
X191276380Y-140099284D01*
X191333350Y-140311905D01*
X191426379Y-140511403D01*
X191468801Y-140571986D01*
X192160789Y-139880000D01*
X192879210Y-139880000D01*
X193571197Y-140571986D01*
X193571198Y-140571986D01*
X193613619Y-140511405D01*
X193706649Y-140311904D01*
X193763619Y-140099284D01*
X193782804Y-139880000D01*
X193763619Y-139660715D01*
X193706649Y-139448095D01*
X193613620Y-139248597D01*
X193571198Y-139188012D01*
X193571196Y-139188012D01*
X192879210Y-139879999D01*
X192879210Y-139880000D01*
X192160789Y-139880000D01*
X192160789Y-139879999D01*
X191468801Y-139188011D01*
X191426378Y-139248598D01*
X191333351Y-139448092D01*
X191276380Y-139660715D01*
X191257195Y-139880000D01*
X187065904Y-139880000D01*
X186418167Y-139232263D01*
X186014705Y-138828801D01*
X191828011Y-138828801D01*
X192519999Y-139520789D01*
X192520000Y-139520789D01*
X193211986Y-138828801D01*
X193211986Y-138828800D01*
X193151403Y-138786379D01*
X192951905Y-138693350D01*
X192739284Y-138636380D01*
X192520000Y-138617195D01*
X192300715Y-138636380D01*
X192088092Y-138693351D01*
X191888598Y-138786378D01*
X191828011Y-138828801D01*
X186014705Y-138828801D01*
X180680405Y-133494500D01*
X180653091Y-133453623D01*
X180643500Y-133405405D01*
X180643500Y-132259999D01*
X191256693Y-132259999D01*
X191275885Y-132479375D01*
X191332879Y-132692074D01*
X191425943Y-132891653D01*
X191552253Y-133072041D01*
X191707958Y-133227746D01*
X191707961Y-133227748D01*
X191707962Y-133227749D01*
X191888346Y-133354056D01*
X192087924Y-133447120D01*
X192127017Y-133457595D01*
X192300624Y-133504114D01*
X192300625Y-133504114D01*
X192300629Y-133504115D01*
X192520000Y-133523307D01*
X192739371Y-133504115D01*
X192952076Y-133447120D01*
X193151654Y-133354056D01*
X193332038Y-133227749D01*
X193487749Y-133072038D01*
X193614056Y-132891654D01*
X193707120Y-132692076D01*
X193764115Y-132479371D01*
X193783307Y-132260000D01*
X193764115Y-132040629D01*
X193755370Y-132007994D01*
X193707120Y-131827925D01*
X193614056Y-131628347D01*
X193487746Y-131447958D01*
X193332041Y-131292253D01*
X193151653Y-131165943D01*
X192952074Y-131072879D01*
X192739375Y-131015885D01*
X192520000Y-130996693D01*
X192300624Y-131015885D01*
X192087925Y-131072879D01*
X191888347Y-131165943D01*
X191707958Y-131292253D01*
X191552253Y-131447958D01*
X191425943Y-131628347D01*
X191332879Y-131827925D01*
X191275885Y-132040624D01*
X191256693Y-132259999D01*
X180643500Y-132259999D01*
X180643500Y-125891921D01*
X180661259Y-125827424D01*
X180709528Y-125781108D01*
X180755576Y-125756189D01*
X180933240Y-125617906D01*
X181085722Y-125452268D01*
X181174518Y-125316354D01*
X181220031Y-125274458D01*
X181280000Y-125259272D01*
X181339969Y-125274458D01*
X181385481Y-125316354D01*
X181474278Y-125452268D01*
X181533707Y-125516825D01*
X181626762Y-125617908D01*
X181804421Y-125756187D01*
X181804424Y-125756189D01*
X182002426Y-125863342D01*
X182215365Y-125936444D01*
X182437431Y-125973500D01*
X182662566Y-125973500D01*
X182662569Y-125973500D01*
X182884635Y-125936444D01*
X183097574Y-125863342D01*
X183295576Y-125756189D01*
X183473240Y-125617906D01*
X183534627Y-125551222D01*
X183588096Y-125516825D01*
X183651557Y-125512914D01*
X183708849Y-125540490D01*
X183745381Y-125592529D01*
X183789554Y-125710963D01*
X183877095Y-125827904D01*
X183994037Y-125915445D01*
X184130906Y-125966494D01*
X184191411Y-125973000D01*
X184836000Y-125973000D01*
X184836000Y-124869000D01*
X185344000Y-124869000D01*
X185344000Y-125973000D01*
X185988589Y-125973000D01*
X186049093Y-125966494D01*
X186185962Y-125915445D01*
X186302904Y-125827904D01*
X186390445Y-125710962D01*
X186441494Y-125574093D01*
X186448000Y-125513589D01*
X186448000Y-124869000D01*
X185344000Y-124869000D01*
X184836000Y-124869000D01*
X184836000Y-123257000D01*
X185344000Y-123257000D01*
X185344000Y-124361000D01*
X186448000Y-124361000D01*
X186448000Y-123716411D01*
X186441494Y-123655906D01*
X186390445Y-123519037D01*
X186302904Y-123402095D01*
X186185962Y-123314554D01*
X186049093Y-123263505D01*
X185988589Y-123257000D01*
X185344000Y-123257000D01*
X184836000Y-123257000D01*
X184191411Y-123257000D01*
X184130906Y-123263505D01*
X183994037Y-123314554D01*
X183877095Y-123402095D01*
X183789554Y-123519036D01*
X183745381Y-123637470D01*
X183708849Y-123689509D01*
X183651558Y-123717085D01*
X183588096Y-123713175D01*
X183534624Y-123678774D01*
X183473240Y-123612093D01*
X183295578Y-123473812D01*
X183097573Y-123366657D01*
X182945800Y-123314554D01*
X182884635Y-123293556D01*
X182662569Y-123256500D01*
X182437431Y-123256500D01*
X182215365Y-123293556D01*
X182215362Y-123293556D01*
X182215362Y-123293557D01*
X182002426Y-123366657D01*
X181804421Y-123473812D01*
X181626762Y-123612091D01*
X181474278Y-123777731D01*
X181385483Y-123913643D01*
X181339969Y-123955541D01*
X181280000Y-123970727D01*
X181220031Y-123955541D01*
X181174517Y-123913643D01*
X181138028Y-123857793D01*
X181085722Y-123777732D01*
X180933240Y-123612094D01*
X180933239Y-123612093D01*
X180933237Y-123612091D01*
X180755578Y-123473812D01*
X180557573Y-123366657D01*
X180405800Y-123314554D01*
X180344635Y-123293556D01*
X180122569Y-123256500D01*
X180028593Y-123256500D01*
X179971390Y-123242767D01*
X179926657Y-123204561D01*
X179904144Y-123150211D01*
X179908760Y-123091564D01*
X179939498Y-123041405D01*
X182199235Y-120781668D01*
X184848659Y-118132244D01*
X184864980Y-118119169D01*
X184867014Y-118117001D01*
X184867018Y-118117000D01*
X184913660Y-118067329D01*
X184916351Y-118064552D01*
X184936135Y-118044770D01*
X184938621Y-118041564D01*
X184946310Y-118032561D01*
X184976586Y-118000321D01*
X184986342Y-117982571D01*
X184997195Y-117966050D01*
X185009614Y-117950041D01*
X185027175Y-117909454D01*
X185032388Y-117898813D01*
X185053695Y-117860060D01*
X185058733Y-117840434D01*
X185065137Y-117821732D01*
X185073181Y-117803144D01*
X185080096Y-117759482D01*
X185082504Y-117747853D01*
X185093500Y-117705029D01*
X185093500Y-117684776D01*
X185095051Y-117665066D01*
X185098220Y-117645057D01*
X185094059Y-117601039D01*
X185093500Y-117589181D01*
X185093500Y-102394058D01*
X185108202Y-102334993D01*
X185148876Y-102289711D01*
X185206031Y-102268780D01*
X185208635Y-102268500D01*
X185208638Y-102268500D01*
X185269201Y-102261989D01*
X185406204Y-102210889D01*
X185523261Y-102123261D01*
X185559166Y-102075297D01*
X188883912Y-102075297D01*
X188933691Y-102110153D01*
X189125261Y-102199484D01*
X189329431Y-102254191D01*
X189540000Y-102272613D01*
X189750568Y-102254191D01*
X189954740Y-102199483D01*
X190146304Y-102110156D01*
X190196087Y-102075297D01*
X190196087Y-102075296D01*
X189540001Y-101419210D01*
X189540000Y-101419210D01*
X188883912Y-102075296D01*
X188883912Y-102075297D01*
X185559166Y-102075297D01*
X185610889Y-102006204D01*
X185661989Y-101869201D01*
X185668500Y-101808638D01*
X185668500Y-101060000D01*
X188327386Y-101060000D01*
X188345808Y-101270568D01*
X188400515Y-101474738D01*
X188489846Y-101666308D01*
X188524701Y-101716086D01*
X188524702Y-101716086D01*
X189180789Y-101060001D01*
X189899210Y-101060001D01*
X190555296Y-101716087D01*
X190555297Y-101716087D01*
X190590156Y-101666304D01*
X190679483Y-101474740D01*
X190734191Y-101270568D01*
X190752613Y-101060000D01*
X190734191Y-100849431D01*
X190679484Y-100645261D01*
X190590153Y-100453691D01*
X190555297Y-100403912D01*
X190555296Y-100403912D01*
X189899210Y-101060000D01*
X189899210Y-101060001D01*
X189180789Y-101060001D01*
X189180790Y-101060000D01*
X189180790Y-101059999D01*
X188524703Y-100403912D01*
X188524702Y-100403912D01*
X188489845Y-100453693D01*
X188400515Y-100645262D01*
X188345808Y-100849431D01*
X188327386Y-101060000D01*
X185668500Y-101060000D01*
X185668500Y-100311362D01*
X185661989Y-100250799D01*
X185610889Y-100113796D01*
X185610888Y-100113794D01*
X185559167Y-100044703D01*
X188883912Y-100044703D01*
X189539999Y-100700790D01*
X189540000Y-100700790D01*
X190196086Y-100044702D01*
X190196086Y-100044701D01*
X190146308Y-100009846D01*
X189954738Y-99920515D01*
X189750568Y-99865808D01*
X189539999Y-99847386D01*
X189329431Y-99865808D01*
X189125262Y-99920515D01*
X188933693Y-100009845D01*
X188883912Y-100044702D01*
X188883912Y-100044703D01*
X185559167Y-100044703D01*
X185523261Y-99996738D01*
X185406205Y-99909111D01*
X185290105Y-99865808D01*
X185269201Y-99858011D01*
X185208638Y-99851500D01*
X183711362Y-99851500D01*
X183650799Y-99858011D01*
X183513794Y-99909111D01*
X183396738Y-99996738D01*
X183309111Y-100113794D01*
X183258011Y-100250799D01*
X183251500Y-100311362D01*
X183251500Y-101808638D01*
X183258011Y-101869200D01*
X183309111Y-102006205D01*
X183396738Y-102123261D01*
X183513794Y-102210888D01*
X183513795Y-102210888D01*
X183513796Y-102210889D01*
X183650799Y-102261989D01*
X183711362Y-102268500D01*
X183711365Y-102268500D01*
X183713969Y-102268780D01*
X183771124Y-102289711D01*
X183811798Y-102334993D01*
X183826500Y-102394058D01*
X183826500Y-117310406D01*
X183816909Y-117358624D01*
X183789595Y-117399501D01*
X177927922Y-123261171D01*
X177867235Y-123294832D01*
X177815452Y-123292158D01*
X177814932Y-123295275D01*
X177804639Y-123293557D01*
X177804635Y-123293556D01*
X177582569Y-123256500D01*
X177357431Y-123256500D01*
X177135365Y-123293556D01*
X177135362Y-123293556D01*
X177135362Y-123293557D01*
X176912551Y-123370048D01*
X176912041Y-123368563D01*
X176861892Y-123380711D01*
X176800000Y-123362977D01*
X176754949Y-123316983D01*
X176738500Y-123254738D01*
X176738500Y-122266284D01*
X176748091Y-122218066D01*
X176775405Y-122177189D01*
X177294435Y-121658159D01*
X178883658Y-120068934D01*
X178899979Y-120055860D01*
X178902014Y-120053692D01*
X178902018Y-120053690D01*
X178948677Y-120004001D01*
X178951368Y-120001224D01*
X178971134Y-119981460D01*
X178973605Y-119978273D01*
X178981312Y-119969249D01*
X179011586Y-119937011D01*
X179021343Y-119919260D01*
X179032199Y-119902733D01*
X179044613Y-119886731D01*
X179062172Y-119846151D01*
X179067392Y-119835499D01*
X179088694Y-119796751D01*
X179088695Y-119796750D01*
X179093732Y-119777129D01*
X179100138Y-119758420D01*
X179108181Y-119739835D01*
X179115096Y-119696166D01*
X179117496Y-119684571D01*
X179128500Y-119641720D01*
X179128500Y-119621459D01*
X179130051Y-119601748D01*
X179133219Y-119581747D01*
X179129058Y-119537735D01*
X179128500Y-119525879D01*
X179128500Y-99535297D01*
X186343912Y-99535297D01*
X186393691Y-99570153D01*
X186585261Y-99659484D01*
X186789431Y-99714191D01*
X187000000Y-99732613D01*
X187210568Y-99714191D01*
X187414740Y-99659483D01*
X187606304Y-99570156D01*
X187656087Y-99535297D01*
X187656087Y-99535296D01*
X187000001Y-98879210D01*
X187000000Y-98879210D01*
X186343912Y-99535296D01*
X186343912Y-99535297D01*
X179128500Y-99535297D01*
X179128500Y-98519999D01*
X185787386Y-98519999D01*
X185805808Y-98730568D01*
X185860515Y-98934738D01*
X185949846Y-99126308D01*
X185984701Y-99176086D01*
X185984702Y-99176086D01*
X186640789Y-98520001D01*
X187359210Y-98520001D01*
X188015296Y-99176087D01*
X188015297Y-99176087D01*
X188050156Y-99126304D01*
X188139483Y-98934740D01*
X188194191Y-98730568D01*
X188212613Y-98520000D01*
X188194191Y-98309431D01*
X188139484Y-98105261D01*
X188050153Y-97913691D01*
X188015297Y-97863912D01*
X188015296Y-97863912D01*
X187359210Y-98520000D01*
X187359210Y-98520001D01*
X186640789Y-98520001D01*
X186640790Y-98520000D01*
X186640790Y-98519999D01*
X185984703Y-97863912D01*
X185984702Y-97863912D01*
X185949845Y-97913693D01*
X185860515Y-98105262D01*
X185805808Y-98309431D01*
X185787386Y-98519999D01*
X179128500Y-98519999D01*
X179128500Y-97504703D01*
X186343912Y-97504703D01*
X186999999Y-98160790D01*
X187000000Y-98160790D01*
X187656086Y-97504702D01*
X187656086Y-97504701D01*
X187606308Y-97469846D01*
X187414738Y-97380515D01*
X187210568Y-97325808D01*
X187000000Y-97307386D01*
X186789431Y-97325808D01*
X186585262Y-97380515D01*
X186393693Y-97469845D01*
X186343912Y-97504702D01*
X186343912Y-97504703D01*
X179128500Y-97504703D01*
X179128500Y-84020556D01*
X179144949Y-83958309D01*
X179190003Y-83912315D01*
X179251896Y-83894583D01*
X179314466Y-83909741D01*
X179487426Y-84003342D01*
X179700365Y-84076444D01*
X179922431Y-84113500D01*
X180147566Y-84113500D01*
X180147569Y-84113500D01*
X180369635Y-84076444D01*
X180582574Y-84003342D01*
X180780576Y-83896189D01*
X180958240Y-83757906D01*
X181110722Y-83592268D01*
X181199818Y-83455896D01*
X181245329Y-83413999D01*
X181305299Y-83398813D01*
X181365268Y-83413999D01*
X181410782Y-83455897D01*
X181499678Y-83591962D01*
X181652096Y-83757533D01*
X181829697Y-83895766D01*
X182027631Y-84002883D01*
X182240485Y-84075955D01*
X182321000Y-84089391D01*
X182321000Y-83009000D01*
X182829000Y-83009000D01*
X182829000Y-84089391D01*
X182909514Y-84075955D01*
X183122368Y-84002883D01*
X183320302Y-83895766D01*
X183497903Y-83757533D01*
X183650321Y-83591962D01*
X183773419Y-83403548D01*
X183863822Y-83197451D01*
X183911544Y-83009000D01*
X182829000Y-83009000D01*
X182321000Y-83009000D01*
X182321000Y-81420609D01*
X182829000Y-81420609D01*
X182829000Y-82501000D01*
X183911544Y-82501000D01*
X183911544Y-82500999D01*
X183863822Y-82312548D01*
X183773419Y-82106451D01*
X183650321Y-81918037D01*
X183497903Y-81752466D01*
X183320302Y-81614233D01*
X183122368Y-81507116D01*
X182909514Y-81434044D01*
X182829000Y-81420609D01*
X182321000Y-81420609D01*
X182240485Y-81434044D01*
X182027631Y-81507116D01*
X181829697Y-81614233D01*
X181652096Y-81752466D01*
X181499678Y-81918037D01*
X181410782Y-82054102D01*
X181365268Y-82096000D01*
X181305299Y-82111186D01*
X181245329Y-82096000D01*
X181199816Y-82054101D01*
X181180182Y-82024049D01*
X181110722Y-81917732D01*
X180958240Y-81752094D01*
X180958239Y-81752093D01*
X180958237Y-81752091D01*
X180780578Y-81613812D01*
X180582573Y-81506657D01*
X180371056Y-81434044D01*
X180369635Y-81433556D01*
X180147569Y-81396500D01*
X179922431Y-81396500D01*
X179700365Y-81433556D01*
X179700362Y-81433556D01*
X179700362Y-81433557D01*
X179487426Y-81506657D01*
X179289421Y-81613812D01*
X179111762Y-81752091D01*
X178959278Y-81917731D01*
X178870483Y-82053643D01*
X178824969Y-82095541D01*
X178765000Y-82110727D01*
X178705031Y-82095541D01*
X178659517Y-82053643D01*
X178640182Y-82024049D01*
X178570722Y-81917732D01*
X178418240Y-81752094D01*
X178418239Y-81752093D01*
X178418237Y-81752091D01*
X178240578Y-81613812D01*
X178042573Y-81506657D01*
X177831056Y-81434044D01*
X177829635Y-81433556D01*
X177607569Y-81396500D01*
X177382431Y-81396500D01*
X177160365Y-81433556D01*
X177160362Y-81433556D01*
X177160362Y-81433557D01*
X176947426Y-81506657D01*
X176749421Y-81613812D01*
X176571762Y-81752091D01*
X176419278Y-81917731D01*
X176330483Y-82053643D01*
X176284969Y-82095541D01*
X176225000Y-82110727D01*
X176165031Y-82095541D01*
X176119517Y-82053643D01*
X176100182Y-82024049D01*
X176030722Y-81917732D01*
X175878240Y-81752094D01*
X175878239Y-81752093D01*
X175878237Y-81752091D01*
X175700578Y-81613812D01*
X175502573Y-81506657D01*
X175291056Y-81434044D01*
X175289635Y-81433556D01*
X175067569Y-81396500D01*
X174842431Y-81396500D01*
X174620365Y-81433556D01*
X174620362Y-81433556D01*
X174620362Y-81433557D01*
X174407426Y-81506657D01*
X174209421Y-81613812D01*
X174031762Y-81752091D01*
X173879278Y-81917731D01*
X173790483Y-82053643D01*
X173744969Y-82095541D01*
X173685000Y-82110727D01*
X173625031Y-82095541D01*
X173579517Y-82053643D01*
X173560182Y-82024049D01*
X173490722Y-81917732D01*
X173338240Y-81752094D01*
X173338239Y-81752093D01*
X173338237Y-81752091D01*
X173160578Y-81613812D01*
X172962573Y-81506657D01*
X172751056Y-81434044D01*
X172749635Y-81433556D01*
X172527569Y-81396500D01*
X172302431Y-81396500D01*
X172080365Y-81433556D01*
X172080362Y-81433556D01*
X172080362Y-81433557D01*
X171867426Y-81506657D01*
X171669421Y-81613812D01*
X171491762Y-81752091D01*
X171339278Y-81917731D01*
X171250483Y-82053643D01*
X171204969Y-82095541D01*
X171145000Y-82110727D01*
X171085031Y-82095541D01*
X171039517Y-82053643D01*
X171020182Y-82024049D01*
X170950722Y-81917732D01*
X170798240Y-81752094D01*
X170798239Y-81752093D01*
X170798237Y-81752091D01*
X170620581Y-81613814D01*
X170620577Y-81613811D01*
X170620576Y-81613811D01*
X170574528Y-81588891D01*
X170526259Y-81542576D01*
X170508500Y-81478079D01*
X170508500Y-79189594D01*
X170518091Y-79141376D01*
X170545405Y-79100499D01*
X171767817Y-77878087D01*
X176288569Y-73357333D01*
X176347332Y-73324135D01*
X176414799Y-73326027D01*
X176625451Y-73391005D01*
X176874214Y-73428500D01*
X177125784Y-73428500D01*
X177125786Y-73428500D01*
X177374549Y-73391005D01*
X177614945Y-73316853D01*
X177841604Y-73207700D01*
X178049462Y-73065984D01*
X178233878Y-72894872D01*
X178390731Y-72698184D01*
X178516517Y-72480316D01*
X178608427Y-72246134D01*
X178664407Y-72000869D01*
X178683207Y-71750000D01*
X178664407Y-71499131D01*
X178608427Y-71253866D01*
X178516517Y-71019684D01*
X178390731Y-70801816D01*
X178233878Y-70605128D01*
X178049462Y-70434016D01*
X177841604Y-70292300D01*
X177841603Y-70292299D01*
X177841601Y-70292298D01*
X177614945Y-70183146D01*
X177441134Y-70129533D01*
X177374549Y-70108995D01*
X177125786Y-70071500D01*
X176874214Y-70071500D01*
X176625451Y-70108995D01*
X176612477Y-70112996D01*
X176385054Y-70183146D01*
X176158396Y-70292300D01*
X175950541Y-70434012D01*
X175849327Y-70527924D01*
X175766122Y-70605128D01*
X175609269Y-70801816D01*
X175609267Y-70801819D01*
X175483483Y-71019683D01*
X175391572Y-71253866D01*
X175335593Y-71499128D01*
X175316793Y-71749999D01*
X175316793Y-71750000D01*
X175335593Y-72000869D01*
X175391573Y-72246134D01*
X175391574Y-72246136D01*
X175422423Y-72324740D01*
X175431122Y-72372344D01*
X175421238Y-72419715D01*
X175394227Y-72459867D01*
X169486336Y-78367757D01*
X169470016Y-78380833D01*
X169421370Y-78432635D01*
X169418620Y-78435473D01*
X169398868Y-78455226D01*
X169398864Y-78455230D01*
X169398865Y-78455230D01*
X169396379Y-78458433D01*
X169388687Y-78467439D01*
X169358413Y-78499678D01*
X169348652Y-78517434D01*
X169337801Y-78533952D01*
X169325385Y-78549959D01*
X169307824Y-78590539D01*
X169302604Y-78601195D01*
X169281304Y-78639940D01*
X169276267Y-78659559D01*
X169269864Y-78678261D01*
X169261818Y-78696855D01*
X169254901Y-78740524D01*
X169252495Y-78752144D01*
X169241500Y-78794970D01*
X169241500Y-78815224D01*
X169239949Y-78834934D01*
X169236779Y-78854942D01*
X169240941Y-78898961D01*
X169241500Y-78910819D01*
X169241500Y-81478079D01*
X169223741Y-81542576D01*
X169175471Y-81588891D01*
X169142178Y-81606908D01*
X169129418Y-81613814D01*
X168951762Y-81752091D01*
X168799278Y-81917731D01*
X168710483Y-82053643D01*
X168664969Y-82095541D01*
X168605000Y-82110727D01*
X168545031Y-82095541D01*
X168499517Y-82053643D01*
X168480182Y-82024049D01*
X168410722Y-81917732D01*
X168258240Y-81752094D01*
X168258239Y-81752093D01*
X168258237Y-81752091D01*
X168080581Y-81613814D01*
X168080577Y-81613811D01*
X168080576Y-81613811D01*
X168034528Y-81588891D01*
X167986259Y-81542576D01*
X167968500Y-81478079D01*
X167968500Y-76729594D01*
X167978091Y-76681376D01*
X168005405Y-76640499D01*
X170465404Y-74180499D01*
X171288569Y-73357333D01*
X171347332Y-73324135D01*
X171414799Y-73326027D01*
X171625451Y-73391005D01*
X171874214Y-73428500D01*
X172125784Y-73428500D01*
X172125786Y-73428500D01*
X172374549Y-73391005D01*
X172614945Y-73316853D01*
X172841604Y-73207700D01*
X173049462Y-73065984D01*
X173233878Y-72894872D01*
X173390731Y-72698184D01*
X173516517Y-72480316D01*
X173608427Y-72246134D01*
X173664407Y-72000869D01*
X173683207Y-71750000D01*
X173664407Y-71499131D01*
X173608427Y-71253866D01*
X173516517Y-71019684D01*
X173390731Y-70801816D01*
X173233878Y-70605128D01*
X173049462Y-70434016D01*
X172841604Y-70292300D01*
X172841603Y-70292299D01*
X172841601Y-70292298D01*
X172614945Y-70183146D01*
X172441134Y-70129533D01*
X172374549Y-70108995D01*
X172125786Y-70071500D01*
X171874214Y-70071500D01*
X171625451Y-70108995D01*
X171612477Y-70112996D01*
X171385054Y-70183146D01*
X171158396Y-70292300D01*
X170950541Y-70434012D01*
X170849327Y-70527924D01*
X170766122Y-70605128D01*
X170609269Y-70801816D01*
X170609267Y-70801819D01*
X170483483Y-71019683D01*
X170391572Y-71253866D01*
X170335593Y-71499128D01*
X170316793Y-71750000D01*
X170335593Y-72000871D01*
X170391573Y-72246136D01*
X170422422Y-72324739D01*
X170431122Y-72372342D01*
X170421238Y-72419714D01*
X170394227Y-72459866D01*
X166946336Y-75907757D01*
X166930016Y-75920833D01*
X166881370Y-75972635D01*
X166878620Y-75975473D01*
X166858868Y-75995226D01*
X166858864Y-75995230D01*
X166858865Y-75995230D01*
X166856379Y-75998433D01*
X166848687Y-76007439D01*
X166818413Y-76039678D01*
X166808652Y-76057434D01*
X166797801Y-76073952D01*
X166785385Y-76089959D01*
X166767824Y-76130539D01*
X166762604Y-76141195D01*
X166741304Y-76179940D01*
X166736267Y-76199559D01*
X166729864Y-76218261D01*
X166721818Y-76236855D01*
X166714901Y-76280524D01*
X166712495Y-76292144D01*
X166701500Y-76334970D01*
X166701500Y-76355224D01*
X166699949Y-76374934D01*
X166696779Y-76394942D01*
X166700941Y-76438961D01*
X166701500Y-76450819D01*
X166701500Y-81478079D01*
X166683741Y-81542576D01*
X166635471Y-81588891D01*
X166602178Y-81606908D01*
X166589418Y-81613814D01*
X166411758Y-81752094D01*
X166350754Y-81818362D01*
X166297282Y-81852762D01*
X166233820Y-81856672D01*
X166176530Y-81829096D01*
X166139998Y-81777056D01*
X166135055Y-81763804D01*
X166095889Y-81658796D01*
X166076187Y-81632477D01*
X166008261Y-81541738D01*
X165891205Y-81454111D01*
X165822702Y-81428560D01*
X165754201Y-81403011D01*
X165693638Y-81396500D01*
X165554500Y-81396500D01*
X165491500Y-81379619D01*
X165445381Y-81333500D01*
X165428500Y-81270500D01*
X165428500Y-74269594D01*
X165438091Y-74221376D01*
X165465401Y-74180502D01*
X166288570Y-73357333D01*
X166347332Y-73324136D01*
X166414801Y-73326029D01*
X166508758Y-73355010D01*
X166625451Y-73391005D01*
X166874214Y-73428500D01*
X167125784Y-73428500D01*
X167125786Y-73428500D01*
X167374549Y-73391005D01*
X167614945Y-73316853D01*
X167841604Y-73207700D01*
X168049462Y-73065984D01*
X168233878Y-72894872D01*
X168390731Y-72698184D01*
X168516517Y-72480316D01*
X168608427Y-72246134D01*
X168664407Y-72000869D01*
X168683207Y-71750000D01*
X168664407Y-71499131D01*
X168608427Y-71253866D01*
X168516517Y-71019684D01*
X168390731Y-70801816D01*
X168233878Y-70605128D01*
X168049462Y-70434016D01*
X167841604Y-70292300D01*
X167841603Y-70292299D01*
X167841601Y-70292298D01*
X167614945Y-70183146D01*
X167441134Y-70129533D01*
X167374549Y-70108995D01*
X167125786Y-70071500D01*
X166874214Y-70071500D01*
X166625451Y-70108995D01*
X166612477Y-70112996D01*
X166385054Y-70183146D01*
X166158396Y-70292300D01*
X165950541Y-70434012D01*
X165849327Y-70527924D01*
X165766122Y-70605128D01*
X165609269Y-70801816D01*
X165609267Y-70801819D01*
X165483483Y-71019683D01*
X165391572Y-71253866D01*
X165335593Y-71499128D01*
X165316793Y-71750000D01*
X165335593Y-72000871D01*
X165391573Y-72246136D01*
X165422422Y-72324739D01*
X165431122Y-72372342D01*
X165421238Y-72419714D01*
X165394227Y-72459866D01*
X164406336Y-73447757D01*
X164390017Y-73460832D01*
X164341357Y-73512650D01*
X164338602Y-73515492D01*
X164318866Y-73535227D01*
X164316380Y-73538432D01*
X164308688Y-73547437D01*
X164278414Y-73579677D01*
X164268652Y-73597434D01*
X164257801Y-73613952D01*
X164245385Y-73629959D01*
X164227824Y-73670539D01*
X164222604Y-73681195D01*
X164201304Y-73719940D01*
X164196267Y-73739559D01*
X164189864Y-73758261D01*
X164181818Y-73776855D01*
X164174901Y-73820524D01*
X164172495Y-73832144D01*
X164161500Y-73874970D01*
X164161500Y-73895224D01*
X164159949Y-73914934D01*
X164156779Y-73934942D01*
X164160941Y-73978961D01*
X164161500Y-73990819D01*
X164161500Y-81270500D01*
X164144619Y-81333500D01*
X164098500Y-81379619D01*
X164035500Y-81396500D01*
X163896362Y-81396500D01*
X163835799Y-81403011D01*
X163698794Y-81454111D01*
X163581738Y-81541738D01*
X163494111Y-81658794D01*
X163450592Y-81775474D01*
X163443011Y-81795799D01*
X163436500Y-81856362D01*
X163436500Y-83653638D01*
X163443011Y-83714201D01*
X163459173Y-83757533D01*
X163494111Y-83851205D01*
X163581738Y-83968261D01*
X163698794Y-84055888D01*
X163698795Y-84055888D01*
X163698796Y-84055889D01*
X163835799Y-84106989D01*
X163896362Y-84113500D01*
X165693638Y-84113500D01*
X165754201Y-84106989D01*
X165891204Y-84055889D01*
X166008261Y-83968261D01*
X166095889Y-83851204D01*
X166139999Y-83732941D01*
X166176530Y-83680903D01*
X166233821Y-83653327D01*
X166297282Y-83657237D01*
X166350753Y-83691636D01*
X166388780Y-83732943D01*
X166411762Y-83757908D01*
X166589421Y-83896187D01*
X166589424Y-83896189D01*
X166787426Y-84003342D01*
X167000365Y-84076444D01*
X167222431Y-84113500D01*
X167447566Y-84113500D01*
X167447569Y-84113500D01*
X167669635Y-84076444D01*
X167882574Y-84003342D01*
X168080576Y-83896189D01*
X168258240Y-83757906D01*
X168410722Y-83592268D01*
X168499518Y-83456354D01*
X168545031Y-83414458D01*
X168605000Y-83399272D01*
X168664969Y-83414458D01*
X168710481Y-83456354D01*
X168799278Y-83592268D01*
X168911525Y-83714200D01*
X168951762Y-83757908D01*
X169129421Y-83896187D01*
X169129424Y-83896189D01*
X169327426Y-84003342D01*
X169540365Y-84076444D01*
X169762431Y-84113500D01*
X169987566Y-84113500D01*
X169987569Y-84113500D01*
X170209635Y-84076444D01*
X170422574Y-84003342D01*
X170620576Y-83896189D01*
X170798240Y-83757906D01*
X170950722Y-83592268D01*
X171039518Y-83456354D01*
X171085031Y-83414458D01*
X171145000Y-83399272D01*
X171204969Y-83414458D01*
X171250481Y-83456354D01*
X171339278Y-83592268D01*
X171451525Y-83714200D01*
X171491762Y-83757908D01*
X171669421Y-83896187D01*
X171669424Y-83896189D01*
X171867426Y-84003342D01*
X172080365Y-84076444D01*
X172302431Y-84113500D01*
X172527566Y-84113500D01*
X172527569Y-84113500D01*
X172749635Y-84076444D01*
X172962574Y-84003342D01*
X173160576Y-83896189D01*
X173338240Y-83757906D01*
X173490722Y-83592268D01*
X173579518Y-83456354D01*
X173625031Y-83414458D01*
X173685000Y-83399272D01*
X173744969Y-83414458D01*
X173790481Y-83456354D01*
X173879278Y-83592268D01*
X173991525Y-83714200D01*
X174031762Y-83757908D01*
X174209421Y-83896187D01*
X174209424Y-83896189D01*
X174407426Y-84003342D01*
X174620365Y-84076444D01*
X174842431Y-84113500D01*
X175067566Y-84113500D01*
X175067569Y-84113500D01*
X175289635Y-84076444D01*
X175502574Y-84003342D01*
X175700576Y-83896189D01*
X175878240Y-83757906D01*
X176030722Y-83592268D01*
X176119518Y-83456354D01*
X176165031Y-83414458D01*
X176225000Y-83399272D01*
X176284969Y-83414458D01*
X176330481Y-83456354D01*
X176419278Y-83592268D01*
X176531525Y-83714200D01*
X176571762Y-83757908D01*
X176749421Y-83896187D01*
X176749424Y-83896189D01*
X176947426Y-84003342D01*
X177160365Y-84076444D01*
X177382431Y-84113500D01*
X177607569Y-84113500D01*
X177607572Y-84113500D01*
X177714761Y-84095613D01*
X177768949Y-84098415D01*
X177816934Y-84123745D01*
X177849817Y-84166906D01*
X177861500Y-84219894D01*
X177861500Y-115101354D01*
X177845778Y-115162303D01*
X177802536Y-115208041D01*
X177742565Y-115227156D01*
X177680831Y-115214876D01*
X177648946Y-115199521D01*
X177614942Y-115183145D01*
X177437725Y-115128482D01*
X177374549Y-115108995D01*
X177125786Y-115071500D01*
X176874214Y-115071500D01*
X176625451Y-115108995D01*
X176612477Y-115112996D01*
X176385054Y-115183146D01*
X176158396Y-115292300D01*
X175950541Y-115434012D01*
X175849327Y-115527924D01*
X175766122Y-115605128D01*
X175609269Y-115801816D01*
X175609267Y-115801819D01*
X175483483Y-116019683D01*
X175391572Y-116253866D01*
X175335593Y-116499128D01*
X175316793Y-116749999D01*
X175335593Y-117000871D01*
X175391572Y-117246133D01*
X175416798Y-117310406D01*
X175483483Y-117480316D01*
X175609269Y-117698184D01*
X175766122Y-117894872D01*
X175919171Y-118036880D01*
X175950541Y-118065987D01*
X176106432Y-118172270D01*
X176158397Y-118207700D01*
X176263375Y-118258254D01*
X176295169Y-118273566D01*
X176347187Y-118320052D01*
X176366500Y-118387088D01*
X176366500Y-120106406D01*
X176356909Y-120154624D01*
X176329595Y-120195501D01*
X173755500Y-122769595D01*
X173714623Y-122796909D01*
X173666405Y-122806500D01*
X171108853Y-122806500D01*
X171088063Y-122804204D01*
X171017001Y-122806438D01*
X171013043Y-122806500D01*
X170985142Y-122806500D01*
X170981134Y-122807006D01*
X170969313Y-122807936D01*
X170925108Y-122809325D01*
X170905651Y-122814978D01*
X170886301Y-122818986D01*
X170866202Y-122821525D01*
X170825093Y-122837802D01*
X170813865Y-122841646D01*
X170771408Y-122853981D01*
X170753964Y-122864297D01*
X170736217Y-122872990D01*
X170717384Y-122880446D01*
X170681611Y-122906437D01*
X170671693Y-122912951D01*
X170633639Y-122935457D01*
X170619312Y-122949783D01*
X170604283Y-122962618D01*
X170587894Y-122974525D01*
X170559701Y-123008604D01*
X170551713Y-123017381D01*
X170307923Y-123261171D01*
X170247236Y-123294832D01*
X170195453Y-123292158D01*
X170194933Y-123295275D01*
X170184638Y-123293557D01*
X170184635Y-123293556D01*
X169962569Y-123256500D01*
X169868593Y-123256500D01*
X169811390Y-123242767D01*
X169766657Y-123204561D01*
X169744144Y-123150211D01*
X169748760Y-123091564D01*
X169779498Y-123041405D01*
X171036280Y-121784623D01*
X172388658Y-120432244D01*
X172404979Y-120419170D01*
X172407014Y-120417002D01*
X172407018Y-120417000D01*
X172453676Y-120367312D01*
X172456367Y-120364535D01*
X172476135Y-120344769D01*
X172478611Y-120341576D01*
X172486316Y-120332553D01*
X172516586Y-120300321D01*
X172526345Y-120282567D01*
X172537198Y-120266045D01*
X172549614Y-120250040D01*
X172567174Y-120209459D01*
X172572388Y-120198815D01*
X172593695Y-120160060D01*
X172598732Y-120140439D01*
X172605138Y-120121730D01*
X172613181Y-120103145D01*
X172620096Y-120059477D01*
X172622504Y-120047853D01*
X172633500Y-120005029D01*
X172633500Y-119984776D01*
X172635051Y-119965066D01*
X172638220Y-119945057D01*
X172634059Y-119901039D01*
X172633500Y-119889181D01*
X172633500Y-118387088D01*
X172652813Y-118320052D01*
X172704831Y-118273566D01*
X172841604Y-118207700D01*
X173049462Y-118065984D01*
X173233878Y-117894872D01*
X173390731Y-117698184D01*
X173516517Y-117480316D01*
X173608427Y-117246134D01*
X173664407Y-117000869D01*
X173683207Y-116750000D01*
X173664407Y-116499131D01*
X173608427Y-116253866D01*
X173516517Y-116019684D01*
X173390731Y-115801816D01*
X173233878Y-115605128D01*
X173049462Y-115434016D01*
X172841604Y-115292300D01*
X172841603Y-115292299D01*
X172841601Y-115292298D01*
X172614945Y-115183146D01*
X172441134Y-115129533D01*
X172374549Y-115108995D01*
X172125786Y-115071500D01*
X171874214Y-115071500D01*
X171625451Y-115108995D01*
X171612477Y-115112996D01*
X171385054Y-115183146D01*
X171158396Y-115292300D01*
X170950541Y-115434012D01*
X170849327Y-115527924D01*
X170766122Y-115605128D01*
X170609269Y-115801816D01*
X170609267Y-115801819D01*
X170483483Y-116019683D01*
X170391572Y-116253866D01*
X170335593Y-116499128D01*
X170316793Y-116749999D01*
X170335593Y-117000871D01*
X170391572Y-117246133D01*
X170416798Y-117310406D01*
X170483483Y-117480316D01*
X170609269Y-117698184D01*
X170766122Y-117894872D01*
X170919171Y-118036880D01*
X170950541Y-118065987D01*
X171106432Y-118172270D01*
X171158397Y-118207700D01*
X171263375Y-118258254D01*
X171295169Y-118273566D01*
X171347187Y-118320052D01*
X171366500Y-118387088D01*
X171366500Y-119610406D01*
X171356909Y-119658624D01*
X171329595Y-119699501D01*
X167767922Y-123261171D01*
X167707235Y-123294832D01*
X167655452Y-123292158D01*
X167654932Y-123295275D01*
X167644639Y-123293557D01*
X167644635Y-123293556D01*
X167422569Y-123256500D01*
X167328593Y-123256500D01*
X167271390Y-123242767D01*
X167226657Y-123204561D01*
X167204144Y-123150211D01*
X167208760Y-123091564D01*
X167239495Y-123041407D01*
X167388662Y-122892240D01*
X167404980Y-122879169D01*
X167407014Y-122877001D01*
X167407018Y-122877000D01*
X167453677Y-122827311D01*
X167456368Y-122824534D01*
X167476134Y-122804770D01*
X167478605Y-122801583D01*
X167486312Y-122792559D01*
X167516586Y-122760321D01*
X167526343Y-122742570D01*
X167537199Y-122726043D01*
X167549613Y-122710041D01*
X167567172Y-122669461D01*
X167572392Y-122658809D01*
X167593694Y-122620061D01*
X167593695Y-122620060D01*
X167598732Y-122600439D01*
X167605138Y-122581730D01*
X167613181Y-122563144D01*
X167620096Y-122519481D01*
X167622504Y-122507853D01*
X167633500Y-122465029D01*
X167633500Y-122444776D01*
X167635051Y-122425066D01*
X167638220Y-122405057D01*
X167634059Y-122361039D01*
X167633500Y-122349181D01*
X167633500Y-118387088D01*
X167652813Y-118320052D01*
X167704831Y-118273566D01*
X167841604Y-118207700D01*
X168049462Y-118065984D01*
X168233878Y-117894872D01*
X168390731Y-117698184D01*
X168516517Y-117480316D01*
X168608427Y-117246134D01*
X168664407Y-117000869D01*
X168683207Y-116750000D01*
X168664407Y-116499131D01*
X168608427Y-116253866D01*
X168516517Y-116019684D01*
X168390731Y-115801816D01*
X168233878Y-115605128D01*
X168049462Y-115434016D01*
X167841604Y-115292300D01*
X167841603Y-115292299D01*
X167841601Y-115292298D01*
X167614945Y-115183146D01*
X167441134Y-115129533D01*
X167374549Y-115108995D01*
X167125786Y-115071500D01*
X166874214Y-115071500D01*
X166625451Y-115108995D01*
X166612477Y-115112996D01*
X166385054Y-115183146D01*
X166158396Y-115292300D01*
X165950541Y-115434012D01*
X165849327Y-115527924D01*
X165766122Y-115605128D01*
X165609269Y-115801816D01*
X165609267Y-115801819D01*
X165483483Y-116019683D01*
X165391572Y-116253866D01*
X165335593Y-116499128D01*
X165316793Y-116749999D01*
X165335593Y-117000871D01*
X165391572Y-117246133D01*
X165416798Y-117310406D01*
X165483483Y-117480316D01*
X165609269Y-117698184D01*
X165766122Y-117894872D01*
X165919171Y-118036880D01*
X165950541Y-118065987D01*
X166106432Y-118172270D01*
X166158397Y-118207700D01*
X166263375Y-118258254D01*
X166295169Y-118273566D01*
X166347187Y-118320052D01*
X166366500Y-118387088D01*
X166366500Y-122070405D01*
X166356909Y-122118623D01*
X166329597Y-122159497D01*
X165500094Y-122989000D01*
X165227922Y-123261172D01*
X165167235Y-123294832D01*
X165115452Y-123292158D01*
X165114932Y-123295275D01*
X165104639Y-123293557D01*
X165104635Y-123293556D01*
X164882569Y-123256500D01*
X164657431Y-123256500D01*
X164435365Y-123293556D01*
X164435362Y-123293556D01*
X164435362Y-123293557D01*
X164222426Y-123366657D01*
X164024421Y-123473812D01*
X163846762Y-123612091D01*
X163694278Y-123777731D01*
X163571139Y-123966209D01*
X163480702Y-124172388D01*
X163425437Y-124390627D01*
X163425436Y-124390632D01*
X163406844Y-124615000D01*
X163425436Y-124839368D01*
X163425436Y-124839371D01*
X163425437Y-124839372D01*
X163480702Y-125057611D01*
X163480703Y-125057614D01*
X163480704Y-125057616D01*
X163500000Y-125101606D01*
X163571139Y-125263790D01*
X163632777Y-125358134D01*
X163694278Y-125452268D01*
X163753707Y-125516825D01*
X163846762Y-125617908D01*
X164024421Y-125756187D01*
X164024424Y-125756189D01*
X164222426Y-125863342D01*
X164435365Y-125936444D01*
X164657431Y-125973500D01*
X164882566Y-125973500D01*
X164882569Y-125973500D01*
X165104635Y-125936444D01*
X165317574Y-125863342D01*
X165515576Y-125756189D01*
X165693240Y-125617906D01*
X165845722Y-125452268D01*
X165934518Y-125316354D01*
X165980031Y-125274458D01*
X166040000Y-125259272D01*
X166099969Y-125274458D01*
X166145481Y-125316354D01*
X166234278Y-125452268D01*
X166293707Y-125516825D01*
X166386762Y-125617908D01*
X166564421Y-125756187D01*
X166564424Y-125756189D01*
X166762426Y-125863342D01*
X166975365Y-125936444D01*
X167197431Y-125973500D01*
X167422566Y-125973500D01*
X167422569Y-125973500D01*
X167644635Y-125936444D01*
X167857574Y-125863342D01*
X168055576Y-125756189D01*
X168233240Y-125617906D01*
X168385722Y-125452268D01*
X168474518Y-125316354D01*
X168520031Y-125274458D01*
X168580000Y-125259272D01*
X168639969Y-125274458D01*
X168685481Y-125316354D01*
X168774278Y-125452268D01*
X168833707Y-125516825D01*
X168926762Y-125617908D01*
X169104421Y-125756187D01*
X169104424Y-125756189D01*
X169302426Y-125863342D01*
X169515365Y-125936444D01*
X169737431Y-125973500D01*
X169962566Y-125973500D01*
X169962569Y-125973500D01*
X170184635Y-125936444D01*
X170397574Y-125863342D01*
X170595576Y-125756189D01*
X170773240Y-125617906D01*
X170925722Y-125452268D01*
X171014518Y-125316354D01*
X171060031Y-125274458D01*
X171120000Y-125259272D01*
X171179969Y-125274458D01*
X171225481Y-125316354D01*
X171314278Y-125452268D01*
X171373707Y-125516825D01*
X171466762Y-125617908D01*
X171644421Y-125756187D01*
X171644424Y-125756189D01*
X171842426Y-125863342D01*
X172055365Y-125936444D01*
X172277431Y-125973500D01*
X172502566Y-125973500D01*
X172502569Y-125973500D01*
X172724635Y-125936444D01*
X172937574Y-125863342D01*
X173135576Y-125756189D01*
X173313240Y-125617906D01*
X173465722Y-125452268D01*
X173554518Y-125316354D01*
X173600031Y-125274458D01*
X173660000Y-125259272D01*
X173719969Y-125274458D01*
X173765481Y-125316354D01*
X173854278Y-125452268D01*
X173913707Y-125516825D01*
X174006762Y-125617908D01*
X174184421Y-125756187D01*
X174184424Y-125756189D01*
X174382426Y-125863342D01*
X174595365Y-125936444D01*
X174817431Y-125973500D01*
X175042566Y-125973500D01*
X175042569Y-125973500D01*
X175264635Y-125936444D01*
X175304588Y-125922727D01*
X175363666Y-125917217D01*
X175418716Y-125939356D01*
X175457529Y-125984235D01*
X175471500Y-126041901D01*
X175471500Y-132050406D01*
X175461909Y-132098624D01*
X175434595Y-132139501D01*
X169616336Y-137957757D01*
X169600016Y-137970833D01*
X169551370Y-138022635D01*
X169548620Y-138025473D01*
X169528868Y-138045226D01*
X169528864Y-138045230D01*
X169528865Y-138045230D01*
X169526379Y-138048433D01*
X169518687Y-138057439D01*
X169488413Y-138089678D01*
X169478652Y-138107434D01*
X169467801Y-138123952D01*
X169455385Y-138139959D01*
X169437824Y-138180539D01*
X169432604Y-138191195D01*
X169411304Y-138229940D01*
X169406267Y-138249559D01*
X169399864Y-138268261D01*
X169391818Y-138286855D01*
X169384901Y-138330524D01*
X169382495Y-138342144D01*
X169371500Y-138384970D01*
X169371500Y-138405224D01*
X169369949Y-138424934D01*
X169366779Y-138444942D01*
X169370941Y-138488961D01*
X169371500Y-138500819D01*
X169371500Y-140576147D01*
X169369204Y-140596935D01*
X169371438Y-140667986D01*
X169371500Y-140671945D01*
X169371500Y-140699857D01*
X169372007Y-140703873D01*
X169372937Y-140715696D01*
X169374326Y-140759892D01*
X169379977Y-140779341D01*
X169383986Y-140798696D01*
X169386525Y-140818794D01*
X169386525Y-140818796D01*
X169386526Y-140818797D01*
X169393101Y-140835405D01*
X169402801Y-140859903D01*
X169406644Y-140871130D01*
X169418980Y-140913590D01*
X169429294Y-140931030D01*
X169437987Y-140948774D01*
X169445448Y-140967617D01*
X169445449Y-140967619D01*
X169471431Y-141003380D01*
X169477948Y-141013301D01*
X169500458Y-141051363D01*
X169514778Y-141065683D01*
X169527618Y-141080716D01*
X169539526Y-141097105D01*
X169539527Y-141097106D01*
X169539528Y-141097107D01*
X169571576Y-141123619D01*
X169573598Y-141125292D01*
X169582378Y-141133282D01*
X173126595Y-144677500D01*
X173153909Y-144718377D01*
X173163500Y-144766595D01*
X173163500Y-149217405D01*
X173153909Y-149265623D01*
X173126595Y-149306501D01*
X172619626Y-149813468D01*
X172563142Y-149846079D01*
X172497920Y-149846079D01*
X172441435Y-149813467D01*
X172408824Y-149756983D01*
X172406539Y-149748457D01*
X172364284Y-149590757D01*
X172360134Y-149581858D01*
X172267522Y-149383249D01*
X172136195Y-149195696D01*
X171974303Y-149033804D01*
X171786750Y-148902477D01*
X171579243Y-148805715D01*
X171358087Y-148746457D01*
X171130000Y-148726502D01*
X170901912Y-148746457D01*
X170680756Y-148805715D01*
X170473249Y-148902477D01*
X170285696Y-149033804D01*
X170123804Y-149195696D01*
X170074841Y-149265623D01*
X170013818Y-149352772D01*
X169968787Y-149392263D01*
X169910607Y-149406500D01*
X167354194Y-149406500D01*
X167293589Y-149390967D01*
X167247926Y-149348199D01*
X167228464Y-149288740D01*
X167240000Y-149227249D01*
X167243812Y-149219073D01*
X167303048Y-148997999D01*
X167322995Y-148769999D01*
X167303048Y-148542000D01*
X167243813Y-148320929D01*
X167147085Y-148113497D01*
X167097100Y-148042110D01*
X167097097Y-148042110D01*
X166099094Y-149040114D01*
X166042610Y-149072726D01*
X165977388Y-149072726D01*
X165920904Y-149040114D01*
X164922900Y-148042109D01*
X164866590Y-148122531D01*
X164864751Y-148121243D01*
X164827971Y-148163179D01*
X164760272Y-148182909D01*
X164692574Y-148163175D01*
X164655621Y-148121037D01*
X164653846Y-148122281D01*
X164516197Y-147925699D01*
X164476998Y-147886500D01*
X164430402Y-147839904D01*
X164403091Y-147799030D01*
X164393500Y-147750812D01*
X164393500Y-147682900D01*
X165282109Y-147682900D01*
X166009999Y-148410790D01*
X166010000Y-148410790D01*
X166737888Y-147682899D01*
X166666497Y-147632912D01*
X166459070Y-147536186D01*
X166237999Y-147476951D01*
X166010000Y-147457004D01*
X165782000Y-147476951D01*
X165560929Y-147536186D01*
X165353499Y-147632913D01*
X165282109Y-147682900D01*
X164393500Y-147682900D01*
X164393500Y-147672434D01*
X164403091Y-147624216D01*
X164430405Y-147583339D01*
X165718338Y-146295405D01*
X165759215Y-146268091D01*
X165807433Y-146258500D01*
X166271408Y-146258500D01*
X166271413Y-146258500D01*
X166442373Y-146243543D01*
X166663529Y-146184284D01*
X166871035Y-146087523D01*
X167058586Y-145956198D01*
X167220484Y-145794300D01*
X167351809Y-145606749D01*
X167448570Y-145399243D01*
X167507829Y-145178087D01*
X167527784Y-144950000D01*
X167507829Y-144721913D01*
X167452905Y-144516935D01*
X167448570Y-144500756D01*
X167351808Y-144293249D01*
X167220481Y-144105696D01*
X167058589Y-143943804D01*
X166871034Y-143812476D01*
X166831829Y-143794195D01*
X166778811Y-143747700D01*
X166759078Y-143680000D01*
X166778811Y-143612300D01*
X166831829Y-143565805D01*
X166836449Y-143563650D01*
X166871035Y-143547523D01*
X167058586Y-143416198D01*
X167220484Y-143254300D01*
X167351809Y-143066749D01*
X167448570Y-142859243D01*
X167507829Y-142638087D01*
X167516809Y-142535439D01*
X167542366Y-142469720D01*
X167599234Y-142428022D01*
X167669600Y-142423410D01*
X167731424Y-142457328D01*
X169820847Y-144546751D01*
X169853458Y-144603234D01*
X169853459Y-144668456D01*
X169836457Y-144731910D01*
X169826227Y-144848839D01*
X169816502Y-144960000D01*
X169821149Y-145013112D01*
X169836457Y-145188087D01*
X169895715Y-145409243D01*
X169992477Y-145616750D01*
X170123804Y-145804303D01*
X170285696Y-145966195D01*
X170285699Y-145966197D01*
X170285700Y-145966198D01*
X170328553Y-145996204D01*
X170473249Y-146097522D01*
X170680756Y-146194284D01*
X170740014Y-146210162D01*
X170901913Y-146253543D01*
X171130000Y-146273498D01*
X171358087Y-146253543D01*
X171579243Y-146194284D01*
X171786749Y-146097523D01*
X171974300Y-145966198D01*
X172136198Y-145804300D01*
X172267523Y-145616749D01*
X172364284Y-145409243D01*
X172423543Y-145188087D01*
X172443498Y-144960000D01*
X172423543Y-144731913D01*
X172371009Y-144535853D01*
X172364284Y-144510756D01*
X172267522Y-144303249D01*
X172156282Y-144144383D01*
X172136198Y-144115700D01*
X172136197Y-144115699D01*
X172136195Y-144115696D01*
X171974303Y-143953804D01*
X171786750Y-143822477D01*
X171579243Y-143725715D01*
X171358087Y-143666457D01*
X171130000Y-143646502D01*
X170901910Y-143666457D01*
X170838456Y-143683459D01*
X170773234Y-143683458D01*
X170716751Y-143650847D01*
X167990405Y-140924500D01*
X167963091Y-140883623D01*
X167953500Y-140835405D01*
X167953500Y-140517529D01*
X167955051Y-140497821D01*
X167959382Y-140470472D01*
X167961790Y-140458843D01*
X167972786Y-140416019D01*
X167972786Y-140395766D01*
X167974337Y-140376056D01*
X167977506Y-140356047D01*
X167973345Y-140312029D01*
X167972786Y-140300171D01*
X167972786Y-139221140D01*
X167975081Y-139200350D01*
X167974693Y-139188012D01*
X167972847Y-139129287D01*
X167972786Y-139125330D01*
X167972786Y-139097435D01*
X167972786Y-139097430D01*
X167972279Y-139093424D01*
X167971348Y-139081591D01*
X167969960Y-139037397D01*
X167964305Y-139017933D01*
X167960299Y-138998593D01*
X167957760Y-138978489D01*
X167941481Y-138937373D01*
X167937642Y-138926158D01*
X167925305Y-138883693D01*
X167914989Y-138866250D01*
X167906293Y-138848500D01*
X167898838Y-138829669D01*
X167872840Y-138793886D01*
X167866344Y-138783996D01*
X167843828Y-138745924D01*
X167829498Y-138731594D01*
X167816664Y-138716567D01*
X167804758Y-138700179D01*
X167802841Y-138698593D01*
X167770680Y-138671986D01*
X167761902Y-138663998D01*
X167316544Y-138218640D01*
X167286034Y-138169177D01*
X167280969Y-138111283D01*
X167302425Y-138057275D01*
X167351809Y-137986749D01*
X167448570Y-137779243D01*
X167507829Y-137558087D01*
X167527784Y-137330000D01*
X167507829Y-137101913D01*
X167448570Y-136880757D01*
X167421200Y-136822062D01*
X167351808Y-136673249D01*
X167220481Y-136485696D01*
X167058589Y-136323804D01*
X166871036Y-136192477D01*
X166663529Y-136095715D01*
X166442373Y-136036457D01*
X166271413Y-136021500D01*
X165357159Y-136021500D01*
X165214692Y-136033964D01*
X165186198Y-136036457D01*
X164965042Y-136095715D01*
X164757535Y-136192477D01*
X164569982Y-136323804D01*
X164408090Y-136485696D01*
X164276763Y-136673249D01*
X164180001Y-136880756D01*
X164120743Y-137101912D01*
X164100788Y-137329999D01*
X164120743Y-137558087D01*
X164180001Y-137779243D01*
X164276763Y-137986750D01*
X164408090Y-138174303D01*
X164569982Y-138336195D01*
X164569985Y-138336197D01*
X164569986Y-138336198D01*
X164757537Y-138467523D01*
X164792645Y-138483894D01*
X164796743Y-138485805D01*
X164849760Y-138532300D01*
X164869493Y-138600000D01*
X164849760Y-138667700D01*
X164796743Y-138714195D01*
X164757536Y-138732477D01*
X164569982Y-138863804D01*
X164408090Y-139025696D01*
X164276763Y-139213249D01*
X164180002Y-139420755D01*
X164139476Y-139572000D01*
X164106864Y-139628484D01*
X164050380Y-139661095D01*
X163985158Y-139661095D01*
X163928674Y-139628483D01*
X162519691Y-138219500D01*
X162492377Y-138178623D01*
X162482786Y-138130405D01*
X162482786Y-124079139D01*
X162485081Y-124058350D01*
X162482848Y-123987300D01*
X162482786Y-123983341D01*
X162482786Y-123955435D01*
X162482786Y-123955430D01*
X162482278Y-123951417D01*
X162481347Y-123939583D01*
X162479959Y-123895396D01*
X162474306Y-123875942D01*
X162470298Y-123856584D01*
X162467760Y-123836489D01*
X162451476Y-123795363D01*
X162447645Y-123784174D01*
X162435304Y-123741693D01*
X162424990Y-123724254D01*
X162416294Y-123706502D01*
X162409566Y-123689509D01*
X162408838Y-123687669D01*
X162382857Y-123651910D01*
X162376336Y-123641984D01*
X162358659Y-123612093D01*
X162353828Y-123603923D01*
X162339499Y-123589594D01*
X162326662Y-123574563D01*
X162314759Y-123558179D01*
X162280692Y-123529997D01*
X162271912Y-123522007D01*
X161790121Y-123040216D01*
X161765490Y-123005365D01*
X161753907Y-122964296D01*
X161736542Y-122799072D01*
X161705931Y-122704862D01*
X161677527Y-122617443D01*
X161582041Y-122452057D01*
X161454252Y-122310133D01*
X161319967Y-122212569D01*
X161299752Y-122197882D01*
X161125288Y-122120206D01*
X160938487Y-122080500D01*
X160747513Y-122080500D01*
X160624271Y-122106696D01*
X160560711Y-122120206D01*
X160386246Y-122197883D01*
X160231747Y-122310133D01*
X160103958Y-122452057D01*
X160008472Y-122617443D01*
X159949458Y-122799070D01*
X159929496Y-122989000D01*
X159949458Y-123178929D01*
X160008472Y-123360556D01*
X160103958Y-123525942D01*
X160181527Y-123612091D01*
X160231747Y-123667866D01*
X160386248Y-123780118D01*
X160560712Y-123857794D01*
X160747513Y-123897500D01*
X160803406Y-123897500D01*
X160851624Y-123907091D01*
X160892501Y-123934405D01*
X161178881Y-124220785D01*
X161206195Y-124261662D01*
X161215786Y-124309880D01*
X161215786Y-132143349D01*
X161202792Y-132199077D01*
X161166490Y-132243311D01*
X161114368Y-132266928D01*
X161057175Y-132265056D01*
X160952285Y-132236951D01*
X160724286Y-132217004D01*
X160496286Y-132236951D01*
X160275215Y-132296186D01*
X160067785Y-132392913D01*
X159996395Y-132442899D01*
X160724286Y-133170789D01*
X160724286Y-133170790D01*
X160994400Y-133440904D01*
X161027012Y-133497388D01*
X161027012Y-133562610D01*
X160994400Y-133619094D01*
X159996396Y-134617097D01*
X159996396Y-134617100D01*
X160067783Y-134667085D01*
X160275215Y-134763813D01*
X160496286Y-134823048D01*
X160724286Y-134842995D01*
X160952285Y-134823048D01*
X161057175Y-134794944D01*
X161114368Y-134793072D01*
X161166490Y-134816689D01*
X161202792Y-134860923D01*
X161215786Y-134916651D01*
X161215786Y-138361147D01*
X161213490Y-138381935D01*
X161215724Y-138452986D01*
X161215786Y-138456945D01*
X161215786Y-138484857D01*
X161216293Y-138488873D01*
X161217223Y-138500696D01*
X161218612Y-138544892D01*
X161224263Y-138564341D01*
X161228272Y-138583696D01*
X161230811Y-138603794D01*
X161230811Y-138603796D01*
X161230812Y-138603797D01*
X161243712Y-138636380D01*
X161247087Y-138644903D01*
X161250930Y-138656130D01*
X161263266Y-138698590D01*
X161273580Y-138716030D01*
X161282273Y-138733774D01*
X161285719Y-138742477D01*
X161289735Y-138752619D01*
X161315717Y-138788380D01*
X161322234Y-138798301D01*
X161344744Y-138836363D01*
X161359064Y-138850683D01*
X161371904Y-138865716D01*
X161383812Y-138882105D01*
X161383813Y-138882106D01*
X161383814Y-138882107D01*
X161417884Y-138910292D01*
X161426664Y-138918282D01*
X164209565Y-141701183D01*
X164237568Y-141743758D01*
X164246417Y-141793942D01*
X164234665Y-141843527D01*
X164180002Y-141960754D01*
X164120743Y-142181912D01*
X164100788Y-142409999D01*
X164120743Y-142638087D01*
X164180001Y-142859243D01*
X164276763Y-143066750D01*
X164408090Y-143254303D01*
X164569982Y-143416195D01*
X164569985Y-143416197D01*
X164569986Y-143416198D01*
X164757537Y-143547523D01*
X164792645Y-143563894D01*
X164796743Y-143565805D01*
X164849760Y-143612300D01*
X164869493Y-143680000D01*
X164849760Y-143747700D01*
X164796743Y-143794195D01*
X164757536Y-143812477D01*
X164569982Y-143943804D01*
X164408090Y-144105696D01*
X164276763Y-144293249D01*
X164180001Y-144500756D01*
X164120743Y-144721912D01*
X164107301Y-144875550D01*
X164100788Y-144950000D01*
X164108914Y-145042879D01*
X164120743Y-145178087D01*
X164147561Y-145278172D01*
X164147561Y-145343394D01*
X164114949Y-145399878D01*
X162941449Y-146573377D01*
X162926420Y-146586215D01*
X162915565Y-146594101D01*
X162871121Y-146643461D01*
X162866589Y-146648237D01*
X162852529Y-146662298D01*
X162840010Y-146677756D01*
X162835735Y-146682760D01*
X162791297Y-146732115D01*
X162784588Y-146743735D01*
X162773395Y-146760021D01*
X162764953Y-146770446D01*
X162734800Y-146829623D01*
X162731654Y-146835416D01*
X162698435Y-146892954D01*
X162694287Y-146905718D01*
X162686728Y-146923966D01*
X162680639Y-146935917D01*
X162663445Y-147000088D01*
X162661571Y-147006411D01*
X162641045Y-147069583D01*
X162639643Y-147082923D01*
X162636043Y-147102352D01*
X162632569Y-147115317D01*
X162629092Y-147181654D01*
X162628575Y-147188221D01*
X162626500Y-147207974D01*
X162626500Y-147227841D01*
X162626327Y-147234435D01*
X162622850Y-147300778D01*
X162624949Y-147314032D01*
X162626500Y-147333741D01*
X162626500Y-147750812D01*
X162616909Y-147799030D01*
X162589595Y-147839907D01*
X162579907Y-147849595D01*
X162539030Y-147876909D01*
X162490812Y-147886500D01*
X157092147Y-147886500D01*
X157043929Y-147876909D01*
X157003052Y-147849595D01*
X153189405Y-144035947D01*
X153162091Y-143995070D01*
X153152500Y-143946852D01*
X153152500Y-141108308D01*
X153166233Y-141051105D01*
X153204439Y-141006372D01*
X153258789Y-140983859D01*
X153317436Y-140988475D01*
X153367595Y-141019213D01*
X156448881Y-144100499D01*
X156476195Y-144141376D01*
X156485786Y-144189594D01*
X156485786Y-145798638D01*
X156492297Y-145859200D01*
X156543397Y-145996205D01*
X156631024Y-146113261D01*
X156748080Y-146200888D01*
X156748081Y-146200888D01*
X156748082Y-146200889D01*
X156885085Y-146251989D01*
X156945648Y-146258500D01*
X159442924Y-146258500D01*
X159503487Y-146251989D01*
X159640490Y-146200889D01*
X159757547Y-146113261D01*
X159845175Y-145996204D01*
X159896275Y-145859201D01*
X159902786Y-145798638D01*
X159902786Y-144101362D01*
X159896275Y-144040799D01*
X159845175Y-143903796D01*
X159845174Y-143903794D01*
X159757547Y-143786738D01*
X159640491Y-143699111D01*
X159552942Y-143666457D01*
X159503487Y-143648011D01*
X159494082Y-143646999D01*
X159437259Y-143626290D01*
X159396632Y-143581488D01*
X159381561Y-143522916D01*
X159395519Y-143464069D01*
X159435288Y-143418507D01*
X159438586Y-143416198D01*
X159600484Y-143254300D01*
X159731809Y-143066749D01*
X159828570Y-142859243D01*
X159887829Y-142638087D01*
X159907784Y-142410000D01*
X159887829Y-142181913D01*
X159828570Y-141960757D01*
X159731809Y-141753251D01*
X159695350Y-141701183D01*
X159600481Y-141565696D01*
X159438589Y-141403804D01*
X159251033Y-141272475D01*
X159211827Y-141254193D01*
X159158810Y-141207697D01*
X159139078Y-141139997D01*
X159158812Y-141072297D01*
X159211828Y-141025805D01*
X159251035Y-141007523D01*
X159438586Y-140876198D01*
X159600484Y-140714300D01*
X159731809Y-140526749D01*
X159828570Y-140319243D01*
X159887829Y-140098087D01*
X159907784Y-139870000D01*
X159887829Y-139641913D01*
X159835895Y-139448095D01*
X159828570Y-139420756D01*
X159731808Y-139213249D01*
X159608674Y-139037397D01*
X159600484Y-139025700D01*
X159600483Y-139025699D01*
X159600481Y-139025696D01*
X159438589Y-138863804D01*
X159251034Y-138732476D01*
X159211829Y-138714195D01*
X159158811Y-138667700D01*
X159139078Y-138600000D01*
X159158811Y-138532300D01*
X159211829Y-138485805D01*
X159216449Y-138483650D01*
X159251035Y-138467523D01*
X159438586Y-138336198D01*
X159600484Y-138174300D01*
X159731809Y-137986749D01*
X159828570Y-137779243D01*
X159887829Y-137558087D01*
X159907784Y-137330000D01*
X159887829Y-137101913D01*
X159828570Y-136880757D01*
X159801200Y-136822062D01*
X159731808Y-136673249D01*
X159600481Y-136485696D01*
X159438589Y-136323804D01*
X159251036Y-136192477D01*
X159186400Y-136162337D01*
X159150535Y-136145613D01*
X159097519Y-136099119D01*
X159077786Y-136031419D01*
X159077786Y-134579188D01*
X159087377Y-134530970D01*
X159114688Y-134490095D01*
X159230484Y-134374300D01*
X159361809Y-134186749D01*
X159361808Y-134186749D01*
X159368132Y-134177719D01*
X159369908Y-134178962D01*
X159406857Y-134136826D01*
X159474558Y-134117090D01*
X159542260Y-134136822D01*
X159579036Y-134178756D01*
X159580876Y-134177468D01*
X159637186Y-134257887D01*
X160365076Y-133530000D01*
X160365076Y-133529999D01*
X159637186Y-132802109D01*
X159580876Y-132882531D01*
X159579037Y-132881243D01*
X159542257Y-132923179D01*
X159474558Y-132942909D01*
X159406860Y-132923175D01*
X159369907Y-132881037D01*
X159368132Y-132882281D01*
X159244726Y-132706040D01*
X159230484Y-132685700D01*
X159144688Y-132599904D01*
X159117377Y-132559030D01*
X159107786Y-132510812D01*
X159107786Y-85008741D01*
X159109337Y-84989032D01*
X159109615Y-84987269D01*
X159111436Y-84975779D01*
X159107959Y-84909435D01*
X159107786Y-84902841D01*
X159107786Y-84882979D01*
X159105710Y-84863236D01*
X159105192Y-84856653D01*
X159101716Y-84790319D01*
X159101716Y-84790315D01*
X159098241Y-84777349D01*
X159094641Y-84757915D01*
X159093240Y-84744584D01*
X159072712Y-84681407D01*
X159070838Y-84675080D01*
X159057583Y-84625611D01*
X159053648Y-84610924D01*
X159047561Y-84598978D01*
X159039994Y-84580712D01*
X159035850Y-84567955D01*
X159002630Y-84510416D01*
X158999490Y-84504632D01*
X158969335Y-84445449D01*
X158969334Y-84445447D01*
X158960889Y-84435018D01*
X158949690Y-84418723D01*
X158942990Y-84407117D01*
X158898525Y-84357733D01*
X158894269Y-84352751D01*
X158881758Y-84337301D01*
X158867703Y-84323246D01*
X158863199Y-84318500D01*
X158818720Y-84269101D01*
X158818719Y-84269100D01*
X158818718Y-84269099D01*
X158807862Y-84261212D01*
X158792828Y-84248371D01*
X157414891Y-82870434D01*
X157385583Y-82824428D01*
X157379861Y-82780946D01*
X157379458Y-82780982D01*
X157378649Y-82771740D01*
X157378467Y-82770353D01*
X157378498Y-82770000D01*
X157358543Y-82541913D01*
X157299284Y-82320757D01*
X157295456Y-82312548D01*
X157202522Y-82113249D01*
X157071195Y-81925696D01*
X156909303Y-81763804D01*
X156721750Y-81632477D01*
X156514243Y-81535715D01*
X156293087Y-81476457D01*
X156065000Y-81456502D01*
X155836912Y-81476457D01*
X155615756Y-81535715D01*
X155408249Y-81632477D01*
X155220696Y-81763804D01*
X155058804Y-81925696D01*
X154927477Y-82113249D01*
X154830715Y-82320756D01*
X154771457Y-82541912D01*
X154751502Y-82770000D01*
X154771457Y-82998087D01*
X154830715Y-83219243D01*
X154927477Y-83426750D01*
X155058804Y-83614303D01*
X155220696Y-83776195D01*
X155220699Y-83776197D01*
X155220700Y-83776198D01*
X155250050Y-83796749D01*
X155417281Y-83913846D01*
X155416037Y-83915621D01*
X155458175Y-83952574D01*
X155477909Y-84020272D01*
X155458179Y-84087971D01*
X155416243Y-84124751D01*
X155417531Y-84126590D01*
X155337109Y-84182899D01*
X156065000Y-84910789D01*
X156065000Y-84910790D01*
X157152097Y-85997888D01*
X157203805Y-85993365D01*
X157271335Y-86006288D01*
X157322027Y-86052739D01*
X157340786Y-86118886D01*
X157340786Y-132510812D01*
X157331195Y-132559030D01*
X157303883Y-132599904D01*
X157264993Y-132638795D01*
X157218088Y-132685699D01*
X157086763Y-132873249D01*
X156990001Y-133080756D01*
X156930743Y-133301912D01*
X156911373Y-133523307D01*
X156910788Y-133530000D01*
X156913641Y-133562610D01*
X156930743Y-133758087D01*
X156990001Y-133979243D01*
X157086763Y-134186750D01*
X157152425Y-134280524D01*
X157218088Y-134374300D01*
X157273883Y-134430095D01*
X157301195Y-134470969D01*
X157310786Y-134519188D01*
X157310786Y-136031419D01*
X157291053Y-136099119D01*
X157238036Y-136145613D01*
X157216209Y-136155791D01*
X157137535Y-136192477D01*
X156949982Y-136323804D01*
X156788090Y-136485696D01*
X156656763Y-136673249D01*
X156560001Y-136880756D01*
X156500743Y-137101912D01*
X156480788Y-137329999D01*
X156500743Y-137558087D01*
X156560001Y-137779243D01*
X156656763Y-137986750D01*
X156788090Y-138174303D01*
X156949982Y-138336195D01*
X156949985Y-138336197D01*
X156949986Y-138336198D01*
X157137537Y-138467523D01*
X157172645Y-138483894D01*
X157176743Y-138485805D01*
X157229760Y-138532300D01*
X157249493Y-138600000D01*
X157229760Y-138667700D01*
X157176743Y-138714195D01*
X157137536Y-138732477D01*
X156949982Y-138863804D01*
X156788090Y-139025696D01*
X156656763Y-139213249D01*
X156560002Y-139420755D01*
X156519476Y-139572000D01*
X156486864Y-139628484D01*
X156430380Y-139661095D01*
X156365158Y-139661095D01*
X156308674Y-139628483D01*
X155290405Y-138610214D01*
X155263091Y-138569337D01*
X155253500Y-138521119D01*
X155253500Y-122049393D01*
X155267737Y-121991213D01*
X155307227Y-121946181D01*
X155464300Y-121836198D01*
X155626198Y-121674300D01*
X155757523Y-121486749D01*
X155854284Y-121279243D01*
X155913543Y-121058087D01*
X155933498Y-120830000D01*
X155913543Y-120601913D01*
X155868081Y-120432249D01*
X155854284Y-120380756D01*
X155757522Y-120173249D01*
X155626195Y-119985696D01*
X155464303Y-119823804D01*
X155276750Y-119692477D01*
X155069243Y-119595715D01*
X154848087Y-119536457D01*
X154620000Y-119516502D01*
X154391912Y-119536457D01*
X154170756Y-119595715D01*
X153963249Y-119692477D01*
X153800771Y-119806247D01*
X153736741Y-119828764D01*
X153670320Y-119814797D01*
X153620781Y-119768399D01*
X153602500Y-119703034D01*
X153602500Y-112635595D01*
X153612091Y-112587377D01*
X153639404Y-112546500D01*
X153914762Y-112271142D01*
X154206751Y-111979151D01*
X154263236Y-111946540D01*
X154328457Y-111946540D01*
X154391913Y-111963543D01*
X154620000Y-111983498D01*
X154848087Y-111963543D01*
X155069243Y-111904284D01*
X155276749Y-111807523D01*
X155464300Y-111676198D01*
X155626198Y-111514300D01*
X155757523Y-111326749D01*
X155854284Y-111119243D01*
X155913543Y-110898087D01*
X155933498Y-110670000D01*
X155913543Y-110441913D01*
X155854284Y-110220757D01*
X155849620Y-110210756D01*
X155757522Y-110013249D01*
X155669817Y-109887995D01*
X155626198Y-109825700D01*
X155626197Y-109825699D01*
X155626195Y-109825696D01*
X155464303Y-109663804D01*
X155276750Y-109532477D01*
X155069243Y-109435715D01*
X154848087Y-109376457D01*
X154733786Y-109366457D01*
X154620000Y-109356502D01*
X154619999Y-109356502D01*
X154391912Y-109376457D01*
X154170756Y-109435715D01*
X153963249Y-109532477D01*
X153775696Y-109663804D01*
X153613804Y-109825696D01*
X153482477Y-110013249D01*
X153385715Y-110220756D01*
X153326457Y-110441912D01*
X153306502Y-110669999D01*
X153326457Y-110898087D01*
X153343459Y-110961540D01*
X153343459Y-111026762D01*
X153310847Y-111083246D01*
X152580336Y-111813757D01*
X152564016Y-111826833D01*
X152515370Y-111878635D01*
X152512620Y-111881473D01*
X152492868Y-111901226D01*
X152492864Y-111901230D01*
X152492865Y-111901230D01*
X152490379Y-111904433D01*
X152482687Y-111913439D01*
X152452413Y-111945678D01*
X152442652Y-111963434D01*
X152431801Y-111979952D01*
X152419385Y-111995959D01*
X152401824Y-112036539D01*
X152396604Y-112047195D01*
X152375304Y-112085940D01*
X152370267Y-112105559D01*
X152363864Y-112124261D01*
X152355818Y-112142855D01*
X152348901Y-112186524D01*
X152346495Y-112198144D01*
X152335500Y-112240970D01*
X152335500Y-112261224D01*
X152333949Y-112280934D01*
X152330779Y-112300942D01*
X152334941Y-112344961D01*
X152335500Y-112356819D01*
X152335500Y-129945852D01*
X152321767Y-130003055D01*
X152283561Y-130047788D01*
X152229211Y-130070301D01*
X152170564Y-130065685D01*
X152120405Y-130034947D01*
X144430217Y-122344759D01*
X144396299Y-122282935D01*
X144400911Y-122212569D01*
X144442609Y-122155701D01*
X144508326Y-122130144D01*
X144698087Y-122113543D01*
X144919243Y-122054284D01*
X145126749Y-121957523D01*
X145314300Y-121826198D01*
X145476198Y-121664300D01*
X145607523Y-121476749D01*
X145704284Y-121269243D01*
X145763543Y-121048087D01*
X145783498Y-120820000D01*
X145763543Y-120591913D01*
X145704284Y-120370757D01*
X145692166Y-120344770D01*
X145607522Y-120163249D01*
X145480231Y-119981460D01*
X145476198Y-119975700D01*
X145476197Y-119975699D01*
X145476195Y-119975696D01*
X145314303Y-119813804D01*
X145126750Y-119682477D01*
X144919243Y-119585715D01*
X144698087Y-119526457D01*
X144470000Y-119506502D01*
X144241912Y-119526457D01*
X144020756Y-119585715D01*
X143813249Y-119682477D01*
X143625696Y-119813804D01*
X143463804Y-119975696D01*
X143332477Y-120163249D01*
X143235715Y-120370756D01*
X143176457Y-120591912D01*
X143159856Y-120781668D01*
X143134298Y-120847391D01*
X143077430Y-120889088D01*
X143007064Y-120893700D01*
X142945240Y-120859782D01*
X141745405Y-119659947D01*
X141718091Y-119619070D01*
X141708500Y-119570852D01*
X141708500Y-110659999D01*
X143156502Y-110659999D01*
X143176457Y-110888087D01*
X143235715Y-111109243D01*
X143332477Y-111316750D01*
X143463804Y-111504303D01*
X143625696Y-111666195D01*
X143625699Y-111666197D01*
X143625700Y-111666198D01*
X143687995Y-111709817D01*
X143813249Y-111797522D01*
X144020756Y-111894284D01*
X144056319Y-111903813D01*
X144241913Y-111953543D01*
X144470000Y-111973498D01*
X144698087Y-111953543D01*
X144919243Y-111894284D01*
X145126749Y-111797523D01*
X145314300Y-111666198D01*
X145476198Y-111504300D01*
X145607523Y-111316749D01*
X145704284Y-111109243D01*
X145763543Y-110888087D01*
X145783498Y-110660000D01*
X145763543Y-110431913D01*
X145704284Y-110210757D01*
X145607523Y-110003251D01*
X145476198Y-109815700D01*
X145476197Y-109815699D01*
X145476195Y-109815696D01*
X145314303Y-109653804D01*
X145126750Y-109522477D01*
X144919243Y-109425715D01*
X144698087Y-109366457D01*
X144470000Y-109346502D01*
X144469999Y-109346502D01*
X144241912Y-109366457D01*
X144020756Y-109425715D01*
X143813249Y-109522477D01*
X143625696Y-109653804D01*
X143463804Y-109815696D01*
X143332477Y-110003249D01*
X143235715Y-110210756D01*
X143176457Y-110431912D01*
X143156502Y-110659999D01*
X141708500Y-110659999D01*
X141708500Y-105589999D01*
X143146502Y-105589999D01*
X143166457Y-105818087D01*
X143225715Y-106039243D01*
X143322477Y-106246750D01*
X143453804Y-106434303D01*
X143615696Y-106596195D01*
X143803249Y-106727522D01*
X144010756Y-106824284D01*
X144070014Y-106840162D01*
X144231913Y-106883543D01*
X144460000Y-106903498D01*
X144688087Y-106883543D01*
X144909243Y-106824284D01*
X145116749Y-106727523D01*
X145304300Y-106596198D01*
X145466198Y-106434300D01*
X145597523Y-106246749D01*
X145694284Y-106039243D01*
X145753543Y-105818087D01*
X145773498Y-105590000D01*
X145753543Y-105361913D01*
X145694284Y-105140757D01*
X145597523Y-104933251D01*
X145466198Y-104745700D01*
X145466197Y-104745699D01*
X145466195Y-104745696D01*
X145304303Y-104583804D01*
X145116750Y-104452477D01*
X144909243Y-104355715D01*
X144688087Y-104296457D01*
X144460000Y-104276502D01*
X144231912Y-104296457D01*
X144010756Y-104355715D01*
X143803249Y-104452477D01*
X143615696Y-104583804D01*
X143453804Y-104745696D01*
X143322477Y-104933249D01*
X143225715Y-105140756D01*
X143166457Y-105361912D01*
X143146502Y-105589999D01*
X141708500Y-105589999D01*
X141708500Y-91369188D01*
X141718091Y-91320970D01*
X141745402Y-91280095D01*
X141831198Y-91194300D01*
X141962523Y-91006749D01*
X142059284Y-90799243D01*
X142118543Y-90578087D01*
X142138498Y-90350000D01*
X142118543Y-90121913D01*
X142068929Y-89936751D01*
X142059284Y-89900756D01*
X141962522Y-89693249D01*
X141831195Y-89505696D01*
X141669303Y-89343804D01*
X141472719Y-89206154D01*
X141473962Y-89204378D01*
X141431824Y-89167424D01*
X141412091Y-89099724D01*
X141431824Y-89032024D01*
X141473755Y-88995250D01*
X141472468Y-88993411D01*
X141552888Y-88937099D01*
X141552888Y-88937098D01*
X140825000Y-88209211D01*
X140825000Y-88209210D01*
X140465791Y-87850001D01*
X141184210Y-87850001D01*
X141912097Y-88577888D01*
X141912099Y-88577888D01*
X141962087Y-88506498D01*
X142058813Y-88299070D01*
X142118048Y-88077999D01*
X142137995Y-87850000D01*
X142118048Y-87622000D01*
X142058813Y-87400929D01*
X141962085Y-87193497D01*
X141912100Y-87122110D01*
X141912098Y-87122110D01*
X141184210Y-87850000D01*
X141184210Y-87850001D01*
X140465791Y-87850001D01*
X139737900Y-87122109D01*
X139687913Y-87193499D01*
X139591186Y-87400929D01*
X139531951Y-87622000D01*
X139512135Y-87848501D01*
X139486576Y-87914223D01*
X139429709Y-87955920D01*
X139359343Y-87960532D01*
X139297519Y-87926614D01*
X138133805Y-86762900D01*
X140097109Y-86762900D01*
X140824999Y-87490790D01*
X140825000Y-87490790D01*
X141552888Y-86762899D01*
X141481497Y-86712912D01*
X141274070Y-86616186D01*
X141101483Y-86569942D01*
X142696779Y-86569942D01*
X142700941Y-86613961D01*
X142701500Y-86625819D01*
X142701500Y-92630156D01*
X142699204Y-92650944D01*
X142701438Y-92721995D01*
X142701500Y-92725954D01*
X142701500Y-92753866D01*
X142702007Y-92757882D01*
X142702937Y-92769705D01*
X142704326Y-92813901D01*
X142709977Y-92833350D01*
X142713986Y-92852705D01*
X142716525Y-92872803D01*
X142732801Y-92913912D01*
X142736644Y-92925139D01*
X142748980Y-92967599D01*
X142759294Y-92985039D01*
X142767987Y-93002783D01*
X142775448Y-93021626D01*
X142775449Y-93021628D01*
X142801431Y-93057389D01*
X142807948Y-93067310D01*
X142830458Y-93105372D01*
X142844778Y-93119692D01*
X142857618Y-93134725D01*
X142869526Y-93151114D01*
X142903598Y-93179301D01*
X142912378Y-93187291D01*
X143823122Y-94098035D01*
X143852428Y-94144035D01*
X143859548Y-94198111D01*
X143843146Y-94250130D01*
X143806298Y-94290343D01*
X143615696Y-94423804D01*
X143453804Y-94585696D01*
X143322477Y-94773249D01*
X143225715Y-94980756D01*
X143166457Y-95201912D01*
X143146502Y-95429999D01*
X143166457Y-95658087D01*
X143225715Y-95879243D01*
X143322477Y-96086750D01*
X143453804Y-96274303D01*
X143615696Y-96436195D01*
X143803249Y-96567522D01*
X144010756Y-96664284D01*
X144070014Y-96680162D01*
X144231913Y-96723543D01*
X144460000Y-96743498D01*
X144688087Y-96723543D01*
X144909243Y-96664284D01*
X145116749Y-96567523D01*
X145304300Y-96436198D01*
X145466198Y-96274300D01*
X145597523Y-96086749D01*
X145597524Y-96086746D01*
X145599656Y-96083702D01*
X145639869Y-96046853D01*
X145691887Y-96030451D01*
X145745963Y-96037571D01*
X145791963Y-96066876D01*
X146621628Y-96896542D01*
X147384327Y-97659241D01*
X147411641Y-97700118D01*
X147421232Y-97748336D01*
X147421232Y-123010975D01*
X147412863Y-123056129D01*
X147388868Y-123095286D01*
X147315690Y-123176557D01*
X147220204Y-123341943D01*
X147161190Y-123523570D01*
X147141228Y-123713500D01*
X147161190Y-123903429D01*
X147220204Y-124085056D01*
X147315690Y-124250442D01*
X147315692Y-124250444D01*
X147443479Y-124392366D01*
X147597980Y-124504618D01*
X147772444Y-124582294D01*
X147959245Y-124622000D01*
X148150217Y-124622000D01*
X148150219Y-124622000D01*
X148337020Y-124582294D01*
X148511484Y-124504618D01*
X148665985Y-124392366D01*
X148793772Y-124250444D01*
X148889259Y-124085056D01*
X148948274Y-123903428D01*
X148968236Y-123713500D01*
X148948274Y-123523572D01*
X148917663Y-123429362D01*
X148889259Y-123341943D01*
X148793773Y-123176557D01*
X148720596Y-123095286D01*
X148696601Y-123056129D01*
X148688232Y-123010975D01*
X148688232Y-122073013D01*
X148706513Y-122007647D01*
X148756053Y-121961249D01*
X148822475Y-121947283D01*
X148872346Y-121964822D01*
X148873260Y-121962864D01*
X149090756Y-122064284D01*
X149150014Y-122080162D01*
X149311913Y-122123543D01*
X149540000Y-122143498D01*
X149768087Y-122123543D01*
X149989243Y-122064284D01*
X150196749Y-121967523D01*
X150384300Y-121836198D01*
X150546198Y-121674300D01*
X150677523Y-121486749D01*
X150774284Y-121279243D01*
X150833543Y-121058087D01*
X150853498Y-120830000D01*
X150833543Y-120601913D01*
X150788081Y-120432249D01*
X150774284Y-120380756D01*
X150677522Y-120173249D01*
X150546195Y-119985696D01*
X150384303Y-119823804D01*
X150196750Y-119692477D01*
X149989243Y-119595715D01*
X149768087Y-119536457D01*
X149540000Y-119516502D01*
X149311912Y-119536457D01*
X149090756Y-119595715D01*
X148873260Y-119697136D01*
X148872346Y-119695177D01*
X148822475Y-119712717D01*
X148756053Y-119698751D01*
X148706513Y-119652353D01*
X148688232Y-119586987D01*
X148688232Y-111912402D01*
X148706514Y-111847035D01*
X148756054Y-111800637D01*
X148822478Y-111786672D01*
X148872632Y-111804312D01*
X148873511Y-111802429D01*
X149090929Y-111903813D01*
X149286000Y-111956082D01*
X149286000Y-110924000D01*
X149794000Y-110924000D01*
X149794000Y-111956082D01*
X149989070Y-111903813D01*
X150196498Y-111807087D01*
X150383981Y-111675810D01*
X150545810Y-111513981D01*
X150677087Y-111326498D01*
X150773813Y-111119070D01*
X150826082Y-110924000D01*
X149794000Y-110924000D01*
X149286000Y-110924000D01*
X149286000Y-109383917D01*
X149793999Y-109383917D01*
X149794000Y-109383918D01*
X149794000Y-110416000D01*
X150826082Y-110416000D01*
X150773813Y-110220929D01*
X150677087Y-110013501D01*
X150545810Y-109826018D01*
X150383981Y-109664189D01*
X150196498Y-109532912D01*
X149989070Y-109436186D01*
X149793999Y-109383917D01*
X149286000Y-109383917D01*
X149090929Y-109436186D01*
X148873511Y-109537571D01*
X148872632Y-109535687D01*
X148822478Y-109553328D01*
X148756054Y-109539363D01*
X148706514Y-109492965D01*
X148688232Y-109427598D01*
X148688232Y-106833013D01*
X148706513Y-106767647D01*
X148756053Y-106721249D01*
X148822475Y-106707283D01*
X148872346Y-106724822D01*
X148873260Y-106722864D01*
X149090756Y-106824284D01*
X149150014Y-106840162D01*
X149311913Y-106883543D01*
X149540000Y-106903498D01*
X149768087Y-106883543D01*
X149989243Y-106824284D01*
X150196749Y-106727523D01*
X150384300Y-106596198D01*
X150546198Y-106434300D01*
X150677523Y-106246749D01*
X150774284Y-106039243D01*
X150833543Y-105818087D01*
X150853498Y-105590000D01*
X150853498Y-105589999D01*
X153306502Y-105589999D01*
X153326457Y-105818087D01*
X153385715Y-106039243D01*
X153482477Y-106246750D01*
X153613804Y-106434303D01*
X153775696Y-106596195D01*
X153963249Y-106727522D01*
X154170756Y-106824284D01*
X154230014Y-106840162D01*
X154391913Y-106883543D01*
X154620000Y-106903498D01*
X154848087Y-106883543D01*
X155069243Y-106824284D01*
X155276749Y-106727523D01*
X155464300Y-106596198D01*
X155626198Y-106434300D01*
X155757523Y-106246749D01*
X155854284Y-106039243D01*
X155913543Y-105818087D01*
X155933498Y-105590000D01*
X155913543Y-105361913D01*
X155854284Y-105140757D01*
X155757523Y-104933251D01*
X155626198Y-104745700D01*
X155626197Y-104745699D01*
X155626195Y-104745696D01*
X155464303Y-104583804D01*
X155276750Y-104452477D01*
X155069243Y-104355715D01*
X154848087Y-104296457D01*
X154620000Y-104276502D01*
X154391912Y-104296457D01*
X154170756Y-104355715D01*
X153963249Y-104452477D01*
X153775696Y-104583804D01*
X153613804Y-104745696D01*
X153482477Y-104933249D01*
X153385715Y-105140756D01*
X153326457Y-105361912D01*
X153306502Y-105589999D01*
X150853498Y-105589999D01*
X150833543Y-105361913D01*
X150774284Y-105140757D01*
X150677523Y-104933251D01*
X150546198Y-104745700D01*
X150546197Y-104745699D01*
X150546195Y-104745696D01*
X150384303Y-104583804D01*
X150362158Y-104568297D01*
X150227227Y-104473818D01*
X150187737Y-104428787D01*
X150173500Y-104370607D01*
X150173500Y-98367172D01*
X150175795Y-98346383D01*
X150173562Y-98275333D01*
X150173500Y-98271374D01*
X150173500Y-98243468D01*
X150173500Y-98243463D01*
X150172992Y-98239450D01*
X150172061Y-98227616D01*
X150170673Y-98183429D01*
X150165020Y-98163975D01*
X150161012Y-98144617D01*
X150158474Y-98124522D01*
X150142195Y-98083409D01*
X150138353Y-98072188D01*
X150126018Y-98029726D01*
X150126017Y-98029725D01*
X150126017Y-98029723D01*
X150115707Y-98012290D01*
X150107008Y-97994534D01*
X150099552Y-97975702D01*
X150073565Y-97939935D01*
X150067047Y-97930012D01*
X150057395Y-97913691D01*
X150044542Y-97891957D01*
X150030212Y-97877627D01*
X150017378Y-97862600D01*
X150005472Y-97846212D01*
X150005471Y-97846211D01*
X149971394Y-97818019D01*
X149962616Y-97810031D01*
X149049127Y-96896542D01*
X149016515Y-96840058D01*
X149016515Y-96774836D01*
X149049127Y-96718351D01*
X149105611Y-96685740D01*
X149170831Y-96685740D01*
X149311913Y-96723543D01*
X149540000Y-96743498D01*
X149768087Y-96723543D01*
X149989243Y-96664284D01*
X150196749Y-96567523D01*
X150384300Y-96436198D01*
X150546198Y-96274300D01*
X150677523Y-96086749D01*
X150774284Y-95879243D01*
X150833543Y-95658087D01*
X150853498Y-95430000D01*
X150833543Y-95201913D01*
X150774284Y-94980757D01*
X150677523Y-94773251D01*
X150546198Y-94585700D01*
X150546197Y-94585699D01*
X150546195Y-94585696D01*
X150384303Y-94423804D01*
X150196750Y-94292477D01*
X149989243Y-94195715D01*
X149768087Y-94136457D01*
X149540000Y-94116502D01*
X149311912Y-94136457D01*
X149090756Y-94195715D01*
X148883249Y-94292477D01*
X148695696Y-94423804D01*
X148533804Y-94585696D01*
X148530374Y-94590595D01*
X148423818Y-94742772D01*
X148378787Y-94782263D01*
X148320607Y-94796500D01*
X148076595Y-94796500D01*
X148028377Y-94786909D01*
X147987500Y-94759595D01*
X147855405Y-94627500D01*
X147828091Y-94586623D01*
X147818500Y-94538405D01*
X147818500Y-91979393D01*
X147832737Y-91921213D01*
X147872227Y-91876181D01*
X148029300Y-91766198D01*
X148191198Y-91604300D01*
X148322523Y-91416749D01*
X148340804Y-91377543D01*
X148387300Y-91324525D01*
X148455000Y-91304792D01*
X148522700Y-91324525D01*
X148569195Y-91377543D01*
X148587476Y-91416748D01*
X148718804Y-91604303D01*
X148880696Y-91766195D01*
X149068249Y-91897522D01*
X149275756Y-91994284D01*
X149335015Y-92010162D01*
X149496913Y-92053543D01*
X149725000Y-92073498D01*
X149953087Y-92053543D01*
X150174243Y-91994284D01*
X150174247Y-91994281D01*
X150184891Y-91991430D01*
X150185096Y-91992197D01*
X150221707Y-91983520D01*
X150271892Y-91992369D01*
X150314468Y-92020372D01*
X153310847Y-95016751D01*
X153343458Y-95073234D01*
X153343459Y-95138456D01*
X153326457Y-95201910D01*
X153306502Y-95429999D01*
X153326457Y-95658087D01*
X153385715Y-95879243D01*
X153482477Y-96086750D01*
X153613804Y-96274303D01*
X153775696Y-96436195D01*
X153963249Y-96567522D01*
X154170756Y-96664284D01*
X154230014Y-96680162D01*
X154391913Y-96723543D01*
X154620000Y-96743498D01*
X154848087Y-96723543D01*
X155069243Y-96664284D01*
X155276749Y-96567523D01*
X155464300Y-96436198D01*
X155626198Y-96274300D01*
X155757523Y-96086749D01*
X155854284Y-95879243D01*
X155913543Y-95658087D01*
X155933498Y-95430000D01*
X155913543Y-95201913D01*
X155854284Y-94980757D01*
X155757523Y-94773251D01*
X155626198Y-94585700D01*
X155626197Y-94585699D01*
X155626195Y-94585696D01*
X155464303Y-94423804D01*
X155276750Y-94292477D01*
X155069243Y-94195715D01*
X154848087Y-94136457D01*
X154620000Y-94116502D01*
X154391910Y-94136457D01*
X154328457Y-94153459D01*
X154263235Y-94153458D01*
X154206752Y-94120847D01*
X152358963Y-92273058D01*
X152325045Y-92211234D01*
X152329657Y-92140868D01*
X152371355Y-92084000D01*
X152437074Y-92058443D01*
X152493087Y-92053543D01*
X152714243Y-91994284D01*
X152921749Y-91897523D01*
X153109300Y-91766198D01*
X153271198Y-91604300D01*
X153402523Y-91416749D01*
X153499284Y-91209243D01*
X153558543Y-90988087D01*
X153573500Y-90817127D01*
X153573500Y-89902873D01*
X153558543Y-89731913D01*
X153499284Y-89510757D01*
X153486168Y-89482630D01*
X153402522Y-89303249D01*
X153271195Y-89115696D01*
X153109303Y-88953804D01*
X152921750Y-88822477D01*
X152714243Y-88725715D01*
X152493087Y-88666457D01*
X152265000Y-88646502D01*
X152036912Y-88666457D01*
X151815756Y-88725715D01*
X151608249Y-88822477D01*
X151420696Y-88953804D01*
X151258804Y-89115696D01*
X151127477Y-89303250D01*
X151109195Y-89342457D01*
X151062700Y-89395474D01*
X150995000Y-89415207D01*
X150927300Y-89395474D01*
X150880805Y-89342457D01*
X150878894Y-89338359D01*
X150862523Y-89303251D01*
X150731198Y-89115700D01*
X150731197Y-89115699D01*
X150731195Y-89115696D01*
X150569303Y-88953804D01*
X150381750Y-88822477D01*
X150174243Y-88725715D01*
X149953087Y-88666457D01*
X149725000Y-88646502D01*
X149496912Y-88666457D01*
X149275756Y-88725715D01*
X149068249Y-88822477D01*
X148880696Y-88953804D01*
X148718804Y-89115696D01*
X148587477Y-89303250D01*
X148569195Y-89342457D01*
X148522700Y-89395474D01*
X148455000Y-89415207D01*
X148387300Y-89395474D01*
X148340805Y-89342457D01*
X148338894Y-89338359D01*
X148322523Y-89303251D01*
X148191198Y-89115700D01*
X148191197Y-89115699D01*
X148191195Y-89115696D01*
X148029303Y-88953804D01*
X147841750Y-88822477D01*
X147634243Y-88725715D01*
X147413087Y-88666457D01*
X147185000Y-88646502D01*
X146956912Y-88666457D01*
X146735756Y-88725715D01*
X146582750Y-88797064D01*
X146521259Y-88808599D01*
X146461800Y-88789136D01*
X146419032Y-88743474D01*
X146403500Y-88682869D01*
X146403500Y-87009594D01*
X146413091Y-86961376D01*
X146440405Y-86920499D01*
X147003804Y-86357100D01*
X155337110Y-86357100D01*
X155408497Y-86407085D01*
X155615929Y-86503813D01*
X155837000Y-86563048D01*
X156065000Y-86582995D01*
X156292999Y-86563048D01*
X156514070Y-86503813D01*
X156721498Y-86407087D01*
X156792888Y-86357099D01*
X156792888Y-86357097D01*
X156065001Y-85629210D01*
X156065000Y-85629210D01*
X155337110Y-86357098D01*
X155337110Y-86357100D01*
X147003804Y-86357100D01*
X147082477Y-86278427D01*
X148090904Y-85269999D01*
X154752004Y-85269999D01*
X154771951Y-85497999D01*
X154831186Y-85719070D01*
X154927912Y-85926497D01*
X154977900Y-85997887D01*
X155705790Y-85270000D01*
X155705790Y-85269999D01*
X154977900Y-84542109D01*
X154927913Y-84613499D01*
X154831186Y-84820929D01*
X154771951Y-85042000D01*
X154752004Y-85269999D01*
X148090904Y-85269999D01*
X149016185Y-84344717D01*
X149058758Y-84316716D01*
X149108943Y-84307867D01*
X149158526Y-84319618D01*
X149275757Y-84374284D01*
X149496913Y-84433543D01*
X149725000Y-84453498D01*
X149953087Y-84433543D01*
X150174243Y-84374284D01*
X150381749Y-84277523D01*
X150569300Y-84146198D01*
X150731198Y-83984300D01*
X150862523Y-83796749D01*
X150880804Y-83757543D01*
X150927300Y-83704525D01*
X150995000Y-83684792D01*
X151062700Y-83704525D01*
X151109195Y-83757543D01*
X151127476Y-83796748D01*
X151258804Y-83984303D01*
X151420696Y-84146195D01*
X151608249Y-84277522D01*
X151815756Y-84374284D01*
X151875014Y-84390162D01*
X152036913Y-84433543D01*
X152265000Y-84453498D01*
X152493087Y-84433543D01*
X152714243Y-84374284D01*
X152921749Y-84277523D01*
X153109300Y-84146198D01*
X153271198Y-83984300D01*
X153402523Y-83796749D01*
X153499284Y-83589243D01*
X153558543Y-83368087D01*
X153573500Y-83197127D01*
X153573500Y-82282873D01*
X153558543Y-82111913D01*
X153499284Y-81890757D01*
X153483245Y-81856362D01*
X153402522Y-81683249D01*
X153299217Y-81535715D01*
X153271198Y-81495700D01*
X153271197Y-81495699D01*
X153271195Y-81495696D01*
X153109303Y-81333804D01*
X152921750Y-81202477D01*
X152714243Y-81105715D01*
X152493087Y-81046457D01*
X152265000Y-81026502D01*
X152036912Y-81046457D01*
X151815756Y-81105715D01*
X151608249Y-81202477D01*
X151420696Y-81333804D01*
X151258804Y-81495696D01*
X151127477Y-81683250D01*
X151109195Y-81722457D01*
X151062700Y-81775474D01*
X150995000Y-81795207D01*
X150927300Y-81775474D01*
X150880805Y-81722457D01*
X150878894Y-81718359D01*
X150862523Y-81683251D01*
X150731198Y-81495700D01*
X150731197Y-81495699D01*
X150731195Y-81495696D01*
X150569303Y-81333804D01*
X150512163Y-81293794D01*
X150381749Y-81202477D01*
X150371250Y-81197581D01*
X150318233Y-81151087D01*
X150298500Y-81083387D01*
X150298500Y-78869393D01*
X150312737Y-78811213D01*
X150352227Y-78766181D01*
X150509300Y-78656198D01*
X150671198Y-78494300D01*
X150802523Y-78306749D01*
X150899284Y-78099243D01*
X150958543Y-77878087D01*
X150978498Y-77650000D01*
X150978498Y-77649999D01*
X153431502Y-77649999D01*
X153451457Y-77878087D01*
X153510715Y-78099243D01*
X153607477Y-78306750D01*
X153738804Y-78494303D01*
X153900696Y-78656195D01*
X154088249Y-78787522D01*
X154295756Y-78884284D01*
X154350532Y-78898961D01*
X154516913Y-78943543D01*
X154745000Y-78963498D01*
X154973087Y-78943543D01*
X155194243Y-78884284D01*
X155401749Y-78787523D01*
X155589300Y-78656198D01*
X155751198Y-78494300D01*
X155882523Y-78306749D01*
X155979284Y-78099243D01*
X156038543Y-77878087D01*
X156058498Y-77650000D01*
X156038543Y-77421913D01*
X155979284Y-77200757D01*
X155882523Y-76993251D01*
X155860714Y-76962105D01*
X155770047Y-76832619D01*
X155751198Y-76805700D01*
X155751197Y-76805699D01*
X155751195Y-76805696D01*
X155589303Y-76643804D01*
X155401750Y-76512477D01*
X155194243Y-76415715D01*
X154973087Y-76356457D01*
X154745000Y-76336502D01*
X154516912Y-76356457D01*
X154295756Y-76415715D01*
X154088249Y-76512477D01*
X153900696Y-76643804D01*
X153738804Y-76805696D01*
X153607477Y-76993249D01*
X153510715Y-77200756D01*
X153451457Y-77421912D01*
X153431502Y-77649999D01*
X150978498Y-77649999D01*
X150958543Y-77421913D01*
X150899284Y-77200757D01*
X150802523Y-76993251D01*
X150780714Y-76962105D01*
X150690047Y-76832619D01*
X150671198Y-76805700D01*
X150671197Y-76805699D01*
X150671195Y-76805696D01*
X150509303Y-76643804D01*
X150321750Y-76512477D01*
X150114243Y-76415715D01*
X149893087Y-76356457D01*
X149665000Y-76336502D01*
X149436912Y-76356457D01*
X149215756Y-76415715D01*
X149008249Y-76512477D01*
X148820696Y-76643804D01*
X148658804Y-76805696D01*
X148527477Y-76993249D01*
X148430715Y-77200756D01*
X148371457Y-77421912D01*
X148351502Y-77649999D01*
X148371457Y-77878087D01*
X148430715Y-78099243D01*
X148527477Y-78306750D01*
X148658804Y-78494303D01*
X148820696Y-78656195D01*
X148820699Y-78656197D01*
X148820700Y-78656198D01*
X148977772Y-78766181D01*
X149017263Y-78811213D01*
X149031500Y-78869393D01*
X149031500Y-81162619D01*
X149017263Y-81220799D01*
X148977771Y-81265832D01*
X148880696Y-81333804D01*
X148718804Y-81495696D01*
X148587477Y-81683250D01*
X148569195Y-81722457D01*
X148522700Y-81775474D01*
X148455000Y-81795207D01*
X148387300Y-81775474D01*
X148340805Y-81722457D01*
X148338894Y-81718359D01*
X148322523Y-81683251D01*
X148191198Y-81495700D01*
X148191197Y-81495699D01*
X148191195Y-81495696D01*
X148029303Y-81333804D01*
X147841750Y-81202477D01*
X147634243Y-81105715D01*
X147413087Y-81046457D01*
X147185000Y-81026502D01*
X146956912Y-81046457D01*
X146735754Y-81105716D01*
X146618528Y-81160379D01*
X146568943Y-81172131D01*
X146518759Y-81163282D01*
X146476184Y-81135279D01*
X145255405Y-79914500D01*
X145228091Y-79873623D01*
X145218500Y-79825405D01*
X145218500Y-78869393D01*
X145232737Y-78811213D01*
X145272227Y-78766181D01*
X145429300Y-78656198D01*
X145591198Y-78494300D01*
X145722523Y-78306749D01*
X145819284Y-78099243D01*
X145878543Y-77878087D01*
X145898498Y-77650000D01*
X145878543Y-77421913D01*
X145819284Y-77200757D01*
X145722523Y-76993251D01*
X145700714Y-76962105D01*
X145610047Y-76832619D01*
X145591198Y-76805700D01*
X145591197Y-76805699D01*
X145591195Y-76805696D01*
X145429303Y-76643804D01*
X145241750Y-76512477D01*
X145034243Y-76415715D01*
X144813087Y-76356457D01*
X144585000Y-76336502D01*
X144356912Y-76356457D01*
X144135756Y-76415715D01*
X143928249Y-76512477D01*
X143740696Y-76643804D01*
X143578804Y-76805696D01*
X143447477Y-76993249D01*
X143350715Y-77200756D01*
X143291457Y-77421912D01*
X143271502Y-77649999D01*
X143291457Y-77878087D01*
X143350715Y-78099243D01*
X143447477Y-78306750D01*
X143578804Y-78494303D01*
X143740696Y-78656195D01*
X143740699Y-78656197D01*
X143740700Y-78656198D01*
X143897772Y-78766181D01*
X143937263Y-78811213D01*
X143951500Y-78869393D01*
X143951500Y-80056147D01*
X143949204Y-80076935D01*
X143951438Y-80147986D01*
X143951500Y-80151945D01*
X143951500Y-80179857D01*
X143952007Y-80183873D01*
X143952937Y-80195696D01*
X143954326Y-80239892D01*
X143959977Y-80259341D01*
X143963986Y-80278696D01*
X143966525Y-80298794D01*
X143982801Y-80339903D01*
X143986644Y-80351130D01*
X143998980Y-80393590D01*
X144009294Y-80411030D01*
X144017987Y-80428774D01*
X144025448Y-80447617D01*
X144025449Y-80447619D01*
X144051431Y-80483380D01*
X144057948Y-80493301D01*
X144080458Y-80531363D01*
X144094778Y-80545683D01*
X144107618Y-80560716D01*
X144119526Y-80577105D01*
X144153598Y-80605292D01*
X144162378Y-80613282D01*
X144365501Y-80816405D01*
X144396239Y-80866564D01*
X144400855Y-80925211D01*
X144378342Y-80979561D01*
X144333609Y-81017767D01*
X144276406Y-81031500D01*
X143796362Y-81031500D01*
X143735799Y-81038011D01*
X143598794Y-81089111D01*
X143481738Y-81176738D01*
X143394111Y-81293794D01*
X143362100Y-81379619D01*
X143343011Y-81430799D01*
X143336500Y-81491362D01*
X143336500Y-83988638D01*
X143343011Y-84049201D01*
X143353172Y-84076444D01*
X143394111Y-84186205D01*
X143481738Y-84303261D01*
X143598794Y-84390888D01*
X143598795Y-84390888D01*
X143598796Y-84390889D01*
X143735799Y-84441989D01*
X143796362Y-84448500D01*
X144276405Y-84448500D01*
X144333608Y-84462233D01*
X144378341Y-84500439D01*
X144400854Y-84554789D01*
X144396238Y-84613436D01*
X144365501Y-84663593D01*
X143102597Y-85926497D01*
X142946336Y-86082758D01*
X142930015Y-86095834D01*
X142881370Y-86147635D01*
X142878620Y-86150473D01*
X142858868Y-86170226D01*
X142858864Y-86170230D01*
X142858865Y-86170230D01*
X142856379Y-86173433D01*
X142848687Y-86182439D01*
X142818413Y-86214678D01*
X142808652Y-86232434D01*
X142797801Y-86248952D01*
X142785385Y-86264959D01*
X142767824Y-86305539D01*
X142762604Y-86316195D01*
X142741304Y-86354940D01*
X142736267Y-86374559D01*
X142729864Y-86393261D01*
X142721818Y-86411855D01*
X142714901Y-86455524D01*
X142712495Y-86467144D01*
X142701500Y-86509970D01*
X142701500Y-86530224D01*
X142699949Y-86549934D01*
X142696779Y-86569942D01*
X141101483Y-86569942D01*
X141052999Y-86556951D01*
X140825000Y-86537004D01*
X140597000Y-86556951D01*
X140375929Y-86616186D01*
X140168499Y-86712913D01*
X140097109Y-86762900D01*
X138133805Y-86762900D01*
X127670405Y-76299500D01*
X127643091Y-76258623D01*
X127633500Y-76210405D01*
X127633500Y-73387088D01*
X127652813Y-73320052D01*
X127704831Y-73273566D01*
X127841604Y-73207700D01*
X128049462Y-73065984D01*
X128233878Y-72894872D01*
X128390731Y-72698184D01*
X128516517Y-72480316D01*
X128608427Y-72246134D01*
X128664407Y-72000869D01*
X128683207Y-71750000D01*
X128664407Y-71499131D01*
X128608427Y-71253866D01*
X128516517Y-71019684D01*
X128390731Y-70801816D01*
X128233878Y-70605128D01*
X128049462Y-70434016D01*
X127841604Y-70292300D01*
X127841603Y-70292299D01*
X127841601Y-70292298D01*
X127614945Y-70183146D01*
X127441134Y-70129533D01*
X127374549Y-70108995D01*
X127125786Y-70071500D01*
X126874214Y-70071500D01*
X126625451Y-70108995D01*
X126612477Y-70112996D01*
X126385054Y-70183146D01*
X126158396Y-70292300D01*
X125950541Y-70434012D01*
X125849327Y-70527924D01*
X125766122Y-70605128D01*
X125609269Y-70801816D01*
X125609267Y-70801819D01*
X125483483Y-71019683D01*
X125391572Y-71253866D01*
X125335593Y-71499128D01*
X125316793Y-71750000D01*
X125335593Y-72000871D01*
X125391572Y-72246133D01*
X125441106Y-72372342D01*
X125483483Y-72480316D01*
X125609269Y-72698184D01*
X125766122Y-72894872D01*
X125932533Y-73049278D01*
X125950541Y-73065987D01*
X126106432Y-73172270D01*
X126158397Y-73207700D01*
X126263375Y-73258254D01*
X126295169Y-73273566D01*
X126347187Y-73320052D01*
X126366500Y-73387088D01*
X126366500Y-76441147D01*
X126364204Y-76461935D01*
X126366438Y-76532986D01*
X126366500Y-76536945D01*
X126366500Y-76564857D01*
X126367007Y-76568873D01*
X126367937Y-76580696D01*
X126369326Y-76624892D01*
X126374977Y-76644341D01*
X126378986Y-76663696D01*
X126381525Y-76683794D01*
X126397801Y-76724903D01*
X126401644Y-76736130D01*
X126413980Y-76778590D01*
X126424294Y-76796030D01*
X126432987Y-76813774D01*
X126440448Y-76832617D01*
X126440449Y-76832619D01*
X126466431Y-76868380D01*
X126472948Y-76878301D01*
X126495458Y-76916363D01*
X126509778Y-76930683D01*
X126522618Y-76945716D01*
X126534526Y-76962105D01*
X126568598Y-76990292D01*
X126577378Y-76998282D01*
X139515847Y-89936751D01*
X139548458Y-89993234D01*
X139548459Y-90058456D01*
X139531457Y-90121910D01*
X139531457Y-90121912D01*
X139531457Y-90121913D01*
X139511502Y-90350000D01*
X139518780Y-90433190D01*
X139531457Y-90578087D01*
X139590715Y-90799243D01*
X139687477Y-91006750D01*
X139735932Y-91075950D01*
X139818802Y-91194300D01*
X139904597Y-91280095D01*
X139931909Y-91320970D01*
X139941500Y-91369188D01*
X139941500Y-109301588D01*
X139928506Y-109357316D01*
X139892204Y-109401550D01*
X139840081Y-109425167D01*
X139782889Y-109423295D01*
X139608087Y-109376457D01*
X139493786Y-109366457D01*
X139380000Y-109356502D01*
X139379999Y-109356502D01*
X139151912Y-109376457D01*
X138930756Y-109435715D01*
X138723249Y-109532477D01*
X138535696Y-109663804D01*
X138373804Y-109825696D01*
X138242477Y-110013249D01*
X138145715Y-110220756D01*
X138086457Y-110441912D01*
X138066502Y-110669999D01*
X138086457Y-110898087D01*
X138145715Y-111119243D01*
X138242477Y-111326750D01*
X138373804Y-111514303D01*
X138535696Y-111676195D01*
X138723249Y-111807522D01*
X138930756Y-111904284D01*
X138970126Y-111914833D01*
X139151913Y-111963543D01*
X139380000Y-111983498D01*
X139608087Y-111963543D01*
X139741809Y-111927712D01*
X139782889Y-111916705D01*
X139840081Y-111914833D01*
X139892204Y-111938450D01*
X139928506Y-111982684D01*
X139941500Y-112038412D01*
X139941500Y-119461588D01*
X139928506Y-119517316D01*
X139892204Y-119561550D01*
X139840081Y-119585167D01*
X139782889Y-119583295D01*
X139608087Y-119536457D01*
X139380000Y-119516502D01*
X139151912Y-119536457D01*
X138930756Y-119595715D01*
X138723249Y-119692477D01*
X138535696Y-119823804D01*
X138373804Y-119985696D01*
X138242477Y-120173249D01*
X138145715Y-120380756D01*
X138086457Y-120601912D01*
X138066502Y-120829999D01*
X138086457Y-121058087D01*
X138145715Y-121279243D01*
X138242477Y-121486750D01*
X138373804Y-121674303D01*
X138535696Y-121836195D01*
X138535699Y-121836197D01*
X138535700Y-121836198D01*
X138560771Y-121853753D01*
X138723249Y-121967522D01*
X138930756Y-122064284D01*
X138990014Y-122080162D01*
X139151913Y-122123543D01*
X139380000Y-122143498D01*
X139608087Y-122123543D01*
X139829243Y-122064284D01*
X140036749Y-121967523D01*
X140224300Y-121836198D01*
X140386198Y-121674300D01*
X140517523Y-121486749D01*
X140614284Y-121279243D01*
X140614284Y-121279241D01*
X140618216Y-121270810D01*
X140655707Y-121224097D01*
X140710531Y-121199973D01*
X140770300Y-121203891D01*
X140821506Y-121234964D01*
X151348595Y-131762053D01*
X151375909Y-131802930D01*
X151385500Y-131851148D01*
X151385500Y-144285545D01*
X151383949Y-144305254D01*
X151381850Y-144318507D01*
X151385327Y-144384851D01*
X151385500Y-144391445D01*
X151385500Y-144411312D01*
X151387575Y-144431065D01*
X151388092Y-144437632D01*
X151391569Y-144503969D01*
X151395043Y-144516935D01*
X151398643Y-144536363D01*
X151400045Y-144549699D01*
X151400046Y-144549702D01*
X151420574Y-144612881D01*
X151422442Y-144619189D01*
X151439637Y-144683362D01*
X151445727Y-144695314D01*
X151453290Y-144713572D01*
X151457436Y-144726331D01*
X151457437Y-144726333D01*
X151490646Y-144783853D01*
X151493793Y-144789649D01*
X151523951Y-144848836D01*
X151532391Y-144859259D01*
X151543587Y-144875550D01*
X151550295Y-144887168D01*
X151594744Y-144936535D01*
X151599026Y-144941548D01*
X151611528Y-144956986D01*
X151625589Y-144971047D01*
X151630095Y-144975795D01*
X151674566Y-145025185D01*
X151685421Y-145033071D01*
X151700453Y-145045911D01*
X153842763Y-147188221D01*
X155845948Y-149191405D01*
X155876686Y-149241564D01*
X155881302Y-149300211D01*
X155858789Y-149354561D01*
X155814056Y-149392767D01*
X155756853Y-149406500D01*
X153664594Y-149406500D01*
X153616376Y-149396909D01*
X153575499Y-149369595D01*
X150337405Y-146131500D01*
X150310091Y-146090623D01*
X150300500Y-146042405D01*
X150300500Y-133800854D01*
X150302795Y-133780064D01*
X150302471Y-133769759D01*
X150300561Y-133709001D01*
X150300500Y-133705044D01*
X150300500Y-133677149D01*
X150300500Y-133677144D01*
X150299993Y-133673138D01*
X150299062Y-133661305D01*
X150298709Y-133650058D01*
X150297674Y-133617111D01*
X150292019Y-133597647D01*
X150288013Y-133578307D01*
X150285474Y-133558203D01*
X150269195Y-133517087D01*
X150265356Y-133505872D01*
X150264845Y-133504114D01*
X150253019Y-133463407D01*
X150242703Y-133445964D01*
X150234007Y-133428214D01*
X150226552Y-133409383D01*
X150200554Y-133373600D01*
X150194058Y-133363710D01*
X150171542Y-133325638D01*
X150157212Y-133311308D01*
X150144378Y-133296281D01*
X150132472Y-133279893D01*
X150132471Y-133279892D01*
X150098394Y-133251700D01*
X150089616Y-133243712D01*
X148898108Y-132052204D01*
X148869469Y-132007994D01*
X148861407Y-131955939D01*
X148875328Y-131905146D01*
X148892491Y-131872025D01*
X148986797Y-131606674D01*
X149044092Y-131330954D01*
X149063310Y-131050000D01*
X149044092Y-130769046D01*
X148986797Y-130493326D01*
X148892491Y-130227975D01*
X148892489Y-130227969D01*
X148762933Y-129977939D01*
X148741861Y-129948087D01*
X148600533Y-129747870D01*
X148408319Y-129542059D01*
X148189870Y-129364338D01*
X147949257Y-129218018D01*
X147690960Y-129105824D01*
X147690958Y-129105823D01*
X147690955Y-129105822D01*
X147419792Y-129029845D01*
X147140808Y-128991500D01*
X147140805Y-128991500D01*
X146859195Y-128991500D01*
X146859192Y-128991500D01*
X146580207Y-129029845D01*
X146309044Y-129105822D01*
X146050744Y-129218017D01*
X145810129Y-129364338D01*
X145591679Y-129542060D01*
X145399467Y-129747869D01*
X145237066Y-129977939D01*
X145107510Y-130227969D01*
X145013203Y-130493324D01*
X144955907Y-130769049D01*
X144936690Y-131050000D01*
X144955907Y-131330950D01*
X145013203Y-131606675D01*
X145107510Y-131872030D01*
X145237066Y-132122060D01*
X145237068Y-132122063D01*
X145339325Y-132266928D01*
X145399467Y-132352130D01*
X145577862Y-132543145D01*
X145591681Y-132557941D01*
X145810130Y-132735662D01*
X146050743Y-132881982D01*
X146309040Y-132994176D01*
X146309044Y-132994177D01*
X146580207Y-133070154D01*
X146859192Y-133108500D01*
X146859195Y-133108500D01*
X147140805Y-133108500D01*
X147140808Y-133108500D01*
X147350045Y-133079740D01*
X147419793Y-133070154D01*
X147690960Y-132994176D01*
X147861414Y-132920136D01*
X147910176Y-132909713D01*
X147959166Y-132919024D01*
X148000706Y-132946610D01*
X148996595Y-133942499D01*
X149023909Y-133983376D01*
X149033500Y-134031594D01*
X149033500Y-134683066D01*
X149016041Y-134747057D01*
X148968503Y-134793314D01*
X148904059Y-134809019D01*
X148840568Y-134789819D01*
X148795627Y-134741035D01*
X148762932Y-134677937D01*
X148755272Y-134667085D01*
X148600533Y-134447870D01*
X148408319Y-134242059D01*
X148189870Y-134064338D01*
X147949257Y-133918018D01*
X147690960Y-133805824D01*
X147690958Y-133805823D01*
X147690955Y-133805822D01*
X147419792Y-133729845D01*
X147140808Y-133691500D01*
X147140805Y-133691500D01*
X146859195Y-133691500D01*
X146859192Y-133691500D01*
X146580207Y-133729845D01*
X146309044Y-133805822D01*
X146050744Y-133918017D01*
X145810129Y-134064338D01*
X145591679Y-134242060D01*
X145399467Y-134447869D01*
X145237066Y-134677939D01*
X145107510Y-134927969D01*
X145013203Y-135193324D01*
X144955907Y-135469049D01*
X144936690Y-135749999D01*
X144955907Y-136030950D01*
X145013203Y-136306675D01*
X145107510Y-136572030D01*
X145204373Y-136758965D01*
X145237068Y-136822063D01*
X145399467Y-137052130D01*
X145591681Y-137257941D01*
X145810130Y-137435662D01*
X146050743Y-137581982D01*
X146309040Y-137694176D01*
X146309044Y-137694177D01*
X146580207Y-137770154D01*
X146859192Y-137808500D01*
X146859195Y-137808500D01*
X147140805Y-137808500D01*
X147140808Y-137808500D01*
X147353666Y-137779243D01*
X147419793Y-137770154D01*
X147690960Y-137694176D01*
X147949257Y-137581982D01*
X148189870Y-137435662D01*
X148408319Y-137257941D01*
X148600533Y-137052130D01*
X148762932Y-136822063D01*
X148795626Y-136758965D01*
X148840568Y-136710181D01*
X148904059Y-136690981D01*
X148968503Y-136706686D01*
X149016041Y-136752943D01*
X149033500Y-136816934D01*
X149033500Y-139383066D01*
X149016041Y-139447057D01*
X148968503Y-139493314D01*
X148904059Y-139509019D01*
X148840568Y-139489819D01*
X148795627Y-139441035D01*
X148762932Y-139377937D01*
X148688733Y-139272821D01*
X148600533Y-139147870D01*
X148438533Y-138974410D01*
X148408320Y-138942060D01*
X148395787Y-138931864D01*
X148189870Y-138764338D01*
X147949257Y-138618018D01*
X147947362Y-138617195D01*
X147727738Y-138521799D01*
X147690960Y-138505824D01*
X147690958Y-138505823D01*
X147690955Y-138505822D01*
X147419792Y-138429845D01*
X147140808Y-138391500D01*
X147140805Y-138391500D01*
X146859195Y-138391500D01*
X146859192Y-138391500D01*
X146580207Y-138429845D01*
X146309044Y-138505822D01*
X146050744Y-138618017D01*
X145810129Y-138764338D01*
X145591679Y-138942060D01*
X145399467Y-139147869D01*
X145237066Y-139377939D01*
X145107510Y-139627969D01*
X145013203Y-139893324D01*
X144955907Y-140169049D01*
X144936690Y-140449999D01*
X144955907Y-140730950D01*
X145013203Y-141006675D01*
X145107510Y-141272030D01*
X145204373Y-141458965D01*
X145237068Y-141522063D01*
X145399467Y-141752130D01*
X145591681Y-141957941D01*
X145810130Y-142135662D01*
X146050743Y-142281982D01*
X146309040Y-142394176D01*
X146413377Y-142423410D01*
X146580207Y-142470154D01*
X146859192Y-142508500D01*
X146859195Y-142508500D01*
X147140805Y-142508500D01*
X147140808Y-142508500D01*
X147350046Y-142479740D01*
X147419793Y-142470154D01*
X147690960Y-142394176D01*
X147949257Y-142281982D01*
X148189870Y-142135662D01*
X148408319Y-141957941D01*
X148600533Y-141752130D01*
X148762932Y-141522063D01*
X148795626Y-141458965D01*
X148840568Y-141410181D01*
X148904059Y-141390981D01*
X148968503Y-141406686D01*
X149016041Y-141452943D01*
X149033500Y-141516934D01*
X149033500Y-146273147D01*
X149031204Y-146293935D01*
X149033438Y-146364986D01*
X149033500Y-146368945D01*
X149033500Y-146396857D01*
X149034007Y-146400873D01*
X149034937Y-146412696D01*
X149036326Y-146456892D01*
X149041977Y-146476341D01*
X149045986Y-146495696D01*
X149048525Y-146515794D01*
X149064801Y-146556903D01*
X149068644Y-146568130D01*
X149080980Y-146610590D01*
X149091294Y-146628030D01*
X149099987Y-146645774D01*
X149105255Y-146659078D01*
X149107449Y-146664619D01*
X149133431Y-146700380D01*
X149139948Y-146710301D01*
X149162458Y-146748363D01*
X149176778Y-146762683D01*
X149189618Y-146777716D01*
X149201526Y-146794105D01*
X149235598Y-146822292D01*
X149244378Y-146830282D01*
X152842751Y-150428655D01*
X152855835Y-150444985D01*
X152858000Y-150447018D01*
X152902965Y-150489243D01*
X152907666Y-150493657D01*
X152910509Y-150496413D01*
X152930230Y-150516134D01*
X152933418Y-150518607D01*
X152942446Y-150526317D01*
X152974679Y-150556586D01*
X152992432Y-150566346D01*
X153008955Y-150577200D01*
X153024957Y-150589612D01*
X153024960Y-150589614D01*
X153065539Y-150607174D01*
X153076188Y-150612391D01*
X153114935Y-150633693D01*
X153114937Y-150633693D01*
X153114940Y-150633695D01*
X153134574Y-150638736D01*
X153153259Y-150645134D01*
X153171855Y-150653181D01*
X153215530Y-150660098D01*
X153227125Y-150662498D01*
X153269970Y-150673500D01*
X153290224Y-150673500D01*
X153309934Y-150675051D01*
X153329942Y-150678220D01*
X153329942Y-150678219D01*
X153329943Y-150678220D01*
X153373961Y-150674058D01*
X153385819Y-150673500D01*
X169910607Y-150673500D01*
X169968787Y-150687737D01*
X170013818Y-150727227D01*
X170108297Y-150862158D01*
X170123804Y-150884303D01*
X170140906Y-150901405D01*
X170171644Y-150951564D01*
X170176260Y-151010211D01*
X170153747Y-151064561D01*
X170109014Y-151102767D01*
X170051811Y-151116500D01*
X128640420Y-151116500D01*
X128591478Y-151106606D01*
X128550222Y-151078479D01*
X128523131Y-151036535D01*
X128516517Y-151019684D01*
X128477188Y-150951564D01*
X128390731Y-150801816D01*
X128233878Y-150605128D01*
X128049462Y-150434016D01*
X127841604Y-150292300D01*
X127841603Y-150292299D01*
X127841601Y-150292298D01*
X127614945Y-150183146D01*
X127441134Y-150129533D01*
X127374549Y-150108995D01*
X127125786Y-150071500D01*
X126874214Y-150071500D01*
X126625451Y-150108995D01*
X126612752Y-150112912D01*
X126385054Y-150183146D01*
X126158396Y-150292300D01*
X125950541Y-150434012D01*
X125862035Y-150516134D01*
X125766122Y-150605128D01*
X125609269Y-150801816D01*
X125609267Y-150801819D01*
X125483483Y-151019683D01*
X125391572Y-151253866D01*
X125335593Y-151499128D01*
X125316793Y-151750000D01*
X123683207Y-151750000D01*
X123664407Y-151499131D01*
X123608427Y-151253866D01*
X123516517Y-151019684D01*
X123390731Y-150801816D01*
X123233878Y-150605128D01*
X123049462Y-150434016D01*
X122841604Y-150292300D01*
X122841603Y-150292299D01*
X122841601Y-150292298D01*
X122704831Y-150226434D01*
X122652813Y-150179948D01*
X122633500Y-150112912D01*
X122633500Y-147414594D01*
X122643091Y-147366376D01*
X122670405Y-147325499D01*
X126741604Y-143254300D01*
X130115904Y-139879999D01*
X132986502Y-139879999D01*
X133006457Y-140108087D01*
X133065715Y-140329243D01*
X133162477Y-140536750D01*
X133293804Y-140724303D01*
X133455696Y-140886195D01*
X133643249Y-141017522D01*
X133850756Y-141114284D01*
X133885595Y-141123619D01*
X134071913Y-141173543D01*
X134300000Y-141193498D01*
X134528087Y-141173543D01*
X134749243Y-141114284D01*
X134956749Y-141017523D01*
X135144300Y-140886198D01*
X135306198Y-140724300D01*
X135416181Y-140567227D01*
X135461213Y-140527737D01*
X135519393Y-140513500D01*
X138160607Y-140513500D01*
X138218787Y-140527737D01*
X138263818Y-140567227D01*
X138335751Y-140669958D01*
X138373804Y-140724303D01*
X138535696Y-140886195D01*
X138723249Y-141017522D01*
X138930756Y-141114284D01*
X138965595Y-141123619D01*
X139151913Y-141173543D01*
X139380000Y-141193498D01*
X139608087Y-141173543D01*
X139829243Y-141114284D01*
X140036749Y-141017523D01*
X140224300Y-140886198D01*
X140386198Y-140724300D01*
X140517523Y-140536749D01*
X140614284Y-140329243D01*
X140673543Y-140108087D01*
X140693498Y-139880000D01*
X140673543Y-139651913D01*
X140630110Y-139489819D01*
X140614284Y-139430756D01*
X140517522Y-139223249D01*
X140387386Y-139037397D01*
X140386198Y-139035700D01*
X140386197Y-139035699D01*
X140386195Y-139035696D01*
X140224303Y-138873804D01*
X140036750Y-138742477D01*
X139829243Y-138645715D01*
X139608087Y-138586457D01*
X139380000Y-138566502D01*
X139151912Y-138586457D01*
X138930756Y-138645715D01*
X138723249Y-138742477D01*
X138535696Y-138873804D01*
X138373804Y-139035696D01*
X138324056Y-139106744D01*
X138263818Y-139192772D01*
X138218787Y-139232263D01*
X138160607Y-139246500D01*
X135519393Y-139246500D01*
X135461213Y-139232263D01*
X135416181Y-139192772D01*
X135306198Y-139035700D01*
X135306197Y-139035699D01*
X135306195Y-139035696D01*
X135144303Y-138873804D01*
X134956750Y-138742477D01*
X134749243Y-138645715D01*
X134528087Y-138586457D01*
X134300000Y-138566502D01*
X134071912Y-138586457D01*
X133850756Y-138645715D01*
X133643249Y-138742477D01*
X133455696Y-138873804D01*
X133293804Y-139035696D01*
X133162477Y-139223249D01*
X133065715Y-139430756D01*
X133006457Y-139651912D01*
X132986502Y-139879999D01*
X130115904Y-139879999D01*
X138966753Y-131029149D01*
X139023235Y-130996539D01*
X139088457Y-130996539D01*
X139151913Y-131013543D01*
X139380000Y-131033498D01*
X139608087Y-131013543D01*
X139829243Y-130954284D01*
X140036749Y-130857523D01*
X140224300Y-130726198D01*
X140386198Y-130564300D01*
X140517523Y-130376749D01*
X140614284Y-130169243D01*
X140673543Y-129948087D01*
X140693498Y-129720000D01*
X140673543Y-129491913D01*
X140614284Y-129270757D01*
X140517523Y-129063251D01*
X140386198Y-128875700D01*
X140386197Y-128875699D01*
X140386195Y-128875696D01*
X140224303Y-128713804D01*
X140036750Y-128582477D01*
X139829243Y-128485715D01*
X139608087Y-128426457D01*
X139380000Y-128406502D01*
X139151912Y-128426457D01*
X138930756Y-128485715D01*
X138723249Y-128582477D01*
X138535696Y-128713804D01*
X138373804Y-128875696D01*
X138242477Y-129063249D01*
X138145715Y-129270756D01*
X138086457Y-129491912D01*
X138066502Y-129719999D01*
X138086457Y-129948089D01*
X138103459Y-130011542D01*
X138103459Y-130076764D01*
X138070847Y-130133247D01*
X121611336Y-146592757D01*
X121595016Y-146605833D01*
X121546370Y-146657635D01*
X121543620Y-146660473D01*
X121523868Y-146680226D01*
X121523864Y-146680230D01*
X121523865Y-146680230D01*
X121521379Y-146683433D01*
X121513687Y-146692439D01*
X121483413Y-146724678D01*
X121473652Y-146742434D01*
X121462801Y-146758952D01*
X121450385Y-146774959D01*
X121432824Y-146815539D01*
X121427604Y-146826195D01*
X121406304Y-146864940D01*
X121401267Y-146884559D01*
X121394864Y-146903261D01*
X121386818Y-146921855D01*
X121379901Y-146965524D01*
X121377495Y-146977144D01*
X121366500Y-147019970D01*
X121366500Y-147040224D01*
X121364949Y-147059934D01*
X121361779Y-147079942D01*
X121365941Y-147123961D01*
X121366500Y-147135819D01*
X121366500Y-150112912D01*
X121347187Y-150179948D01*
X121295169Y-150226434D01*
X121158396Y-150292300D01*
X120950541Y-150434012D01*
X120862035Y-150516134D01*
X120766122Y-150605128D01*
X120609269Y-150801816D01*
X120609267Y-150801819D01*
X120483483Y-151019683D01*
X120391572Y-151253866D01*
X120335593Y-151499128D01*
X120316793Y-151750000D01*
X118682704Y-151750000D01*
X118682704Y-151749999D01*
X118663910Y-151499204D01*
X118607946Y-151254012D01*
X118516064Y-151019901D01*
X118390315Y-150802098D01*
X118353401Y-150755809D01*
X118353399Y-150755809D01*
X117359210Y-151749999D01*
X117359210Y-151750001D01*
X116640789Y-151750001D01*
X116640789Y-151749999D01*
X115646598Y-150755809D01*
X115646597Y-150755809D01*
X115609684Y-150802098D01*
X115483935Y-151019901D01*
X115392053Y-151254012D01*
X115336089Y-151499204D01*
X115317295Y-151750000D01*
X105025500Y-151750000D01*
X105025500Y-150396801D01*
X116006011Y-150396801D01*
X116999999Y-151390789D01*
X117000001Y-151390789D01*
X117993987Y-150396801D01*
X117993987Y-150396799D01*
X117841353Y-150292735D01*
X117614761Y-150183613D01*
X117374440Y-150109485D01*
X117125746Y-150072000D01*
X116874254Y-150072000D01*
X116625559Y-150109485D01*
X116385241Y-150183612D01*
X116158650Y-150292734D01*
X116006011Y-150396800D01*
X116006011Y-150396801D01*
X105025500Y-150396801D01*
X105025500Y-129974000D01*
X133013918Y-129974000D01*
X133066186Y-130169070D01*
X133162912Y-130376498D01*
X133294189Y-130563981D01*
X133456018Y-130725810D01*
X133643501Y-130857087D01*
X133850929Y-130953813D01*
X134046000Y-131006082D01*
X134046000Y-129974000D01*
X134554000Y-129974000D01*
X134554000Y-131006082D01*
X134749070Y-130953813D01*
X134956498Y-130857087D01*
X135143981Y-130725810D01*
X135305810Y-130563981D01*
X135437087Y-130376498D01*
X135533813Y-130169070D01*
X135586082Y-129974000D01*
X134554000Y-129974000D01*
X134046000Y-129974000D01*
X133013918Y-129974000D01*
X105025500Y-129974000D01*
X105025500Y-129466000D01*
X133013917Y-129466000D01*
X134046000Y-129466000D01*
X134046000Y-128433917D01*
X134553999Y-128433917D01*
X134554000Y-128433918D01*
X134554000Y-129466000D01*
X135586082Y-129466000D01*
X135533813Y-129270929D01*
X135437087Y-129063501D01*
X135305810Y-128876018D01*
X135143981Y-128714189D01*
X134956498Y-128582912D01*
X134749070Y-128486186D01*
X134553999Y-128433917D01*
X134046000Y-128433917D01*
X133850929Y-128486186D01*
X133643501Y-128582912D01*
X133456018Y-128714189D01*
X133294189Y-128876018D01*
X133162912Y-129063501D01*
X133066186Y-129270929D01*
X133013917Y-129466000D01*
X105025500Y-129466000D01*
X105025500Y-118103199D01*
X116006011Y-118103199D01*
X116158644Y-118207263D01*
X116385241Y-118316387D01*
X116625559Y-118390514D01*
X116874254Y-118428000D01*
X117125746Y-118428000D01*
X117374440Y-118390514D01*
X117614761Y-118316386D01*
X117841349Y-118207266D01*
X117993988Y-118103198D01*
X117000001Y-117109210D01*
X116999999Y-117109210D01*
X116006011Y-118103197D01*
X116006011Y-118103199D01*
X105025500Y-118103199D01*
X105025500Y-116749999D01*
X115317295Y-116749999D01*
X115336089Y-117000795D01*
X115392053Y-117245987D01*
X115483935Y-117480098D01*
X115609684Y-117697901D01*
X115646597Y-117744189D01*
X115646599Y-117744189D01*
X116640789Y-116750000D01*
X117359210Y-116750000D01*
X118353400Y-117744190D01*
X118353401Y-117744190D01*
X118390317Y-117697899D01*
X118516064Y-117480099D01*
X118607946Y-117245987D01*
X118663910Y-117000795D01*
X118682704Y-116750000D01*
X118682704Y-116749999D01*
X120316793Y-116749999D01*
X120335593Y-117000871D01*
X120391572Y-117246133D01*
X120416798Y-117310406D01*
X120483483Y-117480316D01*
X120609269Y-117698184D01*
X120766122Y-117894872D01*
X120919171Y-118036880D01*
X120950541Y-118065987D01*
X121106432Y-118172270D01*
X121158397Y-118207700D01*
X121275901Y-118264287D01*
X121385054Y-118316853D01*
X121438667Y-118333390D01*
X121625451Y-118391005D01*
X121874214Y-118428500D01*
X122125784Y-118428500D01*
X122125786Y-118428500D01*
X122374549Y-118391005D01*
X122614945Y-118316853D01*
X122841604Y-118207700D01*
X123049462Y-118065984D01*
X123233878Y-117894872D01*
X123390731Y-117698184D01*
X123516517Y-117480316D01*
X123608427Y-117246134D01*
X123664407Y-117000869D01*
X123683207Y-116750000D01*
X123683207Y-116749999D01*
X125316793Y-116749999D01*
X125335593Y-117000871D01*
X125391572Y-117246133D01*
X125416798Y-117310406D01*
X125483483Y-117480316D01*
X125609269Y-117698184D01*
X125766122Y-117894872D01*
X125919171Y-118036880D01*
X125950541Y-118065987D01*
X126106432Y-118172270D01*
X126158397Y-118207700D01*
X126275901Y-118264287D01*
X126385054Y-118316853D01*
X126438667Y-118333390D01*
X126625451Y-118391005D01*
X126874214Y-118428500D01*
X127125784Y-118428500D01*
X127125786Y-118428500D01*
X127374549Y-118391005D01*
X127614945Y-118316853D01*
X127841604Y-118207700D01*
X128049462Y-118065984D01*
X128233878Y-117894872D01*
X128390731Y-117698184D01*
X128516517Y-117480316D01*
X128608427Y-117246134D01*
X128664407Y-117000869D01*
X128683207Y-116750000D01*
X128664407Y-116499131D01*
X128608427Y-116253866D01*
X128516517Y-116019684D01*
X128390731Y-115801816D01*
X128233878Y-115605128D01*
X128049462Y-115434016D01*
X127841604Y-115292300D01*
X127841603Y-115292299D01*
X127841601Y-115292298D01*
X127614945Y-115183146D01*
X127441134Y-115129533D01*
X127374549Y-115108995D01*
X127125786Y-115071500D01*
X126874214Y-115071500D01*
X126625451Y-115108995D01*
X126612477Y-115112996D01*
X126385054Y-115183146D01*
X126158396Y-115292300D01*
X125950541Y-115434012D01*
X125849327Y-115527924D01*
X125766122Y-115605128D01*
X125609269Y-115801816D01*
X125609267Y-115801819D01*
X125483483Y-116019683D01*
X125391572Y-116253866D01*
X125335593Y-116499128D01*
X125316793Y-116749999D01*
X123683207Y-116749999D01*
X123664407Y-116499131D01*
X123608427Y-116253866D01*
X123516517Y-116019684D01*
X123390731Y-115801816D01*
X123233878Y-115605128D01*
X123049462Y-115434016D01*
X122841604Y-115292300D01*
X122841603Y-115292299D01*
X122841601Y-115292298D01*
X122614945Y-115183146D01*
X122441134Y-115129533D01*
X122374549Y-115108995D01*
X122125786Y-115071500D01*
X121874214Y-115071500D01*
X121625451Y-115108995D01*
X121612477Y-115112996D01*
X121385054Y-115183146D01*
X121158396Y-115292300D01*
X120950541Y-115434012D01*
X120849327Y-115527924D01*
X120766122Y-115605128D01*
X120609269Y-115801816D01*
X120609267Y-115801819D01*
X120483483Y-116019683D01*
X120391572Y-116253866D01*
X120335593Y-116499128D01*
X120316793Y-116749999D01*
X118682704Y-116749999D01*
X118663910Y-116499204D01*
X118607946Y-116254012D01*
X118516064Y-116019901D01*
X118390315Y-115802098D01*
X118353401Y-115755809D01*
X118353399Y-115755809D01*
X117359210Y-116749998D01*
X117359210Y-116750000D01*
X116640789Y-116750000D01*
X116640789Y-116749999D01*
X115646597Y-115755809D01*
X115609684Y-115802098D01*
X115483935Y-116019901D01*
X115392053Y-116254012D01*
X115336089Y-116499204D01*
X115317295Y-116749999D01*
X105025500Y-116749999D01*
X105025500Y-115396801D01*
X116006011Y-115396801D01*
X116999999Y-116390789D01*
X117000001Y-116390789D01*
X117993987Y-115396801D01*
X117993987Y-115396799D01*
X117841353Y-115292735D01*
X117614761Y-115183613D01*
X117374440Y-115109485D01*
X117125746Y-115072000D01*
X116874254Y-115072000D01*
X116625559Y-115109485D01*
X116385241Y-115183612D01*
X116158650Y-115292734D01*
X116006011Y-115396800D01*
X116006011Y-115396801D01*
X105025500Y-115396801D01*
X105025500Y-89250000D01*
X131821673Y-89250000D01*
X131840949Y-89482626D01*
X131840949Y-89482629D01*
X131840950Y-89482630D01*
X131894285Y-89693249D01*
X131898251Y-89708907D01*
X131992016Y-89922669D01*
X132119686Y-90118083D01*
X132277780Y-90289818D01*
X132461983Y-90433190D01*
X132667273Y-90544287D01*
X132888049Y-90620080D01*
X133118288Y-90658500D01*
X133351709Y-90658500D01*
X133351712Y-90658500D01*
X133581951Y-90620080D01*
X133802727Y-90544287D01*
X134008017Y-90433190D01*
X134192220Y-90289818D01*
X134192221Y-90289816D01*
X134200459Y-90283405D01*
X134201550Y-90284806D01*
X134243451Y-90257847D01*
X134306915Y-90253934D01*
X134364208Y-90281509D01*
X134400742Y-90333550D01*
X134424111Y-90396206D01*
X134511738Y-90513261D01*
X134628794Y-90600888D01*
X134628795Y-90600888D01*
X134628796Y-90600889D01*
X134765799Y-90651989D01*
X134826362Y-90658500D01*
X135015500Y-90658500D01*
X135078500Y-90675381D01*
X135124619Y-90721500D01*
X135141500Y-90784500D01*
X135141500Y-121967147D01*
X135139204Y-121987935D01*
X135141438Y-122058986D01*
X135141500Y-122062945D01*
X135141500Y-122090857D01*
X135142007Y-122094873D01*
X135142937Y-122106696D01*
X135144326Y-122150892D01*
X135149977Y-122170341D01*
X135153986Y-122189696D01*
X135156525Y-122209794D01*
X135156525Y-122209796D01*
X135156526Y-122209797D01*
X135157623Y-122212569D01*
X135172801Y-122250903D01*
X135176644Y-122262130D01*
X135188980Y-122304590D01*
X135199294Y-122322030D01*
X135207987Y-122339774D01*
X135215448Y-122358617D01*
X135215449Y-122358619D01*
X135241431Y-122394380D01*
X135247948Y-122404301D01*
X135270458Y-122442363D01*
X135284778Y-122456683D01*
X135297618Y-122471716D01*
X135309526Y-122488105D01*
X135343598Y-122516292D01*
X135352378Y-122524282D01*
X138813877Y-125985781D01*
X138838508Y-126020631D01*
X138850092Y-126061705D01*
X138867458Y-126226929D01*
X138926472Y-126408556D01*
X139021958Y-126573942D01*
X139021960Y-126573944D01*
X139149747Y-126715866D01*
X139304248Y-126828118D01*
X139478712Y-126905794D01*
X139665513Y-126945500D01*
X139856485Y-126945500D01*
X139856487Y-126945500D01*
X140043288Y-126905794D01*
X140217752Y-126828118D01*
X140372253Y-126715866D01*
X140500040Y-126573944D01*
X140595527Y-126408556D01*
X140654542Y-126226928D01*
X140674504Y-126037000D01*
X140654542Y-125847072D01*
X140595527Y-125665444D01*
X140595527Y-125665443D01*
X140500041Y-125500057D01*
X140372252Y-125358133D01*
X140257083Y-125274458D01*
X140217752Y-125245882D01*
X140043288Y-125168206D01*
X139856487Y-125128500D01*
X139856485Y-125128500D01*
X139800595Y-125128500D01*
X139752377Y-125118909D01*
X139711500Y-125091595D01*
X136445405Y-121825500D01*
X136418091Y-121784623D01*
X136408500Y-121736405D01*
X136408500Y-90784500D01*
X136425381Y-90721500D01*
X136471500Y-90675381D01*
X136534500Y-90658500D01*
X136723638Y-90658500D01*
X136784201Y-90651989D01*
X136921204Y-90600889D01*
X137038261Y-90513261D01*
X137125889Y-90396204D01*
X137176989Y-90259201D01*
X137183500Y-90198638D01*
X137183500Y-88301362D01*
X137176989Y-88240799D01*
X137125889Y-88103796D01*
X137098201Y-88066809D01*
X137038261Y-87986738D01*
X136921205Y-87899111D01*
X136852702Y-87873561D01*
X136784201Y-87848011D01*
X136723638Y-87841500D01*
X134826362Y-87841500D01*
X134765799Y-87848011D01*
X134628794Y-87899111D01*
X134511738Y-87986738D01*
X134424109Y-88103796D01*
X134400741Y-88166449D01*
X134364210Y-88218488D01*
X134306920Y-88246063D01*
X134243460Y-88242154D01*
X134201549Y-88215193D01*
X134200459Y-88216595D01*
X134055536Y-88103796D01*
X134008017Y-88066810D01*
X133976779Y-88049905D01*
X133802726Y-87955712D01*
X133637852Y-87899111D01*
X133581951Y-87879920D01*
X133351712Y-87841500D01*
X133118288Y-87841500D01*
X132888049Y-87879920D01*
X132888046Y-87879920D01*
X132888046Y-87879921D01*
X132667273Y-87955712D01*
X132461984Y-88066809D01*
X132277779Y-88210182D01*
X132119684Y-88381919D01*
X131992016Y-88577330D01*
X131898250Y-88791094D01*
X131840950Y-89017369D01*
X131840949Y-89017374D01*
X131821673Y-89250000D01*
X105025500Y-89250000D01*
X105025500Y-73103199D01*
X116006011Y-73103199D01*
X116158644Y-73207263D01*
X116385241Y-73316387D01*
X116625559Y-73390514D01*
X116874254Y-73428000D01*
X117125746Y-73428000D01*
X117374440Y-73390514D01*
X117614761Y-73316386D01*
X117841349Y-73207266D01*
X117993988Y-73103198D01*
X117000001Y-72109210D01*
X116999999Y-72109210D01*
X116006011Y-73103197D01*
X116006011Y-73103199D01*
X105025500Y-73103199D01*
X105025500Y-71750000D01*
X115317295Y-71750000D01*
X115336089Y-72000795D01*
X115392053Y-72245987D01*
X115483935Y-72480098D01*
X115609684Y-72697901D01*
X115646597Y-72744189D01*
X115646599Y-72744189D01*
X116640789Y-71750001D01*
X117359210Y-71750001D01*
X118353400Y-72744190D01*
X118353401Y-72744190D01*
X118390317Y-72697899D01*
X118516064Y-72480099D01*
X118607946Y-72245987D01*
X118663910Y-72000795D01*
X118682704Y-71750000D01*
X120316793Y-71750000D01*
X120335593Y-72000871D01*
X120391572Y-72246133D01*
X120441106Y-72372342D01*
X120483483Y-72480316D01*
X120609269Y-72698184D01*
X120766122Y-72894872D01*
X120932533Y-73049278D01*
X120950541Y-73065987D01*
X121106432Y-73172270D01*
X121158397Y-73207700D01*
X121275900Y-73264287D01*
X121385054Y-73316853D01*
X121414803Y-73326029D01*
X121625451Y-73391005D01*
X121874214Y-73428500D01*
X122125784Y-73428500D01*
X122125786Y-73428500D01*
X122374549Y-73391005D01*
X122614945Y-73316853D01*
X122841604Y-73207700D01*
X123049462Y-73065984D01*
X123233878Y-72894872D01*
X123390731Y-72698184D01*
X123516517Y-72480316D01*
X123608427Y-72246134D01*
X123664407Y-72000869D01*
X123683207Y-71750000D01*
X123664407Y-71499131D01*
X123608427Y-71253866D01*
X123516517Y-71019684D01*
X123390731Y-70801816D01*
X123233878Y-70605128D01*
X123049462Y-70434016D01*
X122841604Y-70292300D01*
X122841603Y-70292299D01*
X122841601Y-70292298D01*
X122614945Y-70183146D01*
X122441134Y-70129533D01*
X122374549Y-70108995D01*
X122125786Y-70071500D01*
X121874214Y-70071500D01*
X121625451Y-70108995D01*
X121612477Y-70112996D01*
X121385054Y-70183146D01*
X121158396Y-70292300D01*
X120950541Y-70434012D01*
X120849327Y-70527924D01*
X120766122Y-70605128D01*
X120609269Y-70801816D01*
X120609267Y-70801819D01*
X120483483Y-71019683D01*
X120391572Y-71253866D01*
X120335593Y-71499128D01*
X120316793Y-71750000D01*
X118682704Y-71750000D01*
X118663910Y-71499204D01*
X118607946Y-71254012D01*
X118516064Y-71019901D01*
X118390315Y-70802098D01*
X118353401Y-70755809D01*
X118353399Y-70755809D01*
X117359210Y-71749999D01*
X117359210Y-71750001D01*
X116640789Y-71750001D01*
X116640789Y-71749999D01*
X115646598Y-70755809D01*
X115646597Y-70755809D01*
X115609684Y-70802098D01*
X115483935Y-71019901D01*
X115392053Y-71254012D01*
X115336089Y-71499204D01*
X115317295Y-71750000D01*
X105025500Y-71750000D01*
X105025500Y-70396801D01*
X116006011Y-70396801D01*
X116999999Y-71390789D01*
X117000001Y-71390789D01*
X117993987Y-70396801D01*
X117993987Y-70396799D01*
X117841353Y-70292735D01*
X117614761Y-70183613D01*
X117374440Y-70109485D01*
X117125746Y-70072000D01*
X116874254Y-70072000D01*
X116625559Y-70109485D01*
X116385241Y-70183612D01*
X116158650Y-70292734D01*
X116006011Y-70396800D01*
X116006011Y-70396801D01*
X105025500Y-70396801D01*
X105025500Y-67744000D01*
X143298918Y-67744000D01*
X143351186Y-67939070D01*
X143447912Y-68146498D01*
X143579189Y-68333981D01*
X143741018Y-68495810D01*
X143928501Y-68627087D01*
X144135929Y-68723813D01*
X144331000Y-68776082D01*
X144331000Y-67744000D01*
X144839000Y-67744000D01*
X144839000Y-68776082D01*
X145034070Y-68723813D01*
X145241498Y-68627087D01*
X145428981Y-68495810D01*
X145590810Y-68333981D01*
X145722087Y-68146498D01*
X145818813Y-67939070D01*
X145871082Y-67744000D01*
X144839000Y-67744000D01*
X144331000Y-67744000D01*
X143298918Y-67744000D01*
X105025500Y-67744000D01*
X105025500Y-67489999D01*
X148351502Y-67489999D01*
X148371457Y-67718087D01*
X148430715Y-67939243D01*
X148527477Y-68146750D01*
X148658804Y-68334303D01*
X148820696Y-68496195D01*
X149008249Y-68627522D01*
X149215756Y-68724284D01*
X149275014Y-68740162D01*
X149436913Y-68783543D01*
X149665000Y-68803498D01*
X149893087Y-68783543D01*
X150114243Y-68724284D01*
X150321749Y-68627523D01*
X150509300Y-68496198D01*
X150671198Y-68334300D01*
X150802523Y-68146749D01*
X150899284Y-67939243D01*
X150951600Y-67744000D01*
X153458918Y-67744000D01*
X153511186Y-67939070D01*
X153607912Y-68146498D01*
X153739189Y-68333981D01*
X153901018Y-68495810D01*
X154088501Y-68627087D01*
X154295929Y-68723813D01*
X154491000Y-68776082D01*
X154491000Y-67744000D01*
X154999000Y-67744000D01*
X154999000Y-68776082D01*
X155194070Y-68723813D01*
X155401498Y-68627087D01*
X155588981Y-68495810D01*
X155750810Y-68333981D01*
X155882087Y-68146498D01*
X155978813Y-67939070D01*
X156031082Y-67744000D01*
X154999000Y-67744000D01*
X154491000Y-67744000D01*
X153458918Y-67744000D01*
X150951600Y-67744000D01*
X150958543Y-67718087D01*
X150978498Y-67490000D01*
X150958543Y-67261913D01*
X150951600Y-67236000D01*
X153458917Y-67236000D01*
X154491000Y-67236000D01*
X154491000Y-66203917D01*
X154998999Y-66203917D01*
X154999000Y-66203918D01*
X154999000Y-67236000D01*
X156031082Y-67236000D01*
X155978813Y-67040929D01*
X155882087Y-66833501D01*
X155750810Y-66646018D01*
X155588981Y-66484189D01*
X155401498Y-66352912D01*
X155194070Y-66256186D01*
X154998999Y-66203917D01*
X154491000Y-66203917D01*
X154295929Y-66256186D01*
X154088501Y-66352912D01*
X153901018Y-66484189D01*
X153739189Y-66646018D01*
X153607912Y-66833501D01*
X153511186Y-67040929D01*
X153458917Y-67236000D01*
X150951600Y-67236000D01*
X150899284Y-67040757D01*
X150802523Y-66833251D01*
X150671198Y-66645700D01*
X150671197Y-66645699D01*
X150671195Y-66645696D01*
X150509303Y-66483804D01*
X150321750Y-66352477D01*
X150114243Y-66255715D01*
X149893087Y-66196457D01*
X149665000Y-66176502D01*
X149436912Y-66196457D01*
X149215756Y-66255715D01*
X149008249Y-66352477D01*
X148820696Y-66483804D01*
X148658804Y-66645696D01*
X148527477Y-66833249D01*
X148430715Y-67040756D01*
X148371457Y-67261912D01*
X148351502Y-67489999D01*
X105025500Y-67489999D01*
X105025500Y-67236000D01*
X143298917Y-67236000D01*
X144331000Y-67236000D01*
X144331000Y-66203917D01*
X144838999Y-66203917D01*
X144839000Y-66203918D01*
X144839000Y-67236000D01*
X145871082Y-67236000D01*
X145818813Y-67040929D01*
X145722087Y-66833501D01*
X145590810Y-66646018D01*
X145428981Y-66484189D01*
X145241498Y-66352912D01*
X145034070Y-66256186D01*
X144838999Y-66203917D01*
X144331000Y-66203917D01*
X144135929Y-66256186D01*
X143928501Y-66352912D01*
X143741018Y-66484189D01*
X143579189Y-66646018D01*
X143447912Y-66833501D01*
X143351186Y-67040929D01*
X143298917Y-67236000D01*
X105025500Y-67236000D01*
X105025500Y-44401500D01*
X105042381Y-44338500D01*
X105088500Y-44292381D01*
X105151500Y-44275500D01*
X194848500Y-44275500D01*
X194911500Y-44292381D01*
G37*
G04 #@! TD.AperFunction*
G04 #@! TD*
M02*
