M48
; DRILL file {KiCad 7.0.2-6a45011f42~172~ubuntu22.04.1} date Fri May  5 21:02:08 2023
; FORMAT={-:-/ absolute / metric / decimal}
; #@! TF.CreationDate,2023-05-05T21:02:08-04:00
; #@! TF.GenerationSoftware,Kicad,Pcbnew,7.0.2-6a45011f42~172~ubuntu22.04.1
; #@! TF.FileFunction,MixedPlating,1,2
FMAT,2
METRIC
; #@! TA.AperFunction,Plated,PTH,ViaDrill
T1C0.400
; #@! TA.AperFunction,Plated,PTH,ComponentDrill
T2C0.700
; #@! TA.AperFunction,Plated,PTH,ComponentDrill
T3C0.800
; #@! TA.AperFunction,Plated,PTH,ComponentDrill
T4C0.900
; #@! TA.AperFunction,Plated,PTH,ComponentDrill
T5C1.000
; #@! TA.AperFunction,Plated,PTH,ComponentDrill
T6C1.300
; #@! TA.AperFunction,Plated,PTH,ComponentDrill
T7C2.100
; #@! TA.AperFunction,NonPlated,NPTH,ComponentDrill
T8C3.200
%
G90
G05
T1
X139.761Y-126.037
X148.055Y-123.713
X160.843Y-122.989
T2
X184.46Y-101.06
X187.0Y-98.52
X189.54Y-101.06
X192.52Y-132.26
X192.52Y-139.88
X192.52Y-146.23
T3
X134.3Y-129.72
X134.3Y-139.88
X139.38Y-110.67
X139.38Y-120.83
X139.38Y-129.72
X139.38Y-139.88
X140.825Y-87.85
X140.825Y-90.35
X144.46Y-95.43
X144.46Y-105.59
X144.47Y-110.66
X144.47Y-120.82
X144.585Y-67.49
X144.585Y-77.65
X144.645Y-82.74
X144.645Y-90.36
X147.185Y-82.74
X147.185Y-90.36
X149.54Y-95.43
X149.54Y-105.59
X149.54Y-110.67
X149.54Y-120.83
X149.665Y-67.49
X149.665Y-77.65
X149.725Y-82.74
X149.725Y-90.36
X152.265Y-82.74
X152.265Y-90.36
X154.62Y-95.43
X154.62Y-105.59
X154.62Y-110.67
X154.62Y-120.83
X154.745Y-67.49
X154.745Y-77.65
X156.065Y-82.77
X156.065Y-85.27
X158.194Y-137.33
X158.194Y-139.87
X158.194Y-142.41
X158.194Y-144.95
X158.224Y-133.53
X160.724Y-133.53
X163.51Y-148.77
X165.814Y-137.33
X165.814Y-139.87
X165.814Y-142.41
X165.814Y-144.95
X166.01Y-148.77
X171.13Y-139.88
X171.13Y-144.96
X171.13Y-150.04
X181.29Y-139.88
X181.29Y-144.96
X181.29Y-150.04
T4
X133.235Y-89.25
X135.775Y-89.25
T5
X164.77Y-124.615
X164.795Y-82.755
X167.31Y-124.615
X167.335Y-82.755
X169.85Y-124.615
X169.875Y-82.755
X172.39Y-124.615
X172.415Y-82.755
X174.93Y-124.615
X174.955Y-82.755
X177.47Y-124.615
X177.495Y-82.755
X180.01Y-124.615
X180.035Y-82.755
X182.55Y-124.615
X182.575Y-82.755
X185.09Y-124.615
T6
X117.0Y-71.75
X117.0Y-116.75
X117.0Y-151.75
X122.0Y-71.75
X122.0Y-116.75
X122.0Y-151.75
X127.0Y-71.75
X127.0Y-116.75
X127.0Y-151.75
X167.0Y-71.75
X167.0Y-116.75
X172.0Y-71.75
X172.0Y-116.75
X177.0Y-71.75
X177.0Y-116.75
T7
X147.0Y-131.05
X147.0Y-135.75
X147.0Y-140.45
T8
X108.0Y-47.25
X192.0Y-47.25
T0
M30
