G04 #@! TF.GenerationSoftware,KiCad,Pcbnew,7.0.2-6a45011f42~172~ubuntu22.04.1*
G04 #@! TF.CreationDate,2023-05-18T09:51:25-04:00*
G04 #@! TF.ProjectId,springReverbRev2_BackPCB,73707269-6e67-4526-9576-657262526576,rev?*
G04 #@! TF.SameCoordinates,Original*
G04 #@! TF.FileFunction,Soldermask,Bot*
G04 #@! TF.FilePolarity,Negative*
%FSLAX46Y46*%
G04 Gerber Fmt 4.6, Leading zero omitted, Abs format (unit mm)*
G04 Created by KiCad (PCBNEW 7.0.2-6a45011f42~172~ubuntu22.04.1) date 2023-05-18 09:51:25*
%MOMM*%
%LPD*%
G01*
G04 APERTURE LIST*
G04 Aperture macros list*
%AMRoundRect*
0 Rectangle with rounded corners*
0 $1 Rounding radius*
0 $2 $3 $4 $5 $6 $7 $8 $9 X,Y pos of 4 corners*
0 Add a 4 corners polygon primitive as box body*
4,1,4,$2,$3,$4,$5,$6,$7,$8,$9,$2,$3,0*
0 Add four circle primitives for the rounded corners*
1,1,$1+$1,$2,$3*
1,1,$1+$1,$4,$5*
1,1,$1+$1,$6,$7*
1,1,$1+$1,$8,$9*
0 Add four rect primitives between the rounded corners*
20,1,$1+$1,$2,$3,$4,$5,0*
20,1,$1+$1,$4,$5,$6,$7,0*
20,1,$1+$1,$6,$7,$8,$9,0*
20,1,$1+$1,$8,$9,$2,$3,0*%
%AMRotRect*
0 Rectangle, with rotation*
0 The origin of the aperture is its center*
0 $1 length*
0 $2 width*
0 $3 Rotation angle, in degrees counterclockwise*
0 Add horizontal line*
21,1,$1,$2,0,0,$3*%
%AMFreePoly0*
4,1,19,0.500000,-0.750000,0.000000,-0.750000,0.000000,-0.744911,-0.071157,-0.744911,-0.207708,-0.704816,-0.327430,-0.627875,-0.420627,-0.520320,-0.479746,-0.390866,-0.500000,-0.250000,-0.500000,0.250000,-0.479746,0.390866,-0.420627,0.520320,-0.327430,0.627875,-0.207708,0.704816,-0.071157,0.744911,0.000000,0.744911,0.000000,0.750000,0.500000,0.750000,0.500000,-0.750000,0.500000,-0.750000,
$1*%
%AMFreePoly1*
4,1,19,0.000000,0.744911,0.071157,0.744911,0.207708,0.704816,0.327430,0.627875,0.420627,0.520320,0.479746,0.390866,0.500000,0.250000,0.500000,-0.250000,0.479746,-0.390866,0.420627,-0.520320,0.327430,-0.627875,0.207708,-0.704816,0.071157,-0.744911,0.000000,-0.744911,0.000000,-0.750000,-0.500000,-0.750000,-0.500000,0.750000,0.000000,0.750000,0.000000,0.744911,0.000000,0.744911,
$1*%
G04 Aperture macros list end*
%ADD10O,2.500000X4.500001*%
%ADD11O,4.500001X2.500001*%
%ADD12RotRect,4.500001X2.500001X315.000000*%
%ADD13O,4.500000X2.500000*%
%ADD14O,2.500000X4.500000*%
%ADD15C,3.200000*%
%ADD16R,1.700000X1.700000*%
%ADD17O,1.700000X1.700000*%
%ADD18C,1.600000*%
%ADD19R,2.200000X2.200000*%
%ADD20O,2.200000X2.200000*%
%ADD21O,1.600000X1.600000*%
%ADD22RoundRect,0.287500X0.287500X-0.287500X0.287500X0.287500X-0.287500X0.287500X-0.287500X-0.287500X0*%
%ADD23C,1.150000*%
%ADD24C,1.500000*%
%ADD25R,1.600000X1.600000*%
%ADD26C,3.000000*%
%ADD27C,2.700000*%
%ADD28RoundRect,0.250000X0.620000X0.850000X-0.620000X0.850000X-0.620000X-0.850000X0.620000X-0.850000X0*%
%ADD29O,1.740000X2.200000*%
%ADD30RoundRect,0.050800X-0.711200X0.711200X-0.711200X-0.711200X0.711200X-0.711200X0.711200X0.711200X0*%
%ADD31C,1.524000*%
%ADD32R,1.600000X2.400000*%
%ADD33O,1.600000X2.400000*%
%ADD34FreePoly0,180.000000*%
%ADD35FreePoly1,180.000000*%
%ADD36R,1.500000X1.500000*%
%ADD37R,1.727200X1.727200*%
%ADD38O,1.727200X1.727200*%
%ADD39R,2.400000X1.600000*%
%ADD40O,2.400000X1.600000*%
G04 APERTURE END LIST*
D10*
G04 #@! TO.C,J904*
X118900000Y-167250000D03*
D11*
X115000000Y-173150000D03*
D12*
X107760000Y-171490000D03*
D13*
X112000000Y-160350000D03*
D14*
X106100000Y-164250000D03*
G04 #@! TD*
D15*
G04 #@! TO.C,H901*
X111000000Y-23250000D03*
G04 #@! TD*
G04 #@! TO.C,H902*
X195000000Y-23250000D03*
G04 #@! TD*
D16*
G04 #@! TO.C,J910*
X188100000Y-100640000D03*
D17*
X185560000Y-100640000D03*
X183020000Y-100640000D03*
X180480000Y-100640000D03*
X177940000Y-100640000D03*
X175400000Y-100640000D03*
X172860000Y-100640000D03*
X170320000Y-100640000D03*
X167780000Y-100640000D03*
G04 #@! TD*
D10*
G04 #@! TO.C,J906*
X193900000Y-142250000D03*
D11*
X190000000Y-148150000D03*
D12*
X182760000Y-146490000D03*
D13*
X187000000Y-135350000D03*
D14*
X181100000Y-139250000D03*
G04 #@! TD*
D10*
G04 #@! TO.C,J901*
X168900000Y-142250000D03*
D11*
X165000000Y-148150000D03*
D12*
X157760000Y-146490000D03*
D13*
X162000000Y-135350000D03*
D14*
X156100000Y-139250000D03*
G04 #@! TD*
D10*
G04 #@! TO.C,J905*
X143900000Y-142250000D03*
D11*
X140000000Y-148150000D03*
D12*
X132760000Y-146490000D03*
D13*
X137000000Y-135350000D03*
D14*
X131100000Y-139250000D03*
G04 #@! TD*
D10*
G04 #@! TO.C,J902*
X118900000Y-142250000D03*
D11*
X115000000Y-148150000D03*
D12*
X107760000Y-146490000D03*
D13*
X112000000Y-135350000D03*
D14*
X106100000Y-139250000D03*
G04 #@! TD*
D10*
G04 #@! TO.C,J903*
X193900000Y-167250000D03*
D11*
X190000000Y-173150000D03*
D12*
X182760000Y-171490000D03*
D13*
X187000000Y-160350000D03*
D14*
X181100000Y-164250000D03*
G04 #@! TD*
D16*
G04 #@! TO.C,J908*
X167780000Y-58730000D03*
D17*
X170320000Y-58730000D03*
X172860000Y-58730000D03*
X175400000Y-58730000D03*
X177940000Y-58730000D03*
X180480000Y-58730000D03*
X183020000Y-58730000D03*
X185560000Y-58730000D03*
G04 #@! TD*
D18*
G04 #@! TO.C,C4*
X140570000Y-66270000D03*
X140570000Y-61270000D03*
G04 #@! TD*
D19*
G04 #@! TO.C,D902*
X115165000Y-43500000D03*
D20*
X115165000Y-33340000D03*
G04 #@! TD*
D18*
G04 #@! TO.C,R108*
X130410000Y-61270000D03*
D21*
X130410000Y-71430000D03*
G04 #@! TD*
D18*
G04 #@! TO.C,C5*
X158350000Y-82860000D03*
X155850000Y-82860000D03*
G04 #@! TD*
G04 #@! TO.C,C110*
X118980000Y-96830000D03*
X118980000Y-101830000D03*
G04 #@! TD*
G04 #@! TO.C,C3*
X184980000Y-72700000D03*
X179980000Y-72700000D03*
G04 #@! TD*
G04 #@! TO.C,R110*
X135490000Y-101910000D03*
D21*
X135490000Y-91750000D03*
G04 #@! TD*
D18*
G04 #@! TO.C,R5*
X144380000Y-115880000D03*
D21*
X144380000Y-126040000D03*
G04 #@! TD*
D22*
G04 #@! TO.C,V101*
X157080000Y-106370000D03*
D23*
X154540000Y-106370000D03*
X157410000Y-92283000D03*
X154210000Y-92270000D03*
G04 #@! TD*
D24*
G04 #@! TO.C,TP902*
X126600000Y-21900000D03*
G04 #@! TD*
D18*
G04 #@! TO.C,R11*
X185020000Y-67620000D03*
D21*
X174860000Y-67620000D03*
G04 #@! TD*
D18*
G04 #@! TO.C,R107*
X124060000Y-91750000D03*
D21*
X124060000Y-101910000D03*
G04 #@! TD*
D18*
G04 #@! TO.C,R101*
X148190000Y-42220000D03*
D21*
X148190000Y-52380000D03*
G04 #@! TD*
D18*
G04 #@! TO.C,R18*
X145650000Y-71430000D03*
D21*
X145650000Y-61270000D03*
G04 #@! TD*
D18*
G04 #@! TO.C,R102*
X143110000Y-52380000D03*
D21*
X143110000Y-42220000D03*
G04 #@! TD*
D18*
G04 #@! TO.C,R4*
X131680000Y-115880000D03*
D21*
X131680000Y-126040000D03*
G04 #@! TD*
D18*
G04 #@! TO.C,R103*
X149460000Y-126040000D03*
D21*
X149460000Y-115880000D03*
G04 #@! TD*
D18*
G04 #@! TO.C,R104*
X132950000Y-52380000D03*
D21*
X132950000Y-42220000D03*
G04 #@! TD*
D18*
G04 #@! TO.C,C101*
X176130000Y-127000000D03*
X176130000Y-123500000D03*
G04 #@! TD*
D25*
G04 #@! TO.C,C102*
X108780000Y-58730000D03*
D18*
X106280000Y-58730000D03*
G04 #@! TD*
D26*
G04 #@! TO.C,X101*
X172320000Y-109960000D03*
X162020000Y-109960000D03*
D27*
X167170000Y-108260000D03*
G04 #@! TD*
D28*
G04 #@! TO.C,J912*
X186290000Y-128580000D03*
D29*
X183750000Y-128580000D03*
G04 #@! TD*
D18*
G04 #@! TO.C,R106*
X113900000Y-91750000D03*
D21*
X113900000Y-101910000D03*
G04 #@! TD*
D18*
G04 #@! TO.C,R6*
X185020000Y-82860000D03*
D21*
X174860000Y-82860000D03*
G04 #@! TD*
D18*
G04 #@! TO.C,C105*
X165930000Y-73970000D03*
X163430000Y-73970000D03*
G04 #@! TD*
G04 #@! TO.C,C107*
X140565000Y-71440000D03*
X140565000Y-73940000D03*
G04 #@! TD*
G04 #@! TO.C,C902*
X140565000Y-89220000D03*
X140565000Y-91720000D03*
G04 #@! TD*
G04 #@! TO.C,C108*
X155810000Y-121040000D03*
X155810000Y-126040000D03*
G04 #@! TD*
D30*
G04 #@! TO.C,Z$102*
X167510000Y-52620000D03*
D31*
X170050000Y-52620000D03*
X172590000Y-52620000D03*
X175130000Y-52620000D03*
X177670000Y-52620000D03*
X180210000Y-52620000D03*
G04 #@! TD*
D32*
G04 #@! TO.C,IC102*
X126600000Y-85400000D03*
D33*
X124060000Y-85400000D03*
X121520000Y-85400000D03*
X118980000Y-85400000D03*
X116440000Y-85400000D03*
X113900000Y-85400000D03*
X111360000Y-85400000D03*
X111360000Y-77780000D03*
X113900000Y-77780000D03*
X116440000Y-77780000D03*
X118980000Y-77780000D03*
X121520000Y-77780000D03*
X124060000Y-77780000D03*
X126600000Y-77780000D03*
G04 #@! TD*
D24*
G04 #@! TO.C,TP901*
X118980000Y-21900000D03*
G04 #@! TD*
D26*
G04 #@! TO.C,X102*
X190100000Y-109960000D03*
X179800000Y-109960000D03*
D27*
X184950000Y-108260000D03*
G04 #@! TD*
D34*
G04 #@! TO.C,SJ101*
X136790000Y-58110000D03*
D35*
X135490000Y-58110000D03*
G04 #@! TD*
D32*
G04 #@! TO.C,IC103*
X148190000Y-85400000D03*
D33*
X145650000Y-85400000D03*
X143110000Y-85400000D03*
X140570000Y-85400000D03*
X138030000Y-85400000D03*
X135490000Y-85400000D03*
X132950000Y-85400000D03*
X132950000Y-77780000D03*
X135490000Y-77780000D03*
X138030000Y-77780000D03*
X140570000Y-77780000D03*
X143110000Y-77780000D03*
X145650000Y-77780000D03*
X148190000Y-77780000D03*
G04 #@! TD*
D28*
G04 #@! TO.C,J911*
X168510000Y-128580000D03*
D29*
X165970000Y-128580000D03*
G04 #@! TD*
D24*
G04 #@! TO.C,TP903*
X134220000Y-21900000D03*
G04 #@! TD*
D19*
G04 #@! TO.C,D901*
X108820000Y-33330000D03*
D20*
X108820000Y-43490000D03*
G04 #@! TD*
D18*
G04 #@! TO.C,C109*
X120250000Y-109530000D03*
X116750000Y-109530000D03*
G04 #@! TD*
D25*
G04 #@! TO.C,C103*
X116360000Y-58730000D03*
D18*
X113860000Y-58730000D03*
G04 #@! TD*
D36*
G04 #@! TO.C,U901*
X146920000Y-37140000D03*
D24*
X146920000Y-34600000D03*
X146920000Y-32060000D03*
G04 #@! TD*
D37*
G04 #@! TO.C,SV101*
X122790000Y-47300000D03*
D38*
X125330000Y-47300000D03*
X122790000Y-44760000D03*
X125330000Y-44760000D03*
X122790000Y-42220000D03*
X125330000Y-42220000D03*
X122790000Y-39680000D03*
X125330000Y-39680000D03*
X122790000Y-37140000D03*
X125330000Y-37140000D03*
G04 #@! TD*
D18*
G04 #@! TO.C,C106*
X118975000Y-89220000D03*
X118975000Y-91720000D03*
G04 #@! TD*
G04 #@! TO.C,C1*
X125330000Y-123540000D03*
X125330000Y-128540000D03*
G04 #@! TD*
G04 #@! TO.C,C104*
X171010000Y-89210000D03*
X168510000Y-89210000D03*
G04 #@! TD*
G04 #@! TO.C,C2*
X138030000Y-123540000D03*
X138030000Y-128540000D03*
G04 #@! TD*
D39*
G04 #@! TO.C,U7*
X163440000Y-85390000D03*
D40*
X163440000Y-82850000D03*
X163440000Y-80310000D03*
X163440000Y-77770000D03*
X171060000Y-77770000D03*
X171060000Y-80310000D03*
X171060000Y-82850000D03*
X171060000Y-85390000D03*
G04 #@! TD*
D18*
G04 #@! TO.C,R105*
X138030000Y-52380000D03*
D21*
X138030000Y-42220000D03*
G04 #@! TD*
D18*
G04 #@! TO.C,R19*
X150730000Y-71430000D03*
D21*
X150730000Y-61270000D03*
G04 #@! TD*
D18*
G04 #@! TO.C,R10*
X174860000Y-77780000D03*
D21*
X185020000Y-77780000D03*
G04 #@! TD*
D18*
G04 #@! TO.C,R3*
X185020000Y-87940000D03*
D21*
X174860000Y-87940000D03*
G04 #@! TD*
D18*
G04 #@! TO.C,C901*
X118975000Y-71440000D03*
X118975000Y-73940000D03*
G04 #@! TD*
G04 #@! TO.C,R109*
X108820000Y-91750000D03*
D21*
X108820000Y-101910000D03*
G04 #@! TD*
M02*
