M48
; DRILL file {KiCad 7.0.1-3b83917a11~172~ubuntu22.04.1} date Tue Apr  4 20:15:37 2023
; FORMAT={-:-/ absolute / metric / decimal}
; #@! TF.CreationDate,2023-04-04T20:15:37-04:00
; #@! TF.GenerationSoftware,Kicad,Pcbnew,7.0.1-3b83917a11~172~ubuntu22.04.1
; #@! TF.FileFunction,MixedPlating,1,2
FMAT,2
METRIC
; #@! TA.AperFunction,Plated,PTH,ViaDrill
T1C0.400
; #@! TA.AperFunction,Plated,PTH,ComponentDrill
T2C0.550
; #@! TA.AperFunction,Plated,PTH,ComponentDrill
T3C0.700
; #@! TA.AperFunction,Plated,PTH,ComponentDrill
T4C0.800
; #@! TA.AperFunction,Plated,PTH,ComponentDrill
T5C1.000
; #@! TA.AperFunction,Plated,PTH,ComponentDrill
T6C1.016
; #@! TA.AperFunction,Plated,PTH,ComponentDrill
T7C1.100
; #@! TA.AperFunction,Plated,PTH,ComponentDrill
T8C1.200
; #@! TA.AperFunction,Plated,PTH,ComponentDrill
T9C1.700
; #@! TA.AperFunction,Plated,PTH,ComponentDrill
T10C2.000
; #@! TA.AperFunction,NonPlated,NPTH,ComponentDrill
T11C3.200
%
G90
G05
T1
X137.78Y-105.335
X149.714Y-81.844
X176.892Y-80.193
T2
X154.21Y-92.27
X154.54Y-106.37
X157.08Y-106.37
X157.41Y-92.283
T3
X118.98Y-21.9
X126.6Y-21.9
X134.22Y-21.9
T4
X106.28Y-58.73
X108.78Y-58.73
X108.82Y-91.75
X108.82Y-101.91
X111.36Y-77.78
X111.36Y-85.4
X113.86Y-58.73
X113.9Y-77.78
X113.9Y-85.4
X113.9Y-91.75
X113.9Y-101.91
X116.36Y-58.73
X116.44Y-77.78
X116.44Y-85.4
X116.75Y-109.53
X118.975Y-71.44
X118.975Y-73.94
X118.975Y-89.22
X118.975Y-91.72
X118.98Y-77.78
X118.98Y-85.4
X118.98Y-96.83
X118.98Y-101.83
X120.25Y-109.53
X121.52Y-77.78
X121.52Y-85.4
X124.06Y-77.78
X124.06Y-85.4
X124.06Y-91.75
X124.06Y-101.91
X125.33Y-123.54
X125.33Y-128.54
X126.6Y-77.78
X126.6Y-85.4
X130.41Y-61.27
X130.41Y-71.43
X131.68Y-115.88
X131.68Y-126.04
X132.95Y-42.22
X132.95Y-52.38
X132.95Y-77.78
X132.95Y-85.4
X135.49Y-77.78
X135.49Y-85.4
X135.49Y-91.75
X135.49Y-101.91
X138.03Y-42.22
X138.03Y-52.38
X138.03Y-77.78
X138.03Y-85.4
X138.03Y-123.54
X138.03Y-128.54
X140.565Y-71.44
X140.565Y-73.94
X140.565Y-89.22
X140.565Y-91.72
X140.57Y-61.27
X140.57Y-66.27
X140.57Y-77.78
X140.57Y-85.4
X143.11Y-42.22
X143.11Y-52.38
X143.11Y-77.78
X143.11Y-85.4
X144.38Y-115.88
X144.38Y-126.04
X145.65Y-61.27
X145.65Y-71.43
X145.65Y-77.78
X145.65Y-85.4
X146.92Y-32.06
X146.92Y-34.6
X146.92Y-37.14
X148.19Y-42.22
X148.19Y-52.38
X148.19Y-77.78
X148.19Y-85.4
X149.46Y-115.88
X149.46Y-126.04
X150.73Y-61.27
X150.73Y-71.43
X155.81Y-121.04
X155.81Y-126.04
X155.85Y-82.86
X158.35Y-82.86
X163.43Y-73.97
X163.44Y-77.77
X163.44Y-80.31
X163.44Y-82.85
X163.44Y-85.39
X165.93Y-73.97
X167.51Y-52.62
X168.51Y-89.21
X170.05Y-52.62
X171.01Y-89.21
X171.06Y-77.77
X171.06Y-80.31
X171.06Y-82.85
X171.06Y-85.39
X172.59Y-52.62
X174.86Y-67.62
X174.86Y-77.78
X174.86Y-82.86
X174.86Y-87.94
X175.13Y-52.62
X176.13Y-123.5
X176.13Y-127.0
X177.67Y-52.62
X179.98Y-72.7
X180.21Y-52.62
X184.98Y-72.7
X185.02Y-67.62
X185.02Y-77.78
X185.02Y-82.86
X185.02Y-87.94
T5
X167.78Y-58.73
X167.78Y-100.64
X170.32Y-58.73
X170.32Y-100.64
X172.86Y-58.73
X172.86Y-100.64
X175.4Y-58.73
X175.4Y-100.64
X177.94Y-58.73
X177.94Y-100.64
X180.48Y-58.73
X180.48Y-100.64
X183.02Y-58.73
X183.02Y-100.64
X185.56Y-58.73
X185.56Y-100.64
X188.1Y-100.64
T6
X122.79Y-37.14
X122.79Y-39.68
X122.79Y-42.22
X122.79Y-44.76
X122.79Y-47.3
X125.33Y-37.14
X125.33Y-39.68
X125.33Y-42.22
X125.33Y-44.76
X125.33Y-47.3
T7
X108.82Y-33.33
X108.82Y-43.49
X115.165Y-33.34
X115.165Y-43.5
T8
X165.97Y-128.58
X168.51Y-128.58
X183.75Y-128.58
X186.29Y-128.58
T9
X167.17Y-108.26
X184.95Y-108.26
T10
X162.02Y-109.96
X172.32Y-109.96
X179.8Y-109.96
X190.1Y-109.96
T11
X111.0Y-23.25
X195.0Y-23.25
T5
X106.1Y-138.4G85X106.1Y-140.1
G05
X106.1Y-163.4G85X106.1Y-165.1
G05
X107.159Y-145.889G85X108.361Y-147.091
G05
X107.159Y-170.889G85X108.361Y-172.091
G05
X112.85Y-135.35G85X111.15Y-135.35
G05
X112.85Y-160.35G85X111.15Y-160.35
G05
X115.85Y-148.15G85X114.15Y-148.15
G05
X115.85Y-173.15G85X114.15Y-173.15
G05
X118.9Y-141.4G85X118.9Y-143.1
G05
X118.9Y-166.4G85X118.9Y-168.1
G05
X131.1Y-138.4G85X131.1Y-140.1
G05
X132.159Y-145.889G85X133.361Y-147.091
G05
X137.85Y-135.35G85X136.15Y-135.35
G05
X140.85Y-148.15G85X139.15Y-148.15
G05
X143.9Y-141.4G85X143.9Y-143.1
G05
X156.1Y-138.4G85X156.1Y-140.1
G05
X157.159Y-145.889G85X158.361Y-147.091
G05
X162.85Y-135.35G85X161.15Y-135.35
G05
X165.85Y-148.15G85X164.15Y-148.15
G05
X168.9Y-141.4G85X168.9Y-143.1
G05
X181.1Y-138.4G85X181.1Y-140.1
G05
X181.1Y-163.4G85X181.1Y-165.1
G05
X182.159Y-145.889G85X183.361Y-147.091
G05
X182.159Y-170.889G85X183.361Y-172.091
G05
X187.85Y-135.35G85X186.15Y-135.35
G05
X187.85Y-160.35G85X186.15Y-160.35
G05
X190.85Y-148.15G85X189.15Y-148.15
G05
X190.85Y-173.15G85X189.15Y-173.15
G05
X193.9Y-141.4G85X193.9Y-143.1
G05
X193.9Y-166.4G85X193.9Y-168.1
G05
T0
M30
