%TF.GenerationSoftware,KiCad,Pcbnew,7.0.0-da2b9df05c~171~ubuntu22.04.1*%
%TF.CreationDate,2023-03-08T20:31:39-05:00*%
%TF.ProjectId,springReverbRev2,73707269-6e67-4526-9576-657262526576,rev?*%
%TF.SameCoordinates,Original*%
%TF.FileFunction,Legend,Top*%
%TF.FilePolarity,Positive*%
%FSLAX46Y46*%
G04 Gerber Fmt 4.6, Leading zero omitted, Abs format (unit mm)*
G04 Created by KiCad (PCBNEW 7.0.0-da2b9df05c~171~ubuntu22.04.1) date 2023-03-08 20:31:39*
%MOMM*%
%LPD*%
G01*
G04 APERTURE LIST*
%ADD10C,0.150000*%
%ADD11C,0.120000*%
G04 APERTURE END LIST*
D10*
X95009523Y-40614761D02*
X95152380Y-40662380D01*
X95152380Y-40662380D02*
X95390475Y-40662380D01*
X95390475Y-40662380D02*
X95485713Y-40614761D01*
X95485713Y-40614761D02*
X95533332Y-40567142D01*
X95533332Y-40567142D02*
X95580951Y-40471904D01*
X95580951Y-40471904D02*
X95580951Y-40376666D01*
X95580951Y-40376666D02*
X95533332Y-40281428D01*
X95533332Y-40281428D02*
X95485713Y-40233809D01*
X95485713Y-40233809D02*
X95390475Y-40186190D01*
X95390475Y-40186190D02*
X95199999Y-40138571D01*
X95199999Y-40138571D02*
X95104761Y-40090952D01*
X95104761Y-40090952D02*
X95057142Y-40043333D01*
X95057142Y-40043333D02*
X95009523Y-39948095D01*
X95009523Y-39948095D02*
X95009523Y-39852857D01*
X95009523Y-39852857D02*
X95057142Y-39757619D01*
X95057142Y-39757619D02*
X95104761Y-39710000D01*
X95104761Y-39710000D02*
X95199999Y-39662380D01*
X95199999Y-39662380D02*
X95438094Y-39662380D01*
X95438094Y-39662380D02*
X95580951Y-39710000D01*
X96009523Y-39995714D02*
X96009523Y-40995714D01*
X96009523Y-40043333D02*
X96104761Y-39995714D01*
X96104761Y-39995714D02*
X96295237Y-39995714D01*
X96295237Y-39995714D02*
X96390475Y-40043333D01*
X96390475Y-40043333D02*
X96438094Y-40090952D01*
X96438094Y-40090952D02*
X96485713Y-40186190D01*
X96485713Y-40186190D02*
X96485713Y-40471904D01*
X96485713Y-40471904D02*
X96438094Y-40567142D01*
X96438094Y-40567142D02*
X96390475Y-40614761D01*
X96390475Y-40614761D02*
X96295237Y-40662380D01*
X96295237Y-40662380D02*
X96104761Y-40662380D01*
X96104761Y-40662380D02*
X96009523Y-40614761D01*
X96914285Y-40662380D02*
X96914285Y-39995714D01*
X96914285Y-40186190D02*
X96961904Y-40090952D01*
X96961904Y-40090952D02*
X97009523Y-40043333D01*
X97009523Y-40043333D02*
X97104761Y-39995714D01*
X97104761Y-39995714D02*
X97199999Y-39995714D01*
X97533333Y-40662380D02*
X97533333Y-39995714D01*
X97533333Y-39662380D02*
X97485714Y-39710000D01*
X97485714Y-39710000D02*
X97533333Y-39757619D01*
X97533333Y-39757619D02*
X97580952Y-39710000D01*
X97580952Y-39710000D02*
X97533333Y-39662380D01*
X97533333Y-39662380D02*
X97533333Y-39757619D01*
X98009523Y-39995714D02*
X98009523Y-40662380D01*
X98009523Y-40090952D02*
X98057142Y-40043333D01*
X98057142Y-40043333D02*
X98152380Y-39995714D01*
X98152380Y-39995714D02*
X98295237Y-39995714D01*
X98295237Y-39995714D02*
X98390475Y-40043333D01*
X98390475Y-40043333D02*
X98438094Y-40138571D01*
X98438094Y-40138571D02*
X98438094Y-40662380D01*
X99342856Y-39995714D02*
X99342856Y-40805238D01*
X99342856Y-40805238D02*
X99295237Y-40900476D01*
X99295237Y-40900476D02*
X99247618Y-40948095D01*
X99247618Y-40948095D02*
X99152380Y-40995714D01*
X99152380Y-40995714D02*
X99009523Y-40995714D01*
X99009523Y-40995714D02*
X98914285Y-40948095D01*
X99342856Y-40614761D02*
X99247618Y-40662380D01*
X99247618Y-40662380D02*
X99057142Y-40662380D01*
X99057142Y-40662380D02*
X98961904Y-40614761D01*
X98961904Y-40614761D02*
X98914285Y-40567142D01*
X98914285Y-40567142D02*
X98866666Y-40471904D01*
X98866666Y-40471904D02*
X98866666Y-40186190D01*
X98866666Y-40186190D02*
X98914285Y-40090952D01*
X98914285Y-40090952D02*
X98961904Y-40043333D01*
X98961904Y-40043333D02*
X99057142Y-39995714D01*
X99057142Y-39995714D02*
X99247618Y-39995714D01*
X99247618Y-39995714D02*
X99342856Y-40043333D01*
X100990475Y-40662380D02*
X100657142Y-40186190D01*
X100419047Y-40662380D02*
X100419047Y-39662380D01*
X100419047Y-39662380D02*
X100799999Y-39662380D01*
X100799999Y-39662380D02*
X100895237Y-39710000D01*
X100895237Y-39710000D02*
X100942856Y-39757619D01*
X100942856Y-39757619D02*
X100990475Y-39852857D01*
X100990475Y-39852857D02*
X100990475Y-39995714D01*
X100990475Y-39995714D02*
X100942856Y-40090952D01*
X100942856Y-40090952D02*
X100895237Y-40138571D01*
X100895237Y-40138571D02*
X100799999Y-40186190D01*
X100799999Y-40186190D02*
X100419047Y-40186190D01*
X101799999Y-40614761D02*
X101704761Y-40662380D01*
X101704761Y-40662380D02*
X101514285Y-40662380D01*
X101514285Y-40662380D02*
X101419047Y-40614761D01*
X101419047Y-40614761D02*
X101371428Y-40519523D01*
X101371428Y-40519523D02*
X101371428Y-40138571D01*
X101371428Y-40138571D02*
X101419047Y-40043333D01*
X101419047Y-40043333D02*
X101514285Y-39995714D01*
X101514285Y-39995714D02*
X101704761Y-39995714D01*
X101704761Y-39995714D02*
X101799999Y-40043333D01*
X101799999Y-40043333D02*
X101847618Y-40138571D01*
X101847618Y-40138571D02*
X101847618Y-40233809D01*
X101847618Y-40233809D02*
X101371428Y-40329047D01*
X102180952Y-39995714D02*
X102419047Y-40662380D01*
X102419047Y-40662380D02*
X102657142Y-39995714D01*
X103419047Y-40614761D02*
X103323809Y-40662380D01*
X103323809Y-40662380D02*
X103133333Y-40662380D01*
X103133333Y-40662380D02*
X103038095Y-40614761D01*
X103038095Y-40614761D02*
X102990476Y-40519523D01*
X102990476Y-40519523D02*
X102990476Y-40138571D01*
X102990476Y-40138571D02*
X103038095Y-40043333D01*
X103038095Y-40043333D02*
X103133333Y-39995714D01*
X103133333Y-39995714D02*
X103323809Y-39995714D01*
X103323809Y-39995714D02*
X103419047Y-40043333D01*
X103419047Y-40043333D02*
X103466666Y-40138571D01*
X103466666Y-40138571D02*
X103466666Y-40233809D01*
X103466666Y-40233809D02*
X102990476Y-40329047D01*
X103895238Y-40662380D02*
X103895238Y-39995714D01*
X103895238Y-40186190D02*
X103942857Y-40090952D01*
X103942857Y-40090952D02*
X103990476Y-40043333D01*
X103990476Y-40043333D02*
X104085714Y-39995714D01*
X104085714Y-39995714D02*
X104180952Y-39995714D01*
X104514286Y-40662380D02*
X104514286Y-39662380D01*
X104514286Y-40043333D02*
X104609524Y-39995714D01*
X104609524Y-39995714D02*
X104800000Y-39995714D01*
X104800000Y-39995714D02*
X104895238Y-40043333D01*
X104895238Y-40043333D02*
X104942857Y-40090952D01*
X104942857Y-40090952D02*
X104990476Y-40186190D01*
X104990476Y-40186190D02*
X104990476Y-40471904D01*
X104990476Y-40471904D02*
X104942857Y-40567142D01*
X104942857Y-40567142D02*
X104895238Y-40614761D01*
X104895238Y-40614761D02*
X104800000Y-40662380D01*
X104800000Y-40662380D02*
X104609524Y-40662380D01*
X104609524Y-40662380D02*
X104514286Y-40614761D01*
X96223808Y-41758571D02*
X95890475Y-41758571D01*
X95890475Y-42282380D02*
X95890475Y-41282380D01*
X95890475Y-41282380D02*
X96366665Y-41282380D01*
X96747618Y-42282380D02*
X96747618Y-41615714D01*
X96747618Y-41806190D02*
X96795237Y-41710952D01*
X96795237Y-41710952D02*
X96842856Y-41663333D01*
X96842856Y-41663333D02*
X96938094Y-41615714D01*
X96938094Y-41615714D02*
X97033332Y-41615714D01*
X97509523Y-42282380D02*
X97414285Y-42234761D01*
X97414285Y-42234761D02*
X97366666Y-42187142D01*
X97366666Y-42187142D02*
X97319047Y-42091904D01*
X97319047Y-42091904D02*
X97319047Y-41806190D01*
X97319047Y-41806190D02*
X97366666Y-41710952D01*
X97366666Y-41710952D02*
X97414285Y-41663333D01*
X97414285Y-41663333D02*
X97509523Y-41615714D01*
X97509523Y-41615714D02*
X97652380Y-41615714D01*
X97652380Y-41615714D02*
X97747618Y-41663333D01*
X97747618Y-41663333D02*
X97795237Y-41710952D01*
X97795237Y-41710952D02*
X97842856Y-41806190D01*
X97842856Y-41806190D02*
X97842856Y-42091904D01*
X97842856Y-42091904D02*
X97795237Y-42187142D01*
X97795237Y-42187142D02*
X97747618Y-42234761D01*
X97747618Y-42234761D02*
X97652380Y-42282380D01*
X97652380Y-42282380D02*
X97509523Y-42282380D01*
X98271428Y-41615714D02*
X98271428Y-42282380D01*
X98271428Y-41710952D02*
X98319047Y-41663333D01*
X98319047Y-41663333D02*
X98414285Y-41615714D01*
X98414285Y-41615714D02*
X98557142Y-41615714D01*
X98557142Y-41615714D02*
X98652380Y-41663333D01*
X98652380Y-41663333D02*
X98699999Y-41758571D01*
X98699999Y-41758571D02*
X98699999Y-42282380D01*
X99033333Y-41615714D02*
X99414285Y-41615714D01*
X99176190Y-41282380D02*
X99176190Y-42139523D01*
X99176190Y-42139523D02*
X99223809Y-42234761D01*
X99223809Y-42234761D02*
X99319047Y-42282380D01*
X99319047Y-42282380D02*
X99414285Y-42282380D01*
X100347619Y-42282380D02*
X100347619Y-41282380D01*
X100347619Y-41663333D02*
X100442857Y-41615714D01*
X100442857Y-41615714D02*
X100633333Y-41615714D01*
X100633333Y-41615714D02*
X100728571Y-41663333D01*
X100728571Y-41663333D02*
X100776190Y-41710952D01*
X100776190Y-41710952D02*
X100823809Y-41806190D01*
X100823809Y-41806190D02*
X100823809Y-42091904D01*
X100823809Y-42091904D02*
X100776190Y-42187142D01*
X100776190Y-42187142D02*
X100728571Y-42234761D01*
X100728571Y-42234761D02*
X100633333Y-42282380D01*
X100633333Y-42282380D02*
X100442857Y-42282380D01*
X100442857Y-42282380D02*
X100347619Y-42234761D01*
X101395238Y-42282380D02*
X101300000Y-42234761D01*
X101300000Y-42234761D02*
X101252381Y-42187142D01*
X101252381Y-42187142D02*
X101204762Y-42091904D01*
X101204762Y-42091904D02*
X101204762Y-41806190D01*
X101204762Y-41806190D02*
X101252381Y-41710952D01*
X101252381Y-41710952D02*
X101300000Y-41663333D01*
X101300000Y-41663333D02*
X101395238Y-41615714D01*
X101395238Y-41615714D02*
X101538095Y-41615714D01*
X101538095Y-41615714D02*
X101633333Y-41663333D01*
X101633333Y-41663333D02*
X101680952Y-41710952D01*
X101680952Y-41710952D02*
X101728571Y-41806190D01*
X101728571Y-41806190D02*
X101728571Y-42091904D01*
X101728571Y-42091904D02*
X101680952Y-42187142D01*
X101680952Y-42187142D02*
X101633333Y-42234761D01*
X101633333Y-42234761D02*
X101538095Y-42282380D01*
X101538095Y-42282380D02*
X101395238Y-42282380D01*
X102585714Y-42282380D02*
X102585714Y-41758571D01*
X102585714Y-41758571D02*
X102538095Y-41663333D01*
X102538095Y-41663333D02*
X102442857Y-41615714D01*
X102442857Y-41615714D02*
X102252381Y-41615714D01*
X102252381Y-41615714D02*
X102157143Y-41663333D01*
X102585714Y-42234761D02*
X102490476Y-42282380D01*
X102490476Y-42282380D02*
X102252381Y-42282380D01*
X102252381Y-42282380D02*
X102157143Y-42234761D01*
X102157143Y-42234761D02*
X102109524Y-42139523D01*
X102109524Y-42139523D02*
X102109524Y-42044285D01*
X102109524Y-42044285D02*
X102157143Y-41949047D01*
X102157143Y-41949047D02*
X102252381Y-41901428D01*
X102252381Y-41901428D02*
X102490476Y-41901428D01*
X102490476Y-41901428D02*
X102585714Y-41853809D01*
X103061905Y-42282380D02*
X103061905Y-41615714D01*
X103061905Y-41806190D02*
X103109524Y-41710952D01*
X103109524Y-41710952D02*
X103157143Y-41663333D01*
X103157143Y-41663333D02*
X103252381Y-41615714D01*
X103252381Y-41615714D02*
X103347619Y-41615714D01*
X104109524Y-42282380D02*
X104109524Y-41282380D01*
X104109524Y-42234761D02*
X104014286Y-42282380D01*
X104014286Y-42282380D02*
X103823810Y-42282380D01*
X103823810Y-42282380D02*
X103728572Y-42234761D01*
X103728572Y-42234761D02*
X103680953Y-42187142D01*
X103680953Y-42187142D02*
X103633334Y-42091904D01*
X103633334Y-42091904D02*
X103633334Y-41806190D01*
X103633334Y-41806190D02*
X103680953Y-41710952D01*
X103680953Y-41710952D02*
X103728572Y-41663333D01*
X103728572Y-41663333D02*
X103823810Y-41615714D01*
X103823810Y-41615714D02*
X104014286Y-41615714D01*
X104014286Y-41615714D02*
X104109524Y-41663333D01*
%TO.C,J902*%
X196493904Y-151028571D02*
X197065333Y-151028571D01*
X197065333Y-151028571D02*
X197179619Y-151066666D01*
X197179619Y-151066666D02*
X197255809Y-151142857D01*
X197255809Y-151142857D02*
X197293904Y-151257142D01*
X197293904Y-151257142D02*
X197293904Y-151333333D01*
X197293904Y-150609523D02*
X197293904Y-150457142D01*
X197293904Y-150457142D02*
X197255809Y-150380952D01*
X197255809Y-150380952D02*
X197217714Y-150342856D01*
X197217714Y-150342856D02*
X197103428Y-150266666D01*
X197103428Y-150266666D02*
X196951047Y-150228571D01*
X196951047Y-150228571D02*
X196646285Y-150228571D01*
X196646285Y-150228571D02*
X196570095Y-150266666D01*
X196570095Y-150266666D02*
X196532000Y-150304761D01*
X196532000Y-150304761D02*
X196493904Y-150380952D01*
X196493904Y-150380952D02*
X196493904Y-150533333D01*
X196493904Y-150533333D02*
X196532000Y-150609523D01*
X196532000Y-150609523D02*
X196570095Y-150647618D01*
X196570095Y-150647618D02*
X196646285Y-150685714D01*
X196646285Y-150685714D02*
X196836761Y-150685714D01*
X196836761Y-150685714D02*
X196912952Y-150647618D01*
X196912952Y-150647618D02*
X196951047Y-150609523D01*
X196951047Y-150609523D02*
X196989142Y-150533333D01*
X196989142Y-150533333D02*
X196989142Y-150380952D01*
X196989142Y-150380952D02*
X196951047Y-150304761D01*
X196951047Y-150304761D02*
X196912952Y-150266666D01*
X196912952Y-150266666D02*
X196836761Y-150228571D01*
X196493904Y-149733332D02*
X196493904Y-149657142D01*
X196493904Y-149657142D02*
X196532000Y-149580951D01*
X196532000Y-149580951D02*
X196570095Y-149542856D01*
X196570095Y-149542856D02*
X196646285Y-149504761D01*
X196646285Y-149504761D02*
X196798666Y-149466666D01*
X196798666Y-149466666D02*
X196989142Y-149466666D01*
X196989142Y-149466666D02*
X197141523Y-149504761D01*
X197141523Y-149504761D02*
X197217714Y-149542856D01*
X197217714Y-149542856D02*
X197255809Y-149580951D01*
X197255809Y-149580951D02*
X197293904Y-149657142D01*
X197293904Y-149657142D02*
X197293904Y-149733332D01*
X197293904Y-149733332D02*
X197255809Y-149809523D01*
X197255809Y-149809523D02*
X197217714Y-149847618D01*
X197217714Y-149847618D02*
X197141523Y-149885713D01*
X197141523Y-149885713D02*
X196989142Y-149923809D01*
X196989142Y-149923809D02*
X196798666Y-149923809D01*
X196798666Y-149923809D02*
X196646285Y-149885713D01*
X196646285Y-149885713D02*
X196570095Y-149847618D01*
X196570095Y-149847618D02*
X196532000Y-149809523D01*
X196532000Y-149809523D02*
X196493904Y-149733332D01*
X196570095Y-149161904D02*
X196532000Y-149123808D01*
X196532000Y-149123808D02*
X196493904Y-149047618D01*
X196493904Y-149047618D02*
X196493904Y-148857142D01*
X196493904Y-148857142D02*
X196532000Y-148780951D01*
X196532000Y-148780951D02*
X196570095Y-148742856D01*
X196570095Y-148742856D02*
X196646285Y-148704761D01*
X196646285Y-148704761D02*
X196722476Y-148704761D01*
X196722476Y-148704761D02*
X196836761Y-148742856D01*
X196836761Y-148742856D02*
X197293904Y-149199999D01*
X197293904Y-149199999D02*
X197293904Y-148704761D01*
%TO.C,J905*%
X221493904Y-151028571D02*
X222065333Y-151028571D01*
X222065333Y-151028571D02*
X222179619Y-151066666D01*
X222179619Y-151066666D02*
X222255809Y-151142857D01*
X222255809Y-151142857D02*
X222293904Y-151257142D01*
X222293904Y-151257142D02*
X222293904Y-151333333D01*
X222293904Y-150609523D02*
X222293904Y-150457142D01*
X222293904Y-150457142D02*
X222255809Y-150380952D01*
X222255809Y-150380952D02*
X222217714Y-150342856D01*
X222217714Y-150342856D02*
X222103428Y-150266666D01*
X222103428Y-150266666D02*
X221951047Y-150228571D01*
X221951047Y-150228571D02*
X221646285Y-150228571D01*
X221646285Y-150228571D02*
X221570095Y-150266666D01*
X221570095Y-150266666D02*
X221532000Y-150304761D01*
X221532000Y-150304761D02*
X221493904Y-150380952D01*
X221493904Y-150380952D02*
X221493904Y-150533333D01*
X221493904Y-150533333D02*
X221532000Y-150609523D01*
X221532000Y-150609523D02*
X221570095Y-150647618D01*
X221570095Y-150647618D02*
X221646285Y-150685714D01*
X221646285Y-150685714D02*
X221836761Y-150685714D01*
X221836761Y-150685714D02*
X221912952Y-150647618D01*
X221912952Y-150647618D02*
X221951047Y-150609523D01*
X221951047Y-150609523D02*
X221989142Y-150533333D01*
X221989142Y-150533333D02*
X221989142Y-150380952D01*
X221989142Y-150380952D02*
X221951047Y-150304761D01*
X221951047Y-150304761D02*
X221912952Y-150266666D01*
X221912952Y-150266666D02*
X221836761Y-150228571D01*
X221493904Y-149733332D02*
X221493904Y-149657142D01*
X221493904Y-149657142D02*
X221532000Y-149580951D01*
X221532000Y-149580951D02*
X221570095Y-149542856D01*
X221570095Y-149542856D02*
X221646285Y-149504761D01*
X221646285Y-149504761D02*
X221798666Y-149466666D01*
X221798666Y-149466666D02*
X221989142Y-149466666D01*
X221989142Y-149466666D02*
X222141523Y-149504761D01*
X222141523Y-149504761D02*
X222217714Y-149542856D01*
X222217714Y-149542856D02*
X222255809Y-149580951D01*
X222255809Y-149580951D02*
X222293904Y-149657142D01*
X222293904Y-149657142D02*
X222293904Y-149733332D01*
X222293904Y-149733332D02*
X222255809Y-149809523D01*
X222255809Y-149809523D02*
X222217714Y-149847618D01*
X222217714Y-149847618D02*
X222141523Y-149885713D01*
X222141523Y-149885713D02*
X221989142Y-149923809D01*
X221989142Y-149923809D02*
X221798666Y-149923809D01*
X221798666Y-149923809D02*
X221646285Y-149885713D01*
X221646285Y-149885713D02*
X221570095Y-149847618D01*
X221570095Y-149847618D02*
X221532000Y-149809523D01*
X221532000Y-149809523D02*
X221493904Y-149733332D01*
X221493904Y-148742856D02*
X221493904Y-149123808D01*
X221493904Y-149123808D02*
X221874857Y-149161904D01*
X221874857Y-149161904D02*
X221836761Y-149123808D01*
X221836761Y-149123808D02*
X221798666Y-149047618D01*
X221798666Y-149047618D02*
X221798666Y-148857142D01*
X221798666Y-148857142D02*
X221836761Y-148780951D01*
X221836761Y-148780951D02*
X221874857Y-148742856D01*
X221874857Y-148742856D02*
X221951047Y-148704761D01*
X221951047Y-148704761D02*
X222141523Y-148704761D01*
X222141523Y-148704761D02*
X222217714Y-148742856D01*
X222217714Y-148742856D02*
X222255809Y-148780951D01*
X222255809Y-148780951D02*
X222293904Y-148857142D01*
X222293904Y-148857142D02*
X222293904Y-149047618D01*
X222293904Y-149047618D02*
X222255809Y-149123808D01*
X222255809Y-149123808D02*
X222217714Y-149161904D01*
%TO.C,RV901*%
X64793904Y-40738094D02*
X64412952Y-41004761D01*
X64793904Y-41195237D02*
X63993904Y-41195237D01*
X63993904Y-41195237D02*
X63993904Y-40890475D01*
X63993904Y-40890475D02*
X64032000Y-40814285D01*
X64032000Y-40814285D02*
X64070095Y-40776190D01*
X64070095Y-40776190D02*
X64146285Y-40738094D01*
X64146285Y-40738094D02*
X64260571Y-40738094D01*
X64260571Y-40738094D02*
X64336761Y-40776190D01*
X64336761Y-40776190D02*
X64374857Y-40814285D01*
X64374857Y-40814285D02*
X64412952Y-40890475D01*
X64412952Y-40890475D02*
X64412952Y-41195237D01*
X63993904Y-40509523D02*
X64793904Y-40242856D01*
X64793904Y-40242856D02*
X63993904Y-39976190D01*
X64793904Y-39671428D02*
X64793904Y-39519047D01*
X64793904Y-39519047D02*
X64755809Y-39442857D01*
X64755809Y-39442857D02*
X64717714Y-39404761D01*
X64717714Y-39404761D02*
X64603428Y-39328571D01*
X64603428Y-39328571D02*
X64451047Y-39290476D01*
X64451047Y-39290476D02*
X64146285Y-39290476D01*
X64146285Y-39290476D02*
X64070095Y-39328571D01*
X64070095Y-39328571D02*
X64032000Y-39366666D01*
X64032000Y-39366666D02*
X63993904Y-39442857D01*
X63993904Y-39442857D02*
X63993904Y-39595238D01*
X63993904Y-39595238D02*
X64032000Y-39671428D01*
X64032000Y-39671428D02*
X64070095Y-39709523D01*
X64070095Y-39709523D02*
X64146285Y-39747619D01*
X64146285Y-39747619D02*
X64336761Y-39747619D01*
X64336761Y-39747619D02*
X64412952Y-39709523D01*
X64412952Y-39709523D02*
X64451047Y-39671428D01*
X64451047Y-39671428D02*
X64489142Y-39595238D01*
X64489142Y-39595238D02*
X64489142Y-39442857D01*
X64489142Y-39442857D02*
X64451047Y-39366666D01*
X64451047Y-39366666D02*
X64412952Y-39328571D01*
X64412952Y-39328571D02*
X64336761Y-39290476D01*
X63993904Y-38795237D02*
X63993904Y-38719047D01*
X63993904Y-38719047D02*
X64032000Y-38642856D01*
X64032000Y-38642856D02*
X64070095Y-38604761D01*
X64070095Y-38604761D02*
X64146285Y-38566666D01*
X64146285Y-38566666D02*
X64298666Y-38528571D01*
X64298666Y-38528571D02*
X64489142Y-38528571D01*
X64489142Y-38528571D02*
X64641523Y-38566666D01*
X64641523Y-38566666D02*
X64717714Y-38604761D01*
X64717714Y-38604761D02*
X64755809Y-38642856D01*
X64755809Y-38642856D02*
X64793904Y-38719047D01*
X64793904Y-38719047D02*
X64793904Y-38795237D01*
X64793904Y-38795237D02*
X64755809Y-38871428D01*
X64755809Y-38871428D02*
X64717714Y-38909523D01*
X64717714Y-38909523D02*
X64641523Y-38947618D01*
X64641523Y-38947618D02*
X64489142Y-38985714D01*
X64489142Y-38985714D02*
X64298666Y-38985714D01*
X64298666Y-38985714D02*
X64146285Y-38947618D01*
X64146285Y-38947618D02*
X64070095Y-38909523D01*
X64070095Y-38909523D02*
X64032000Y-38871428D01*
X64032000Y-38871428D02*
X63993904Y-38795237D01*
X64793904Y-37766666D02*
X64793904Y-38223809D01*
X64793904Y-37995237D02*
X63993904Y-37995237D01*
X63993904Y-37995237D02*
X64108190Y-38071428D01*
X64108190Y-38071428D02*
X64184380Y-38147618D01*
X64184380Y-38147618D02*
X64222476Y-38223809D01*
X74874857Y-41028571D02*
X74912952Y-40914285D01*
X74912952Y-40914285D02*
X74951047Y-40876190D01*
X74951047Y-40876190D02*
X75027238Y-40838094D01*
X75027238Y-40838094D02*
X75141523Y-40838094D01*
X75141523Y-40838094D02*
X75217714Y-40876190D01*
X75217714Y-40876190D02*
X75255809Y-40914285D01*
X75255809Y-40914285D02*
X75293904Y-40990475D01*
X75293904Y-40990475D02*
X75293904Y-41295237D01*
X75293904Y-41295237D02*
X74493904Y-41295237D01*
X74493904Y-41295237D02*
X74493904Y-41028571D01*
X74493904Y-41028571D02*
X74532000Y-40952380D01*
X74532000Y-40952380D02*
X74570095Y-40914285D01*
X74570095Y-40914285D02*
X74646285Y-40876190D01*
X74646285Y-40876190D02*
X74722476Y-40876190D01*
X74722476Y-40876190D02*
X74798666Y-40914285D01*
X74798666Y-40914285D02*
X74836761Y-40952380D01*
X74836761Y-40952380D02*
X74874857Y-41028571D01*
X74874857Y-41028571D02*
X74874857Y-41295237D01*
X74493904Y-40114285D02*
X74493904Y-40495237D01*
X74493904Y-40495237D02*
X74874857Y-40533333D01*
X74874857Y-40533333D02*
X74836761Y-40495237D01*
X74836761Y-40495237D02*
X74798666Y-40419047D01*
X74798666Y-40419047D02*
X74798666Y-40228571D01*
X74798666Y-40228571D02*
X74836761Y-40152380D01*
X74836761Y-40152380D02*
X74874857Y-40114285D01*
X74874857Y-40114285D02*
X74951047Y-40076190D01*
X74951047Y-40076190D02*
X75141523Y-40076190D01*
X75141523Y-40076190D02*
X75217714Y-40114285D01*
X75217714Y-40114285D02*
X75255809Y-40152380D01*
X75255809Y-40152380D02*
X75293904Y-40228571D01*
X75293904Y-40228571D02*
X75293904Y-40419047D01*
X75293904Y-40419047D02*
X75255809Y-40495237D01*
X75255809Y-40495237D02*
X75217714Y-40533333D01*
X74493904Y-39580951D02*
X74493904Y-39504761D01*
X74493904Y-39504761D02*
X74532000Y-39428570D01*
X74532000Y-39428570D02*
X74570095Y-39390475D01*
X74570095Y-39390475D02*
X74646285Y-39352380D01*
X74646285Y-39352380D02*
X74798666Y-39314285D01*
X74798666Y-39314285D02*
X74989142Y-39314285D01*
X74989142Y-39314285D02*
X75141523Y-39352380D01*
X75141523Y-39352380D02*
X75217714Y-39390475D01*
X75217714Y-39390475D02*
X75255809Y-39428570D01*
X75255809Y-39428570D02*
X75293904Y-39504761D01*
X75293904Y-39504761D02*
X75293904Y-39580951D01*
X75293904Y-39580951D02*
X75255809Y-39657142D01*
X75255809Y-39657142D02*
X75217714Y-39695237D01*
X75217714Y-39695237D02*
X75141523Y-39733332D01*
X75141523Y-39733332D02*
X74989142Y-39771428D01*
X74989142Y-39771428D02*
X74798666Y-39771428D01*
X74798666Y-39771428D02*
X74646285Y-39733332D01*
X74646285Y-39733332D02*
X74570095Y-39695237D01*
X74570095Y-39695237D02*
X74532000Y-39657142D01*
X74532000Y-39657142D02*
X74493904Y-39580951D01*
X75293904Y-38971427D02*
X74493904Y-38971427D01*
X74989142Y-38895237D02*
X75293904Y-38666665D01*
X74760571Y-38666665D02*
X75065333Y-38971427D01*
%TO.C,LED1*%
X86609761Y-77753904D02*
X86228809Y-77753904D01*
X86228809Y-77753904D02*
X86228809Y-76953904D01*
X86876428Y-77334857D02*
X87143094Y-77334857D01*
X87257380Y-77753904D02*
X86876428Y-77753904D01*
X86876428Y-77753904D02*
X86876428Y-76953904D01*
X86876428Y-76953904D02*
X87257380Y-76953904D01*
X87600238Y-77753904D02*
X87600238Y-76953904D01*
X87600238Y-76953904D02*
X87790714Y-76953904D01*
X87790714Y-76953904D02*
X87905000Y-76992000D01*
X87905000Y-76992000D02*
X87981190Y-77068190D01*
X87981190Y-77068190D02*
X88019285Y-77144380D01*
X88019285Y-77144380D02*
X88057381Y-77296761D01*
X88057381Y-77296761D02*
X88057381Y-77411047D01*
X88057381Y-77411047D02*
X88019285Y-77563428D01*
X88019285Y-77563428D02*
X87981190Y-77639619D01*
X87981190Y-77639619D02*
X87905000Y-77715809D01*
X87905000Y-77715809D02*
X87790714Y-77753904D01*
X87790714Y-77753904D02*
X87600238Y-77753904D01*
X88819285Y-77753904D02*
X88362142Y-77753904D01*
X88590714Y-77753904D02*
X88590714Y-76953904D01*
X88590714Y-76953904D02*
X88514523Y-77068190D01*
X88514523Y-77068190D02*
X88438333Y-77144380D01*
X88438333Y-77144380D02*
X88362142Y-77182476D01*
X91265476Y-73793904D02*
X91265476Y-72993904D01*
X91722619Y-73793904D02*
X91379761Y-73336761D01*
X91722619Y-72993904D02*
X91265476Y-73451047D01*
%TO.C,VR1*%
X136452381Y-80493904D02*
X136719048Y-81293904D01*
X136719048Y-81293904D02*
X136985714Y-80493904D01*
X137709524Y-81293904D02*
X137442857Y-80912952D01*
X137252381Y-81293904D02*
X137252381Y-80493904D01*
X137252381Y-80493904D02*
X137557143Y-80493904D01*
X137557143Y-80493904D02*
X137633333Y-80532000D01*
X137633333Y-80532000D02*
X137671428Y-80570095D01*
X137671428Y-80570095D02*
X137709524Y-80646285D01*
X137709524Y-80646285D02*
X137709524Y-80760571D01*
X137709524Y-80760571D02*
X137671428Y-80836761D01*
X137671428Y-80836761D02*
X137633333Y-80874857D01*
X137633333Y-80874857D02*
X137557143Y-80912952D01*
X137557143Y-80912952D02*
X137252381Y-80912952D01*
X138471428Y-81293904D02*
X138014285Y-81293904D01*
X138242857Y-81293904D02*
X138242857Y-80493904D01*
X138242857Y-80493904D02*
X138166666Y-80608190D01*
X138166666Y-80608190D02*
X138090476Y-80684380D01*
X138090476Y-80684380D02*
X138014285Y-80722476D01*
X142023809Y-81293904D02*
X141566666Y-81293904D01*
X141795238Y-81293904D02*
X141795238Y-80493904D01*
X141795238Y-80493904D02*
X141719047Y-80608190D01*
X141719047Y-80608190D02*
X141642857Y-80684380D01*
X141642857Y-80684380D02*
X141566666Y-80722476D01*
X142519048Y-80493904D02*
X142595238Y-80493904D01*
X142595238Y-80493904D02*
X142671429Y-80532000D01*
X142671429Y-80532000D02*
X142709524Y-80570095D01*
X142709524Y-80570095D02*
X142747619Y-80646285D01*
X142747619Y-80646285D02*
X142785714Y-80798666D01*
X142785714Y-80798666D02*
X142785714Y-80989142D01*
X142785714Y-80989142D02*
X142747619Y-81141523D01*
X142747619Y-81141523D02*
X142709524Y-81217714D01*
X142709524Y-81217714D02*
X142671429Y-81255809D01*
X142671429Y-81255809D02*
X142595238Y-81293904D01*
X142595238Y-81293904D02*
X142519048Y-81293904D01*
X142519048Y-81293904D02*
X142442857Y-81255809D01*
X142442857Y-81255809D02*
X142404762Y-81217714D01*
X142404762Y-81217714D02*
X142366667Y-81141523D01*
X142366667Y-81141523D02*
X142328571Y-80989142D01*
X142328571Y-80989142D02*
X142328571Y-80798666D01*
X142328571Y-80798666D02*
X142366667Y-80646285D01*
X142366667Y-80646285D02*
X142404762Y-80570095D01*
X142404762Y-80570095D02*
X142442857Y-80532000D01*
X142442857Y-80532000D02*
X142519048Y-80493904D01*
X143128572Y-81293904D02*
X143128572Y-80493904D01*
X143204762Y-80989142D02*
X143433334Y-81293904D01*
X143433334Y-80760571D02*
X143128572Y-81065333D01*
%TO.C,RV905*%
X114793904Y-85738094D02*
X114412952Y-86004761D01*
X114793904Y-86195237D02*
X113993904Y-86195237D01*
X113993904Y-86195237D02*
X113993904Y-85890475D01*
X113993904Y-85890475D02*
X114032000Y-85814285D01*
X114032000Y-85814285D02*
X114070095Y-85776190D01*
X114070095Y-85776190D02*
X114146285Y-85738094D01*
X114146285Y-85738094D02*
X114260571Y-85738094D01*
X114260571Y-85738094D02*
X114336761Y-85776190D01*
X114336761Y-85776190D02*
X114374857Y-85814285D01*
X114374857Y-85814285D02*
X114412952Y-85890475D01*
X114412952Y-85890475D02*
X114412952Y-86195237D01*
X113993904Y-85509523D02*
X114793904Y-85242856D01*
X114793904Y-85242856D02*
X113993904Y-84976190D01*
X114793904Y-84671428D02*
X114793904Y-84519047D01*
X114793904Y-84519047D02*
X114755809Y-84442857D01*
X114755809Y-84442857D02*
X114717714Y-84404761D01*
X114717714Y-84404761D02*
X114603428Y-84328571D01*
X114603428Y-84328571D02*
X114451047Y-84290476D01*
X114451047Y-84290476D02*
X114146285Y-84290476D01*
X114146285Y-84290476D02*
X114070095Y-84328571D01*
X114070095Y-84328571D02*
X114032000Y-84366666D01*
X114032000Y-84366666D02*
X113993904Y-84442857D01*
X113993904Y-84442857D02*
X113993904Y-84595238D01*
X113993904Y-84595238D02*
X114032000Y-84671428D01*
X114032000Y-84671428D02*
X114070095Y-84709523D01*
X114070095Y-84709523D02*
X114146285Y-84747619D01*
X114146285Y-84747619D02*
X114336761Y-84747619D01*
X114336761Y-84747619D02*
X114412952Y-84709523D01*
X114412952Y-84709523D02*
X114451047Y-84671428D01*
X114451047Y-84671428D02*
X114489142Y-84595238D01*
X114489142Y-84595238D02*
X114489142Y-84442857D01*
X114489142Y-84442857D02*
X114451047Y-84366666D01*
X114451047Y-84366666D02*
X114412952Y-84328571D01*
X114412952Y-84328571D02*
X114336761Y-84290476D01*
X113993904Y-83795237D02*
X113993904Y-83719047D01*
X113993904Y-83719047D02*
X114032000Y-83642856D01*
X114032000Y-83642856D02*
X114070095Y-83604761D01*
X114070095Y-83604761D02*
X114146285Y-83566666D01*
X114146285Y-83566666D02*
X114298666Y-83528571D01*
X114298666Y-83528571D02*
X114489142Y-83528571D01*
X114489142Y-83528571D02*
X114641523Y-83566666D01*
X114641523Y-83566666D02*
X114717714Y-83604761D01*
X114717714Y-83604761D02*
X114755809Y-83642856D01*
X114755809Y-83642856D02*
X114793904Y-83719047D01*
X114793904Y-83719047D02*
X114793904Y-83795237D01*
X114793904Y-83795237D02*
X114755809Y-83871428D01*
X114755809Y-83871428D02*
X114717714Y-83909523D01*
X114717714Y-83909523D02*
X114641523Y-83947618D01*
X114641523Y-83947618D02*
X114489142Y-83985714D01*
X114489142Y-83985714D02*
X114298666Y-83985714D01*
X114298666Y-83985714D02*
X114146285Y-83947618D01*
X114146285Y-83947618D02*
X114070095Y-83909523D01*
X114070095Y-83909523D02*
X114032000Y-83871428D01*
X114032000Y-83871428D02*
X113993904Y-83795237D01*
X113993904Y-82804761D02*
X113993904Y-83185713D01*
X113993904Y-83185713D02*
X114374857Y-83223809D01*
X114374857Y-83223809D02*
X114336761Y-83185713D01*
X114336761Y-83185713D02*
X114298666Y-83109523D01*
X114298666Y-83109523D02*
X114298666Y-82919047D01*
X114298666Y-82919047D02*
X114336761Y-82842856D01*
X114336761Y-82842856D02*
X114374857Y-82804761D01*
X114374857Y-82804761D02*
X114451047Y-82766666D01*
X114451047Y-82766666D02*
X114641523Y-82766666D01*
X114641523Y-82766666D02*
X114717714Y-82804761D01*
X114717714Y-82804761D02*
X114755809Y-82842856D01*
X114755809Y-82842856D02*
X114793904Y-82919047D01*
X114793904Y-82919047D02*
X114793904Y-83109523D01*
X114793904Y-83109523D02*
X114755809Y-83185713D01*
X114755809Y-83185713D02*
X114717714Y-83223809D01*
X124874857Y-86028571D02*
X124912952Y-85914285D01*
X124912952Y-85914285D02*
X124951047Y-85876190D01*
X124951047Y-85876190D02*
X125027238Y-85838094D01*
X125027238Y-85838094D02*
X125141523Y-85838094D01*
X125141523Y-85838094D02*
X125217714Y-85876190D01*
X125217714Y-85876190D02*
X125255809Y-85914285D01*
X125255809Y-85914285D02*
X125293904Y-85990475D01*
X125293904Y-85990475D02*
X125293904Y-86295237D01*
X125293904Y-86295237D02*
X124493904Y-86295237D01*
X124493904Y-86295237D02*
X124493904Y-86028571D01*
X124493904Y-86028571D02*
X124532000Y-85952380D01*
X124532000Y-85952380D02*
X124570095Y-85914285D01*
X124570095Y-85914285D02*
X124646285Y-85876190D01*
X124646285Y-85876190D02*
X124722476Y-85876190D01*
X124722476Y-85876190D02*
X124798666Y-85914285D01*
X124798666Y-85914285D02*
X124836761Y-85952380D01*
X124836761Y-85952380D02*
X124874857Y-86028571D01*
X124874857Y-86028571D02*
X124874857Y-86295237D01*
X124493904Y-85114285D02*
X124493904Y-85495237D01*
X124493904Y-85495237D02*
X124874857Y-85533333D01*
X124874857Y-85533333D02*
X124836761Y-85495237D01*
X124836761Y-85495237D02*
X124798666Y-85419047D01*
X124798666Y-85419047D02*
X124798666Y-85228571D01*
X124798666Y-85228571D02*
X124836761Y-85152380D01*
X124836761Y-85152380D02*
X124874857Y-85114285D01*
X124874857Y-85114285D02*
X124951047Y-85076190D01*
X124951047Y-85076190D02*
X125141523Y-85076190D01*
X125141523Y-85076190D02*
X125217714Y-85114285D01*
X125217714Y-85114285D02*
X125255809Y-85152380D01*
X125255809Y-85152380D02*
X125293904Y-85228571D01*
X125293904Y-85228571D02*
X125293904Y-85419047D01*
X125293904Y-85419047D02*
X125255809Y-85495237D01*
X125255809Y-85495237D02*
X125217714Y-85533333D01*
X124493904Y-84580951D02*
X124493904Y-84504761D01*
X124493904Y-84504761D02*
X124532000Y-84428570D01*
X124532000Y-84428570D02*
X124570095Y-84390475D01*
X124570095Y-84390475D02*
X124646285Y-84352380D01*
X124646285Y-84352380D02*
X124798666Y-84314285D01*
X124798666Y-84314285D02*
X124989142Y-84314285D01*
X124989142Y-84314285D02*
X125141523Y-84352380D01*
X125141523Y-84352380D02*
X125217714Y-84390475D01*
X125217714Y-84390475D02*
X125255809Y-84428570D01*
X125255809Y-84428570D02*
X125293904Y-84504761D01*
X125293904Y-84504761D02*
X125293904Y-84580951D01*
X125293904Y-84580951D02*
X125255809Y-84657142D01*
X125255809Y-84657142D02*
X125217714Y-84695237D01*
X125217714Y-84695237D02*
X125141523Y-84733332D01*
X125141523Y-84733332D02*
X124989142Y-84771428D01*
X124989142Y-84771428D02*
X124798666Y-84771428D01*
X124798666Y-84771428D02*
X124646285Y-84733332D01*
X124646285Y-84733332D02*
X124570095Y-84695237D01*
X124570095Y-84695237D02*
X124532000Y-84657142D01*
X124532000Y-84657142D02*
X124493904Y-84580951D01*
X125293904Y-83971427D02*
X124493904Y-83971427D01*
X124989142Y-83895237D02*
X125293904Y-83666665D01*
X124760571Y-83666665D02*
X125065333Y-83971427D01*
%TO.C,J901*%
X246493904Y-151028571D02*
X247065333Y-151028571D01*
X247065333Y-151028571D02*
X247179619Y-151066666D01*
X247179619Y-151066666D02*
X247255809Y-151142857D01*
X247255809Y-151142857D02*
X247293904Y-151257142D01*
X247293904Y-151257142D02*
X247293904Y-151333333D01*
X247293904Y-150609523D02*
X247293904Y-150457142D01*
X247293904Y-150457142D02*
X247255809Y-150380952D01*
X247255809Y-150380952D02*
X247217714Y-150342856D01*
X247217714Y-150342856D02*
X247103428Y-150266666D01*
X247103428Y-150266666D02*
X246951047Y-150228571D01*
X246951047Y-150228571D02*
X246646285Y-150228571D01*
X246646285Y-150228571D02*
X246570095Y-150266666D01*
X246570095Y-150266666D02*
X246532000Y-150304761D01*
X246532000Y-150304761D02*
X246493904Y-150380952D01*
X246493904Y-150380952D02*
X246493904Y-150533333D01*
X246493904Y-150533333D02*
X246532000Y-150609523D01*
X246532000Y-150609523D02*
X246570095Y-150647618D01*
X246570095Y-150647618D02*
X246646285Y-150685714D01*
X246646285Y-150685714D02*
X246836761Y-150685714D01*
X246836761Y-150685714D02*
X246912952Y-150647618D01*
X246912952Y-150647618D02*
X246951047Y-150609523D01*
X246951047Y-150609523D02*
X246989142Y-150533333D01*
X246989142Y-150533333D02*
X246989142Y-150380952D01*
X246989142Y-150380952D02*
X246951047Y-150304761D01*
X246951047Y-150304761D02*
X246912952Y-150266666D01*
X246912952Y-150266666D02*
X246836761Y-150228571D01*
X246493904Y-149733332D02*
X246493904Y-149657142D01*
X246493904Y-149657142D02*
X246532000Y-149580951D01*
X246532000Y-149580951D02*
X246570095Y-149542856D01*
X246570095Y-149542856D02*
X246646285Y-149504761D01*
X246646285Y-149504761D02*
X246798666Y-149466666D01*
X246798666Y-149466666D02*
X246989142Y-149466666D01*
X246989142Y-149466666D02*
X247141523Y-149504761D01*
X247141523Y-149504761D02*
X247217714Y-149542856D01*
X247217714Y-149542856D02*
X247255809Y-149580951D01*
X247255809Y-149580951D02*
X247293904Y-149657142D01*
X247293904Y-149657142D02*
X247293904Y-149733332D01*
X247293904Y-149733332D02*
X247255809Y-149809523D01*
X247255809Y-149809523D02*
X247217714Y-149847618D01*
X247217714Y-149847618D02*
X247141523Y-149885713D01*
X247141523Y-149885713D02*
X246989142Y-149923809D01*
X246989142Y-149923809D02*
X246798666Y-149923809D01*
X246798666Y-149923809D02*
X246646285Y-149885713D01*
X246646285Y-149885713D02*
X246570095Y-149847618D01*
X246570095Y-149847618D02*
X246532000Y-149809523D01*
X246532000Y-149809523D02*
X246493904Y-149733332D01*
X247293904Y-148704761D02*
X247293904Y-149161904D01*
X247293904Y-148933332D02*
X246493904Y-148933332D01*
X246493904Y-148933332D02*
X246608190Y-149009523D01*
X246608190Y-149009523D02*
X246684380Y-149085713D01*
X246684380Y-149085713D02*
X246722476Y-149161904D01*
%TO.C,J904*%
X196493904Y-176028571D02*
X197065333Y-176028571D01*
X197065333Y-176028571D02*
X197179619Y-176066666D01*
X197179619Y-176066666D02*
X197255809Y-176142857D01*
X197255809Y-176142857D02*
X197293904Y-176257142D01*
X197293904Y-176257142D02*
X197293904Y-176333333D01*
X197293904Y-175609523D02*
X197293904Y-175457142D01*
X197293904Y-175457142D02*
X197255809Y-175380952D01*
X197255809Y-175380952D02*
X197217714Y-175342856D01*
X197217714Y-175342856D02*
X197103428Y-175266666D01*
X197103428Y-175266666D02*
X196951047Y-175228571D01*
X196951047Y-175228571D02*
X196646285Y-175228571D01*
X196646285Y-175228571D02*
X196570095Y-175266666D01*
X196570095Y-175266666D02*
X196532000Y-175304761D01*
X196532000Y-175304761D02*
X196493904Y-175380952D01*
X196493904Y-175380952D02*
X196493904Y-175533333D01*
X196493904Y-175533333D02*
X196532000Y-175609523D01*
X196532000Y-175609523D02*
X196570095Y-175647618D01*
X196570095Y-175647618D02*
X196646285Y-175685714D01*
X196646285Y-175685714D02*
X196836761Y-175685714D01*
X196836761Y-175685714D02*
X196912952Y-175647618D01*
X196912952Y-175647618D02*
X196951047Y-175609523D01*
X196951047Y-175609523D02*
X196989142Y-175533333D01*
X196989142Y-175533333D02*
X196989142Y-175380952D01*
X196989142Y-175380952D02*
X196951047Y-175304761D01*
X196951047Y-175304761D02*
X196912952Y-175266666D01*
X196912952Y-175266666D02*
X196836761Y-175228571D01*
X196493904Y-174733332D02*
X196493904Y-174657142D01*
X196493904Y-174657142D02*
X196532000Y-174580951D01*
X196532000Y-174580951D02*
X196570095Y-174542856D01*
X196570095Y-174542856D02*
X196646285Y-174504761D01*
X196646285Y-174504761D02*
X196798666Y-174466666D01*
X196798666Y-174466666D02*
X196989142Y-174466666D01*
X196989142Y-174466666D02*
X197141523Y-174504761D01*
X197141523Y-174504761D02*
X197217714Y-174542856D01*
X197217714Y-174542856D02*
X197255809Y-174580951D01*
X197255809Y-174580951D02*
X197293904Y-174657142D01*
X197293904Y-174657142D02*
X197293904Y-174733332D01*
X197293904Y-174733332D02*
X197255809Y-174809523D01*
X197255809Y-174809523D02*
X197217714Y-174847618D01*
X197217714Y-174847618D02*
X197141523Y-174885713D01*
X197141523Y-174885713D02*
X196989142Y-174923809D01*
X196989142Y-174923809D02*
X196798666Y-174923809D01*
X196798666Y-174923809D02*
X196646285Y-174885713D01*
X196646285Y-174885713D02*
X196570095Y-174847618D01*
X196570095Y-174847618D02*
X196532000Y-174809523D01*
X196532000Y-174809523D02*
X196493904Y-174733332D01*
X196760571Y-173780951D02*
X197293904Y-173780951D01*
X196455809Y-173971427D02*
X197027238Y-174161904D01*
X197027238Y-174161904D02*
X197027238Y-173666665D01*
%TO.C,RV903*%
X64793904Y-120738094D02*
X64412952Y-121004761D01*
X64793904Y-121195237D02*
X63993904Y-121195237D01*
X63993904Y-121195237D02*
X63993904Y-120890475D01*
X63993904Y-120890475D02*
X64032000Y-120814285D01*
X64032000Y-120814285D02*
X64070095Y-120776190D01*
X64070095Y-120776190D02*
X64146285Y-120738094D01*
X64146285Y-120738094D02*
X64260571Y-120738094D01*
X64260571Y-120738094D02*
X64336761Y-120776190D01*
X64336761Y-120776190D02*
X64374857Y-120814285D01*
X64374857Y-120814285D02*
X64412952Y-120890475D01*
X64412952Y-120890475D02*
X64412952Y-121195237D01*
X63993904Y-120509523D02*
X64793904Y-120242856D01*
X64793904Y-120242856D02*
X63993904Y-119976190D01*
X64793904Y-119671428D02*
X64793904Y-119519047D01*
X64793904Y-119519047D02*
X64755809Y-119442857D01*
X64755809Y-119442857D02*
X64717714Y-119404761D01*
X64717714Y-119404761D02*
X64603428Y-119328571D01*
X64603428Y-119328571D02*
X64451047Y-119290476D01*
X64451047Y-119290476D02*
X64146285Y-119290476D01*
X64146285Y-119290476D02*
X64070095Y-119328571D01*
X64070095Y-119328571D02*
X64032000Y-119366666D01*
X64032000Y-119366666D02*
X63993904Y-119442857D01*
X63993904Y-119442857D02*
X63993904Y-119595238D01*
X63993904Y-119595238D02*
X64032000Y-119671428D01*
X64032000Y-119671428D02*
X64070095Y-119709523D01*
X64070095Y-119709523D02*
X64146285Y-119747619D01*
X64146285Y-119747619D02*
X64336761Y-119747619D01*
X64336761Y-119747619D02*
X64412952Y-119709523D01*
X64412952Y-119709523D02*
X64451047Y-119671428D01*
X64451047Y-119671428D02*
X64489142Y-119595238D01*
X64489142Y-119595238D02*
X64489142Y-119442857D01*
X64489142Y-119442857D02*
X64451047Y-119366666D01*
X64451047Y-119366666D02*
X64412952Y-119328571D01*
X64412952Y-119328571D02*
X64336761Y-119290476D01*
X63993904Y-118795237D02*
X63993904Y-118719047D01*
X63993904Y-118719047D02*
X64032000Y-118642856D01*
X64032000Y-118642856D02*
X64070095Y-118604761D01*
X64070095Y-118604761D02*
X64146285Y-118566666D01*
X64146285Y-118566666D02*
X64298666Y-118528571D01*
X64298666Y-118528571D02*
X64489142Y-118528571D01*
X64489142Y-118528571D02*
X64641523Y-118566666D01*
X64641523Y-118566666D02*
X64717714Y-118604761D01*
X64717714Y-118604761D02*
X64755809Y-118642856D01*
X64755809Y-118642856D02*
X64793904Y-118719047D01*
X64793904Y-118719047D02*
X64793904Y-118795237D01*
X64793904Y-118795237D02*
X64755809Y-118871428D01*
X64755809Y-118871428D02*
X64717714Y-118909523D01*
X64717714Y-118909523D02*
X64641523Y-118947618D01*
X64641523Y-118947618D02*
X64489142Y-118985714D01*
X64489142Y-118985714D02*
X64298666Y-118985714D01*
X64298666Y-118985714D02*
X64146285Y-118947618D01*
X64146285Y-118947618D02*
X64070095Y-118909523D01*
X64070095Y-118909523D02*
X64032000Y-118871428D01*
X64032000Y-118871428D02*
X63993904Y-118795237D01*
X63993904Y-118261904D02*
X63993904Y-117766666D01*
X63993904Y-117766666D02*
X64298666Y-118033332D01*
X64298666Y-118033332D02*
X64298666Y-117919047D01*
X64298666Y-117919047D02*
X64336761Y-117842856D01*
X64336761Y-117842856D02*
X64374857Y-117804761D01*
X64374857Y-117804761D02*
X64451047Y-117766666D01*
X64451047Y-117766666D02*
X64641523Y-117766666D01*
X64641523Y-117766666D02*
X64717714Y-117804761D01*
X64717714Y-117804761D02*
X64755809Y-117842856D01*
X64755809Y-117842856D02*
X64793904Y-117919047D01*
X64793904Y-117919047D02*
X64793904Y-118147618D01*
X64793904Y-118147618D02*
X64755809Y-118223809D01*
X64755809Y-118223809D02*
X64717714Y-118261904D01*
X74874857Y-121028571D02*
X74912952Y-120914285D01*
X74912952Y-120914285D02*
X74951047Y-120876190D01*
X74951047Y-120876190D02*
X75027238Y-120838094D01*
X75027238Y-120838094D02*
X75141523Y-120838094D01*
X75141523Y-120838094D02*
X75217714Y-120876190D01*
X75217714Y-120876190D02*
X75255809Y-120914285D01*
X75255809Y-120914285D02*
X75293904Y-120990475D01*
X75293904Y-120990475D02*
X75293904Y-121295237D01*
X75293904Y-121295237D02*
X74493904Y-121295237D01*
X74493904Y-121295237D02*
X74493904Y-121028571D01*
X74493904Y-121028571D02*
X74532000Y-120952380D01*
X74532000Y-120952380D02*
X74570095Y-120914285D01*
X74570095Y-120914285D02*
X74646285Y-120876190D01*
X74646285Y-120876190D02*
X74722476Y-120876190D01*
X74722476Y-120876190D02*
X74798666Y-120914285D01*
X74798666Y-120914285D02*
X74836761Y-120952380D01*
X74836761Y-120952380D02*
X74874857Y-121028571D01*
X74874857Y-121028571D02*
X74874857Y-121295237D01*
X74493904Y-120114285D02*
X74493904Y-120495237D01*
X74493904Y-120495237D02*
X74874857Y-120533333D01*
X74874857Y-120533333D02*
X74836761Y-120495237D01*
X74836761Y-120495237D02*
X74798666Y-120419047D01*
X74798666Y-120419047D02*
X74798666Y-120228571D01*
X74798666Y-120228571D02*
X74836761Y-120152380D01*
X74836761Y-120152380D02*
X74874857Y-120114285D01*
X74874857Y-120114285D02*
X74951047Y-120076190D01*
X74951047Y-120076190D02*
X75141523Y-120076190D01*
X75141523Y-120076190D02*
X75217714Y-120114285D01*
X75217714Y-120114285D02*
X75255809Y-120152380D01*
X75255809Y-120152380D02*
X75293904Y-120228571D01*
X75293904Y-120228571D02*
X75293904Y-120419047D01*
X75293904Y-120419047D02*
X75255809Y-120495237D01*
X75255809Y-120495237D02*
X75217714Y-120533333D01*
X74493904Y-119580951D02*
X74493904Y-119504761D01*
X74493904Y-119504761D02*
X74532000Y-119428570D01*
X74532000Y-119428570D02*
X74570095Y-119390475D01*
X74570095Y-119390475D02*
X74646285Y-119352380D01*
X74646285Y-119352380D02*
X74798666Y-119314285D01*
X74798666Y-119314285D02*
X74989142Y-119314285D01*
X74989142Y-119314285D02*
X75141523Y-119352380D01*
X75141523Y-119352380D02*
X75217714Y-119390475D01*
X75217714Y-119390475D02*
X75255809Y-119428570D01*
X75255809Y-119428570D02*
X75293904Y-119504761D01*
X75293904Y-119504761D02*
X75293904Y-119580951D01*
X75293904Y-119580951D02*
X75255809Y-119657142D01*
X75255809Y-119657142D02*
X75217714Y-119695237D01*
X75217714Y-119695237D02*
X75141523Y-119733332D01*
X75141523Y-119733332D02*
X74989142Y-119771428D01*
X74989142Y-119771428D02*
X74798666Y-119771428D01*
X74798666Y-119771428D02*
X74646285Y-119733332D01*
X74646285Y-119733332D02*
X74570095Y-119695237D01*
X74570095Y-119695237D02*
X74532000Y-119657142D01*
X74532000Y-119657142D02*
X74493904Y-119580951D01*
X75293904Y-118971427D02*
X74493904Y-118971427D01*
X74989142Y-118895237D02*
X75293904Y-118666665D01*
X74760571Y-118666665D02*
X75065333Y-118971427D01*
%TO.C,J903*%
X271493904Y-176028571D02*
X272065333Y-176028571D01*
X272065333Y-176028571D02*
X272179619Y-176066666D01*
X272179619Y-176066666D02*
X272255809Y-176142857D01*
X272255809Y-176142857D02*
X272293904Y-176257142D01*
X272293904Y-176257142D02*
X272293904Y-176333333D01*
X272293904Y-175609523D02*
X272293904Y-175457142D01*
X272293904Y-175457142D02*
X272255809Y-175380952D01*
X272255809Y-175380952D02*
X272217714Y-175342856D01*
X272217714Y-175342856D02*
X272103428Y-175266666D01*
X272103428Y-175266666D02*
X271951047Y-175228571D01*
X271951047Y-175228571D02*
X271646285Y-175228571D01*
X271646285Y-175228571D02*
X271570095Y-175266666D01*
X271570095Y-175266666D02*
X271532000Y-175304761D01*
X271532000Y-175304761D02*
X271493904Y-175380952D01*
X271493904Y-175380952D02*
X271493904Y-175533333D01*
X271493904Y-175533333D02*
X271532000Y-175609523D01*
X271532000Y-175609523D02*
X271570095Y-175647618D01*
X271570095Y-175647618D02*
X271646285Y-175685714D01*
X271646285Y-175685714D02*
X271836761Y-175685714D01*
X271836761Y-175685714D02*
X271912952Y-175647618D01*
X271912952Y-175647618D02*
X271951047Y-175609523D01*
X271951047Y-175609523D02*
X271989142Y-175533333D01*
X271989142Y-175533333D02*
X271989142Y-175380952D01*
X271989142Y-175380952D02*
X271951047Y-175304761D01*
X271951047Y-175304761D02*
X271912952Y-175266666D01*
X271912952Y-175266666D02*
X271836761Y-175228571D01*
X271493904Y-174733332D02*
X271493904Y-174657142D01*
X271493904Y-174657142D02*
X271532000Y-174580951D01*
X271532000Y-174580951D02*
X271570095Y-174542856D01*
X271570095Y-174542856D02*
X271646285Y-174504761D01*
X271646285Y-174504761D02*
X271798666Y-174466666D01*
X271798666Y-174466666D02*
X271989142Y-174466666D01*
X271989142Y-174466666D02*
X272141523Y-174504761D01*
X272141523Y-174504761D02*
X272217714Y-174542856D01*
X272217714Y-174542856D02*
X272255809Y-174580951D01*
X272255809Y-174580951D02*
X272293904Y-174657142D01*
X272293904Y-174657142D02*
X272293904Y-174733332D01*
X272293904Y-174733332D02*
X272255809Y-174809523D01*
X272255809Y-174809523D02*
X272217714Y-174847618D01*
X272217714Y-174847618D02*
X272141523Y-174885713D01*
X272141523Y-174885713D02*
X271989142Y-174923809D01*
X271989142Y-174923809D02*
X271798666Y-174923809D01*
X271798666Y-174923809D02*
X271646285Y-174885713D01*
X271646285Y-174885713D02*
X271570095Y-174847618D01*
X271570095Y-174847618D02*
X271532000Y-174809523D01*
X271532000Y-174809523D02*
X271493904Y-174733332D01*
X271493904Y-174199999D02*
X271493904Y-173704761D01*
X271493904Y-173704761D02*
X271798666Y-173971427D01*
X271798666Y-173971427D02*
X271798666Y-173857142D01*
X271798666Y-173857142D02*
X271836761Y-173780951D01*
X271836761Y-173780951D02*
X271874857Y-173742856D01*
X271874857Y-173742856D02*
X271951047Y-173704761D01*
X271951047Y-173704761D02*
X272141523Y-173704761D01*
X272141523Y-173704761D02*
X272217714Y-173742856D01*
X272217714Y-173742856D02*
X272255809Y-173780951D01*
X272255809Y-173780951D02*
X272293904Y-173857142D01*
X272293904Y-173857142D02*
X272293904Y-174085713D01*
X272293904Y-174085713D02*
X272255809Y-174161904D01*
X272255809Y-174161904D02*
X272217714Y-174199999D01*
%TO.C,J908*%
X239817380Y-68265714D02*
X240531666Y-68265714D01*
X240531666Y-68265714D02*
X240674523Y-68313333D01*
X240674523Y-68313333D02*
X240769761Y-68408571D01*
X240769761Y-68408571D02*
X240817380Y-68551428D01*
X240817380Y-68551428D02*
X240817380Y-68646666D01*
X240817380Y-67741904D02*
X240817380Y-67551428D01*
X240817380Y-67551428D02*
X240769761Y-67456190D01*
X240769761Y-67456190D02*
X240722142Y-67408571D01*
X240722142Y-67408571D02*
X240579285Y-67313333D01*
X240579285Y-67313333D02*
X240388809Y-67265714D01*
X240388809Y-67265714D02*
X240007857Y-67265714D01*
X240007857Y-67265714D02*
X239912619Y-67313333D01*
X239912619Y-67313333D02*
X239865000Y-67360952D01*
X239865000Y-67360952D02*
X239817380Y-67456190D01*
X239817380Y-67456190D02*
X239817380Y-67646666D01*
X239817380Y-67646666D02*
X239865000Y-67741904D01*
X239865000Y-67741904D02*
X239912619Y-67789523D01*
X239912619Y-67789523D02*
X240007857Y-67837142D01*
X240007857Y-67837142D02*
X240245952Y-67837142D01*
X240245952Y-67837142D02*
X240341190Y-67789523D01*
X240341190Y-67789523D02*
X240388809Y-67741904D01*
X240388809Y-67741904D02*
X240436428Y-67646666D01*
X240436428Y-67646666D02*
X240436428Y-67456190D01*
X240436428Y-67456190D02*
X240388809Y-67360952D01*
X240388809Y-67360952D02*
X240341190Y-67313333D01*
X240341190Y-67313333D02*
X240245952Y-67265714D01*
X239817380Y-66646666D02*
X239817380Y-66551428D01*
X239817380Y-66551428D02*
X239865000Y-66456190D01*
X239865000Y-66456190D02*
X239912619Y-66408571D01*
X239912619Y-66408571D02*
X240007857Y-66360952D01*
X240007857Y-66360952D02*
X240198333Y-66313333D01*
X240198333Y-66313333D02*
X240436428Y-66313333D01*
X240436428Y-66313333D02*
X240626904Y-66360952D01*
X240626904Y-66360952D02*
X240722142Y-66408571D01*
X240722142Y-66408571D02*
X240769761Y-66456190D01*
X240769761Y-66456190D02*
X240817380Y-66551428D01*
X240817380Y-66551428D02*
X240817380Y-66646666D01*
X240817380Y-66646666D02*
X240769761Y-66741904D01*
X240769761Y-66741904D02*
X240722142Y-66789523D01*
X240722142Y-66789523D02*
X240626904Y-66837142D01*
X240626904Y-66837142D02*
X240436428Y-66884761D01*
X240436428Y-66884761D02*
X240198333Y-66884761D01*
X240198333Y-66884761D02*
X240007857Y-66837142D01*
X240007857Y-66837142D02*
X239912619Y-66789523D01*
X239912619Y-66789523D02*
X239865000Y-66741904D01*
X239865000Y-66741904D02*
X239817380Y-66646666D01*
X240245952Y-65741904D02*
X240198333Y-65837142D01*
X240198333Y-65837142D02*
X240150714Y-65884761D01*
X240150714Y-65884761D02*
X240055476Y-65932380D01*
X240055476Y-65932380D02*
X240007857Y-65932380D01*
X240007857Y-65932380D02*
X239912619Y-65884761D01*
X239912619Y-65884761D02*
X239865000Y-65837142D01*
X239865000Y-65837142D02*
X239817380Y-65741904D01*
X239817380Y-65741904D02*
X239817380Y-65551428D01*
X239817380Y-65551428D02*
X239865000Y-65456190D01*
X239865000Y-65456190D02*
X239912619Y-65408571D01*
X239912619Y-65408571D02*
X240007857Y-65360952D01*
X240007857Y-65360952D02*
X240055476Y-65360952D01*
X240055476Y-65360952D02*
X240150714Y-65408571D01*
X240150714Y-65408571D02*
X240198333Y-65456190D01*
X240198333Y-65456190D02*
X240245952Y-65551428D01*
X240245952Y-65551428D02*
X240245952Y-65741904D01*
X240245952Y-65741904D02*
X240293571Y-65837142D01*
X240293571Y-65837142D02*
X240341190Y-65884761D01*
X240341190Y-65884761D02*
X240436428Y-65932380D01*
X240436428Y-65932380D02*
X240626904Y-65932380D01*
X240626904Y-65932380D02*
X240722142Y-65884761D01*
X240722142Y-65884761D02*
X240769761Y-65837142D01*
X240769761Y-65837142D02*
X240817380Y-65741904D01*
X240817380Y-65741904D02*
X240817380Y-65551428D01*
X240817380Y-65551428D02*
X240769761Y-65456190D01*
X240769761Y-65456190D02*
X240722142Y-65408571D01*
X240722142Y-65408571D02*
X240626904Y-65360952D01*
X240626904Y-65360952D02*
X240436428Y-65360952D01*
X240436428Y-65360952D02*
X240341190Y-65408571D01*
X240341190Y-65408571D02*
X240293571Y-65456190D01*
X240293571Y-65456190D02*
X240245952Y-65551428D01*
%TO.C,J906*%
X271493904Y-151028571D02*
X272065333Y-151028571D01*
X272065333Y-151028571D02*
X272179619Y-151066666D01*
X272179619Y-151066666D02*
X272255809Y-151142857D01*
X272255809Y-151142857D02*
X272293904Y-151257142D01*
X272293904Y-151257142D02*
X272293904Y-151333333D01*
X272293904Y-150609523D02*
X272293904Y-150457142D01*
X272293904Y-150457142D02*
X272255809Y-150380952D01*
X272255809Y-150380952D02*
X272217714Y-150342856D01*
X272217714Y-150342856D02*
X272103428Y-150266666D01*
X272103428Y-150266666D02*
X271951047Y-150228571D01*
X271951047Y-150228571D02*
X271646285Y-150228571D01*
X271646285Y-150228571D02*
X271570095Y-150266666D01*
X271570095Y-150266666D02*
X271532000Y-150304761D01*
X271532000Y-150304761D02*
X271493904Y-150380952D01*
X271493904Y-150380952D02*
X271493904Y-150533333D01*
X271493904Y-150533333D02*
X271532000Y-150609523D01*
X271532000Y-150609523D02*
X271570095Y-150647618D01*
X271570095Y-150647618D02*
X271646285Y-150685714D01*
X271646285Y-150685714D02*
X271836761Y-150685714D01*
X271836761Y-150685714D02*
X271912952Y-150647618D01*
X271912952Y-150647618D02*
X271951047Y-150609523D01*
X271951047Y-150609523D02*
X271989142Y-150533333D01*
X271989142Y-150533333D02*
X271989142Y-150380952D01*
X271989142Y-150380952D02*
X271951047Y-150304761D01*
X271951047Y-150304761D02*
X271912952Y-150266666D01*
X271912952Y-150266666D02*
X271836761Y-150228571D01*
X271493904Y-149733332D02*
X271493904Y-149657142D01*
X271493904Y-149657142D02*
X271532000Y-149580951D01*
X271532000Y-149580951D02*
X271570095Y-149542856D01*
X271570095Y-149542856D02*
X271646285Y-149504761D01*
X271646285Y-149504761D02*
X271798666Y-149466666D01*
X271798666Y-149466666D02*
X271989142Y-149466666D01*
X271989142Y-149466666D02*
X272141523Y-149504761D01*
X272141523Y-149504761D02*
X272217714Y-149542856D01*
X272217714Y-149542856D02*
X272255809Y-149580951D01*
X272255809Y-149580951D02*
X272293904Y-149657142D01*
X272293904Y-149657142D02*
X272293904Y-149733332D01*
X272293904Y-149733332D02*
X272255809Y-149809523D01*
X272255809Y-149809523D02*
X272217714Y-149847618D01*
X272217714Y-149847618D02*
X272141523Y-149885713D01*
X272141523Y-149885713D02*
X271989142Y-149923809D01*
X271989142Y-149923809D02*
X271798666Y-149923809D01*
X271798666Y-149923809D02*
X271646285Y-149885713D01*
X271646285Y-149885713D02*
X271570095Y-149847618D01*
X271570095Y-149847618D02*
X271532000Y-149809523D01*
X271532000Y-149809523D02*
X271493904Y-149733332D01*
X271493904Y-148780951D02*
X271493904Y-148933332D01*
X271493904Y-148933332D02*
X271532000Y-149009523D01*
X271532000Y-149009523D02*
X271570095Y-149047618D01*
X271570095Y-149047618D02*
X271684380Y-149123808D01*
X271684380Y-149123808D02*
X271836761Y-149161904D01*
X271836761Y-149161904D02*
X272141523Y-149161904D01*
X272141523Y-149161904D02*
X272217714Y-149123808D01*
X272217714Y-149123808D02*
X272255809Y-149085713D01*
X272255809Y-149085713D02*
X272293904Y-149009523D01*
X272293904Y-149009523D02*
X272293904Y-148857142D01*
X272293904Y-148857142D02*
X272255809Y-148780951D01*
X272255809Y-148780951D02*
X272217714Y-148742856D01*
X272217714Y-148742856D02*
X272141523Y-148704761D01*
X272141523Y-148704761D02*
X271951047Y-148704761D01*
X271951047Y-148704761D02*
X271874857Y-148742856D01*
X271874857Y-148742856D02*
X271836761Y-148780951D01*
X271836761Y-148780951D02*
X271798666Y-148857142D01*
X271798666Y-148857142D02*
X271798666Y-149009523D01*
X271798666Y-149009523D02*
X271836761Y-149085713D01*
X271836761Y-149085713D02*
X271874857Y-149123808D01*
X271874857Y-149123808D02*
X271951047Y-149161904D01*
%TO.C,RV904*%
X114793904Y-40738094D02*
X114412952Y-41004761D01*
X114793904Y-41195237D02*
X113993904Y-41195237D01*
X113993904Y-41195237D02*
X113993904Y-40890475D01*
X113993904Y-40890475D02*
X114032000Y-40814285D01*
X114032000Y-40814285D02*
X114070095Y-40776190D01*
X114070095Y-40776190D02*
X114146285Y-40738094D01*
X114146285Y-40738094D02*
X114260571Y-40738094D01*
X114260571Y-40738094D02*
X114336761Y-40776190D01*
X114336761Y-40776190D02*
X114374857Y-40814285D01*
X114374857Y-40814285D02*
X114412952Y-40890475D01*
X114412952Y-40890475D02*
X114412952Y-41195237D01*
X113993904Y-40509523D02*
X114793904Y-40242856D01*
X114793904Y-40242856D02*
X113993904Y-39976190D01*
X114793904Y-39671428D02*
X114793904Y-39519047D01*
X114793904Y-39519047D02*
X114755809Y-39442857D01*
X114755809Y-39442857D02*
X114717714Y-39404761D01*
X114717714Y-39404761D02*
X114603428Y-39328571D01*
X114603428Y-39328571D02*
X114451047Y-39290476D01*
X114451047Y-39290476D02*
X114146285Y-39290476D01*
X114146285Y-39290476D02*
X114070095Y-39328571D01*
X114070095Y-39328571D02*
X114032000Y-39366666D01*
X114032000Y-39366666D02*
X113993904Y-39442857D01*
X113993904Y-39442857D02*
X113993904Y-39595238D01*
X113993904Y-39595238D02*
X114032000Y-39671428D01*
X114032000Y-39671428D02*
X114070095Y-39709523D01*
X114070095Y-39709523D02*
X114146285Y-39747619D01*
X114146285Y-39747619D02*
X114336761Y-39747619D01*
X114336761Y-39747619D02*
X114412952Y-39709523D01*
X114412952Y-39709523D02*
X114451047Y-39671428D01*
X114451047Y-39671428D02*
X114489142Y-39595238D01*
X114489142Y-39595238D02*
X114489142Y-39442857D01*
X114489142Y-39442857D02*
X114451047Y-39366666D01*
X114451047Y-39366666D02*
X114412952Y-39328571D01*
X114412952Y-39328571D02*
X114336761Y-39290476D01*
X113993904Y-38795237D02*
X113993904Y-38719047D01*
X113993904Y-38719047D02*
X114032000Y-38642856D01*
X114032000Y-38642856D02*
X114070095Y-38604761D01*
X114070095Y-38604761D02*
X114146285Y-38566666D01*
X114146285Y-38566666D02*
X114298666Y-38528571D01*
X114298666Y-38528571D02*
X114489142Y-38528571D01*
X114489142Y-38528571D02*
X114641523Y-38566666D01*
X114641523Y-38566666D02*
X114717714Y-38604761D01*
X114717714Y-38604761D02*
X114755809Y-38642856D01*
X114755809Y-38642856D02*
X114793904Y-38719047D01*
X114793904Y-38719047D02*
X114793904Y-38795237D01*
X114793904Y-38795237D02*
X114755809Y-38871428D01*
X114755809Y-38871428D02*
X114717714Y-38909523D01*
X114717714Y-38909523D02*
X114641523Y-38947618D01*
X114641523Y-38947618D02*
X114489142Y-38985714D01*
X114489142Y-38985714D02*
X114298666Y-38985714D01*
X114298666Y-38985714D02*
X114146285Y-38947618D01*
X114146285Y-38947618D02*
X114070095Y-38909523D01*
X114070095Y-38909523D02*
X114032000Y-38871428D01*
X114032000Y-38871428D02*
X113993904Y-38795237D01*
X114260571Y-37842856D02*
X114793904Y-37842856D01*
X113955809Y-38033332D02*
X114527238Y-38223809D01*
X114527238Y-38223809D02*
X114527238Y-37728570D01*
X124874857Y-41028571D02*
X124912952Y-40914285D01*
X124912952Y-40914285D02*
X124951047Y-40876190D01*
X124951047Y-40876190D02*
X125027238Y-40838094D01*
X125027238Y-40838094D02*
X125141523Y-40838094D01*
X125141523Y-40838094D02*
X125217714Y-40876190D01*
X125217714Y-40876190D02*
X125255809Y-40914285D01*
X125255809Y-40914285D02*
X125293904Y-40990475D01*
X125293904Y-40990475D02*
X125293904Y-41295237D01*
X125293904Y-41295237D02*
X124493904Y-41295237D01*
X124493904Y-41295237D02*
X124493904Y-41028571D01*
X124493904Y-41028571D02*
X124532000Y-40952380D01*
X124532000Y-40952380D02*
X124570095Y-40914285D01*
X124570095Y-40914285D02*
X124646285Y-40876190D01*
X124646285Y-40876190D02*
X124722476Y-40876190D01*
X124722476Y-40876190D02*
X124798666Y-40914285D01*
X124798666Y-40914285D02*
X124836761Y-40952380D01*
X124836761Y-40952380D02*
X124874857Y-41028571D01*
X124874857Y-41028571D02*
X124874857Y-41295237D01*
X125293904Y-40076190D02*
X125293904Y-40533333D01*
X125293904Y-40304761D02*
X124493904Y-40304761D01*
X124493904Y-40304761D02*
X124608190Y-40380952D01*
X124608190Y-40380952D02*
X124684380Y-40457142D01*
X124684380Y-40457142D02*
X124722476Y-40533333D01*
X124493904Y-39580951D02*
X124493904Y-39504761D01*
X124493904Y-39504761D02*
X124532000Y-39428570D01*
X124532000Y-39428570D02*
X124570095Y-39390475D01*
X124570095Y-39390475D02*
X124646285Y-39352380D01*
X124646285Y-39352380D02*
X124798666Y-39314285D01*
X124798666Y-39314285D02*
X124989142Y-39314285D01*
X124989142Y-39314285D02*
X125141523Y-39352380D01*
X125141523Y-39352380D02*
X125217714Y-39390475D01*
X125217714Y-39390475D02*
X125255809Y-39428570D01*
X125255809Y-39428570D02*
X125293904Y-39504761D01*
X125293904Y-39504761D02*
X125293904Y-39580951D01*
X125293904Y-39580951D02*
X125255809Y-39657142D01*
X125255809Y-39657142D02*
X125217714Y-39695237D01*
X125217714Y-39695237D02*
X125141523Y-39733332D01*
X125141523Y-39733332D02*
X124989142Y-39771428D01*
X124989142Y-39771428D02*
X124798666Y-39771428D01*
X124798666Y-39771428D02*
X124646285Y-39733332D01*
X124646285Y-39733332D02*
X124570095Y-39695237D01*
X124570095Y-39695237D02*
X124532000Y-39657142D01*
X124532000Y-39657142D02*
X124493904Y-39580951D01*
X125293904Y-38971427D02*
X124493904Y-38971427D01*
X124989142Y-38895237D02*
X125293904Y-38666665D01*
X124760571Y-38666665D02*
X125065333Y-38971427D01*
%TO.C,TP905*%
X141965904Y-125901428D02*
X141965904Y-125444285D01*
X142765904Y-125672857D02*
X141965904Y-125672857D01*
X142765904Y-125177618D02*
X141965904Y-125177618D01*
X141965904Y-125177618D02*
X141965904Y-124872856D01*
X141965904Y-124872856D02*
X142004000Y-124796666D01*
X142004000Y-124796666D02*
X142042095Y-124758571D01*
X142042095Y-124758571D02*
X142118285Y-124720475D01*
X142118285Y-124720475D02*
X142232571Y-124720475D01*
X142232571Y-124720475D02*
X142308761Y-124758571D01*
X142308761Y-124758571D02*
X142346857Y-124796666D01*
X142346857Y-124796666D02*
X142384952Y-124872856D01*
X142384952Y-124872856D02*
X142384952Y-125177618D01*
X142765904Y-124339523D02*
X142765904Y-124187142D01*
X142765904Y-124187142D02*
X142727809Y-124110952D01*
X142727809Y-124110952D02*
X142689714Y-124072856D01*
X142689714Y-124072856D02*
X142575428Y-123996666D01*
X142575428Y-123996666D02*
X142423047Y-123958571D01*
X142423047Y-123958571D02*
X142118285Y-123958571D01*
X142118285Y-123958571D02*
X142042095Y-123996666D01*
X142042095Y-123996666D02*
X142004000Y-124034761D01*
X142004000Y-124034761D02*
X141965904Y-124110952D01*
X141965904Y-124110952D02*
X141965904Y-124263333D01*
X141965904Y-124263333D02*
X142004000Y-124339523D01*
X142004000Y-124339523D02*
X142042095Y-124377618D01*
X142042095Y-124377618D02*
X142118285Y-124415714D01*
X142118285Y-124415714D02*
X142308761Y-124415714D01*
X142308761Y-124415714D02*
X142384952Y-124377618D01*
X142384952Y-124377618D02*
X142423047Y-124339523D01*
X142423047Y-124339523D02*
X142461142Y-124263333D01*
X142461142Y-124263333D02*
X142461142Y-124110952D01*
X142461142Y-124110952D02*
X142423047Y-124034761D01*
X142423047Y-124034761D02*
X142384952Y-123996666D01*
X142384952Y-123996666D02*
X142308761Y-123958571D01*
X141965904Y-123463332D02*
X141965904Y-123387142D01*
X141965904Y-123387142D02*
X142004000Y-123310951D01*
X142004000Y-123310951D02*
X142042095Y-123272856D01*
X142042095Y-123272856D02*
X142118285Y-123234761D01*
X142118285Y-123234761D02*
X142270666Y-123196666D01*
X142270666Y-123196666D02*
X142461142Y-123196666D01*
X142461142Y-123196666D02*
X142613523Y-123234761D01*
X142613523Y-123234761D02*
X142689714Y-123272856D01*
X142689714Y-123272856D02*
X142727809Y-123310951D01*
X142727809Y-123310951D02*
X142765904Y-123387142D01*
X142765904Y-123387142D02*
X142765904Y-123463332D01*
X142765904Y-123463332D02*
X142727809Y-123539523D01*
X142727809Y-123539523D02*
X142689714Y-123577618D01*
X142689714Y-123577618D02*
X142613523Y-123615713D01*
X142613523Y-123615713D02*
X142461142Y-123653809D01*
X142461142Y-123653809D02*
X142270666Y-123653809D01*
X142270666Y-123653809D02*
X142118285Y-123615713D01*
X142118285Y-123615713D02*
X142042095Y-123577618D01*
X142042095Y-123577618D02*
X142004000Y-123539523D01*
X142004000Y-123539523D02*
X141965904Y-123463332D01*
X141965904Y-122472856D02*
X141965904Y-122853808D01*
X141965904Y-122853808D02*
X142346857Y-122891904D01*
X142346857Y-122891904D02*
X142308761Y-122853808D01*
X142308761Y-122853808D02*
X142270666Y-122777618D01*
X142270666Y-122777618D02*
X142270666Y-122587142D01*
X142270666Y-122587142D02*
X142308761Y-122510951D01*
X142308761Y-122510951D02*
X142346857Y-122472856D01*
X142346857Y-122472856D02*
X142423047Y-122434761D01*
X142423047Y-122434761D02*
X142613523Y-122434761D01*
X142613523Y-122434761D02*
X142689714Y-122472856D01*
X142689714Y-122472856D02*
X142727809Y-122510951D01*
X142727809Y-122510951D02*
X142765904Y-122587142D01*
X142765904Y-122587142D02*
X142765904Y-122777618D01*
X142765904Y-122777618D02*
X142727809Y-122853808D01*
X142727809Y-122853808D02*
X142689714Y-122891904D01*
X143020000Y-124739523D02*
X142981904Y-124815713D01*
X142981904Y-124815713D02*
X142981904Y-124929999D01*
X142981904Y-124929999D02*
X143020000Y-125044285D01*
X143020000Y-125044285D02*
X143096190Y-125120475D01*
X143096190Y-125120475D02*
X143172380Y-125158570D01*
X143172380Y-125158570D02*
X143324761Y-125196666D01*
X143324761Y-125196666D02*
X143439047Y-125196666D01*
X143439047Y-125196666D02*
X143591428Y-125158570D01*
X143591428Y-125158570D02*
X143667619Y-125120475D01*
X143667619Y-125120475D02*
X143743809Y-125044285D01*
X143743809Y-125044285D02*
X143781904Y-124929999D01*
X143781904Y-124929999D02*
X143781904Y-124853808D01*
X143781904Y-124853808D02*
X143743809Y-124739523D01*
X143743809Y-124739523D02*
X143705714Y-124701427D01*
X143705714Y-124701427D02*
X143439047Y-124701427D01*
X143439047Y-124701427D02*
X143439047Y-124853808D01*
X143781904Y-124358570D02*
X142981904Y-124358570D01*
X142981904Y-124358570D02*
X143781904Y-123901427D01*
X143781904Y-123901427D02*
X142981904Y-123901427D01*
X143781904Y-123520475D02*
X142981904Y-123520475D01*
X142981904Y-123520475D02*
X142981904Y-123329999D01*
X142981904Y-123329999D02*
X143020000Y-123215713D01*
X143020000Y-123215713D02*
X143096190Y-123139523D01*
X143096190Y-123139523D02*
X143172380Y-123101428D01*
X143172380Y-123101428D02*
X143324761Y-123063332D01*
X143324761Y-123063332D02*
X143439047Y-123063332D01*
X143439047Y-123063332D02*
X143591428Y-123101428D01*
X143591428Y-123101428D02*
X143667619Y-123139523D01*
X143667619Y-123139523D02*
X143743809Y-123215713D01*
X143743809Y-123215713D02*
X143781904Y-123329999D01*
X143781904Y-123329999D02*
X143781904Y-123520475D01*
%TO.C,TP904*%
X141965904Y-118281428D02*
X141965904Y-117824285D01*
X142765904Y-118052857D02*
X141965904Y-118052857D01*
X142765904Y-117557618D02*
X141965904Y-117557618D01*
X141965904Y-117557618D02*
X141965904Y-117252856D01*
X141965904Y-117252856D02*
X142004000Y-117176666D01*
X142004000Y-117176666D02*
X142042095Y-117138571D01*
X142042095Y-117138571D02*
X142118285Y-117100475D01*
X142118285Y-117100475D02*
X142232571Y-117100475D01*
X142232571Y-117100475D02*
X142308761Y-117138571D01*
X142308761Y-117138571D02*
X142346857Y-117176666D01*
X142346857Y-117176666D02*
X142384952Y-117252856D01*
X142384952Y-117252856D02*
X142384952Y-117557618D01*
X142765904Y-116719523D02*
X142765904Y-116567142D01*
X142765904Y-116567142D02*
X142727809Y-116490952D01*
X142727809Y-116490952D02*
X142689714Y-116452856D01*
X142689714Y-116452856D02*
X142575428Y-116376666D01*
X142575428Y-116376666D02*
X142423047Y-116338571D01*
X142423047Y-116338571D02*
X142118285Y-116338571D01*
X142118285Y-116338571D02*
X142042095Y-116376666D01*
X142042095Y-116376666D02*
X142004000Y-116414761D01*
X142004000Y-116414761D02*
X141965904Y-116490952D01*
X141965904Y-116490952D02*
X141965904Y-116643333D01*
X141965904Y-116643333D02*
X142004000Y-116719523D01*
X142004000Y-116719523D02*
X142042095Y-116757618D01*
X142042095Y-116757618D02*
X142118285Y-116795714D01*
X142118285Y-116795714D02*
X142308761Y-116795714D01*
X142308761Y-116795714D02*
X142384952Y-116757618D01*
X142384952Y-116757618D02*
X142423047Y-116719523D01*
X142423047Y-116719523D02*
X142461142Y-116643333D01*
X142461142Y-116643333D02*
X142461142Y-116490952D01*
X142461142Y-116490952D02*
X142423047Y-116414761D01*
X142423047Y-116414761D02*
X142384952Y-116376666D01*
X142384952Y-116376666D02*
X142308761Y-116338571D01*
X141965904Y-115843332D02*
X141965904Y-115767142D01*
X141965904Y-115767142D02*
X142004000Y-115690951D01*
X142004000Y-115690951D02*
X142042095Y-115652856D01*
X142042095Y-115652856D02*
X142118285Y-115614761D01*
X142118285Y-115614761D02*
X142270666Y-115576666D01*
X142270666Y-115576666D02*
X142461142Y-115576666D01*
X142461142Y-115576666D02*
X142613523Y-115614761D01*
X142613523Y-115614761D02*
X142689714Y-115652856D01*
X142689714Y-115652856D02*
X142727809Y-115690951D01*
X142727809Y-115690951D02*
X142765904Y-115767142D01*
X142765904Y-115767142D02*
X142765904Y-115843332D01*
X142765904Y-115843332D02*
X142727809Y-115919523D01*
X142727809Y-115919523D02*
X142689714Y-115957618D01*
X142689714Y-115957618D02*
X142613523Y-115995713D01*
X142613523Y-115995713D02*
X142461142Y-116033809D01*
X142461142Y-116033809D02*
X142270666Y-116033809D01*
X142270666Y-116033809D02*
X142118285Y-115995713D01*
X142118285Y-115995713D02*
X142042095Y-115957618D01*
X142042095Y-115957618D02*
X142004000Y-115919523D01*
X142004000Y-115919523D02*
X141965904Y-115843332D01*
X142232571Y-114890951D02*
X142765904Y-114890951D01*
X141927809Y-115081427D02*
X142499238Y-115271904D01*
X142499238Y-115271904D02*
X142499238Y-114776665D01*
X143477142Y-117919523D02*
X143477142Y-117310000D01*
X143781904Y-117614761D02*
X143172380Y-117614761D01*
X143781904Y-116510000D02*
X143781904Y-116967143D01*
X143781904Y-116738571D02*
X142981904Y-116738571D01*
X142981904Y-116738571D02*
X143096190Y-116814762D01*
X143096190Y-116814762D02*
X143172380Y-116890952D01*
X143172380Y-116890952D02*
X143210476Y-116967143D01*
X143058095Y-116205238D02*
X143020000Y-116167142D01*
X143020000Y-116167142D02*
X142981904Y-116090952D01*
X142981904Y-116090952D02*
X142981904Y-115900476D01*
X142981904Y-115900476D02*
X143020000Y-115824285D01*
X143020000Y-115824285D02*
X143058095Y-115786190D01*
X143058095Y-115786190D02*
X143134285Y-115748095D01*
X143134285Y-115748095D02*
X143210476Y-115748095D01*
X143210476Y-115748095D02*
X143324761Y-115786190D01*
X143324761Y-115786190D02*
X143781904Y-116243333D01*
X143781904Y-116243333D02*
X143781904Y-115748095D01*
X142981904Y-115519523D02*
X143781904Y-115252856D01*
X143781904Y-115252856D02*
X142981904Y-114986190D01*
%TO.C,SW901*%
X98171427Y-112855809D02*
X98285713Y-112893904D01*
X98285713Y-112893904D02*
X98476189Y-112893904D01*
X98476189Y-112893904D02*
X98552380Y-112855809D01*
X98552380Y-112855809D02*
X98590475Y-112817714D01*
X98590475Y-112817714D02*
X98628570Y-112741523D01*
X98628570Y-112741523D02*
X98628570Y-112665333D01*
X98628570Y-112665333D02*
X98590475Y-112589142D01*
X98590475Y-112589142D02*
X98552380Y-112551047D01*
X98552380Y-112551047D02*
X98476189Y-112512952D01*
X98476189Y-112512952D02*
X98323808Y-112474857D01*
X98323808Y-112474857D02*
X98247618Y-112436761D01*
X98247618Y-112436761D02*
X98209523Y-112398666D01*
X98209523Y-112398666D02*
X98171427Y-112322476D01*
X98171427Y-112322476D02*
X98171427Y-112246285D01*
X98171427Y-112246285D02*
X98209523Y-112170095D01*
X98209523Y-112170095D02*
X98247618Y-112132000D01*
X98247618Y-112132000D02*
X98323808Y-112093904D01*
X98323808Y-112093904D02*
X98514285Y-112093904D01*
X98514285Y-112093904D02*
X98628570Y-112132000D01*
X98895237Y-112093904D02*
X99085713Y-112893904D01*
X99085713Y-112893904D02*
X99238094Y-112322476D01*
X99238094Y-112322476D02*
X99390475Y-112893904D01*
X99390475Y-112893904D02*
X99580952Y-112093904D01*
X99923809Y-112893904D02*
X100076190Y-112893904D01*
X100076190Y-112893904D02*
X100152380Y-112855809D01*
X100152380Y-112855809D02*
X100190476Y-112817714D01*
X100190476Y-112817714D02*
X100266666Y-112703428D01*
X100266666Y-112703428D02*
X100304761Y-112551047D01*
X100304761Y-112551047D02*
X100304761Y-112246285D01*
X100304761Y-112246285D02*
X100266666Y-112170095D01*
X100266666Y-112170095D02*
X100228571Y-112132000D01*
X100228571Y-112132000D02*
X100152380Y-112093904D01*
X100152380Y-112093904D02*
X99999999Y-112093904D01*
X99999999Y-112093904D02*
X99923809Y-112132000D01*
X99923809Y-112132000D02*
X99885714Y-112170095D01*
X99885714Y-112170095D02*
X99847618Y-112246285D01*
X99847618Y-112246285D02*
X99847618Y-112436761D01*
X99847618Y-112436761D02*
X99885714Y-112512952D01*
X99885714Y-112512952D02*
X99923809Y-112551047D01*
X99923809Y-112551047D02*
X99999999Y-112589142D01*
X99999999Y-112589142D02*
X100152380Y-112589142D01*
X100152380Y-112589142D02*
X100228571Y-112551047D01*
X100228571Y-112551047D02*
X100266666Y-112512952D01*
X100266666Y-112512952D02*
X100304761Y-112436761D01*
X100800000Y-112093904D02*
X100876190Y-112093904D01*
X100876190Y-112093904D02*
X100952381Y-112132000D01*
X100952381Y-112132000D02*
X100990476Y-112170095D01*
X100990476Y-112170095D02*
X101028571Y-112246285D01*
X101028571Y-112246285D02*
X101066666Y-112398666D01*
X101066666Y-112398666D02*
X101066666Y-112589142D01*
X101066666Y-112589142D02*
X101028571Y-112741523D01*
X101028571Y-112741523D02*
X100990476Y-112817714D01*
X100990476Y-112817714D02*
X100952381Y-112855809D01*
X100952381Y-112855809D02*
X100876190Y-112893904D01*
X100876190Y-112893904D02*
X100800000Y-112893904D01*
X100800000Y-112893904D02*
X100723809Y-112855809D01*
X100723809Y-112855809D02*
X100685714Y-112817714D01*
X100685714Y-112817714D02*
X100647619Y-112741523D01*
X100647619Y-112741523D02*
X100609523Y-112589142D01*
X100609523Y-112589142D02*
X100609523Y-112398666D01*
X100609523Y-112398666D02*
X100647619Y-112246285D01*
X100647619Y-112246285D02*
X100685714Y-112170095D01*
X100685714Y-112170095D02*
X100723809Y-112132000D01*
X100723809Y-112132000D02*
X100800000Y-112093904D01*
X101828571Y-112893904D02*
X101371428Y-112893904D01*
X101600000Y-112893904D02*
X101600000Y-112093904D01*
X101600000Y-112093904D02*
X101523809Y-112208190D01*
X101523809Y-112208190D02*
X101447619Y-112284380D01*
X101447619Y-112284380D02*
X101371428Y-112322476D01*
%TO.C,J910*%
X264797380Y-110175714D02*
X265511666Y-110175714D01*
X265511666Y-110175714D02*
X265654523Y-110223333D01*
X265654523Y-110223333D02*
X265749761Y-110318571D01*
X265749761Y-110318571D02*
X265797380Y-110461428D01*
X265797380Y-110461428D02*
X265797380Y-110556666D01*
X265797380Y-109651904D02*
X265797380Y-109461428D01*
X265797380Y-109461428D02*
X265749761Y-109366190D01*
X265749761Y-109366190D02*
X265702142Y-109318571D01*
X265702142Y-109318571D02*
X265559285Y-109223333D01*
X265559285Y-109223333D02*
X265368809Y-109175714D01*
X265368809Y-109175714D02*
X264987857Y-109175714D01*
X264987857Y-109175714D02*
X264892619Y-109223333D01*
X264892619Y-109223333D02*
X264845000Y-109270952D01*
X264845000Y-109270952D02*
X264797380Y-109366190D01*
X264797380Y-109366190D02*
X264797380Y-109556666D01*
X264797380Y-109556666D02*
X264845000Y-109651904D01*
X264845000Y-109651904D02*
X264892619Y-109699523D01*
X264892619Y-109699523D02*
X264987857Y-109747142D01*
X264987857Y-109747142D02*
X265225952Y-109747142D01*
X265225952Y-109747142D02*
X265321190Y-109699523D01*
X265321190Y-109699523D02*
X265368809Y-109651904D01*
X265368809Y-109651904D02*
X265416428Y-109556666D01*
X265416428Y-109556666D02*
X265416428Y-109366190D01*
X265416428Y-109366190D02*
X265368809Y-109270952D01*
X265368809Y-109270952D02*
X265321190Y-109223333D01*
X265321190Y-109223333D02*
X265225952Y-109175714D01*
X265797380Y-108223333D02*
X265797380Y-108794761D01*
X265797380Y-108509047D02*
X264797380Y-108509047D01*
X264797380Y-108509047D02*
X264940238Y-108604285D01*
X264940238Y-108604285D02*
X265035476Y-108699523D01*
X265035476Y-108699523D02*
X265083095Y-108794761D01*
X264797380Y-107604285D02*
X264797380Y-107509047D01*
X264797380Y-107509047D02*
X264845000Y-107413809D01*
X264845000Y-107413809D02*
X264892619Y-107366190D01*
X264892619Y-107366190D02*
X264987857Y-107318571D01*
X264987857Y-107318571D02*
X265178333Y-107270952D01*
X265178333Y-107270952D02*
X265416428Y-107270952D01*
X265416428Y-107270952D02*
X265606904Y-107318571D01*
X265606904Y-107318571D02*
X265702142Y-107366190D01*
X265702142Y-107366190D02*
X265749761Y-107413809D01*
X265749761Y-107413809D02*
X265797380Y-107509047D01*
X265797380Y-107509047D02*
X265797380Y-107604285D01*
X265797380Y-107604285D02*
X265749761Y-107699523D01*
X265749761Y-107699523D02*
X265702142Y-107747142D01*
X265702142Y-107747142D02*
X265606904Y-107794761D01*
X265606904Y-107794761D02*
X265416428Y-107842380D01*
X265416428Y-107842380D02*
X265178333Y-107842380D01*
X265178333Y-107842380D02*
X264987857Y-107794761D01*
X264987857Y-107794761D02*
X264892619Y-107747142D01*
X264892619Y-107747142D02*
X264845000Y-107699523D01*
X264845000Y-107699523D02*
X264797380Y-107604285D01*
%TO.C,RV902*%
X64793904Y-85738094D02*
X64412952Y-86004761D01*
X64793904Y-86195237D02*
X63993904Y-86195237D01*
X63993904Y-86195237D02*
X63993904Y-85890475D01*
X63993904Y-85890475D02*
X64032000Y-85814285D01*
X64032000Y-85814285D02*
X64070095Y-85776190D01*
X64070095Y-85776190D02*
X64146285Y-85738094D01*
X64146285Y-85738094D02*
X64260571Y-85738094D01*
X64260571Y-85738094D02*
X64336761Y-85776190D01*
X64336761Y-85776190D02*
X64374857Y-85814285D01*
X64374857Y-85814285D02*
X64412952Y-85890475D01*
X64412952Y-85890475D02*
X64412952Y-86195237D01*
X63993904Y-85509523D02*
X64793904Y-85242856D01*
X64793904Y-85242856D02*
X63993904Y-84976190D01*
X64793904Y-84671428D02*
X64793904Y-84519047D01*
X64793904Y-84519047D02*
X64755809Y-84442857D01*
X64755809Y-84442857D02*
X64717714Y-84404761D01*
X64717714Y-84404761D02*
X64603428Y-84328571D01*
X64603428Y-84328571D02*
X64451047Y-84290476D01*
X64451047Y-84290476D02*
X64146285Y-84290476D01*
X64146285Y-84290476D02*
X64070095Y-84328571D01*
X64070095Y-84328571D02*
X64032000Y-84366666D01*
X64032000Y-84366666D02*
X63993904Y-84442857D01*
X63993904Y-84442857D02*
X63993904Y-84595238D01*
X63993904Y-84595238D02*
X64032000Y-84671428D01*
X64032000Y-84671428D02*
X64070095Y-84709523D01*
X64070095Y-84709523D02*
X64146285Y-84747619D01*
X64146285Y-84747619D02*
X64336761Y-84747619D01*
X64336761Y-84747619D02*
X64412952Y-84709523D01*
X64412952Y-84709523D02*
X64451047Y-84671428D01*
X64451047Y-84671428D02*
X64489142Y-84595238D01*
X64489142Y-84595238D02*
X64489142Y-84442857D01*
X64489142Y-84442857D02*
X64451047Y-84366666D01*
X64451047Y-84366666D02*
X64412952Y-84328571D01*
X64412952Y-84328571D02*
X64336761Y-84290476D01*
X63993904Y-83795237D02*
X63993904Y-83719047D01*
X63993904Y-83719047D02*
X64032000Y-83642856D01*
X64032000Y-83642856D02*
X64070095Y-83604761D01*
X64070095Y-83604761D02*
X64146285Y-83566666D01*
X64146285Y-83566666D02*
X64298666Y-83528571D01*
X64298666Y-83528571D02*
X64489142Y-83528571D01*
X64489142Y-83528571D02*
X64641523Y-83566666D01*
X64641523Y-83566666D02*
X64717714Y-83604761D01*
X64717714Y-83604761D02*
X64755809Y-83642856D01*
X64755809Y-83642856D02*
X64793904Y-83719047D01*
X64793904Y-83719047D02*
X64793904Y-83795237D01*
X64793904Y-83795237D02*
X64755809Y-83871428D01*
X64755809Y-83871428D02*
X64717714Y-83909523D01*
X64717714Y-83909523D02*
X64641523Y-83947618D01*
X64641523Y-83947618D02*
X64489142Y-83985714D01*
X64489142Y-83985714D02*
X64298666Y-83985714D01*
X64298666Y-83985714D02*
X64146285Y-83947618D01*
X64146285Y-83947618D02*
X64070095Y-83909523D01*
X64070095Y-83909523D02*
X64032000Y-83871428D01*
X64032000Y-83871428D02*
X63993904Y-83795237D01*
X64070095Y-83223809D02*
X64032000Y-83185713D01*
X64032000Y-83185713D02*
X63993904Y-83109523D01*
X63993904Y-83109523D02*
X63993904Y-82919047D01*
X63993904Y-82919047D02*
X64032000Y-82842856D01*
X64032000Y-82842856D02*
X64070095Y-82804761D01*
X64070095Y-82804761D02*
X64146285Y-82766666D01*
X64146285Y-82766666D02*
X64222476Y-82766666D01*
X64222476Y-82766666D02*
X64336761Y-82804761D01*
X64336761Y-82804761D02*
X64793904Y-83261904D01*
X64793904Y-83261904D02*
X64793904Y-82766666D01*
X74874857Y-86028571D02*
X74912952Y-85914285D01*
X74912952Y-85914285D02*
X74951047Y-85876190D01*
X74951047Y-85876190D02*
X75027238Y-85838094D01*
X75027238Y-85838094D02*
X75141523Y-85838094D01*
X75141523Y-85838094D02*
X75217714Y-85876190D01*
X75217714Y-85876190D02*
X75255809Y-85914285D01*
X75255809Y-85914285D02*
X75293904Y-85990475D01*
X75293904Y-85990475D02*
X75293904Y-86295237D01*
X75293904Y-86295237D02*
X74493904Y-86295237D01*
X74493904Y-86295237D02*
X74493904Y-86028571D01*
X74493904Y-86028571D02*
X74532000Y-85952380D01*
X74532000Y-85952380D02*
X74570095Y-85914285D01*
X74570095Y-85914285D02*
X74646285Y-85876190D01*
X74646285Y-85876190D02*
X74722476Y-85876190D01*
X74722476Y-85876190D02*
X74798666Y-85914285D01*
X74798666Y-85914285D02*
X74836761Y-85952380D01*
X74836761Y-85952380D02*
X74874857Y-86028571D01*
X74874857Y-86028571D02*
X74874857Y-86295237D01*
X74493904Y-85114285D02*
X74493904Y-85495237D01*
X74493904Y-85495237D02*
X74874857Y-85533333D01*
X74874857Y-85533333D02*
X74836761Y-85495237D01*
X74836761Y-85495237D02*
X74798666Y-85419047D01*
X74798666Y-85419047D02*
X74798666Y-85228571D01*
X74798666Y-85228571D02*
X74836761Y-85152380D01*
X74836761Y-85152380D02*
X74874857Y-85114285D01*
X74874857Y-85114285D02*
X74951047Y-85076190D01*
X74951047Y-85076190D02*
X75141523Y-85076190D01*
X75141523Y-85076190D02*
X75217714Y-85114285D01*
X75217714Y-85114285D02*
X75255809Y-85152380D01*
X75255809Y-85152380D02*
X75293904Y-85228571D01*
X75293904Y-85228571D02*
X75293904Y-85419047D01*
X75293904Y-85419047D02*
X75255809Y-85495237D01*
X75255809Y-85495237D02*
X75217714Y-85533333D01*
X74493904Y-84580951D02*
X74493904Y-84504761D01*
X74493904Y-84504761D02*
X74532000Y-84428570D01*
X74532000Y-84428570D02*
X74570095Y-84390475D01*
X74570095Y-84390475D02*
X74646285Y-84352380D01*
X74646285Y-84352380D02*
X74798666Y-84314285D01*
X74798666Y-84314285D02*
X74989142Y-84314285D01*
X74989142Y-84314285D02*
X75141523Y-84352380D01*
X75141523Y-84352380D02*
X75217714Y-84390475D01*
X75217714Y-84390475D02*
X75255809Y-84428570D01*
X75255809Y-84428570D02*
X75293904Y-84504761D01*
X75293904Y-84504761D02*
X75293904Y-84580951D01*
X75293904Y-84580951D02*
X75255809Y-84657142D01*
X75255809Y-84657142D02*
X75217714Y-84695237D01*
X75217714Y-84695237D02*
X75141523Y-84733332D01*
X75141523Y-84733332D02*
X74989142Y-84771428D01*
X74989142Y-84771428D02*
X74798666Y-84771428D01*
X74798666Y-84771428D02*
X74646285Y-84733332D01*
X74646285Y-84733332D02*
X74570095Y-84695237D01*
X74570095Y-84695237D02*
X74532000Y-84657142D01*
X74532000Y-84657142D02*
X74493904Y-84580951D01*
X75293904Y-83971427D02*
X74493904Y-83971427D01*
X74989142Y-83895237D02*
X75293904Y-83666665D01*
X74760571Y-83666665D02*
X75065333Y-83971427D01*
%TO.C,TP906*%
X141965904Y-132251428D02*
X141965904Y-131794285D01*
X142765904Y-132022857D02*
X141965904Y-132022857D01*
X142765904Y-131527618D02*
X141965904Y-131527618D01*
X141965904Y-131527618D02*
X141965904Y-131222856D01*
X141965904Y-131222856D02*
X142004000Y-131146666D01*
X142004000Y-131146666D02*
X142042095Y-131108571D01*
X142042095Y-131108571D02*
X142118285Y-131070475D01*
X142118285Y-131070475D02*
X142232571Y-131070475D01*
X142232571Y-131070475D02*
X142308761Y-131108571D01*
X142308761Y-131108571D02*
X142346857Y-131146666D01*
X142346857Y-131146666D02*
X142384952Y-131222856D01*
X142384952Y-131222856D02*
X142384952Y-131527618D01*
X142765904Y-130689523D02*
X142765904Y-130537142D01*
X142765904Y-130537142D02*
X142727809Y-130460952D01*
X142727809Y-130460952D02*
X142689714Y-130422856D01*
X142689714Y-130422856D02*
X142575428Y-130346666D01*
X142575428Y-130346666D02*
X142423047Y-130308571D01*
X142423047Y-130308571D02*
X142118285Y-130308571D01*
X142118285Y-130308571D02*
X142042095Y-130346666D01*
X142042095Y-130346666D02*
X142004000Y-130384761D01*
X142004000Y-130384761D02*
X141965904Y-130460952D01*
X141965904Y-130460952D02*
X141965904Y-130613333D01*
X141965904Y-130613333D02*
X142004000Y-130689523D01*
X142004000Y-130689523D02*
X142042095Y-130727618D01*
X142042095Y-130727618D02*
X142118285Y-130765714D01*
X142118285Y-130765714D02*
X142308761Y-130765714D01*
X142308761Y-130765714D02*
X142384952Y-130727618D01*
X142384952Y-130727618D02*
X142423047Y-130689523D01*
X142423047Y-130689523D02*
X142461142Y-130613333D01*
X142461142Y-130613333D02*
X142461142Y-130460952D01*
X142461142Y-130460952D02*
X142423047Y-130384761D01*
X142423047Y-130384761D02*
X142384952Y-130346666D01*
X142384952Y-130346666D02*
X142308761Y-130308571D01*
X141965904Y-129813332D02*
X141965904Y-129737142D01*
X141965904Y-129737142D02*
X142004000Y-129660951D01*
X142004000Y-129660951D02*
X142042095Y-129622856D01*
X142042095Y-129622856D02*
X142118285Y-129584761D01*
X142118285Y-129584761D02*
X142270666Y-129546666D01*
X142270666Y-129546666D02*
X142461142Y-129546666D01*
X142461142Y-129546666D02*
X142613523Y-129584761D01*
X142613523Y-129584761D02*
X142689714Y-129622856D01*
X142689714Y-129622856D02*
X142727809Y-129660951D01*
X142727809Y-129660951D02*
X142765904Y-129737142D01*
X142765904Y-129737142D02*
X142765904Y-129813332D01*
X142765904Y-129813332D02*
X142727809Y-129889523D01*
X142727809Y-129889523D02*
X142689714Y-129927618D01*
X142689714Y-129927618D02*
X142613523Y-129965713D01*
X142613523Y-129965713D02*
X142461142Y-130003809D01*
X142461142Y-130003809D02*
X142270666Y-130003809D01*
X142270666Y-130003809D02*
X142118285Y-129965713D01*
X142118285Y-129965713D02*
X142042095Y-129927618D01*
X142042095Y-129927618D02*
X142004000Y-129889523D01*
X142004000Y-129889523D02*
X141965904Y-129813332D01*
X141965904Y-128860951D02*
X141965904Y-129013332D01*
X141965904Y-129013332D02*
X142004000Y-129089523D01*
X142004000Y-129089523D02*
X142042095Y-129127618D01*
X142042095Y-129127618D02*
X142156380Y-129203808D01*
X142156380Y-129203808D02*
X142308761Y-129241904D01*
X142308761Y-129241904D02*
X142613523Y-129241904D01*
X142613523Y-129241904D02*
X142689714Y-129203808D01*
X142689714Y-129203808D02*
X142727809Y-129165713D01*
X142727809Y-129165713D02*
X142765904Y-129089523D01*
X142765904Y-129089523D02*
X142765904Y-128937142D01*
X142765904Y-128937142D02*
X142727809Y-128860951D01*
X142727809Y-128860951D02*
X142689714Y-128822856D01*
X142689714Y-128822856D02*
X142613523Y-128784761D01*
X142613523Y-128784761D02*
X142423047Y-128784761D01*
X142423047Y-128784761D02*
X142346857Y-128822856D01*
X142346857Y-128822856D02*
X142308761Y-128860951D01*
X142308761Y-128860951D02*
X142270666Y-128937142D01*
X142270666Y-128937142D02*
X142270666Y-129089523D01*
X142270666Y-129089523D02*
X142308761Y-129165713D01*
X142308761Y-129165713D02*
X142346857Y-129203808D01*
X142346857Y-129203808D02*
X142423047Y-129241904D01*
X143477142Y-131889523D02*
X143477142Y-131280000D01*
X143781904Y-130480000D02*
X143781904Y-130937143D01*
X143781904Y-130708571D02*
X142981904Y-130708571D01*
X142981904Y-130708571D02*
X143096190Y-130784762D01*
X143096190Y-130784762D02*
X143172380Y-130860952D01*
X143172380Y-130860952D02*
X143210476Y-130937143D01*
X143058095Y-130175238D02*
X143020000Y-130137142D01*
X143020000Y-130137142D02*
X142981904Y-130060952D01*
X142981904Y-130060952D02*
X142981904Y-129870476D01*
X142981904Y-129870476D02*
X143020000Y-129794285D01*
X143020000Y-129794285D02*
X143058095Y-129756190D01*
X143058095Y-129756190D02*
X143134285Y-129718095D01*
X143134285Y-129718095D02*
X143210476Y-129718095D01*
X143210476Y-129718095D02*
X143324761Y-129756190D01*
X143324761Y-129756190D02*
X143781904Y-130213333D01*
X143781904Y-130213333D02*
X143781904Y-129718095D01*
X142981904Y-129489523D02*
X143781904Y-129222856D01*
X143781904Y-129222856D02*
X142981904Y-128956190D01*
%TO.C,TP903*%
X207810476Y-32171142D02*
X208420000Y-32171142D01*
X209219999Y-32475904D02*
X208762856Y-32475904D01*
X208991428Y-32475904D02*
X208991428Y-31675904D01*
X208991428Y-31675904D02*
X208915237Y-31790190D01*
X208915237Y-31790190D02*
X208839047Y-31866380D01*
X208839047Y-31866380D02*
X208762856Y-31904476D01*
X209524761Y-31752095D02*
X209562857Y-31714000D01*
X209562857Y-31714000D02*
X209639047Y-31675904D01*
X209639047Y-31675904D02*
X209829523Y-31675904D01*
X209829523Y-31675904D02*
X209905714Y-31714000D01*
X209905714Y-31714000D02*
X209943809Y-31752095D01*
X209943809Y-31752095D02*
X209981904Y-31828285D01*
X209981904Y-31828285D02*
X209981904Y-31904476D01*
X209981904Y-31904476D02*
X209943809Y-32018761D01*
X209943809Y-32018761D02*
X209486666Y-32475904D01*
X209486666Y-32475904D02*
X209981904Y-32475904D01*
X210210476Y-31675904D02*
X210477143Y-32475904D01*
X210477143Y-32475904D02*
X210743809Y-31675904D01*
X207448571Y-32691904D02*
X207905714Y-32691904D01*
X207677142Y-33491904D02*
X207677142Y-32691904D01*
X208172381Y-33491904D02*
X208172381Y-32691904D01*
X208172381Y-32691904D02*
X208477143Y-32691904D01*
X208477143Y-32691904D02*
X208553333Y-32730000D01*
X208553333Y-32730000D02*
X208591428Y-32768095D01*
X208591428Y-32768095D02*
X208629524Y-32844285D01*
X208629524Y-32844285D02*
X208629524Y-32958571D01*
X208629524Y-32958571D02*
X208591428Y-33034761D01*
X208591428Y-33034761D02*
X208553333Y-33072857D01*
X208553333Y-33072857D02*
X208477143Y-33110952D01*
X208477143Y-33110952D02*
X208172381Y-33110952D01*
X209010476Y-33491904D02*
X209162857Y-33491904D01*
X209162857Y-33491904D02*
X209239047Y-33453809D01*
X209239047Y-33453809D02*
X209277143Y-33415714D01*
X209277143Y-33415714D02*
X209353333Y-33301428D01*
X209353333Y-33301428D02*
X209391428Y-33149047D01*
X209391428Y-33149047D02*
X209391428Y-32844285D01*
X209391428Y-32844285D02*
X209353333Y-32768095D01*
X209353333Y-32768095D02*
X209315238Y-32730000D01*
X209315238Y-32730000D02*
X209239047Y-32691904D01*
X209239047Y-32691904D02*
X209086666Y-32691904D01*
X209086666Y-32691904D02*
X209010476Y-32730000D01*
X209010476Y-32730000D02*
X208972381Y-32768095D01*
X208972381Y-32768095D02*
X208934285Y-32844285D01*
X208934285Y-32844285D02*
X208934285Y-33034761D01*
X208934285Y-33034761D02*
X208972381Y-33110952D01*
X208972381Y-33110952D02*
X209010476Y-33149047D01*
X209010476Y-33149047D02*
X209086666Y-33187142D01*
X209086666Y-33187142D02*
X209239047Y-33187142D01*
X209239047Y-33187142D02*
X209315238Y-33149047D01*
X209315238Y-33149047D02*
X209353333Y-33110952D01*
X209353333Y-33110952D02*
X209391428Y-33034761D01*
X209886667Y-32691904D02*
X209962857Y-32691904D01*
X209962857Y-32691904D02*
X210039048Y-32730000D01*
X210039048Y-32730000D02*
X210077143Y-32768095D01*
X210077143Y-32768095D02*
X210115238Y-32844285D01*
X210115238Y-32844285D02*
X210153333Y-32996666D01*
X210153333Y-32996666D02*
X210153333Y-33187142D01*
X210153333Y-33187142D02*
X210115238Y-33339523D01*
X210115238Y-33339523D02*
X210077143Y-33415714D01*
X210077143Y-33415714D02*
X210039048Y-33453809D01*
X210039048Y-33453809D02*
X209962857Y-33491904D01*
X209962857Y-33491904D02*
X209886667Y-33491904D01*
X209886667Y-33491904D02*
X209810476Y-33453809D01*
X209810476Y-33453809D02*
X209772381Y-33415714D01*
X209772381Y-33415714D02*
X209734286Y-33339523D01*
X209734286Y-33339523D02*
X209696190Y-33187142D01*
X209696190Y-33187142D02*
X209696190Y-32996666D01*
X209696190Y-32996666D02*
X209734286Y-32844285D01*
X209734286Y-32844285D02*
X209772381Y-32768095D01*
X209772381Y-32768095D02*
X209810476Y-32730000D01*
X209810476Y-32730000D02*
X209886667Y-32691904D01*
X210420000Y-32691904D02*
X210915238Y-32691904D01*
X210915238Y-32691904D02*
X210648572Y-32996666D01*
X210648572Y-32996666D02*
X210762857Y-32996666D01*
X210762857Y-32996666D02*
X210839048Y-33034761D01*
X210839048Y-33034761D02*
X210877143Y-33072857D01*
X210877143Y-33072857D02*
X210915238Y-33149047D01*
X210915238Y-33149047D02*
X210915238Y-33339523D01*
X210915238Y-33339523D02*
X210877143Y-33415714D01*
X210877143Y-33415714D02*
X210839048Y-33453809D01*
X210839048Y-33453809D02*
X210762857Y-33491904D01*
X210762857Y-33491904D02*
X210534286Y-33491904D01*
X210534286Y-33491904D02*
X210458095Y-33453809D01*
X210458095Y-33453809D02*
X210420000Y-33415714D01*
%TO.C,TP902*%
X200990476Y-31714000D02*
X200914286Y-31675904D01*
X200914286Y-31675904D02*
X200800000Y-31675904D01*
X200800000Y-31675904D02*
X200685714Y-31714000D01*
X200685714Y-31714000D02*
X200609524Y-31790190D01*
X200609524Y-31790190D02*
X200571429Y-31866380D01*
X200571429Y-31866380D02*
X200533333Y-32018761D01*
X200533333Y-32018761D02*
X200533333Y-32133047D01*
X200533333Y-32133047D02*
X200571429Y-32285428D01*
X200571429Y-32285428D02*
X200609524Y-32361619D01*
X200609524Y-32361619D02*
X200685714Y-32437809D01*
X200685714Y-32437809D02*
X200800000Y-32475904D01*
X200800000Y-32475904D02*
X200876191Y-32475904D01*
X200876191Y-32475904D02*
X200990476Y-32437809D01*
X200990476Y-32437809D02*
X201028572Y-32399714D01*
X201028572Y-32399714D02*
X201028572Y-32133047D01*
X201028572Y-32133047D02*
X200876191Y-32133047D01*
X201371429Y-32475904D02*
X201371429Y-31675904D01*
X201371429Y-31675904D02*
X201828572Y-32475904D01*
X201828572Y-32475904D02*
X201828572Y-31675904D01*
X202209524Y-32475904D02*
X202209524Y-31675904D01*
X202209524Y-31675904D02*
X202400000Y-31675904D01*
X202400000Y-31675904D02*
X202514286Y-31714000D01*
X202514286Y-31714000D02*
X202590476Y-31790190D01*
X202590476Y-31790190D02*
X202628571Y-31866380D01*
X202628571Y-31866380D02*
X202666667Y-32018761D01*
X202666667Y-32018761D02*
X202666667Y-32133047D01*
X202666667Y-32133047D02*
X202628571Y-32285428D01*
X202628571Y-32285428D02*
X202590476Y-32361619D01*
X202590476Y-32361619D02*
X202514286Y-32437809D01*
X202514286Y-32437809D02*
X202400000Y-32475904D01*
X202400000Y-32475904D02*
X202209524Y-32475904D01*
X199828571Y-32691904D02*
X200285714Y-32691904D01*
X200057142Y-33491904D02*
X200057142Y-32691904D01*
X200552381Y-33491904D02*
X200552381Y-32691904D01*
X200552381Y-32691904D02*
X200857143Y-32691904D01*
X200857143Y-32691904D02*
X200933333Y-32730000D01*
X200933333Y-32730000D02*
X200971428Y-32768095D01*
X200971428Y-32768095D02*
X201009524Y-32844285D01*
X201009524Y-32844285D02*
X201009524Y-32958571D01*
X201009524Y-32958571D02*
X200971428Y-33034761D01*
X200971428Y-33034761D02*
X200933333Y-33072857D01*
X200933333Y-33072857D02*
X200857143Y-33110952D01*
X200857143Y-33110952D02*
X200552381Y-33110952D01*
X201390476Y-33491904D02*
X201542857Y-33491904D01*
X201542857Y-33491904D02*
X201619047Y-33453809D01*
X201619047Y-33453809D02*
X201657143Y-33415714D01*
X201657143Y-33415714D02*
X201733333Y-33301428D01*
X201733333Y-33301428D02*
X201771428Y-33149047D01*
X201771428Y-33149047D02*
X201771428Y-32844285D01*
X201771428Y-32844285D02*
X201733333Y-32768095D01*
X201733333Y-32768095D02*
X201695238Y-32730000D01*
X201695238Y-32730000D02*
X201619047Y-32691904D01*
X201619047Y-32691904D02*
X201466666Y-32691904D01*
X201466666Y-32691904D02*
X201390476Y-32730000D01*
X201390476Y-32730000D02*
X201352381Y-32768095D01*
X201352381Y-32768095D02*
X201314285Y-32844285D01*
X201314285Y-32844285D02*
X201314285Y-33034761D01*
X201314285Y-33034761D02*
X201352381Y-33110952D01*
X201352381Y-33110952D02*
X201390476Y-33149047D01*
X201390476Y-33149047D02*
X201466666Y-33187142D01*
X201466666Y-33187142D02*
X201619047Y-33187142D01*
X201619047Y-33187142D02*
X201695238Y-33149047D01*
X201695238Y-33149047D02*
X201733333Y-33110952D01*
X201733333Y-33110952D02*
X201771428Y-33034761D01*
X202266667Y-32691904D02*
X202342857Y-32691904D01*
X202342857Y-32691904D02*
X202419048Y-32730000D01*
X202419048Y-32730000D02*
X202457143Y-32768095D01*
X202457143Y-32768095D02*
X202495238Y-32844285D01*
X202495238Y-32844285D02*
X202533333Y-32996666D01*
X202533333Y-32996666D02*
X202533333Y-33187142D01*
X202533333Y-33187142D02*
X202495238Y-33339523D01*
X202495238Y-33339523D02*
X202457143Y-33415714D01*
X202457143Y-33415714D02*
X202419048Y-33453809D01*
X202419048Y-33453809D02*
X202342857Y-33491904D01*
X202342857Y-33491904D02*
X202266667Y-33491904D01*
X202266667Y-33491904D02*
X202190476Y-33453809D01*
X202190476Y-33453809D02*
X202152381Y-33415714D01*
X202152381Y-33415714D02*
X202114286Y-33339523D01*
X202114286Y-33339523D02*
X202076190Y-33187142D01*
X202076190Y-33187142D02*
X202076190Y-32996666D01*
X202076190Y-32996666D02*
X202114286Y-32844285D01*
X202114286Y-32844285D02*
X202152381Y-32768095D01*
X202152381Y-32768095D02*
X202190476Y-32730000D01*
X202190476Y-32730000D02*
X202266667Y-32691904D01*
X202838095Y-32768095D02*
X202876191Y-32730000D01*
X202876191Y-32730000D02*
X202952381Y-32691904D01*
X202952381Y-32691904D02*
X203142857Y-32691904D01*
X203142857Y-32691904D02*
X203219048Y-32730000D01*
X203219048Y-32730000D02*
X203257143Y-32768095D01*
X203257143Y-32768095D02*
X203295238Y-32844285D01*
X203295238Y-32844285D02*
X203295238Y-32920476D01*
X203295238Y-32920476D02*
X203257143Y-33034761D01*
X203257143Y-33034761D02*
X202800000Y-33491904D01*
X202800000Y-33491904D02*
X203295238Y-33491904D01*
%TO.C,TP901*%
X192570476Y-32171142D02*
X193180000Y-32171142D01*
X192875238Y-32475904D02*
X192875238Y-31866380D01*
X193979999Y-32475904D02*
X193522856Y-32475904D01*
X193751428Y-32475904D02*
X193751428Y-31675904D01*
X193751428Y-31675904D02*
X193675237Y-31790190D01*
X193675237Y-31790190D02*
X193599047Y-31866380D01*
X193599047Y-31866380D02*
X193522856Y-31904476D01*
X194284761Y-31752095D02*
X194322857Y-31714000D01*
X194322857Y-31714000D02*
X194399047Y-31675904D01*
X194399047Y-31675904D02*
X194589523Y-31675904D01*
X194589523Y-31675904D02*
X194665714Y-31714000D01*
X194665714Y-31714000D02*
X194703809Y-31752095D01*
X194703809Y-31752095D02*
X194741904Y-31828285D01*
X194741904Y-31828285D02*
X194741904Y-31904476D01*
X194741904Y-31904476D02*
X194703809Y-32018761D01*
X194703809Y-32018761D02*
X194246666Y-32475904D01*
X194246666Y-32475904D02*
X194741904Y-32475904D01*
X194970476Y-31675904D02*
X195237143Y-32475904D01*
X195237143Y-32475904D02*
X195503809Y-31675904D01*
X192208571Y-32691904D02*
X192665714Y-32691904D01*
X192437142Y-33491904D02*
X192437142Y-32691904D01*
X192932381Y-33491904D02*
X192932381Y-32691904D01*
X192932381Y-32691904D02*
X193237143Y-32691904D01*
X193237143Y-32691904D02*
X193313333Y-32730000D01*
X193313333Y-32730000D02*
X193351428Y-32768095D01*
X193351428Y-32768095D02*
X193389524Y-32844285D01*
X193389524Y-32844285D02*
X193389524Y-32958571D01*
X193389524Y-32958571D02*
X193351428Y-33034761D01*
X193351428Y-33034761D02*
X193313333Y-33072857D01*
X193313333Y-33072857D02*
X193237143Y-33110952D01*
X193237143Y-33110952D02*
X192932381Y-33110952D01*
X193770476Y-33491904D02*
X193922857Y-33491904D01*
X193922857Y-33491904D02*
X193999047Y-33453809D01*
X193999047Y-33453809D02*
X194037143Y-33415714D01*
X194037143Y-33415714D02*
X194113333Y-33301428D01*
X194113333Y-33301428D02*
X194151428Y-33149047D01*
X194151428Y-33149047D02*
X194151428Y-32844285D01*
X194151428Y-32844285D02*
X194113333Y-32768095D01*
X194113333Y-32768095D02*
X194075238Y-32730000D01*
X194075238Y-32730000D02*
X193999047Y-32691904D01*
X193999047Y-32691904D02*
X193846666Y-32691904D01*
X193846666Y-32691904D02*
X193770476Y-32730000D01*
X193770476Y-32730000D02*
X193732381Y-32768095D01*
X193732381Y-32768095D02*
X193694285Y-32844285D01*
X193694285Y-32844285D02*
X193694285Y-33034761D01*
X193694285Y-33034761D02*
X193732381Y-33110952D01*
X193732381Y-33110952D02*
X193770476Y-33149047D01*
X193770476Y-33149047D02*
X193846666Y-33187142D01*
X193846666Y-33187142D02*
X193999047Y-33187142D01*
X193999047Y-33187142D02*
X194075238Y-33149047D01*
X194075238Y-33149047D02*
X194113333Y-33110952D01*
X194113333Y-33110952D02*
X194151428Y-33034761D01*
X194646667Y-32691904D02*
X194722857Y-32691904D01*
X194722857Y-32691904D02*
X194799048Y-32730000D01*
X194799048Y-32730000D02*
X194837143Y-32768095D01*
X194837143Y-32768095D02*
X194875238Y-32844285D01*
X194875238Y-32844285D02*
X194913333Y-32996666D01*
X194913333Y-32996666D02*
X194913333Y-33187142D01*
X194913333Y-33187142D02*
X194875238Y-33339523D01*
X194875238Y-33339523D02*
X194837143Y-33415714D01*
X194837143Y-33415714D02*
X194799048Y-33453809D01*
X194799048Y-33453809D02*
X194722857Y-33491904D01*
X194722857Y-33491904D02*
X194646667Y-33491904D01*
X194646667Y-33491904D02*
X194570476Y-33453809D01*
X194570476Y-33453809D02*
X194532381Y-33415714D01*
X194532381Y-33415714D02*
X194494286Y-33339523D01*
X194494286Y-33339523D02*
X194456190Y-33187142D01*
X194456190Y-33187142D02*
X194456190Y-32996666D01*
X194456190Y-32996666D02*
X194494286Y-32844285D01*
X194494286Y-32844285D02*
X194532381Y-32768095D01*
X194532381Y-32768095D02*
X194570476Y-32730000D01*
X194570476Y-32730000D02*
X194646667Y-32691904D01*
X195675238Y-33491904D02*
X195218095Y-33491904D01*
X195446667Y-33491904D02*
X195446667Y-32691904D01*
X195446667Y-32691904D02*
X195370476Y-32806190D01*
X195370476Y-32806190D02*
X195294286Y-32882380D01*
X195294286Y-32882380D02*
X195218095Y-32920476D01*
D11*
%TO.C,J902*%
X195400000Y-142100000D02*
X195400000Y-148500000D01*
X189000000Y-142100000D02*
X195400000Y-142100000D01*
X179650000Y-142100000D02*
X185000000Y-142100000D01*
X179650000Y-145500000D02*
X179650000Y-142100000D01*
X195400000Y-152500000D02*
X195400000Y-157850000D01*
X179650000Y-155350000D02*
X179650000Y-149500000D01*
X195400000Y-157850000D02*
X192200000Y-157850000D01*
X187900000Y-157850000D02*
X181700000Y-157850000D01*
X181700000Y-157850000D02*
X181650000Y-157850000D01*
X181650000Y-157850000D02*
X179650000Y-155350000D01*
%TO.C,J905*%
X220400000Y-142100000D02*
X220400000Y-148500000D01*
X214000000Y-142100000D02*
X220400000Y-142100000D01*
X204650000Y-142100000D02*
X210000000Y-142100000D01*
X204650000Y-145500000D02*
X204650000Y-142100000D01*
X220400000Y-152500000D02*
X220400000Y-157850000D01*
X204650000Y-155350000D02*
X204650000Y-149500000D01*
X220400000Y-157850000D02*
X217200000Y-157850000D01*
X212900000Y-157850000D02*
X206700000Y-157850000D01*
X206700000Y-157850000D02*
X206650000Y-157850000D01*
X206650000Y-157850000D02*
X204650000Y-155350000D01*
%TO.C,RV901*%
X66000000Y-55000000D02*
X66000000Y-31000000D01*
X69000000Y-55000000D02*
X66000000Y-55000000D01*
X74000000Y-55000000D02*
X71000000Y-55000000D01*
X79000000Y-55000000D02*
X76000000Y-55000000D01*
X84000000Y-55000000D02*
X81000000Y-55000000D01*
X66000000Y-31000000D02*
X84000000Y-31000000D01*
X84000000Y-31000000D02*
X84000000Y-55000000D01*
%TO.C,LED1*%
X90065000Y-75045000D02*
X90065000Y-71955000D01*
X84515001Y-73499538D02*
G75*
G03*
X90064999Y-75044830I2989999J-462D01*
G01*
X90065000Y-71955170D02*
G75*
G03*
X84515000Y-73500462I-2560000J-1544830D01*
G01*
X90005000Y-73500000D02*
G75*
G03*
X90005000Y-73500000I-2500000J0D01*
G01*
%TO.C,VR1*%
X136700000Y-81860000D02*
X143300000Y-81860000D01*
X136700000Y-88840000D02*
X136700000Y-81860000D01*
X136700000Y-88840000D02*
X143300000Y-88840000D01*
X138550000Y-85000000D02*
X141450000Y-85000000D01*
X143300000Y-81860000D02*
X143300000Y-88840000D01*
X141450000Y-85000000D02*
G75*
G03*
X141450000Y-85000000I-1450000J0D01*
G01*
%TO.C,RV905*%
X116000000Y-100000000D02*
X116000000Y-76000000D01*
X119000000Y-100000000D02*
X116000000Y-100000000D01*
X124000000Y-100000000D02*
X121000000Y-100000000D01*
X129000000Y-100000000D02*
X126000000Y-100000000D01*
X134000000Y-100000000D02*
X131000000Y-100000000D01*
X116000000Y-76000000D02*
X134000000Y-76000000D01*
X134000000Y-76000000D02*
X134000000Y-100000000D01*
%TO.C,J901*%
X245400000Y-142100000D02*
X245400000Y-148500000D01*
X239000000Y-142100000D02*
X245400000Y-142100000D01*
X229650000Y-142100000D02*
X235000000Y-142100000D01*
X229650000Y-145500000D02*
X229650000Y-142100000D01*
X245400000Y-152500000D02*
X245400000Y-157850000D01*
X229650000Y-155350000D02*
X229650000Y-149500000D01*
X245400000Y-157850000D02*
X242200000Y-157850000D01*
X237900000Y-157850000D02*
X231700000Y-157850000D01*
X231700000Y-157850000D02*
X231650000Y-157850000D01*
X231650000Y-157850000D02*
X229650000Y-155350000D01*
%TO.C,J904*%
X195400000Y-167100000D02*
X195400000Y-173500000D01*
X189000000Y-167100000D02*
X195400000Y-167100000D01*
X179650000Y-167100000D02*
X185000000Y-167100000D01*
X179650000Y-170500000D02*
X179650000Y-167100000D01*
X195400000Y-177500000D02*
X195400000Y-182850000D01*
X179650000Y-180350000D02*
X179650000Y-174500000D01*
X195400000Y-182850000D02*
X192200000Y-182850000D01*
X187900000Y-182850000D02*
X181700000Y-182850000D01*
X181700000Y-182850000D02*
X181650000Y-182850000D01*
X181650000Y-182850000D02*
X179650000Y-180350000D01*
%TO.C,RV903*%
X66000000Y-135000000D02*
X66000000Y-111000000D01*
X69000000Y-135000000D02*
X66000000Y-135000000D01*
X74000000Y-135000000D02*
X71000000Y-135000000D01*
X79000000Y-135000000D02*
X76000000Y-135000000D01*
X84000000Y-135000000D02*
X81000000Y-135000000D01*
X66000000Y-111000000D02*
X84000000Y-111000000D01*
X84000000Y-111000000D02*
X84000000Y-135000000D01*
%TO.C,J903*%
X270400000Y-167100000D02*
X270400000Y-173500000D01*
X264000000Y-167100000D02*
X270400000Y-167100000D01*
X254650000Y-167100000D02*
X260000000Y-167100000D01*
X254650000Y-170500000D02*
X254650000Y-167100000D01*
X270400000Y-177500000D02*
X270400000Y-182850000D01*
X254650000Y-180350000D02*
X254650000Y-174500000D01*
X270400000Y-182850000D02*
X267200000Y-182850000D01*
X262900000Y-182850000D02*
X256700000Y-182850000D01*
X256700000Y-182850000D02*
X256650000Y-182850000D01*
X256650000Y-182850000D02*
X254650000Y-180350000D01*
%TO.C,J908*%
X241450000Y-68310000D02*
X241450000Y-66980000D01*
X242780000Y-68310000D02*
X241450000Y-68310000D01*
X244050000Y-68310000D02*
X261890000Y-68310000D01*
X244050000Y-68310000D02*
X244050000Y-65650000D01*
X261890000Y-68310000D02*
X261890000Y-65650000D01*
X244050000Y-65650000D02*
X261890000Y-65650000D01*
%TO.C,J906*%
X270400000Y-142100000D02*
X270400000Y-148500000D01*
X264000000Y-142100000D02*
X270400000Y-142100000D01*
X254650000Y-142100000D02*
X260000000Y-142100000D01*
X254650000Y-145500000D02*
X254650000Y-142100000D01*
X270400000Y-152500000D02*
X270400000Y-157850000D01*
X254650000Y-155350000D02*
X254650000Y-149500000D01*
X270400000Y-157850000D02*
X267200000Y-157850000D01*
X262900000Y-157850000D02*
X256700000Y-157850000D01*
X256700000Y-157850000D02*
X256650000Y-157850000D01*
X256650000Y-157850000D02*
X254650000Y-155350000D01*
%TO.C,RV904*%
X116000000Y-55000000D02*
X116000000Y-31000000D01*
X119000000Y-55000000D02*
X116000000Y-55000000D01*
X124000000Y-55000000D02*
X121000000Y-55000000D01*
X129000000Y-55000000D02*
X126000000Y-55000000D01*
X134000000Y-55000000D02*
X131000000Y-55000000D01*
X116000000Y-31000000D02*
X134000000Y-31000000D01*
X134000000Y-31000000D02*
X134000000Y-55000000D01*
%TO.C,TP905*%
X146470000Y-124130000D02*
G75*
G03*
X146470000Y-124130000I-950000J0D01*
G01*
%TO.C,TP904*%
X146470000Y-116510000D02*
G75*
G03*
X146470000Y-116510000I-950000J0D01*
G01*
%TO.C,SW901*%
X96570000Y-113650000D02*
X103420000Y-113650000D01*
X96570000Y-126340000D02*
X96570000Y-113650000D01*
X103420000Y-113650000D02*
X103420000Y-113660000D01*
X103430000Y-113650000D02*
X103430000Y-126350000D01*
X103430000Y-126350000D02*
X96570000Y-126350000D01*
%TO.C,J910*%
X264430000Y-107560000D02*
X264430000Y-108890000D01*
X263100000Y-107560000D02*
X264430000Y-107560000D01*
X261830000Y-107560000D02*
X241450000Y-107560000D01*
X261830000Y-107560000D02*
X261830000Y-110220000D01*
X241450000Y-107560000D02*
X241450000Y-110220000D01*
X261830000Y-110220000D02*
X241450000Y-110220000D01*
%TO.C,RV902*%
X66000000Y-100000000D02*
X66000000Y-76000000D01*
X69000000Y-100000000D02*
X66000000Y-100000000D01*
X74000000Y-100000000D02*
X71000000Y-100000000D01*
X79000000Y-100000000D02*
X76000000Y-100000000D01*
X84000000Y-100000000D02*
X81000000Y-100000000D01*
X66000000Y-76000000D02*
X84000000Y-76000000D01*
X84000000Y-76000000D02*
X84000000Y-100000000D01*
%TO.C,TP906*%
X146470000Y-130480000D02*
G75*
G03*
X146470000Y-130480000I-950000J0D01*
G01*
%TD*%
M02*
